<svg width="56" height="37" viewBox="0 0 56 37" fill="none" xmlns="http://www.w3.org/2000/svg">
<g filter="url(#filter0_d_141_839)">
<path d="M46.7539 1.11035C47.5104 1.18707 48.1006 1.82582 48.1006 2.60254C48.1006 3.37926 47.5104 4.018 46.7539 4.09473L46.6006 4.10254H13.2637C11.6944 4.10262 10.3297 4.58843 9.38965 5.30371C8.45068 6.01821 8 6.89735 8 7.75C8.00014 8.60253 8.45083 9.48092 9.38965 10.1953C10.3297 10.9106 11.6943 11.3964 13.2637 11.3965H46.6006L46.7539 11.4043C47.5103 11.481 48.1005 12.1198 48.1006 12.8965C48.1006 13.6732 47.5104 14.312 46.7539 14.3887L46.6006 14.3965H13.2637C11.0979 14.3964 9.08108 13.7302 7.57324 12.583C6.06421 11.4347 5.00014 9.73982 5 7.75C5 5.76001 6.06411 4.06438 7.57324 2.91602C9.08107 1.76881 11.0979 1.10262 13.2637 1.10254H46.6006L46.7539 1.11035Z" fill="#FF592F"/>
<path d="M9.34766 15.0078C8.59118 15.0845 8.00098 15.7233 8.00098 16.5C8.00098 17.2767 8.59118 17.9155 9.34766 17.9922L9.50098 18H42.8379C44.4072 18.0001 45.7719 18.4859 46.7119 19.2012C47.6509 19.9157 48.1016 20.7948 48.1016 21.6475C48.1014 22.5 47.6507 23.3784 46.7119 24.0928C45.7719 24.8081 44.4072 25.2939 42.8379 25.2939H9.50098L9.34766 25.3018C8.59123 25.3785 8.00107 26.0173 8.00098 26.7939C8.00098 27.5707 8.59118 28.2094 9.34766 28.2861L9.50098 28.2939H42.8379C45.0037 28.2939 47.0205 27.6277 48.5283 26.4805C50.0374 25.3322 51.1014 23.6373 51.1016 21.6475C51.1016 19.6575 50.0375 17.9618 48.5283 16.8135C47.0205 15.6663 45.0037 15.0001 42.8379 15H9.50098L9.34766 15.0078Z" fill="#3179FF"/>
<path d="M14 6H44.5" stroke="black" stroke-linecap="round" stroke-linejoin="round"/>
<path d="M42.1016 19.8975H11.6016" stroke="black" stroke-linecap="round" stroke-linejoin="round"/>
<path d="M14 10H44.5" stroke="black" stroke-linecap="round" stroke-linejoin="round"/>
<path d="M42.1016 23.8975H11.6016" stroke="black" stroke-linecap="round" stroke-linejoin="round"/>
<path d="M14 8H42" stroke="black" stroke-linecap="round" stroke-linejoin="round"/>
<path d="M42.1016 21.8975H14.1016" stroke="black" stroke-linecap="round" stroke-linejoin="round"/>
<path d="M16.5 1H12C9.83333 1.16667 5.4 2.8 5 8" stroke="black" stroke-linecap="round" stroke-linejoin="round"/>
<path d="M28 14H47.5" stroke="black" stroke-linecap="round" stroke-linejoin="round"/>
<path d="M6 15H25.5" stroke="black" stroke-linecap="round" stroke-linejoin="round"/>
<path d="M11 28H42" stroke="black" stroke-linecap="round" stroke-linejoin="round"/>
</g>
<defs>
<filter id="filter0_d_141_839" x="0.5" y="0.5" width="54.6016" height="36" filterUnits="userSpaceOnUse" color-interpolation-filters="sRGB">
<feFlood flood-opacity="0" result="BackgroundImageFix"/>
<feColorMatrix in="SourceAlpha" type="matrix" values="0 0 0 0 0 0 0 0 0 0 0 0 0 0 0 0 0 0 127 0" result="hardAlpha"/>
<feOffset dy="4"/>
<feGaussianBlur stdDeviation="2"/>
<feComposite in2="hardAlpha" operator="out"/>
<feColorMatrix type="matrix" values="0 0 0 0 0 0 0 0 0 0 0 0 0 0 0 0 0 0 0.25 0"/>
<feBlend mode="normal" in2="BackgroundImageFix" result="effect1_dropShadow_141_839"/>
<feBlend mode="normal" in="SourceGraphic" in2="effect1_dropShadow_141_839" result="shape"/>
</filter>
</defs>
</svg>
