<svg width="160" height="87" viewBox="0 0 160 87" fill="none" xmlns="http://www.w3.org/2000/svg">
<path d="M0 60.75C0 50.3947 8.39466 42 18.75 42C33.2475 42 45 53.7525 45 68.25V81.375C45 84.4816 42.4816 87 39.375 87H7.5C3.35787 87 0 83.6421 0 79.5V60.75Z" fill="#FF39A5"/>
<path d="M49 18.75C49 8.39466 57.3947 0 67.75 0C82.2475 0 94 11.7525 94 26.25V77C94 82.5228 89.5228 87 84 87H59C53.4772 87 49 82.5229 49 77V18.75Z" fill="#3179FF"/>
<circle cx="11" cy="61" r="2" fill="black"/>
<ellipse cx="18.5" cy="61" rx="2.5" ry="2" fill="black"/>
<path d="M13 69.6407C14.9 71.1078 19.36 72.6336 22 67" stroke="black" stroke-width="3" stroke-linecap="round"/>
<path d="M75.5431 22.9073C74.1414 20.9037 70.2808 18.0975 66.0519 22.9015" stroke="black" stroke-width="3" stroke-linecap="round"/>
<path d="M89.2794 22.9073C87.8777 20.9037 84.0172 18.0975 79.7882 22.9015" stroke="black" stroke-width="3" stroke-linecap="round"/>
<path d="M84.4932 34.2354C85.5333 34.3009 86.281 34.6155 86.7822 35.3428L86.8799 35.4941C86.9385 35.5921 86.9952 35.6908 87.0498 35.79L87.207 36.0898C87.7477 37.1607 87.9999 38.1529 88 38.7021C88 39.5869 87.2649 40.6523 85.4746 41.5557C83.7414 42.4301 81.2767 43 78.5 43C75.7233 43 73.2586 42.4301 71.5254 41.5557C69.7351 40.6523 69 39.5869 69 38.7021C69.0001 38.2216 69.1932 37.4021 69.6035 36.4873L69.793 36.0898L69.999 35.7031C70.5081 34.8 71.3364 34.4113 72.5293 34.3203C73.4641 34.2491 74.5065 34.3705 75.6104 34.5352L76.7334 34.709C77.7541 34.8676 78.8719 34.906 80.0459 34.75L80.5518 34.6719C81.9857 34.4149 83.3289 34.162 84.4932 34.2354Z" fill="white" stroke="black" stroke-width="2"/>
<circle cx="101.5" cy="19.5" r="0.5" fill="#D9D9D9"/>
<path d="M76 35L75 43" stroke="black" stroke-width="2"/>
<path d="M81 35L83 43" stroke="black" stroke-width="2"/>
<path d="M98 53.9389C98 47.0296 103.601 41.4286 110.51 41.4286C112.476 41.4286 114.414 40.9655 116.167 40.0768L124.042 36.0849C127.319 34.4235 130.875 33.3813 134.531 33.0107L137.753 32.684C142.131 32.2402 146.534 33.2374 150.294 35.5243C156.321 39.1907 160 45.7348 160 52.7895V78.4179C160 83.1577 156.158 87 151.418 87H103.258C100.354 87 98 84.6458 98 81.7418V53.9389Z" fill="#16F14F"/>
<path d="M127.763 53.3264C129.277 53.8386 130.154 55.4457 129.734 57.0121C129.297 58.6431 127.621 59.6111 125.99 59.1741C124.423 58.7545 123.469 57.1921 123.782 55.6245L127.763 53.3264Z" fill="black" stroke="black"/>
<path d="M113.072 53.3264C111.557 53.8386 110.681 55.4457 111.101 57.0121C111.538 58.6431 113.214 59.6111 114.845 59.1741C116.411 58.7545 117.366 57.1921 117.053 55.6245L113.072 53.3264Z" fill="black" stroke="black"/>
<path d="M130.357 65.947C128.111 64.9802 123.351 64.6241 122.281 70.9342" stroke="black" stroke-width="3" stroke-linecap="round"/>
</svg>
