<svg xmlns="http://www.w3.org/2000/svg" width="150" height="150" viewBox="0 0 150 150" version="1.1"><path d="M 113 29.055 C 112.050 29.704, 107.255 29.845, 99.915 29.439 C 88.828 28.826, 88.114 28.909, 83.283 31.356 C 77.851 34.109, 72.959 39.512, 70.332 45.662 C 68.952 48.889, 68.727 52.976, 68.916 71.350 C 69.039 83.368, 69.381 93.830, 69.677 94.600 C 70.494 96.731, 75.745 96.346, 76.965 94.066 C 77.565 92.945, 78 84.804, 78 74.702 L 78 57.272 82.534 56.650 C 93.359 55.167, 106.456 46.575, 112.509 36.986 C 117.390 29.254, 117.596 25.915, 113 29.055 M 86.571 32.488 C 84.410 33.257, 80.810 35.786, 78.571 38.107 L 74.500 42.326 78.965 38.634 C 81.429 36.596, 86.134 34.083, 89.465 33.027 C 92.990 31.909, 94.460 31.107, 93 31.100 C 91.625 31.093, 88.732 31.718, 86.571 32.488 M 42.796 107.750 L 42.500 114.500 38.750 114.810 C 36.297 115.013, 35 115.619, 35 116.560 C 35 117.620, 36.311 118, 39.965 118 C 46.107 118, 47 116.675, 47 107.566 C 47 101.718, 46.786 101, 45.046 101 C 43.329 101, 43.055 101.820, 42.796 107.750 M 85.405 103.504 C 83.401 105.508, 83 106.906, 83 111.896 C 83 117.767, 84.199 120.529, 85.395 117.412 C 85.728 116.546, 86 114.342, 86 112.516 C 86 109.759, 86.487 109.026, 88.871 108.195 C 91.532 107.267, 96 103.400, 96 102.024 C 96 101.695, 94.157 101.352, 91.905 101.262 C 88.776 101.137, 87.244 101.665, 85.405 103.504 M 50.923 105.923 C 49.315 107.531, 48 109.535, 48 110.376 C 48 114.938, 52.283 119, 57.093 119 C 60.176 119, 64 114.571, 64 111 C 64 107.145, 60.098 103, 56.469 103 C 54.903 103, 52.668 104.179, 50.923 105.923 M 68.635 105.073 C 63.666 108.981, 66.053 118, 72.057 118 C 75.609 118, 75.919 116.300, 72.597 115.037 C 69.470 113.848, 68.672 112.442, 69.425 109.443 C 69.928 107.438, 70.662 107, 73.519 107 L 77 107 77 112.500 C 77 117.333, 77.242 118, 79 118 C 80.822 118, 81 117.333, 81 110.500 L 81 103 76.135 103 C 72.727 103, 70.480 103.621, 68.635 105.073 M 95.507 105.403 C 94.128 106.781, 93 108.994, 93 110.320 C 93 113.736, 96.649 118, 99.573 118 C 102.666 118, 102.819 115.255, 99.750 114.820 C 98.037 114.576, 97.426 113.740, 97.192 111.316 C 96.840 107.688, 99.227 105.724, 102.838 106.668 C 104.716 107.159, 105 107.940, 105 112.617 C 105 117.372, 105.238 118, 107.044 118 C 108.941 118, 109.067 117.481, 108.794 110.750 L 108.500 103.500 103.257 103.198 C 98.769 102.939, 97.652 103.257, 95.507 105.403 M 53.750 107.080 C 51.249 108.537, 51.453 113.637, 54.067 115.036 C 55.675 115.896, 56.675 115.788, 58.567 114.548 C 61.601 112.560, 61.690 109.597, 58.777 107.557 C 56.193 105.746, 56.061 105.734, 53.750 107.080" stroke="none" fill="#afcd37" fill-rule="evenodd"/><path d="M 66 1.933 C 58.967 4.779, 53.503 10.183, 49.980 17.777 C 42.778 33.301, 41.611 35.205, 37.270 38.520 C 34.849 40.368, 29.861 42.869, 26.184 44.078 C 12.892 48.448, 8.194 52.015, 3.236 61.500 C 1.090 65.606, 0.550 68.199, 0.218 76 C -0.295 88.032, 1.591 96.480, 7.470 108.500 C 15.145 124.188, 25.797 134.838, 41.500 142.524 C 53.298 148.298, 60.820 149.970, 75 149.970 C 89.180 149.970, 96.702 148.298, 108.500 142.524 C 124.216 134.832, 134.881 124.164, 142.512 108.500 C 144.923 103.550, 147.399 97.250, 148.014 94.500 C 148.629 91.750, 149.553 88.719, 150.066 87.764 C 151.638 84.840, 151.082 70.026, 149.024 60 C 145.578 43.215, 136.264 27.558, 123.258 16.686 C 116.259 10.836, 101.824 3.615, 93 1.550 C 84.054 -0.543, 71.684 -0.367, 66 1.933 M 113 29.055 C 112.050 29.704, 107.255 29.845, 99.915 29.439 C 88.828 28.826, 88.114 28.909, 83.283 31.356 C 77.851 34.109, 72.959 39.512, 70.332 45.662 C 68.952 48.889, 68.727 52.976, 68.916 71.350 C 69.039 83.368, 69.381 93.830, 69.677 94.600 C 70.494 96.731, 75.745 96.346, 76.965 94.066 C 77.565 92.945, 78 84.804, 78 74.702 L 78 57.272 82.534 56.650 C 93.359 55.167, 106.456 46.575, 112.509 36.986 C 117.390 29.254, 117.596 25.915, 113 29.055 M 86.571 32.488 C 84.410 33.257, 80.810 35.786, 78.571 38.107 L 74.500 42.326 78.965 38.634 C 81.429 36.596, 86.134 34.083, 89.465 33.027 C 92.990 31.909, 94.460 31.107, 93 31.100 C 91.625 31.093, 88.732 31.718, 86.571 32.488 M 0.365 78.500 C 0.368 84, 0.536 86.122, 0.738 83.216 C 0.941 80.311, 0.939 75.811, 0.734 73.216 C 0.528 70.622, 0.363 73, 0.365 78.500 M 42.796 107.750 L 42.500 114.500 38.750 114.810 C 36.297 115.013, 35 115.619, 35 116.560 C 35 117.620, 36.311 118, 39.965 118 C 46.107 118, 47 116.675, 47 107.566 C 47 101.718, 46.786 101, 45.046 101 C 43.329 101, 43.055 101.820, 42.796 107.750 M 85.405 103.504 C 83.401 105.508, 83 106.906, 83 111.896 C 83 117.767, 84.199 120.529, 85.395 117.412 C 85.728 116.546, 86 114.342, 86 112.516 C 86 109.759, 86.487 109.026, 88.871 108.195 C 91.532 107.267, 96 103.400, 96 102.024 C 96 101.695, 94.157 101.352, 91.905 101.262 C 88.776 101.137, 87.244 101.665, 85.405 103.504 M 50.923 105.923 C 49.315 107.531, 48 109.535, 48 110.376 C 48 114.938, 52.283 119, 57.093 119 C 60.176 119, 64 114.571, 64 111 C 64 107.145, 60.098 103, 56.469 103 C 54.903 103, 52.668 104.179, 50.923 105.923 M 68.635 105.073 C 63.666 108.981, 66.053 118, 72.057 118 C 75.609 118, 75.919 116.300, 72.597 115.037 C 69.470 113.848, 68.672 112.442, 69.425 109.443 C 69.928 107.438, 70.662 107, 73.519 107 L 77 107 77 112.500 C 77 117.333, 77.242 118, 79 118 C 80.822 118, 81 117.333, 81 110.500 L 81 103 76.135 103 C 72.727 103, 70.480 103.621, 68.635 105.073 M 95.507 105.403 C 94.128 106.781, 93 108.994, 93 110.320 C 93 113.736, 96.649 118, 99.573 118 C 102.666 118, 102.819 115.255, 99.750 114.820 C 98.037 114.576, 97.426 113.740, 97.192 111.316 C 96.840 107.688, 99.227 105.724, 102.838 106.668 C 104.716 107.159, 105 107.940, 105 112.617 C 105 117.372, 105.238 118, 107.044 118 C 108.941 118, 109.067 117.481, 108.794 110.750 L 108.500 103.500 103.257 103.198 C 98.769 102.939, 97.652 103.257, 95.507 105.403 M 53.750 107.080 C 51.249 108.537, 51.453 113.637, 54.067 115.036 C 55.675 115.896, 56.675 115.788, 58.567 114.548 C 61.601 112.560, 61.690 109.597, 58.777 107.557 C 56.193 105.746, 56.061 105.734, 53.750 107.080" stroke="none" fill="#1e4294" fill-rule="evenodd"/></svg>