<svg width="53" height="57" viewBox="0 0 53 57" fill="none" xmlns="http://www.w3.org/2000/svg">
<path d="M13 39C13 38.4477 13.4477 38 14 38H19C19.5523 38 20 38.4477 20 39V56H13V39Z" fill="#FF592F"/>
<path d="M21 13C21 12.4477 21.4477 12 22 12H27C27.5523 12 28 12.4477 28 13V26H21V13Z" fill="#3179FF"/>
<path d="M21 39C21 38.4477 21.4477 38 22 38H27C27.5523 38 28 38.4477 28 39V56H21V39Z" fill="#3179FF"/>
<path d="M30 39C30 38.4477 30.4477 38 31 38H36C36.5523 38 37 38.4477 37 39V56H30V39Z" fill="#FF592F"/>
<path d="M28.1477 14.1588C27.9885 13.63 28.2881 13.0722 28.8169 12.913L33.4411 11.5206C33.9699 11.3614 34.5277 11.661 34.687 12.1899L38.0483 23.3533C38.2075 23.8822 37.9079 24.44 37.379 24.5992L32.7548 25.9915C32.226 26.1508 31.6682 25.8511 31.509 25.3223L28.1477 14.1588Z" fill="#3179FF"/>
<path d="M13 13C13 12.4477 13.4477 12 14 12H19C19.5523 12 20 12.4477 20 13V26H13V13Z" fill="#3179FF"/>
<path d="M50.9023 1L51.1064 1.01074C52.1152 1.11296 52.9023 1.96432 52.9023 3V55C52.9023 56.1046 52.0069 57 50.9023 57H49.4395C48.3349 57 47.4395 56.1046 47.4395 55V33.7803H6.46387V55C6.46387 56.1044 5.56823 56.9998 4.46387 57H3C1.89543 57 1 56.1046 1 55V3C1 1.89543 1.89543 1 3 1H50.9023ZM6.46387 6.46387V25.585H47.4395V6.46387H6.46387Z" fill="#FF592F"/>
<path d="M50.9023 1L51.1064 1.01074C52.1152 1.11296 52.9023 1.96432 52.9023 3V55C52.9023 56.1046 52.0069 57 50.9023 57H49.4395C48.3349 57 47.4395 56.1046 47.4395 55V33.7803H6.46387V55C6.46387 56.1044 5.56823 56.9998 4.46387 57H3C1.89543 57 1 56.1046 1 55V3C1 1.89543 1.89543 1 3 1H50.9023ZM6.46387 6.46387V25.585H47.4395V6.46387H6.46387Z" fill="#FF592F"/>
<path d="M18 12C16.9131 12 15.1173 12 13.9995 12C13.4472 12 13 12.4477 13 13V25" stroke="black" stroke-linecap="round" stroke-linejoin="round"/>
<path d="M26 12C24.9131 12 23.1173 12 21.9995 12C21.4472 12 21 12.4477 21 13V25" stroke="black" stroke-linecap="round" stroke-linejoin="round"/>
<path d="M33.0165 11.555C31.9759 11.8688 30.2566 12.3873 29.1864 12.7101C28.6576 12.8695 28.3588 13.4273 28.5182 13.9561L31.9831 25.445" stroke="black" stroke-linecap="round" stroke-linejoin="round"/>
<path d="M18 38C16.9131 38 15.1173 38 13.9995 38C13.4472 38 13 38.4477 13 39V55" stroke="black" stroke-linecap="round" stroke-linejoin="round"/>
<path d="M26 38C24.9131 38 23.1173 38 21.9995 38C21.4472 38 21 38.4477 21 39V55" stroke="black" stroke-linecap="round" stroke-linejoin="round"/>
<path d="M35 38C33.9131 38 32.1173 38 30.9995 38C30.4472 38 30 38.4477 30 39V55" stroke="black" stroke-linecap="round" stroke-linejoin="round"/>
<path d="M3 1H49" stroke="black" stroke-linecap="round" stroke-linejoin="round"/>
<path d="M1 4V55" stroke="black" stroke-linecap="round" stroke-linejoin="round"/>
</svg>
