<svg xmlns="http://www.w3.org/2000/svg" width="120" height="120" viewBox="0 0 120 120" version="1.1"><path d="M 56.643 17.250 C 55.285 18.488, 41.985 36.030, 27.087 56.234 L -0 92.968 -0 106.106 C -0 117.078, 0.225 119.059, 1.362 118.115 C 2.110 117.493, 13.661 99.889, 27.030 78.994 C 40.399 58.099, 51.496 41.162, 51.690 41.357 C 51.884 41.551, 50.908 50.405, 49.521 61.032 C 46.337 85.435, 46.324 88.102, 49.370 91.644 C 52.308 95.059, 57.674 95.381, 61.690 92.382 C 63.176 91.272, 70.258 81.030, 77.426 69.622 C 84.595 58.214, 90.617 49.350, 90.808 49.924 C 91 50.499, 90.189 58.610, 89.006 67.949 C 87.173 82.435, 87.052 85.337, 88.188 87.705 C 91.144 93.874, 98.172 94.113, 104.990 88.276 C 113.145 81.296, 116.363 68.440, 108.698 73.462 C 107.401 74.312, 106.139 74.806, 105.893 74.560 C 105.648 74.314, 106.218 66.100, 107.162 56.307 C 109.517 31.860, 109.494 27.494, 107 25 C 103.987 21.987, 98.789 22.361, 95.327 25.841 C 93.772 27.404, 86.875 36.593, 80 46.262 C 70.047 60.259, 67.437 63.362, 67.190 61.492 C 67.020 60.200, 67.583 51.439, 68.440 42.023 C 70.436 20.113, 70.445 20.354, 67.545 17.455 C 64.424 14.333, 59.936 14.249, 56.643 17.250" stroke="none" fill="#f5fafb" fill-rule="evenodd"/><path d="M 0 46.167 C 0 71.558, 0.338 92.007, 0.750 91.608 C 1.163 91.209, 13.890 74.152, 29.034 53.704 C 48.071 27.997, 57.362 16.245, 59.143 15.619 C 62.726 14.359, 66.673 15.571, 68.610 18.527 C 70.125 20.839, 70.117 22.517, 68.498 41.387 C 67.537 52.588, 66.919 62.222, 67.125 62.796 C 67.331 63.371, 73.125 55.930, 80 46.262 C 86.875 36.593, 93.772 27.404, 95.327 25.841 C 98.789 22.361, 103.987 21.987, 107 25 C 109.494 27.494, 109.517 31.860, 107.162 56.307 C 106.218 66.100, 105.648 74.314, 105.893 74.560 C 106.139 74.806, 107.401 74.312, 108.698 73.462 C 116.363 68.440, 113.145 81.296, 104.990 88.276 C 98.172 94.113, 91.144 93.874, 88.188 87.705 C 87.052 85.337, 87.173 82.435, 89.006 67.949 C 90.189 58.610, 91 50.499, 90.808 49.924 C 90.617 49.350, 84.595 58.214, 77.426 69.622 C 70.258 81.030, 63.176 91.272, 61.690 92.382 C 57.674 95.381, 52.308 95.059, 49.370 91.644 C 46.324 88.102, 46.337 85.435, 49.521 61.032 C 50.908 50.405, 51.886 41.553, 51.694 41.361 C 51.502 41.169, 41.083 57.097, 28.540 76.756 C 15.997 96.415, 4.420 114.191, 2.814 116.258 L -0.107 120.016 60.080 119.758 L 120.267 119.500 120.772 59.750 L 121.278 0 60.639 0 L 0 0 0 46.167 M 0.461 46.500 C 0.461 71.800, 0.591 82.007, 0.749 69.181 C 0.908 56.356, 0.907 35.656, 0.749 23.181 C 0.590 10.707, 0.461 21.200, 0.461 46.500" stroke="none" fill="#2d84f1" fill-rule="evenodd"/></svg>