<svg width="412" height="732" viewBox="0 0 412 732" fill="none" xmlns="http://www.w3.org/2000/svg">
<rect width="412" height="732" fill="#F5F5F5"/>
<rect x="86.5" y="223.5" width="229" height="387" rx="19.5" fill="#242424" stroke="#F5F5F5"/>
<g clip-path="url(#clip0_169_894)">
<rect x="98" y="235" width="206" height="364" rx="14" fill="white"/>
</g>
<g filter="url(#filter0_d_169_894)">
<path d="M16 258.497C16 251.87 21.3726 246.497 28 246.497H374C380.627 246.497 386 251.87 386 258.497V354.497C386 361.125 380.627 366.497 374 366.497H28C21.3726 366.497 16 361.125 16 354.497V258.497Z" fill="white"/>
</g>
<path d="M74.6829 266.739H75.6349V268.783C75.6349 269.455 75.5416 270.118 75.3549 270.771C75.1682 271.415 74.9069 272.026 74.5709 272.605C74.2442 273.174 73.8616 273.678 73.4229 274.117C72.9842 274.556 72.5129 274.901 72.0089 275.153L71.3369 274.229C71.7942 274.005 72.2236 273.702 72.6249 273.319C73.0356 272.936 73.3949 272.498 73.7029 272.003C74.0109 271.508 74.2489 270.986 74.4169 270.435C74.5942 269.884 74.6829 269.334 74.6829 268.783V266.739ZM74.9209 266.739H75.8589V268.783C75.8589 269.315 75.9429 269.847 76.1109 270.379C76.2882 270.902 76.5309 271.396 76.8389 271.863C77.1562 272.32 77.5156 272.726 77.9169 273.081C78.3276 273.436 78.7662 273.716 79.2329 273.921L78.5889 274.845C78.0756 274.602 77.5949 274.276 77.1469 273.865C76.6989 273.454 76.3069 272.983 75.9709 272.451C75.6442 271.91 75.3876 271.331 75.2009 270.715C75.0142 270.09 74.9209 269.446 74.9209 268.783V266.739ZM71.7429 266.221H78.8129V267.187H71.7429V266.221ZM80.5349 264.919H81.6969V277.589H80.5349V264.919Z" fill="#686868"/>
<path d="M67.2361 264.919H68.3981V277.589H67.2361V264.919ZM68.0201 270.141H70.2881V271.107H68.0201V270.141ZM61.1741 266.291H62.2521C62.2521 267.047 62.2054 267.798 62.1121 268.545C62.0188 269.292 61.8601 270.024 61.6361 270.743C61.4214 271.462 61.1228 272.157 60.7401 272.829C60.3668 273.492 59.8954 274.126 59.3261 274.733L58.4021 274.075C58.9154 273.534 59.3494 272.964 59.7041 272.367C60.0681 271.77 60.3574 271.149 60.5721 270.505C60.7868 269.861 60.9408 269.198 61.0341 268.517C61.1274 267.826 61.1741 267.126 61.1741 266.417V266.291ZM58.8081 266.291H61.6081V267.257H58.8081V266.291ZM64.6321 266.291H65.7101C65.7101 267.056 65.6728 267.84 65.5981 268.643C65.5328 269.446 65.3974 270.248 65.1921 271.051C64.9961 271.854 64.7161 272.638 64.3521 273.403C63.9974 274.168 63.5261 274.892 62.9381 275.573L62.0001 274.929C62.5414 274.313 62.9801 273.66 63.3161 272.969C63.6614 272.278 63.9274 271.569 64.1141 270.841C64.3008 270.104 64.4314 269.362 64.5061 268.615C64.5901 267.868 64.6321 267.131 64.6321 266.403V266.291ZM62.6581 266.291H65.0941V267.257H62.6581V266.291Z" fill="#686868"/>
<path d="M47.1182 267.929H55.7002V268.881H47.1182V267.929ZM45.5642 270.113H57.0442V271.065H45.5642V270.113ZM47.1182 265.115H48.2522V268.377H47.1182V265.115ZM46.9922 272.185H55.5882V275.167H48.1822V276.791H47.0202V274.299H54.4402V273.095H46.9922V272.185ZM47.0202 276.497H56.0222V277.421H47.0202V276.497Z" fill="#686868"/>
<path d="M37.8377 272.073H38.9857V275.223H37.8377V272.073ZM38.4117 265.745C39.3077 265.745 40.101 265.885 40.7917 266.165C41.4824 266.436 42.0237 266.818 42.4157 267.313C42.817 267.808 43.0177 268.391 43.0177 269.063C43.0177 269.735 42.817 270.323 42.4157 270.827C42.0237 271.322 41.4824 271.704 40.7917 271.975C40.101 272.246 39.3077 272.381 38.4117 272.381C37.525 272.381 36.7317 272.246 36.0317 271.975C35.341 271.704 34.7997 271.322 34.4077 270.827C34.0157 270.323 33.8197 269.735 33.8197 269.063C33.8197 268.391 34.0157 267.808 34.4077 267.313C34.7997 266.818 35.341 266.436 36.0317 266.165C36.7317 265.885 37.525 265.745 38.4117 265.745ZM38.4117 266.683C37.7397 266.683 37.1424 266.781 36.6197 266.977C36.097 267.173 35.6864 267.453 35.3877 267.817C35.089 268.172 34.9397 268.587 34.9397 269.063C34.9397 269.539 35.089 269.959 35.3877 270.323C35.6864 270.687 36.097 270.967 36.6197 271.163C37.1424 271.359 37.7397 271.457 38.4117 271.457C39.0837 271.457 39.681 271.359 40.2037 271.163C40.7264 270.967 41.137 270.687 41.4357 270.323C41.7437 269.959 41.8977 269.539 41.8977 269.063C41.8977 268.587 41.7437 268.172 41.4357 267.817C41.137 267.453 40.7264 267.173 40.2037 266.977C39.681 266.781 39.0837 266.683 38.4117 266.683ZM32.6997 274.999H44.1797V275.965H32.6997V274.999Z" fill="#686868"/>
<path d="M373.118 345.679C372.866 345.679 372.646 345.59 372.46 345.413C372.282 345.226 372.194 344.993 372.194 344.713C372.194 344.414 372.282 344.176 372.46 343.999C372.646 343.822 372.866 343.733 373.118 343.733C373.37 343.733 373.584 343.822 373.762 343.999C373.948 344.176 374.042 344.414 374.042 344.713C374.042 344.993 373.948 345.226 373.762 345.413C373.584 345.59 373.37 345.679 373.118 345.679Z" fill="#686868"/>
<path d="M361.806 340.443H362.954V344.223H361.806V340.443ZM366.482 340.443H367.644V344.223H366.482V340.443ZM358.992 343.999H370.472V344.965H358.992V343.999ZM364.704 334.717C365.6 334.717 366.394 334.852 367.084 335.123C367.775 335.393 368.316 335.771 368.708 336.257C369.11 336.742 369.31 337.316 369.31 337.979C369.31 338.632 369.11 339.206 368.708 339.701C368.316 340.186 367.775 340.564 367.084 340.835C366.394 341.096 365.6 341.227 364.704 341.227C363.818 341.227 363.024 341.096 362.324 340.835C361.634 340.564 361.092 340.186 360.7 339.701C360.308 339.206 360.112 338.632 360.112 337.979C360.112 337.316 360.308 336.742 360.7 336.257C361.092 335.771 361.634 335.393 362.324 335.123C363.024 334.852 363.818 334.717 364.704 334.717ZM364.704 335.641C364.032 335.641 363.435 335.739 362.912 335.935C362.39 336.131 361.979 336.406 361.68 336.761C361.382 337.106 361.232 337.512 361.232 337.979C361.232 338.445 361.382 338.856 361.68 339.211C361.979 339.556 362.39 339.827 362.912 340.023C363.435 340.219 364.032 340.317 364.704 340.317C365.386 340.317 365.988 340.219 366.51 340.023C367.033 339.827 367.444 339.556 367.742 339.211C368.041 338.856 368.19 338.445 368.19 337.979C368.19 337.512 368.041 337.106 367.742 336.761C367.444 336.406 367.033 336.131 366.51 335.935C365.988 335.739 365.386 335.641 364.704 335.641Z" fill="#686868"/>
<path d="M349.488 334.899C350.104 334.899 350.65 335.081 351.126 335.445C351.602 335.8 351.971 336.308 352.232 336.971C352.503 337.634 352.638 338.413 352.638 339.309C352.638 340.205 352.503 340.984 352.232 341.647C351.971 342.31 351.602 342.823 351.126 343.187C350.65 343.551 350.104 343.733 349.488 343.733C348.881 343.733 348.335 343.551 347.85 343.187C347.374 342.823 347.001 342.31 346.73 341.647C346.469 340.984 346.338 340.205 346.338 339.309C346.338 338.413 346.469 337.634 346.73 336.971C347.001 336.308 347.374 335.8 347.85 335.445C348.335 335.081 348.881 334.899 349.488 334.899ZM349.488 335.935C349.087 335.935 348.732 336.075 348.424 336.355C348.116 336.626 347.873 337.018 347.696 337.531C347.528 338.035 347.444 338.628 347.444 339.309C347.444 339.99 347.528 340.588 347.696 341.101C347.873 341.605 348.116 341.997 348.424 342.277C348.732 342.557 349.087 342.697 349.488 342.697C349.899 342.697 350.258 342.557 350.566 342.277C350.874 341.997 351.112 341.605 351.28 341.101C351.457 340.588 351.546 339.99 351.546 339.309C351.546 338.628 351.457 338.035 351.28 337.531C351.112 337.018 350.874 336.626 350.566 336.355C350.258 336.075 349.899 335.935 349.488 335.935ZM355.382 333.919H356.53V346.603H355.382V333.919ZM352.26 338.749H355.9V339.687H352.26V338.749Z" fill="#686868"/>
<path d="M342.797 333.933H343.903V341.773H342.797V333.933ZM340.725 337.405H343.119V338.357H340.725V337.405ZM340.109 334.129H341.201V341.577H340.109V334.129ZM333.165 335.361H339.577V336.299H333.165V335.361ZM336.385 336.929C336.917 336.929 337.383 337.022 337.785 337.209C338.195 337.386 338.513 337.638 338.737 337.965C338.97 338.282 339.087 338.66 339.087 339.099C339.087 339.528 338.97 339.906 338.737 340.233C338.513 340.56 338.195 340.816 337.785 341.003C337.383 341.18 336.917 341.269 336.385 341.269C335.862 341.269 335.395 341.18 334.985 341.003C334.574 340.816 334.257 340.56 334.033 340.233C333.809 339.906 333.697 339.528 333.697 339.099C333.697 338.66 333.809 338.282 334.033 337.965C334.257 337.638 334.574 337.386 334.985 337.209C335.395 337.022 335.862 336.929 336.385 336.929ZM336.385 337.797C335.899 337.797 335.503 337.914 335.195 338.147C334.887 338.38 334.733 338.698 334.733 339.099C334.733 339.491 334.887 339.808 335.195 340.051C335.503 340.284 335.899 340.401 336.385 340.401C336.879 340.401 337.276 340.284 337.575 340.051C337.883 339.808 338.037 339.491 338.037 339.099C338.037 338.698 337.883 338.38 337.575 338.147C337.276 337.914 336.879 337.797 336.385 337.797ZM335.811 333.975H336.959V335.921H335.811V333.975ZM336.567 342.151H337.477V342.571C337.477 343.103 337.36 343.626 337.127 344.139C336.903 344.643 336.576 345.096 336.147 345.497C335.717 345.898 335.195 346.211 334.579 346.435L334.033 345.553C334.565 345.376 335.017 345.128 335.391 344.811C335.773 344.484 336.063 344.125 336.259 343.733C336.464 343.341 336.567 342.954 336.567 342.571V342.151ZM336.833 342.151H337.701V342.571C337.701 342.972 337.78 343.378 337.939 343.789C338.107 344.19 338.359 344.554 338.695 344.881C339.031 345.208 339.446 345.469 339.941 345.665L339.465 346.547C338.858 346.314 338.359 345.987 337.967 345.567C337.584 345.156 337.299 344.69 337.113 344.167C336.926 343.644 336.833 343.112 336.833 342.571V342.151ZM341.215 342.151H342.083V342.571C342.083 343.047 341.989 343.546 341.803 344.069C341.616 344.592 341.327 345.072 340.935 345.511C340.552 345.959 340.062 346.304 339.465 346.547L338.975 345.665C339.469 345.441 339.88 345.156 340.207 344.811C340.543 344.466 340.795 344.092 340.963 343.691C341.131 343.29 341.215 342.916 341.215 342.571V342.151ZM341.467 342.151H342.363V342.571C342.363 342.982 342.461 343.388 342.657 343.789C342.862 344.181 343.156 344.531 343.539 344.839C343.921 345.147 344.374 345.385 344.897 345.553L344.351 346.435C343.735 346.22 343.212 345.917 342.783 345.525C342.353 345.142 342.027 344.694 341.803 344.181C341.579 343.668 341.467 343.131 341.467 342.571V342.151Z" fill="#686868"/>
<path d="M320.342 340.891H331.822V341.843H320.342V340.891ZM321.798 334.241H330.352V337.321H322.974V339.015H321.826V336.453H329.204V335.165H321.798V334.241ZM321.826 338.637H330.618V339.561H321.826V338.637ZM325.508 339.113H326.656V341.353H325.508V339.113ZM321.63 342.809H330.422V346.463H329.26V343.747H321.63V342.809Z" fill="#686868"/>
<path d="M316.703 333.919H317.865V346.589H316.703V333.919ZM312.993 335.291H314.141C314.141 336.206 314.029 337.088 313.805 337.937C313.59 338.786 313.25 339.594 312.783 340.359C312.316 341.115 311.71 341.82 310.963 342.473C310.216 343.126 309.311 343.71 308.247 344.223L307.631 343.285C308.854 342.697 309.862 342.011 310.655 341.227C311.448 340.443 312.036 339.57 312.419 338.609C312.802 337.638 312.993 336.593 312.993 335.473V335.291ZM308.219 335.291H313.483V336.229H308.219V335.291Z" fill="#686868"/>
<path d="M297.18 334.143C298.58 334.143 299.672 334.334 300.456 334.717C301.24 335.09 301.632 335.627 301.632 336.327C301.632 337.036 301.24 337.582 300.456 337.965C299.672 338.338 298.58 338.525 297.18 338.525C295.789 338.525 294.697 338.338 293.904 337.965C293.12 337.582 292.728 337.036 292.728 336.327C292.728 335.627 293.12 335.09 293.904 334.717C294.697 334.334 295.789 334.143 297.18 334.143ZM297.18 335.011C296.498 335.011 295.915 335.062 295.43 335.165C294.944 335.268 294.571 335.417 294.31 335.613C294.058 335.809 293.932 336.047 293.932 336.327C293.932 336.607 294.058 336.85 294.31 337.055C294.571 337.251 294.944 337.4 295.43 337.503C295.915 337.596 296.498 337.643 297.18 337.643C297.87 337.643 298.458 337.596 298.944 337.503C299.429 337.4 299.798 337.251 300.05 337.055C300.311 336.85 300.442 336.607 300.442 336.327C300.442 336.047 300.311 335.809 300.05 335.613C299.798 335.417 299.429 335.268 298.944 335.165C298.458 335.062 297.87 335.011 297.18 335.011ZM291.468 339.379H302.906V340.317H291.468V339.379ZM292.854 341.395H301.436V344.251H294.016V345.777H292.882V343.397H300.302V342.291H292.854V341.395ZM292.882 345.539H301.814V346.449H292.882V345.539Z" fill="#686868"/>
<path d="M281.221 336.243H282.117V336.663C282.117 337.335 282.005 337.979 281.781 338.595C281.557 339.202 281.23 339.743 280.801 340.219C280.381 340.686 279.863 341.05 279.247 341.311L278.687 340.443C279.219 340.219 279.671 339.916 280.045 339.533C280.427 339.141 280.717 338.698 280.913 338.203C281.118 337.708 281.221 337.195 281.221 336.663V336.243ZM281.445 336.243H282.327V336.663C282.327 337.158 282.429 337.638 282.635 338.105C282.84 338.572 283.134 338.987 283.517 339.351C283.899 339.715 284.352 340 284.875 340.205L284.329 341.087C283.713 340.835 283.19 340.485 282.761 340.037C282.331 339.589 282.005 339.076 281.781 338.497C281.557 337.918 281.445 337.307 281.445 336.663V336.243ZM278.939 335.585H284.567V336.523H278.939V335.585ZM281.221 334.073H282.327V335.977H281.221V334.073ZM288.151 333.933H289.257V341.689H288.151V333.933ZM286.107 337.307H288.487V338.259H286.107V337.307ZM285.449 334.157H286.555V341.619H285.449V334.157ZM280.773 342.361H289.257V346.589H288.109V343.313H280.773V342.361Z" fill="#686868"/>
<path d="M266.681 334.843C267.344 334.843 267.927 334.969 268.431 335.221C268.944 335.464 269.346 335.809 269.635 336.257C269.924 336.705 270.069 337.228 270.069 337.825C270.069 338.413 269.924 338.936 269.635 339.393C269.346 339.841 268.944 340.191 268.431 340.443C267.927 340.686 267.344 340.807 266.681 340.807C266.028 340.807 265.444 340.686 264.931 340.443C264.418 340.191 264.012 339.841 263.713 339.393C263.424 338.936 263.279 338.413 263.279 337.825C263.279 337.228 263.424 336.705 263.713 336.257C264.012 335.809 264.418 335.464 264.931 335.221C265.444 334.969 266.028 334.843 266.681 334.843ZM266.681 335.851C266.252 335.851 265.864 335.935 265.519 336.103C265.183 336.262 264.917 336.49 264.721 336.789C264.525 337.088 264.427 337.433 264.427 337.825C264.427 338.217 264.525 338.562 264.721 338.861C264.917 339.16 265.183 339.393 265.519 339.561C265.864 339.72 266.252 339.799 266.681 339.799C267.12 339.799 267.507 339.72 267.843 339.561C268.179 339.393 268.445 339.16 268.641 338.861C268.837 338.562 268.935 338.217 268.935 337.825C268.935 337.433 268.837 337.088 268.641 336.789C268.445 336.49 268.179 336.262 267.843 336.103C267.507 335.935 267.12 335.851 266.681 335.851ZM271.735 333.919H272.897V346.603H271.735V333.919ZM262.803 343.831L262.649 342.851C263.424 342.851 264.273 342.846 265.197 342.837C266.121 342.818 267.073 342.781 268.053 342.725C269.042 342.66 269.994 342.557 270.909 342.417L271.007 343.271C270.055 343.448 269.089 343.579 268.109 343.663C267.138 343.738 266.2 343.784 265.295 343.803C264.39 343.822 263.559 343.831 262.803 343.831Z" fill="#686868"/>
<path d="M253.186 339.603H254.334V342.669H253.186V339.603ZM258.94 333.933H260.116V343.495H258.94V333.933ZM251.478 345.357H260.424V346.309H251.478V345.357ZM251.478 342.445H252.64V345.637H251.478V342.445ZM249.77 339.883L249.616 338.931C250.39 338.922 251.24 338.912 252.164 338.903C253.088 338.884 254.035 338.847 255.006 338.791C255.976 338.726 256.91 338.632 257.806 338.511L257.89 339.351C256.975 339.51 256.037 339.626 255.076 339.701C254.114 339.776 253.181 339.827 252.276 339.855C251.37 339.874 250.535 339.883 249.77 339.883ZM256.196 340.807H259.234V341.745H256.196V340.807ZM250.75 334.689H256.21V335.627H250.75V334.689ZM255.51 334.689H256.658V335.179C256.658 335.552 256.644 336.07 256.616 336.733C256.588 337.396 256.485 338.184 256.308 339.099L255.174 339.015C255.342 338.091 255.44 337.312 255.468 336.677C255.496 336.042 255.51 335.543 255.51 335.179V334.689Z" fill="#686868"/>
<path d="M75.7542 316.607C76.5106 316.684 77.1008 317.323 77.1008 318.1C77.1008 318.876 76.5106 319.515 75.7542 319.592L75.6008 319.6H42.2639C40.6946 319.6 39.3299 320.086 38.3899 320.801C37.4509 321.515 37.0002 322.394 37.0002 323.247C37.0004 324.1 37.4511 324.978 38.3899 325.692C39.33 326.408 40.6946 326.893 42.2639 326.894H75.6008L75.7542 326.901C76.5106 326.978 77.1007 327.617 77.1008 328.394C77.1008 329.17 76.5106 329.809 75.7542 329.886L75.6008 329.894H42.2639C40.0981 329.893 38.0813 329.227 36.5735 328.08C35.0645 326.932 34.0004 325.237 34.0002 323.247C34.0002 321.257 35.0643 319.561 36.5735 318.413C38.0813 317.266 40.0981 316.6 42.2639 316.6H75.6008L75.7542 316.607Z" fill="#FF592F"/>
<path d="M38.3474 330.505C37.5909 330.582 37.0007 331.22 37.0007 331.997C37.0007 332.774 37.5909 333.413 38.3474 333.489L38.5007 333.497H71.8376C73.407 333.497 74.7716 333.983 75.7117 334.698C76.6506 335.413 77.1013 336.292 77.1013 337.145C77.1012 337.997 76.6505 338.875 75.7117 339.59C74.7716 340.305 73.407 340.791 71.8376 340.791H38.5007L38.3474 340.799C37.591 340.876 37.0008 341.514 37.0007 342.291C37.0007 343.068 37.5909 343.706 38.3474 343.783L38.5007 343.791H71.8376C74.0035 343.791 76.0202 343.125 77.5281 341.978C79.0371 340.829 80.1012 339.134 80.1013 337.145C80.1013 335.155 79.0372 333.459 77.5281 332.311C76.0202 331.163 74.0034 330.497 71.8376 330.497H38.5007L38.3474 330.505Z" fill="#3179FF"/>
<path d="M73.4998 320.997C73.7759 320.997 73.9998 321.221 73.9998 321.497C73.9998 321.773 73.7759 321.997 73.4998 321.997H42.9998C42.7236 321.997 42.4998 321.773 42.4998 321.497C42.4998 321.221 42.7236 320.997 42.9998 320.997H73.4998Z" fill="black"/>
<path d="M40.6016 334.895C40.3254 334.895 40.1016 335.118 40.1016 335.395C40.1016 335.671 40.3254 335.895 40.6016 335.895H71.1016C71.3777 335.895 71.6016 335.671 71.6016 335.395C71.6016 335.118 71.3777 334.895 71.1016 334.895H40.6016Z" fill="black"/>
<path d="M73.4998 324.997C73.7759 324.997 73.9998 325.221 73.9998 325.497C73.9998 325.773 73.7759 325.997 73.4998 325.997H42.9998C42.7236 325.997 42.4998 325.773 42.4998 325.497C42.4998 325.221 42.7236 324.997 42.9998 324.997H73.4998Z" fill="black"/>
<path d="M40.6016 338.895C40.3254 338.895 40.1016 339.119 40.1016 339.395C40.1016 339.671 40.3254 339.895 40.6016 339.895H71.1016C71.3777 339.895 71.6016 339.671 71.6016 339.395C71.6016 339.119 71.3777 338.895 71.1016 338.895H40.6016Z" fill="black"/>
<path d="M70.9998 322.997L71.1003 323.007C71.3283 323.053 71.4998 323.255 71.4998 323.497C71.4998 323.739 71.3283 323.941 71.1003 323.987L70.9998 323.997H42.9998C42.7236 323.997 42.4998 323.773 42.4998 323.497C42.4998 323.221 42.7236 322.997 42.9998 322.997H70.9998Z" fill="black"/>
<path d="M43.1016 336.895L43.001 336.904C42.773 336.951 42.6016 337.153 42.6016 337.395C42.6016 337.636 42.773 337.838 43.001 337.885L43.1016 337.895H71.1016C71.3777 337.895 71.6016 337.671 71.6016 337.395C71.6016 337.118 71.3777 336.895 71.1016 336.895H43.1016Z" fill="black"/>
<path d="M45.4993 315.997C45.7754 315.997 45.9993 316.221 45.9993 316.497C45.9993 316.773 45.7754 316.997 45.4993 316.997H41.0208C40.0174 317.078 38.4722 317.501 37.138 318.509C35.8127 319.51 34.6854 321.091 34.4973 323.535C34.4762 323.81 34.2364 324.016 33.9612 323.995C33.6859 323.974 33.4802 323.734 33.5012 323.459C33.7132 320.703 35.0025 318.869 36.5354 317.711C38.052 316.566 39.7974 316.089 40.9612 315.999L40.9993 315.997H45.4993Z" fill="black"/>
<path d="M76.4998 328.997C76.7759 328.997 76.9998 329.221 76.9998 329.497C76.9998 329.773 76.7759 329.997 76.4998 329.997H56.9998C56.7236 329.997 56.4998 329.773 56.4998 329.497C56.4998 329.221 56.7236 328.997 56.9998 328.997H76.4998Z" fill="black"/>
<path d="M54.5 329.997C54.7761 329.997 55 330.221 55 330.497C55 330.773 54.7761 330.997 54.5 330.997H35C34.7239 330.997 34.5 330.773 34.5 330.497C34.5 330.221 34.7239 329.997 35 329.997H54.5Z" fill="black"/>
<path d="M71 342.997L71.1006 343.007C71.3286 343.053 71.5 343.255 71.5 343.497C71.5 343.739 71.3286 343.941 71.1006 343.987L71 343.997H40C39.7239 343.997 39.5 343.773 39.5 343.497C39.5 343.221 39.7239 342.997 40 342.997H71Z" fill="black"/>
<path d="M207.299 346.497V340.547C212.012 336.347 216.025 332.451 219.339 328.857C222.699 325.264 225.265 321.927 227.039 318.847C228.812 315.721 229.699 312.827 229.699 310.167C229.699 308.487 229.395 307.017 228.789 305.757C228.182 304.497 227.295 303.541 226.129 302.887C225.009 302.187 223.609 301.837 221.929 301.837C220.062 301.837 218.335 302.374 216.749 303.447C215.209 304.474 213.785 305.711 212.479 307.157L206.739 301.627C209.165 299.014 211.639 297.054 214.159 295.747C216.725 294.394 219.759 293.717 223.259 293.717C226.525 293.717 229.372 294.394 231.799 295.747C234.272 297.054 236.185 298.897 237.539 301.277C238.892 303.657 239.569 306.457 239.569 309.677C239.569 312.804 238.775 316.001 237.189 319.267C235.649 322.487 233.572 325.707 230.959 328.927C228.345 332.147 225.452 335.321 222.279 338.447C223.632 338.261 225.079 338.121 226.619 338.027C228.205 337.887 229.605 337.817 230.819 337.817H242.019V346.497H207.299Z" fill="#FF592F"/>
<path d="M168.74 346.497V338.097H179.94V305.407H170.49V298.967C173.103 298.501 175.343 297.941 177.21 297.287C179.123 296.587 180.897 295.701 182.53 294.627H190.16V338.097H199.89V346.497H168.74Z" fill="#FF592F"/>
<g filter="url(#filter1_d_169_894)">
<path d="M16 388C16 381.373 21.3726 376 28 376H374C380.627 376 386 381.373 386 388V466C386 472.627 380.627 478 374 478H28C21.3726 478 16 472.627 16 466V388Z" fill="#FF592F"/>
</g>
<path d="M203.118 457.182C202.866 457.182 202.647 457.093 202.46 456.916C202.283 456.729 202.194 456.496 202.194 456.216C202.194 455.917 202.283 455.679 202.46 455.502C202.647 455.325 202.866 455.236 203.118 455.236C203.37 455.236 203.585 455.325 203.762 455.502C203.949 455.679 204.042 455.917 204.042 456.216C204.042 456.496 203.949 456.729 203.762 456.916C203.585 457.093 203.37 457.182 203.118 457.182Z" fill="white"/>
<path d="M191.807 451.946H192.955V455.726H191.807V451.946ZM196.483 451.946H197.645V455.726H196.483V451.946ZM188.993 455.502H200.473V456.468H188.993V455.502ZM194.705 446.22C195.601 446.22 196.394 446.356 197.085 446.626C197.776 446.897 198.317 447.275 198.709 447.76C199.11 448.246 199.311 448.82 199.311 449.482C199.311 450.136 199.11 450.71 198.709 451.204C198.317 451.69 197.776 452.068 197.085 452.338C196.394 452.6 195.601 452.73 194.705 452.73C193.818 452.73 193.025 452.6 192.325 452.338C191.634 452.068 191.093 451.69 190.701 451.204C190.309 450.71 190.113 450.136 190.113 449.482C190.113 448.82 190.309 448.246 190.701 447.76C191.093 447.275 191.634 446.897 192.325 446.626C193.025 446.356 193.818 446.22 194.705 446.22ZM194.705 447.144C194.033 447.144 193.436 447.242 192.913 447.438C192.39 447.634 191.98 447.91 191.681 448.264C191.382 448.61 191.233 449.016 191.233 449.482C191.233 449.949 191.382 450.36 191.681 450.714C191.98 451.06 192.39 451.33 192.913 451.526C193.436 451.722 194.033 451.82 194.705 451.82C195.386 451.82 195.988 451.722 196.511 451.526C197.034 451.33 197.444 451.06 197.743 450.714C198.042 450.36 198.191 449.949 198.191 449.482C198.191 449.016 198.042 448.61 197.743 448.264C197.444 447.91 197.034 447.634 196.511 447.438C195.988 447.242 195.386 447.144 194.705 447.144Z" fill="white"/>
<path d="M179.488 446.402C180.104 446.402 180.65 446.584 181.126 446.948C181.602 447.303 181.971 447.811 182.232 448.474C182.503 449.137 182.638 449.916 182.638 450.812C182.638 451.708 182.503 452.487 182.232 453.15C181.971 453.813 181.602 454.326 181.126 454.69C180.65 455.054 180.104 455.236 179.488 455.236C178.881 455.236 178.335 455.054 177.85 454.69C177.374 454.326 177.001 453.813 176.73 453.15C176.469 452.487 176.338 451.708 176.338 450.812C176.338 449.916 176.469 449.137 176.73 448.474C177.001 447.811 177.374 447.303 177.85 446.948C178.335 446.584 178.881 446.402 179.488 446.402ZM179.488 447.438C179.087 447.438 178.732 447.578 178.424 447.858C178.116 448.129 177.873 448.521 177.696 449.034C177.528 449.538 177.444 450.131 177.444 450.812C177.444 451.493 177.528 452.091 177.696 452.604C177.873 453.108 178.116 453.5 178.424 453.78C178.732 454.06 179.087 454.2 179.488 454.2C179.899 454.2 180.258 454.06 180.566 453.78C180.874 453.5 181.112 453.108 181.28 452.604C181.457 452.091 181.546 451.493 181.546 450.812C181.546 450.131 181.457 449.538 181.28 449.034C181.112 448.521 180.874 448.129 180.566 447.858C180.258 447.578 179.899 447.438 179.488 447.438ZM185.382 445.422H186.53V458.106H185.382V445.422ZM182.26 450.252H185.9V451.19H182.26V450.252Z" fill="white"/>
<path d="M166.763 446.164C167.407 446.164 167.977 446.295 168.471 446.556C168.966 446.808 169.353 447.158 169.633 447.606C169.923 448.045 170.067 448.558 170.067 449.146C170.067 449.743 169.923 450.266 169.633 450.714C169.353 451.153 168.966 451.498 168.471 451.75C167.977 452.002 167.407 452.128 166.763 452.128C166.138 452.128 165.573 452.002 165.069 451.75C164.575 451.498 164.183 451.153 163.893 450.714C163.604 450.266 163.459 449.743 163.459 449.146C163.459 448.558 163.604 448.045 163.893 447.606C164.183 447.158 164.575 446.808 165.069 446.556C165.573 446.295 166.138 446.164 166.763 446.164ZM166.763 447.144C166.353 447.144 165.984 447.233 165.657 447.41C165.331 447.578 165.069 447.811 164.873 448.11C164.687 448.409 164.593 448.754 164.593 449.146C164.593 449.547 164.687 449.897 164.873 450.196C165.069 450.495 165.331 450.728 165.657 450.896C165.984 451.064 166.353 451.148 166.763 451.148C167.183 451.148 167.557 451.064 167.883 450.896C168.21 450.728 168.467 450.495 168.653 450.196C168.849 449.897 168.947 449.547 168.947 449.146C168.947 448.754 168.849 448.409 168.653 448.11C168.467 447.811 168.21 447.578 167.883 447.41C167.557 447.233 167.183 447.144 166.763 447.144ZM171.901 445.422H173.063V452.632H171.901V445.422ZM172.741 448.46H174.925V449.412H172.741V448.46ZM166.273 453.206H167.169V453.878C167.169 454.429 167.057 454.975 166.833 455.516C166.609 456.048 166.283 456.524 165.853 456.944C165.433 457.364 164.92 457.695 164.313 457.938L163.739 457.07C164.271 456.865 164.724 456.594 165.097 456.258C165.48 455.913 165.769 455.535 165.965 455.124C166.171 454.704 166.273 454.289 166.273 453.878V453.206ZM166.525 453.206H167.379V453.878C167.379 454.307 167.463 454.737 167.631 455.166C167.799 455.586 168.051 455.973 168.387 456.328C168.723 456.673 169.148 456.953 169.661 457.168L169.157 458.05C168.551 457.807 168.051 457.467 167.659 457.028C167.277 456.589 166.992 456.099 166.805 455.558C166.619 455.007 166.525 454.447 166.525 453.878V453.206ZM170.935 453.206H171.803V453.878C171.803 454.373 171.71 454.895 171.523 455.446C171.337 455.997 171.047 456.505 170.655 456.972C170.263 457.429 169.764 457.789 169.157 458.05L168.667 457.168C169.171 456.935 169.591 456.631 169.927 456.258C170.263 455.885 170.515 455.488 170.683 455.068C170.851 454.639 170.935 454.242 170.935 453.878V453.206ZM171.173 453.206H172.069V453.878C172.069 454.317 172.167 454.746 172.363 455.166C172.569 455.586 172.858 455.964 173.231 456.3C173.614 456.627 174.071 456.883 174.603 457.07L174.029 457.938C173.413 457.705 172.891 457.387 172.461 456.986C172.032 456.575 171.71 456.104 171.495 455.572C171.281 455.031 171.173 454.466 171.173 453.878V453.206Z" fill="white"/>
<path d="M150.356 455.502H161.836V456.468H150.356V455.502ZM155.494 452.226H156.642V455.768H155.494V452.226ZM151.7 446.472H160.436V452.436H151.7V446.472ZM159.302 447.41H152.834V451.512H159.302V447.41Z" fill="white"/>
<path d="M134.333 451.302H145.813V452.198H134.333V451.302ZM135.705 453.206H144.385V455.908H136.881V457.392H135.733V455.11H143.237V454.046H135.705V453.206ZM135.733 457.084H144.791V457.924H135.733V457.084ZM135.789 445.8H144.343V448.432H136.965V449.804H135.817V447.648H143.195V446.626H135.789V445.8ZM135.817 449.524H144.567V450.364H135.817V449.524Z" fill="white"/>
<path d="M124.814 447.242H125.766V449.286C125.766 449.958 125.672 450.621 125.486 451.274C125.299 451.918 125.038 452.529 124.702 453.108C124.375 453.677 123.992 454.181 123.554 454.62C123.115 455.059 122.644 455.404 122.14 455.656L121.468 454.732C121.925 454.508 122.354 454.205 122.756 453.822C123.166 453.439 123.526 453.001 123.834 452.506C124.142 452.011 124.38 451.489 124.548 450.938C124.725 450.387 124.814 449.837 124.814 449.286V447.242ZM125.052 447.242H125.99V449.286C125.99 449.818 126.074 450.35 126.242 450.882C126.419 451.405 126.662 451.899 126.97 452.366C127.287 452.823 127.646 453.229 128.048 453.584C128.458 453.939 128.897 454.219 129.364 454.424L128.72 455.348C128.206 455.105 127.726 454.779 127.278 454.368C126.83 453.957 126.438 453.486 126.102 452.954C125.775 452.413 125.518 451.834 125.332 451.218C125.145 450.593 125.052 449.949 125.052 449.286V447.242ZM121.874 446.724H128.944V447.69H121.874V446.724ZM130.666 445.422H131.828V458.092H130.666V445.422Z" fill="white"/>
<path d="M114.469 453.556H115.463V453.962C115.463 454.503 115.327 455.003 115.057 455.46C114.795 455.908 114.436 456.309 113.979 456.664C113.521 457.019 112.999 457.313 112.411 457.546C111.832 457.779 111.221 457.943 110.577 458.036L110.157 457.126C110.605 457.07 111.039 456.977 111.459 456.846C111.879 456.706 112.271 456.538 112.635 456.342C112.999 456.146 113.316 455.927 113.587 455.684C113.867 455.432 114.081 455.161 114.231 454.872C114.389 454.583 114.469 454.279 114.469 453.962V453.556ZM114.637 453.556H115.631V453.962C115.631 454.279 115.705 454.583 115.855 454.872C116.013 455.161 116.228 455.432 116.499 455.684C116.779 455.927 117.101 456.146 117.465 456.342C117.829 456.538 118.221 456.706 118.641 456.846C119.061 456.977 119.499 457.07 119.957 457.126L119.523 458.036C119.009 457.961 118.51 457.84 118.025 457.672C117.549 457.504 117.105 457.299 116.695 457.056C116.284 456.813 115.925 456.538 115.617 456.23C115.309 455.913 115.066 455.563 114.889 455.18C114.721 454.797 114.637 454.391 114.637 453.962V453.556ZM109.149 446.29H110.255V448.278H112.957V446.29H114.049V452.184H109.149V446.29ZM110.255 449.202V451.26H112.957V449.202H110.255ZM118.151 445.436H119.271V454.032H118.151V445.436ZM116.163 448.712H118.543V449.664H116.163V448.712ZM115.435 445.674H116.527V452.912H115.435V445.674Z" fill="white"/>
<path d="M96.6809 446.346C97.3436 446.346 97.9269 446.472 98.4309 446.724C98.9443 446.967 99.3456 447.312 99.6349 447.76C99.9243 448.208 100.069 448.731 100.069 449.328C100.069 449.916 99.9243 450.439 99.6349 450.896C99.3456 451.344 98.9443 451.694 98.4309 451.946C97.9269 452.189 97.3436 452.31 96.6809 452.31C96.0276 452.31 95.4443 452.189 94.9309 451.946C94.4176 451.694 94.0116 451.344 93.7129 450.896C93.4236 450.439 93.2789 449.916 93.2789 449.328C93.2789 448.731 93.4236 448.208 93.7129 447.76C94.0116 447.312 94.4176 446.967 94.9309 446.724C95.4443 446.472 96.0276 446.346 96.6809 446.346ZM96.6809 447.354C96.2516 447.354 95.8643 447.438 95.5189 447.606C95.1829 447.765 94.9169 447.993 94.7209 448.292C94.5249 448.591 94.4269 448.936 94.4269 449.328C94.4269 449.72 94.5249 450.065 94.7209 450.364C94.9169 450.663 95.1829 450.896 95.5189 451.064C95.8643 451.223 96.2516 451.302 96.6809 451.302C97.1196 451.302 97.5069 451.223 97.8429 451.064C98.1789 450.896 98.4449 450.663 98.6409 450.364C98.8369 450.065 98.9349 449.72 98.9349 449.328C98.9349 448.936 98.8369 448.591 98.6409 448.292C98.4449 447.993 98.1789 447.765 97.8429 447.606C97.5069 447.438 97.1196 447.354 96.6809 447.354ZM101.735 445.422H102.897V458.106H101.735V445.422ZM92.8029 455.334L92.6489 454.354C93.4236 454.354 94.2729 454.349 95.1969 454.34C96.1209 454.321 97.0729 454.284 98.0529 454.228C99.0423 454.163 99.9943 454.06 100.909 453.92L101.007 454.774C100.055 454.951 99.0889 455.082 98.1089 455.166C97.1383 455.241 96.2003 455.287 95.2949 455.306C94.3896 455.325 93.5589 455.334 92.8029 455.334Z" fill="white"/>
<path d="M89.304 445.422H90.424V458.092H89.304V445.422ZM87.26 450.518H89.696V451.47H87.26V450.518ZM83.998 447.06H85.104C85.104 447.872 85.0246 448.665 84.866 449.44C84.7073 450.215 84.446 450.961 84.082 451.68C83.7273 452.389 83.2466 453.057 82.64 453.682C82.0333 454.298 81.2773 454.863 80.372 455.376L79.7 454.55C80.764 453.953 81.6086 453.276 82.234 452.52C82.8593 451.764 83.3073 450.947 83.578 450.07C83.858 449.183 83.998 448.25 83.998 447.27V447.06ZM80.19 447.06H84.376V448.012H80.19V447.06ZM86.504 445.758H87.596V457.462H86.504V445.758Z" fill="white"/>
<path d="M293.344 414.325C298.5 409.169 306.86 409.169 312.017 414.325L312.668 414.977L313.32 414.325C318.476 409.168 326.837 409.169 331.994 414.325C337.15 419.482 337.15 427.842 331.994 432.999L312.669 452.324L293.344 432.999C288.187 427.842 288.187 419.482 293.344 414.325Z" fill="#3179FF"/>
<path d="M293.344 432.999C288.187 427.842 288.187 419.482 293.344 414.325C298.5 409.169 306.86 409.169 312.017 414.325L312.668 414.977L313.32 414.325C318.476 409.168 326.837 409.169 331.994 414.325C337.15 419.482 337.15 427.842 331.994 432.999L331.287 432.292C335.978 427.6 336.051 420.04 331.507 415.258L331.287 415.033C326.595 410.341 319.034 410.267 314.253 414.812L314.027 415.032L312.668 416.391L311.31 415.033L311.084 414.812C306.303 410.268 298.742 410.341 294.051 415.033C289.359 419.724 289.286 427.285 293.83 432.066L294.051 432.292L312.669 450.91L331.287 432.292L331.994 432.999L312.669 452.324L293.344 432.999Z" fill="white"/>
<path d="M56.5897 458V426.15C56.5897 424.657 56.6364 422.883 56.7297 420.83C56.8231 418.73 56.9164 416.91 57.0097 415.37H56.6597C56.0531 416.77 55.3997 418.17 54.6997 419.57C53.9997 420.97 53.2764 422.393 52.5297 423.84L44.4797 436.72H72.3397V444.56H34.4697V437.56L53.7897 406.13H66.1797V458H56.5897Z" fill="white"/>
<path d="M361.293 460.293L367.586 454L361.293 447.707C360.902 447.317 360.902 446.684 361.293 446.293C361.683 445.903 362.317 445.903 362.707 446.293L369.707 453.293L369.776 453.369C370.096 453.762 370.073 454.341 369.707 454.707L362.707 461.707C362.317 462.098 361.683 462.098 361.293 461.707C360.902 461.317 360.902 460.683 361.293 460.293Z" fill="white"/>
<g filter="url(#filter2_d_169_894)">
<path d="M17 500C17 493.373 22.3726 488 29 488H375C381.627 488 387 493.373 387 500V578C387 584.627 381.627 590 375 590H29C22.3726 590 17 584.627 17 578V500Z" fill="#FF977D"/>
</g>
<path d="M275.512 569.182C275.26 569.182 275.041 569.093 274.854 568.916C274.677 568.729 274.588 568.496 274.588 568.216C274.588 567.917 274.677 567.679 274.854 567.502C275.041 567.325 275.26 567.236 275.512 567.236C275.764 567.236 275.979 567.325 276.156 567.502C276.343 567.679 276.436 567.917 276.436 568.216C276.436 568.496 276.343 568.729 276.156 568.916C275.979 569.093 275.764 569.182 275.512 569.182Z" fill="white"/>
<path d="M264.201 563.946H265.349V567.726H264.201V563.946ZM268.877 563.946H270.039V567.726H268.877V563.946ZM261.387 567.502H272.867V568.468H261.387V567.502ZM267.099 558.22C267.995 558.22 268.789 558.355 269.479 558.626C270.17 558.896 270.711 559.274 271.103 559.76C271.505 560.245 271.705 560.819 271.705 561.482C271.705 562.135 271.505 562.709 271.103 563.204C270.711 563.689 270.17 564.067 269.479 564.338C268.789 564.599 267.995 564.73 267.099 564.73C266.213 564.73 265.419 564.599 264.719 564.338C264.029 564.067 263.487 563.689 263.095 563.204C262.703 562.709 262.507 562.135 262.507 561.482C262.507 560.819 262.703 560.245 263.095 559.76C263.487 559.274 264.029 558.896 264.719 558.626C265.419 558.355 266.213 558.22 267.099 558.22ZM267.099 559.144C266.427 559.144 265.83 559.242 265.307 559.438C264.785 559.634 264.374 559.909 264.075 560.264C263.777 560.609 263.627 561.015 263.627 561.482C263.627 561.948 263.777 562.359 264.075 562.714C264.374 563.059 264.785 563.33 265.307 563.526C265.83 563.722 266.427 563.82 267.099 563.82C267.781 563.82 268.383 563.722 268.905 563.526C269.428 563.33 269.839 563.059 270.137 562.714C270.436 562.359 270.585 561.948 270.585 561.482C270.585 561.015 270.436 560.609 270.137 560.264C269.839 559.909 269.428 559.634 268.905 559.438C268.383 559.242 267.781 559.144 267.099 559.144Z" fill="white"/>
<path d="M251.883 558.402C252.499 558.402 253.045 558.584 253.521 558.948C253.997 559.303 254.365 559.811 254.627 560.474C254.897 561.137 255.033 561.916 255.033 562.812C255.033 563.708 254.897 564.487 254.627 565.15C254.365 565.813 253.997 566.326 253.521 566.69C253.045 567.054 252.499 567.236 251.883 567.236C251.276 567.236 250.73 567.054 250.245 566.69C249.769 566.326 249.395 565.813 249.125 565.15C248.863 564.487 248.733 563.708 248.733 562.812C248.733 561.916 248.863 561.137 249.125 560.474C249.395 559.811 249.769 559.303 250.245 558.948C250.73 558.584 251.276 558.402 251.883 558.402ZM251.883 559.438C251.481 559.438 251.127 559.578 250.819 559.858C250.511 560.129 250.268 560.521 250.091 561.034C249.923 561.538 249.839 562.131 249.839 562.812C249.839 563.493 249.923 564.091 250.091 564.604C250.268 565.108 250.511 565.5 250.819 565.78C251.127 566.06 251.481 566.2 251.883 566.2C252.293 566.2 252.653 566.06 252.961 565.78C253.269 565.5 253.507 565.108 253.675 564.604C253.852 564.091 253.941 563.493 253.941 562.812C253.941 562.131 253.852 561.538 253.675 561.034C253.507 560.521 253.269 560.129 252.961 559.858C252.653 559.578 252.293 559.438 251.883 559.438ZM257.777 557.422H258.925V570.106H257.777V557.422ZM254.655 562.252H258.295V563.19H254.655V562.252Z" fill="white"/>
<path d="M238.864 565.136H239.774V565.878C239.774 566.429 239.662 566.975 239.438 567.516C239.214 568.048 238.887 568.524 238.458 568.944C238.038 569.364 237.52 569.691 236.904 569.924L236.33 569.056C236.862 568.86 237.314 568.594 237.688 568.258C238.07 567.913 238.36 567.535 238.556 567.124C238.761 566.704 238.864 566.289 238.864 565.878V565.136ZM239.116 565.136H239.984V565.878C239.984 566.307 240.068 566.737 240.236 567.166C240.404 567.586 240.656 567.973 240.992 568.328C241.328 568.673 241.752 568.953 242.266 569.168L241.762 570.036C241.155 569.793 240.656 569.453 240.264 569.014C239.872 568.575 239.582 568.085 239.396 567.544C239.209 566.993 239.116 566.438 239.116 565.878V565.136ZM243.54 565.136H244.408V565.878C244.408 566.373 244.314 566.895 244.128 567.446C243.941 567.987 243.652 568.491 243.26 568.958C242.868 569.425 242.368 569.784 241.762 570.036L241.272 569.168C241.776 568.925 242.196 568.617 242.532 568.244C242.868 567.871 243.12 567.474 243.288 567.054C243.456 566.634 243.54 566.242 243.54 565.878V565.136ZM243.778 565.136H244.674V565.878C244.674 566.317 244.772 566.746 244.968 567.166C245.173 567.586 245.462 567.959 245.836 568.286C246.218 568.613 246.68 568.869 247.222 569.056L246.634 569.924C246.018 569.7 245.495 569.383 245.066 568.972C244.646 568.561 244.324 568.09 244.1 567.558C243.885 567.026 243.778 566.466 243.778 565.878V565.136ZM241.86 560.6H245.206V561.552H241.86V560.6ZM239.088 558.136C239.704 558.136 240.254 558.262 240.74 558.514C241.234 558.766 241.622 559.116 241.902 559.564C242.182 560.012 242.322 560.525 242.322 561.104C242.322 561.692 242.182 562.21 241.902 562.658C241.622 563.097 241.234 563.442 240.74 563.694C240.254 563.946 239.704 564.072 239.088 564.072C238.462 564.072 237.902 563.946 237.408 563.694C236.922 563.442 236.54 563.097 236.26 562.658C235.98 562.21 235.84 561.692 235.84 561.104C235.84 560.525 235.98 560.012 236.26 559.564C236.54 559.116 236.922 558.766 237.408 558.514C237.902 558.262 238.462 558.136 239.088 558.136ZM239.088 559.116C238.677 559.116 238.308 559.2 237.982 559.368C237.664 559.536 237.412 559.774 237.226 560.082C237.039 560.381 236.946 560.721 236.946 561.104C236.946 561.496 237.039 561.841 237.226 562.14C237.412 562.439 237.664 562.677 237.982 562.854C238.308 563.022 238.677 563.106 239.088 563.106C239.489 563.106 239.848 563.022 240.166 562.854C240.492 562.677 240.749 562.439 240.936 562.14C241.122 561.841 241.216 561.496 241.216 561.104C241.216 560.721 241.122 560.381 240.936 560.082C240.749 559.774 240.492 559.536 240.166 559.368C239.848 559.2 239.489 559.116 239.088 559.116ZM244.884 557.422H246.046V564.646H244.884V557.422Z" fill="white"/>
<path d="M222.751 562.714H234.203V563.652H222.751V562.714ZM224.277 560.754H232.831V561.692H224.277V560.754ZM224.277 557.842H232.705V558.78H225.425V561.496H224.277V557.842ZM224.137 564.758H232.719V567.726H225.299V569.322H224.165V566.858H231.585V565.668H224.137V564.758ZM224.165 569.014H233.097V569.938H224.165V569.014Z" fill="white"/>
<path d="M210.39 558.57H216.214V564.422H210.39V558.57ZM215.08 559.508H211.524V563.484H215.08V559.508ZM218.538 557.422H219.7V566.704H218.538V557.422ZM219.336 561.272H221.562V562.238H219.336V561.272ZM211.818 568.86H220.26V569.812H211.818V568.86ZM211.818 565.822H212.966V569.266H211.818V565.822Z" fill="white"/>
<path d="M193.848 563.302H205.328V564.198H193.848V563.302ZM195.22 565.206H203.9V567.908H196.396V569.392H195.248V567.11H202.752V566.046H195.22V565.206ZM195.248 569.084H204.306V569.924H195.248V569.084ZM195.304 557.8H203.858V560.432H196.48V561.804H195.332V559.648H202.71V558.626H195.304V557.8ZM195.332 561.524H204.082V562.364H195.332V561.524Z" fill="white"/>
<path d="M182.453 564.254H191.147V565.192H182.453V564.254ZM180.983 567.488H192.463V568.454H180.983V567.488ZM182.453 558.514H191.021V559.466H183.629V564.534H182.453V558.514ZM183.265 561.328H190.741V562.266H183.265V561.328Z" fill="white"/>
<path d="M173.172 558.29H174.194V559.27C174.194 559.821 174.096 560.343 173.9 560.838C173.714 561.333 173.452 561.795 173.116 562.224C172.79 562.644 172.407 563.022 171.968 563.358C171.539 563.694 171.077 563.979 170.582 564.212C170.097 564.445 169.602 564.623 169.098 564.744L168.58 563.778C169.019 563.685 169.458 563.54 169.896 563.344C170.344 563.148 170.764 562.91 171.156 562.63C171.548 562.341 171.894 562.019 172.192 561.664C172.5 561.309 172.738 560.931 172.906 560.53C173.084 560.119 173.172 559.699 173.172 559.27V558.29ZM173.396 558.29H174.39V559.27C174.39 559.699 174.479 560.119 174.656 560.53C174.834 560.931 175.072 561.309 175.37 561.664C175.678 562.019 176.028 562.341 176.42 562.63C176.812 562.91 177.228 563.153 177.666 563.358C178.114 563.554 178.562 563.694 179.01 563.778L178.478 564.744C177.974 564.623 177.48 564.445 176.994 564.212C176.509 563.979 176.047 563.694 175.608 563.358C175.179 563.022 174.796 562.644 174.46 562.224C174.124 561.795 173.863 561.333 173.676 560.838C173.49 560.343 173.396 559.821 173.396 559.27V558.29ZM168.104 567.418H179.584V568.384H168.104V567.418Z" fill="white"/>
<path d="M164.451 557.422H165.599V570.106H164.451V557.422ZM155.953 566.074H157.003C157.722 566.074 158.413 566.065 159.075 566.046C159.747 566.018 160.424 565.971 161.105 565.906C161.796 565.841 162.515 565.747 163.261 565.626L163.373 566.578C162.235 566.765 161.161 566.891 160.153 566.956C159.145 567.012 158.095 567.04 157.003 567.04H155.953V566.074ZM155.925 558.598H161.777V563.12H157.129V566.438H155.953V562.182H160.601V559.55H155.925V558.598Z" fill="white"/>
<path d="M151.545 557.422H152.707V570.106H151.545V557.422ZM146.029 558.402C146.654 558.402 147.205 558.584 147.681 558.948C148.166 559.303 148.544 559.811 148.815 560.474C149.095 561.137 149.235 561.916 149.235 562.812C149.235 563.708 149.095 564.487 148.815 565.15C148.544 565.813 148.166 566.326 147.681 566.69C147.205 567.054 146.654 567.236 146.029 567.236C145.403 567.236 144.848 567.054 144.363 566.69C143.877 566.326 143.495 565.813 143.215 565.15C142.944 564.487 142.809 563.708 142.809 562.812C142.809 561.916 142.944 561.137 143.215 560.474C143.495 559.811 143.877 559.303 144.363 558.948C144.848 558.584 145.403 558.402 146.029 558.402ZM146.029 559.438C145.609 559.438 145.24 559.578 144.923 559.858C144.615 560.129 144.372 560.521 144.195 561.034C144.017 561.538 143.929 562.131 143.929 562.812C143.929 563.493 144.017 564.091 144.195 564.604C144.372 565.108 144.615 565.5 144.923 565.78C145.24 566.06 145.609 566.2 146.029 566.2C146.439 566.2 146.799 566.06 147.107 565.78C147.424 565.5 147.671 565.108 147.849 564.604C148.026 564.091 148.115 563.493 148.115 562.812C148.115 562.131 148.026 561.538 147.849 561.034C147.671 560.521 147.424 560.129 147.107 559.858C146.799 559.578 146.439 559.438 146.029 559.438Z" fill="white"/>
<path d="M129.888 566.004H130.728C131.493 566.004 132.249 565.985 132.996 565.948C133.752 565.901 134.564 565.803 135.432 565.654L135.53 566.606C134.643 566.765 133.817 566.867 133.052 566.914C132.296 566.951 131.521 566.97 130.728 566.97H129.888V566.004ZM129.86 558.822H134.368V563.218H131.008V566.41H129.888V562.28H133.248V559.774H129.86V558.822ZM139.1 557.422H140.206V570.092H139.1V557.422ZM134.97 561.972H137.028V562.938H134.97V561.972ZM136.538 557.73H137.63V569.42H136.538V557.73Z" fill="white"/>
<path d="M117.653 557.814H126.935V558.71H117.653V557.814ZM117.695 561.118H126.893V562.014H117.695V561.118ZM119.557 558.15H120.719V561.72H119.557V558.15ZM123.869 558.15H125.031V561.72H123.869V558.15ZM116.589 563.064H128.027V564.002H116.589V563.064ZM117.975 565.108H126.557V567.894H119.137V569.42H118.003V567.054H125.423V565.976H117.975V565.108ZM118.003 569.056H126.935V569.952H118.003V569.056Z" fill="white"/>
<path d="M104.681 558.346C105.344 558.346 105.927 558.472 106.431 558.724C106.944 558.967 107.346 559.312 107.635 559.76C107.924 560.208 108.069 560.731 108.069 561.328C108.069 561.916 107.924 562.439 107.635 562.896C107.346 563.344 106.944 563.694 106.431 563.946C105.927 564.189 105.344 564.31 104.681 564.31C104.028 564.31 103.444 564.189 102.931 563.946C102.418 563.694 102.012 563.344 101.713 562.896C101.424 562.439 101.279 561.916 101.279 561.328C101.279 560.731 101.424 560.208 101.713 559.76C102.012 559.312 102.418 558.967 102.931 558.724C103.444 558.472 104.028 558.346 104.681 558.346ZM104.681 559.354C104.252 559.354 103.864 559.438 103.519 559.606C103.183 559.765 102.917 559.993 102.721 560.292C102.525 560.591 102.427 560.936 102.427 561.328C102.427 561.72 102.525 562.065 102.721 562.364C102.917 562.663 103.183 562.896 103.519 563.064C103.864 563.223 104.252 563.302 104.681 563.302C105.12 563.302 105.507 563.223 105.843 563.064C106.179 562.896 106.445 562.663 106.641 562.364C106.837 562.065 106.935 561.72 106.935 561.328C106.935 560.936 106.837 560.591 106.641 560.292C106.445 559.993 106.179 559.765 105.843 559.606C105.507 559.438 105.12 559.354 104.681 559.354ZM109.735 557.422H110.897V570.106H109.735V557.422ZM100.803 567.334L100.649 566.354C101.424 566.354 102.273 566.349 103.197 566.34C104.121 566.321 105.073 566.284 106.053 566.228C107.042 566.163 107.994 566.06 108.909 565.92L109.007 566.774C108.055 566.951 107.089 567.082 106.109 567.166C105.138 567.241 104.2 567.287 103.295 567.306C102.39 567.325 101.559 567.334 100.803 567.334Z" fill="white"/>
<path d="M97.304 557.422H98.424V570.092H97.304V557.422ZM95.26 562.518H97.696V563.47H95.26V562.518ZM91.998 559.06H93.104C93.104 559.872 93.0246 560.665 92.866 561.44C92.7073 562.215 92.446 562.961 92.082 563.68C91.7273 564.389 91.2466 565.057 90.64 565.682C90.0333 566.298 89.2773 566.863 88.372 567.376L87.7 566.55C88.764 565.953 89.6086 565.276 90.234 564.52C90.8593 563.764 91.3073 562.947 91.578 562.07C91.858 561.183 91.998 560.25 91.998 559.27V559.06ZM88.19 559.06H92.376V560.012H88.19V559.06ZM94.504 557.758H95.596V569.462H94.504V557.758Z" fill="white"/>
<path d="M39.7402 570V561.6H50.9402V528.91H41.4902V522.47C44.1036 522.003 46.3436 521.443 48.2102 520.79C50.1236 520.09 51.8969 519.203 53.5302 518.13H61.1602V561.6H70.8902V570H39.7402Z" fill="white"/>
<path d="M362.293 572.293L368.586 566L362.293 559.707C361.902 559.317 361.902 558.684 362.293 558.293C362.683 557.903 363.317 557.903 363.707 558.293L370.707 565.293L370.776 565.369C371.096 565.762 371.073 566.341 370.707 566.707L363.707 573.707C363.317 574.098 362.683 574.098 362.293 573.707C361.902 573.317 361.902 572.683 362.293 572.293Z" fill="white"/>
<path d="M346 539.5C346 556.345 332.345 570 315.5 570C298.655 570 285 556.345 285 539.5C285 522.655 298.655 509 315.5 509C332.345 509 346 522.655 346 539.5Z" fill="#FF592F"/>
<path fill-rule="evenodd" clip-rule="evenodd" d="M316 510.771C299.858 510.771 286.771 523.858 286.771 540C286.771 556.142 299.858 569.229 316 569.229V571C298.879 571 285 557.121 285 540C285 522.879 298.879 509 316 509V510.771Z" fill="black"/>
<path d="M332.187 536.897C334.604 538.276 334.604 541.724 332.187 543.103L310.438 555.515C308.021 556.894 305 555.17 305 552.412L305 527.588C305 524.83 308.021 523.106 310.438 524.485L332.187 536.897Z" fill="white"/>
<defs>
<filter id="filter0_d_169_894" x="5" y="235.497" width="392" height="142" filterUnits="userSpaceOnUse" color-interpolation-filters="sRGB">
<feFlood flood-opacity="0" result="BackgroundImageFix"/>
<feColorMatrix in="SourceAlpha" type="matrix" values="0 0 0 0 0 0 0 0 0 0 0 0 0 0 0 0 0 0 127 0" result="hardAlpha"/>
<feOffset/>
<feGaussianBlur stdDeviation="5.5"/>
<feComposite in2="hardAlpha" operator="out"/>
<feColorMatrix type="matrix" values="0 0 0 0 0.564706 0 0 0 0 0.564706 0 0 0 0 0.564706 0 0 0 0.25 0"/>
<feBlend mode="normal" in2="BackgroundImageFix" result="effect1_dropShadow_169_894"/>
<feBlend mode="normal" in="SourceGraphic" in2="effect1_dropShadow_169_894" result="shape"/>
</filter>
<filter id="filter1_d_169_894" x="5" y="365" width="392" height="124" filterUnits="userSpaceOnUse" color-interpolation-filters="sRGB">
<feFlood flood-opacity="0" result="BackgroundImageFix"/>
<feColorMatrix in="SourceAlpha" type="matrix" values="0 0 0 0 0 0 0 0 0 0 0 0 0 0 0 0 0 0 127 0" result="hardAlpha"/>
<feOffset/>
<feGaussianBlur stdDeviation="5.5"/>
<feComposite in2="hardAlpha" operator="out"/>
<feColorMatrix type="matrix" values="0 0 0 0 0.564706 0 0 0 0 0.564706 0 0 0 0 0.564706 0 0 0 0.25 0"/>
<feBlend mode="normal" in2="BackgroundImageFix" result="effect1_dropShadow_169_894"/>
<feBlend mode="normal" in="SourceGraphic" in2="effect1_dropShadow_169_894" result="shape"/>
</filter>
<filter id="filter2_d_169_894" x="6" y="477" width="392" height="124" filterUnits="userSpaceOnUse" color-interpolation-filters="sRGB">
<feFlood flood-opacity="0" result="BackgroundImageFix"/>
<feColorMatrix in="SourceAlpha" type="matrix" values="0 0 0 0 0 0 0 0 0 0 0 0 0 0 0 0 0 0 127 0" result="hardAlpha"/>
<feOffset/>
<feGaussianBlur stdDeviation="5.5"/>
<feComposite in2="hardAlpha" operator="out"/>
<feColorMatrix type="matrix" values="0 0 0 0 0.564706 0 0 0 0 0.564706 0 0 0 0 0.564706 0 0 0 0.25 0"/>
<feBlend mode="normal" in2="BackgroundImageFix" result="effect1_dropShadow_169_894"/>
<feBlend mode="normal" in="SourceGraphic" in2="effect1_dropShadow_169_894" result="shape"/>
</filter>
<clipPath id="clip0_169_894">
<rect width="206" height="364" fill="white" transform="translate(98 235)"/>
</clipPath>
</defs>
</svg>
