<svg width="412" height="732" viewBox="0 0 412 732" fill="none" xmlns="http://www.w3.org/2000/svg">
<rect width="412" height="732" fill="#F5F5F5"/>
<rect x="86.5" y="223.5" width="229" height="387" rx="19.5" fill="#242424" stroke="#F5F5F5"/>
<g clip-path="url(#clip0_169_819)">
<rect x="98" y="235" width="206" height="364" rx="14" fill="white"/>
<path d="M117.96 253.68H119.01V262.82H117.96V253.68ZM115.27 254.65H116.31C116.31 255.33 116.237 255.98 116.09 256.6C115.943 257.22 115.703 257.81 115.37 258.37C115.043 258.923 114.61 259.437 114.07 259.91C113.537 260.383 112.877 260.81 112.09 261.19L111.53 260.36C112.417 259.933 113.133 259.447 113.68 258.9C114.227 258.353 114.627 257.743 114.88 257.07C115.14 256.39 115.27 255.643 115.27 254.83V254.65ZM111.98 254.65H115.74V255.49H111.98V254.65ZM120.659 258.66H128.939V259.5H120.659V258.66ZM121.689 253.89H127.899V256.22H122.739V257.35H121.709V255.47H126.859V254.7H121.689V253.89ZM121.709 257.02H128.079V257.83H121.709V257.02ZM124.269 257.43H125.319V259.09H124.269V257.43ZM121.569 260.11H127.949V262.77H126.899V260.96H121.569V260.11ZM135.898 253.69H136.948V262.83H135.898V253.69ZM136.708 257.36H138.358V258.23H136.708V257.36ZM129.808 255.1H135.168V255.94H129.808V255.1ZM132.528 256.59C132.962 256.59 133.348 256.683 133.688 256.87C134.028 257.05 134.295 257.3 134.488 257.62C134.688 257.94 134.788 258.307 134.788 258.72C134.788 259.14 134.688 259.51 134.488 259.83C134.295 260.15 134.028 260.403 133.688 260.59C133.348 260.77 132.958 260.86 132.518 260.86C132.085 260.86 131.698 260.77 131.358 260.59C131.018 260.403 130.748 260.15 130.548 259.83C130.355 259.51 130.258 259.14 130.258 258.72C130.258 258.307 130.355 257.94 130.548 257.62C130.748 257.3 131.018 257.05 131.358 256.87C131.698 256.683 132.088 256.59 132.528 256.59ZM132.518 257.45C132.278 257.45 132.062 257.503 131.868 257.61C131.675 257.717 131.522 257.867 131.408 258.06C131.302 258.247 131.248 258.467 131.248 258.72C131.248 258.98 131.302 259.207 131.408 259.4C131.522 259.587 131.675 259.733 131.868 259.84C132.062 259.947 132.278 260 132.518 260C132.765 260 132.982 259.947 133.168 259.84C133.362 259.733 133.512 259.587 133.618 259.4C133.732 259.207 133.788 258.98 133.788 258.72C133.788 258.467 133.732 258.247 133.618 258.06C133.512 257.867 133.362 257.717 133.168 257.61C132.982 257.503 132.765 257.45 132.518 257.45ZM131.988 253.81H133.038V255.45H131.988V253.81ZM145.558 253.68H146.608V262.82H145.558V253.68ZM142.868 254.65H143.908C143.908 255.33 143.834 255.98 143.688 256.6C143.541 257.22 143.301 257.81 142.968 258.37C142.641 258.923 142.208 259.437 141.668 259.91C141.134 260.383 140.474 260.81 139.688 261.19L139.128 260.36C140.014 259.933 140.731 259.447 141.278 258.9C141.824 258.353 142.224 257.743 142.478 257.07C142.738 256.39 142.868 255.643 142.868 254.83V254.65ZM139.578 254.65H143.338V255.49H139.578V254.65Z" fill="black"/>
<path d="M204.287 323.443C203.936 323.443 203.634 323.317 203.382 323.064C203.141 322.801 203.02 322.477 203.02 322.093C203.02 321.698 203.141 321.38 203.382 321.139C203.634 320.886 203.936 320.76 204.287 320.76C204.649 320.76 204.951 320.886 205.192 321.139C205.445 321.38 205.571 321.698 205.571 322.093C205.571 322.477 205.445 322.801 205.192 323.064C204.951 323.317 204.649 323.443 204.287 323.443Z" fill="black"/>
<path d="M190.646 317.222H192.357V321.599H190.646V317.222ZM196.142 317.222H197.87V321.599H196.142V317.222ZM187.453 321.303H201.08V322.718H187.453V321.303ZM194.25 310.392C195.314 310.392 196.263 310.557 197.097 310.886C197.931 311.204 198.584 311.659 199.055 312.252C199.538 312.833 199.779 313.524 199.779 314.325C199.779 315.126 199.538 315.823 199.055 316.415C198.584 316.997 197.931 317.452 197.097 317.781C196.263 318.099 195.314 318.259 194.25 318.259C193.186 318.259 192.231 318.099 191.386 317.781C190.553 317.452 189.894 316.997 189.412 316.415C188.94 315.823 188.704 315.126 188.704 314.325C188.704 313.524 188.94 312.833 189.412 312.252C189.894 311.659 190.553 311.204 191.386 310.886C192.231 310.557 193.186 310.392 194.25 310.392ZM194.25 311.742C193.493 311.742 192.824 311.846 192.242 312.054C191.661 312.263 191.205 312.564 190.876 312.959C190.558 313.343 190.399 313.799 190.399 314.325C190.399 314.852 190.558 315.313 190.876 315.708C191.205 316.092 191.661 316.393 192.242 316.613C192.824 316.821 193.493 316.926 194.25 316.926C195.007 316.926 195.671 316.821 196.241 316.613C196.823 316.393 197.278 316.092 197.607 315.708C197.936 315.313 198.101 314.852 198.101 314.325C198.101 313.799 197.936 313.343 197.607 312.959C197.278 312.564 196.823 312.263 196.241 312.054C195.671 311.846 195.007 311.742 194.25 311.742Z" fill="black"/>
<path d="M178.238 314.77H180.954V316.185H178.238V314.77ZM175.259 310.902H176.592V313.618C176.592 314.43 176.516 315.231 176.362 316.021C176.219 316.8 176.006 317.535 175.72 318.226C175.435 318.917 175.078 319.542 174.651 320.102C174.223 320.65 173.723 321.095 173.153 321.435L172.083 320.135C172.621 319.817 173.087 319.422 173.482 318.95C173.877 318.478 174.206 317.952 174.47 317.37C174.744 316.789 174.941 316.18 175.062 315.543C175.194 314.896 175.259 314.254 175.259 313.618V310.902ZM175.605 310.902H176.922V313.536C176.922 314.139 176.976 314.748 177.086 315.362C177.207 315.966 177.388 316.542 177.629 317.09C177.871 317.639 178.172 318.144 178.534 318.604C178.896 319.065 179.33 319.455 179.835 319.773L178.88 321.106C178.31 320.766 177.816 320.327 177.399 319.789C176.993 319.241 176.658 318.632 176.395 317.962C176.132 317.282 175.934 316.569 175.803 315.823C175.671 315.066 175.605 314.304 175.605 313.536V310.902ZM183.504 309.52H185.15V324.562H183.504V309.52ZM180.443 309.816H182.056V323.854H180.443V309.816Z" fill="black"/>
<path d="M163 311.1H164.498V311.643C164.498 312.18 164.399 312.691 164.202 313.173C164.015 313.645 163.741 314.089 163.379 314.506C163.017 314.912 162.589 315.274 162.095 315.593C161.613 315.911 161.07 316.179 160.466 316.399C159.874 316.618 159.237 316.783 158.557 316.893L157.915 315.527C158.508 315.45 159.056 315.324 159.561 315.148C160.077 314.973 160.543 314.759 160.96 314.506C161.388 314.254 161.75 313.974 162.046 313.667C162.353 313.36 162.589 313.036 162.754 312.696C162.918 312.356 163 312.005 163 311.643V311.1ZM163.461 311.1H164.959V311.643C164.959 312.005 165.036 312.356 165.189 312.696C165.354 313.036 165.59 313.36 165.897 313.667C166.204 313.974 166.566 314.254 166.983 314.506C167.4 314.759 167.866 314.973 168.382 315.148C168.898 315.324 169.452 315.45 170.044 315.527L169.402 316.893C168.722 316.783 168.08 316.618 167.477 316.399C166.884 316.179 166.341 315.911 165.848 315.593C165.354 315.274 164.926 314.912 164.564 314.506C164.213 314.089 163.939 313.645 163.741 313.173C163.555 312.691 163.461 312.18 163.461 311.643V311.1ZM163.083 318.933H164.794V324.562H163.083V318.933ZM157.175 317.979H170.768V319.378H157.175V317.979ZM158.425 310.392H169.501V311.758H158.425V310.392Z" fill="black"/>
<path d="M142.019 311.956H149.359V313.355H142.019V311.956ZM145.689 314.21C146.325 314.21 146.885 314.358 147.368 314.655C147.861 314.951 148.251 315.362 148.536 315.889C148.821 316.405 148.964 317.008 148.964 317.699C148.964 318.39 148.821 318.999 148.536 319.526C148.251 320.053 147.861 320.464 147.368 320.76C146.885 321.056 146.325 321.205 145.689 321.205C145.075 321.205 144.521 321.056 144.027 320.76C143.533 320.464 143.144 320.053 142.858 319.526C142.584 318.999 142.447 318.39 142.447 317.699C142.447 317.008 142.584 316.405 142.858 315.889C143.144 315.362 143.533 314.951 144.027 314.655C144.521 314.358 145.075 314.21 145.689 314.21ZM145.706 315.659C145.376 315.659 145.08 315.746 144.817 315.922C144.554 316.086 144.345 316.322 144.191 316.629C144.049 316.926 143.978 317.282 143.978 317.699C143.978 318.116 144.049 318.478 144.191 318.785C144.345 319.093 144.554 319.334 144.817 319.509C145.08 319.674 145.376 319.756 145.706 319.756C146.035 319.756 146.325 319.674 146.578 319.509C146.841 319.334 147.05 319.093 147.203 318.785C147.357 318.478 147.434 318.116 147.434 317.699C147.434 317.282 147.357 316.926 147.203 316.629C147.05 316.322 146.841 316.086 146.578 315.922C146.325 315.746 146.035 315.659 145.706 315.659ZM153.194 309.52H154.839V324.562H153.194V309.52ZM151.071 315.757H153.737V317.173H151.071V315.757ZM150.001 309.833H151.614V323.871H150.001V309.833ZM144.85 309.948H146.561V312.828H144.85V309.948Z" fill="black"/>
<path d="M126.896 317.716H140.523V319.098H126.896V317.716ZM128.591 309.866H138.811V313.7H130.319V315.56H128.624V312.466H137.1V311.199H128.591V309.866ZM128.624 315.017H139.107V316.35H128.624V315.017ZM132.837 315.692H134.565V318.423H132.837V315.692ZM128.394 320.102H138.894V324.48H137.166V321.501H128.394V320.102Z" fill="black"/>
<path d="M122.454 309.52H124.182V324.562H122.454V309.52ZM118.027 311.116H119.739C119.739 312.235 119.618 313.305 119.377 314.325C119.135 315.346 118.74 316.317 118.192 317.238C117.654 318.149 116.941 318.994 116.052 319.773C115.175 320.552 114.088 321.254 112.794 321.879L111.872 320.513C113.331 319.811 114.511 319.01 115.41 318.111C116.31 317.211 116.968 316.207 117.385 315.099C117.813 313.98 118.027 312.751 118.027 311.413V311.116ZM112.613 311.116H118.801V312.499H112.613V311.116Z" fill="black"/>
<path d="M168.382 287H170.028V302.042H168.382V287ZM162.112 292.99H165.633V294.356H162.112V292.99ZM165.239 287.362H166.851V301.318H165.239V287.362ZM161.996 288.843H163.659C163.659 290.215 163.478 291.509 163.116 292.727C162.764 293.945 162.178 295.069 161.355 296.101C160.543 297.132 159.451 298.054 158.08 298.866L157.092 297.631C158.255 296.94 159.193 296.167 159.906 295.311C160.631 294.455 161.157 293.517 161.486 292.497C161.826 291.476 161.996 290.374 161.996 289.189V288.843ZM157.816 288.843H162.572V290.242H157.816V288.843Z" fill="black"/>
<path d="M142.035 294.603H155.662V295.986H142.035V294.603ZM147.976 292.908H149.704V295.261H147.976V292.908ZM143.813 296.644H145.508V297.862H152.288V296.644H153.983V301.861H143.813V296.644ZM145.508 299.178V300.511H152.288V299.178H145.508ZM143.73 287.28H153.95V290.95H145.458V292.793H143.763V289.699H152.239V288.613H143.73V287.28ZM143.763 292.085H154.246V293.418H143.763V292.085Z" fill="black"/>
<path d="M130.204 296.397H131.965V302.042H130.204V296.397ZM135.388 296.397H137.133V302.042H135.388V296.397ZM126.896 295.476H140.523V296.891H126.896V295.476ZM133.677 287.576C134.73 287.576 135.657 287.713 136.458 287.988C137.259 288.251 137.884 288.629 138.334 289.123C138.784 289.617 139.009 290.204 139.009 290.884C139.009 291.553 138.784 292.14 138.334 292.645C137.884 293.139 137.259 293.523 136.458 293.797C135.657 294.06 134.73 294.192 133.677 294.192C132.623 294.192 131.691 294.06 130.879 293.797C130.078 293.523 129.453 293.139 129.003 292.645C128.553 292.14 128.328 291.553 128.328 290.884C128.328 290.204 128.553 289.617 129.003 289.123C129.453 288.629 130.078 288.251 130.879 287.988C131.691 287.713 132.623 287.576 133.677 287.576ZM133.677 288.942C132.953 288.942 132.322 289.024 131.784 289.189C131.257 289.343 130.846 289.562 130.55 289.847C130.254 290.133 130.105 290.478 130.105 290.884C130.105 291.29 130.254 291.641 130.55 291.937C130.846 292.223 131.257 292.442 131.784 292.596C132.322 292.738 132.953 292.81 133.677 292.81C134.39 292.81 135.01 292.738 135.536 292.596C136.074 292.442 136.491 292.223 136.787 291.937C137.083 291.641 137.231 291.29 137.231 290.884C137.231 290.478 137.083 290.133 136.787 289.847C136.491 289.562 136.074 289.343 135.536 289.189C135.01 289.024 134.39 288.942 133.677 288.942Z" fill="black"/>
<path d="M115.312 289.255H116.694V291.361C116.694 292.173 116.59 292.98 116.381 293.78C116.184 294.57 115.899 295.322 115.525 296.035C115.152 296.737 114.703 297.363 114.176 297.911C113.66 298.449 113.09 298.877 112.464 299.195L111.477 297.829C112.048 297.544 112.563 297.171 113.024 296.71C113.496 296.238 113.902 295.711 114.242 295.13C114.593 294.537 114.856 293.923 115.032 293.287C115.218 292.639 115.312 291.998 115.312 291.361V289.255ZM115.657 289.255H117.023V291.361C117.023 291.954 117.111 292.552 117.286 293.155C117.462 293.748 117.714 294.324 118.043 294.883C118.373 295.432 118.768 295.931 119.228 296.381C119.7 296.82 120.221 297.176 120.792 297.45L119.837 298.816C119.201 298.509 118.625 298.098 118.109 297.582C117.605 297.055 117.166 296.457 116.793 295.788C116.431 295.119 116.151 294.406 115.953 293.649C115.756 292.892 115.657 292.129 115.657 291.361V289.255ZM112.02 288.498H120.199V289.93H112.02V288.498ZM121.68 287.017H123.408V302.058H121.68V287.017ZM123.03 292.941H125.745V294.373H123.03V292.941Z" fill="black"/>
<path d="M111 345.526C111 340.265 115.685 336 121.465 336H276.535C282.315 336 287 340.265 287 345.526V536.474C287 541.735 282.315 546 276.535 546H121.465C115.685 546 111 541.735 111 536.474V345.526Z" fill="#F4F4F4"/>
<rect x="122" y="348" width="131" height="7" fill="#D9D9D9"/>
<rect x="122" y="360" width="153" height="7" fill="#D9D9D9"/>
<rect x="122" y="372" width="113" height="7" fill="#D9D9D9"/>
<rect x="122" y="384" width="153" height="7" fill="#D9D9D9"/>
<rect x="122" y="396" width="131" height="7" fill="#D9D9D9"/>
<rect x="122" y="408" width="113" height="7" fill="#D9D9D9"/>
<rect x="122" y="420" width="139" height="7" fill="#D9D9D9"/>
<rect x="122" y="432" width="131" height="7" fill="#D9D9D9"/>
<rect x="122" y="444" width="84" height="7" fill="#D9D9D9"/>
<rect x="122" y="456" width="131" height="7" fill="#D9D9D9"/>
<rect x="122" y="468" width="54" height="7" fill="#D9D9D9"/>
</g>
<path d="M204 572.5C204 565.596 209.631 560 216.576 560H275.424C282.369 560 288 565.596 288 572.5V572.5C288 579.404 282.369 585 275.424 585H216.576C209.631 585 204 579.404 204 572.5V572.5Z" fill="#FF592F"/>
<path d="M113 572.5C113 565.596 118.631 560 125.576 560H184.424C191.369 560 197 565.596 197 572.5V572.5C197 579.404 191.369 585 184.424 585H125.576C118.631 585 113 579.404 113 572.5V572.5Z" fill="white"/>
<path d="M184.424 584.528V585H125.576V584.528H184.424ZM196.525 572.5C196.525 565.857 191.107 560.472 184.424 560.472H125.576C118.893 560.472 113.475 565.857 113.475 572.5C113.475 579.143 118.893 584.528 125.576 584.528V585L125.252 584.996C118.456 584.825 113 579.296 113 572.5C113 565.704 118.456 560.175 125.252 560.004L125.576 560H184.424L184.748 560.004C191.544 560.175 197 565.704 197 572.5C197 579.296 191.544 584.825 184.748 584.996L184.424 585V584.528C191.107 584.528 196.525 579.143 196.525 572.5Z" fill="#FF592F"/>
<path d="M259.28 574.618H266.31V575.349H259.28V574.618ZM262.337 573.039H263.228V574.916H262.337V573.039ZM260.112 569.041H265.478V571.503H261.004V572.938H260.129V570.798H264.595V569.763H260.112V569.041ZM260.129 572.581H265.656V573.294H260.129V572.581Z" fill="white"/>
<path d="M254.476 570.611H256.123V571.324H254.476V570.611ZM254.417 572.547H256.106V573.269H254.417V572.547ZM257.252 568.498H258.101V576.257H257.252V568.498ZM255.673 568.684H256.514V575.883H255.673V568.684ZM253.941 569.448H254.79C254.79 570.156 254.7 570.824 254.519 571.452C254.338 572.074 254.035 572.652 253.61 573.184C253.192 573.716 252.631 574.194 251.93 574.618L251.42 573.982C252.014 573.625 252.495 573.226 252.863 572.785C253.237 572.343 253.509 571.859 253.678 571.333C253.854 570.807 253.941 570.238 253.941 569.627V569.448ZM251.802 569.448H254.256V570.17H251.802V569.448Z" fill="white"/>
<path d="M248.831 568.498H249.714V574.117H248.831V568.498ZM249.459 570.722H250.818V571.452H249.459V570.722ZM243.984 572.063H244.612C245.155 572.063 245.625 572.057 246.021 572.046C246.423 572.035 246.788 572.012 247.116 571.978C247.445 571.939 247.773 571.885 248.101 571.817L248.195 572.53C247.861 572.598 247.524 572.652 247.184 572.691C246.845 572.725 246.468 572.751 246.055 572.768C245.648 572.785 245.167 572.793 244.612 572.793H243.984V572.063ZM243.984 569.143H247.431V569.864H244.875V572.454H243.984V569.143ZM244.807 575.382H250.037V576.104H244.807V575.382ZM244.807 573.54H245.699V575.73H244.807V573.54Z" fill="white"/>
<path d="M237.451 568.659C238.017 568.659 238.507 568.718 238.92 568.837C239.333 568.956 239.65 569.126 239.871 569.346C240.097 569.567 240.21 569.836 240.21 570.153C240.21 570.458 240.097 570.724 239.871 570.951C239.65 571.172 239.333 571.341 238.92 571.46C238.507 571.573 238.017 571.63 237.451 571.63C236.891 571.63 236.402 571.573 235.983 571.46C235.57 571.341 235.25 571.172 235.023 570.951C234.797 570.724 234.684 570.458 234.684 570.153C234.684 569.836 234.797 569.567 235.023 569.346C235.25 569.126 235.57 568.956 235.983 568.837C236.402 568.718 236.891 568.659 237.451 568.659ZM237.451 569.355C237.067 569.355 236.735 569.386 236.458 569.448C236.181 569.51 235.969 569.601 235.821 569.72C235.674 569.833 235.601 569.977 235.601 570.153C235.601 570.317 235.674 570.458 235.821 570.577C235.969 570.696 236.181 570.787 236.458 570.849C236.735 570.911 237.067 570.942 237.451 570.942C237.836 570.942 238.164 570.911 238.436 570.849C238.713 570.787 238.926 570.696 239.073 570.577C239.22 570.458 239.294 570.317 239.294 570.153C239.294 569.977 239.22 569.833 239.073 569.72C238.926 569.601 238.713 569.51 238.436 569.448C238.164 569.386 237.836 569.355 237.451 569.355ZM234.786 573.574H240.109V576.163H234.786V573.574ZM239.234 574.279H235.652V575.459H239.234V574.279ZM233.945 572.199H240.957V572.912H233.945V572.199Z" fill="white"/>
<path d="M231.255 568.498H232.146V576.274H231.255V568.498ZM231.951 571.477H233.352V572.216H231.951V571.477ZM226.45 573.625H227.078C227.542 573.625 227.97 573.619 228.36 573.608C228.751 573.591 229.13 573.566 229.498 573.532C229.866 573.492 230.239 573.438 230.618 573.37L230.712 574.109C230.321 574.183 229.936 574.239 229.557 574.279C229.184 574.313 228.793 574.338 228.386 574.355C227.984 574.366 227.548 574.372 227.078 574.372H226.45V573.625ZM226.45 569.236H230.058V569.958H227.333V573.973H226.45V569.236Z" fill="white"/>
<path d="M165.21 568.498H166.102V576.257H165.21V568.498ZM162.927 569.321H163.809C163.809 569.898 163.747 570.45 163.623 570.976C163.498 571.503 163.294 572.004 163.011 572.479C162.734 572.949 162.366 573.385 161.908 573.786C161.455 574.188 160.895 574.55 160.227 574.873L159.752 574.168C160.504 573.806 161.113 573.393 161.577 572.929C162.041 572.465 162.38 571.947 162.595 571.375C162.816 570.798 162.927 570.164 162.927 569.474V569.321ZM160.134 569.321H163.326V570.034H160.134V569.321Z" fill="#FF592F"/>
<path d="M157.002 568.498H157.893V576.257H157.002V568.498ZM157.664 571.562H159.064V572.301H157.664V571.562ZM154.998 569.321H155.864C155.864 570.074 155.748 570.792 155.516 571.477C155.29 572.156 154.919 572.782 154.404 573.353C153.894 573.925 153.215 574.423 152.366 574.848L151.874 574.168C152.576 573.806 153.156 573.393 153.614 572.929C154.078 572.465 154.424 571.944 154.65 571.367C154.882 570.79 154.998 570.156 154.998 569.465V569.321ZM152.265 569.321H155.456V570.043H152.265V569.321Z" fill="#FF592F"/>
<path d="M149.854 571.52H151.255V572.258H149.854V571.52ZM149.192 568.498H150.083V576.257H149.192V568.498ZM144.345 569.253H145.236V574.067H144.345V569.253ZM144.345 573.583H144.99C145.55 573.583 146.127 573.56 146.722 573.515C147.322 573.464 147.939 573.373 148.572 573.243L148.666 573.982C148.015 574.112 147.384 574.202 146.773 574.253C146.161 574.299 145.567 574.321 144.99 574.321H144.345V573.583Z" fill="#FF592F"/>
<path d="M211 256H246V257H211V256Z" fill="#D9D9D9"/>
<path d="M256 251.333C256 249.492 257.496 248 259.342 248H285.658C287.504 248 289 249.492 289 251.333V259.667C289 261.508 287.504 263 285.658 263H259.342C257.496 263 256 261.508 256 259.667V251.333Z" fill="#FF592F"/>
<path d="M280.785 258.126C280.494 258.126 280.236 258.091 280.011 258.02C279.79 257.95 279.595 257.858 279.424 257.742C279.254 257.622 279.106 257.494 278.981 257.359L279.402 256.803C279.567 256.963 279.755 257.104 279.965 257.224C280.176 257.344 280.424 257.404 280.71 257.404C280.92 257.404 281.103 257.369 281.258 257.299C281.413 257.229 281.534 257.129 281.619 256.998C281.709 256.868 281.754 256.713 281.754 256.532C281.754 256.332 281.704 256.162 281.604 256.021C281.509 255.876 281.341 255.763 281.1 255.683C280.865 255.603 280.539 255.563 280.123 255.563V254.917C280.489 254.917 280.775 254.876 280.98 254.796C281.191 254.711 281.341 254.601 281.431 254.466C281.526 254.325 281.574 254.17 281.574 254C281.574 253.759 281.499 253.571 281.348 253.436C281.198 253.296 280.99 253.226 280.725 253.226C280.514 253.226 280.316 253.276 280.131 253.376C279.95 253.471 279.78 253.596 279.62 253.752L279.169 253.211C279.389 253.015 279.63 252.855 279.89 252.73C280.151 252.599 280.439 252.534 280.755 252.534C281.085 252.534 281.378 252.589 281.634 252.7C281.889 252.81 282.09 252.97 282.235 253.181C282.38 253.386 282.453 253.636 282.453 253.932C282.453 254.243 282.365 254.503 282.19 254.714C282.02 254.919 281.789 255.077 281.499 255.187V255.225C281.709 255.275 281.899 255.36 282.07 255.48C282.245 255.6 282.383 255.753 282.483 255.939C282.583 256.119 282.633 256.332 282.633 256.577C282.633 256.903 282.548 257.181 282.378 257.412C282.213 257.642 281.99 257.82 281.709 257.945C281.428 258.066 281.12 258.126 280.785 258.126Z" fill="white"/>
<path d="M273.003 259.696V253.879H273.709L273.784 254.338H273.799C273.985 254.188 274.185 254.057 274.401 253.947C274.616 253.837 274.841 253.782 275.077 253.782C275.423 253.782 275.718 253.869 275.964 254.045C276.209 254.22 276.395 254.466 276.52 254.781C276.645 255.092 276.708 255.46 276.708 255.886C276.708 256.357 276.623 256.76 276.452 257.096C276.287 257.432 276.069 257.687 275.798 257.863C275.528 258.038 275.237 258.126 274.927 258.126C274.746 258.126 274.563 258.086 274.378 258.005C274.193 257.92 274.015 257.803 273.844 257.652L273.867 258.359V259.696H273.003ZM274.761 257.397C274.962 257.397 275.14 257.339 275.295 257.224C275.455 257.109 275.58 256.941 275.671 256.72C275.766 256.495 275.813 256.222 275.813 255.901C275.813 255.611 275.778 255.362 275.708 255.157C275.643 254.947 275.54 254.786 275.4 254.676C275.26 254.561 275.074 254.503 274.844 254.503C274.684 254.503 274.523 254.546 274.363 254.631C274.208 254.711 274.042 254.836 273.867 255.007V257.028C274.027 257.164 274.185 257.259 274.34 257.314C274.496 257.369 274.636 257.397 274.761 257.397Z" fill="white"/>
<path d="M270.474 258.126C270.099 258.126 269.758 258.041 269.452 257.87C269.147 257.695 268.904 257.447 268.723 257.126C268.543 256.8 268.453 256.41 268.453 255.954C268.453 255.618 268.505 255.317 268.611 255.052C268.716 254.781 268.859 254.553 269.039 254.368C269.219 254.178 269.422 254.032 269.648 253.932C269.873 253.832 270.104 253.782 270.339 253.782C270.705 253.782 271.013 253.864 271.264 254.03C271.514 254.19 271.704 254.418 271.835 254.714C271.965 255.004 272.03 255.345 272.03 255.736C272.03 255.821 272.025 255.904 272.015 255.984C272.01 256.059 272 256.124 271.985 256.179H269.302C269.327 256.44 269.395 256.665 269.505 256.856C269.62 257.041 269.768 257.186 269.948 257.291C270.134 257.392 270.344 257.442 270.58 257.442C270.765 257.442 270.938 257.414 271.098 257.359C271.259 257.304 271.414 257.229 271.564 257.134L271.865 257.682C271.674 257.808 271.461 257.913 271.226 257.998C270.995 258.083 270.745 258.126 270.474 258.126ZM269.294 255.578H271.279C271.279 255.227 271.198 254.954 271.038 254.759C270.883 254.563 270.655 254.466 270.354 254.466C270.184 254.466 270.023 254.508 269.873 254.593C269.723 254.679 269.595 254.804 269.49 254.969C269.39 255.135 269.325 255.337 269.294 255.578Z" fill="white"/>
<path d="M267.311 258.125C267 258.125 266.752 258.065 266.567 257.945C266.386 257.82 266.256 257.649 266.176 257.434C266.096 257.214 266.055 256.958 266.055 256.667V254.578H265.454V253.932L266.101 253.879L266.198 252.737H266.92V253.879H267.994V254.578H266.92V256.675C266.92 256.92 266.967 257.108 267.063 257.239C267.158 257.364 267.313 257.426 267.528 257.426C267.599 257.426 267.674 257.416 267.754 257.396C267.834 257.376 267.904 257.354 267.964 257.329L268.122 257.968C268.012 258.003 267.887 258.038 267.746 258.073C267.611 258.108 267.466 258.125 267.311 258.125Z" fill="white"/>
<path d="M263.634 258.126C263.354 258.126 263.073 258.071 262.793 257.96C262.517 257.85 262.279 257.712 262.079 257.547L262.492 256.983C262.672 257.129 262.855 257.246 263.041 257.337C263.231 257.422 263.436 257.464 263.657 257.464C263.902 257.464 264.083 257.412 264.198 257.306C264.318 257.196 264.378 257.063 264.378 256.908C264.378 256.783 264.333 256.678 264.243 256.593C264.158 256.507 264.045 256.435 263.905 256.375C263.765 256.309 263.619 256.249 263.469 256.194C263.284 256.124 263.101 256.041 262.92 255.946C262.745 255.846 262.6 255.721 262.484 255.57C262.369 255.415 262.312 255.222 262.312 254.992C262.312 254.756 262.369 254.548 262.484 254.368C262.605 254.188 262.775 254.045 262.995 253.94C263.216 253.834 263.479 253.782 263.785 253.782C264.06 253.782 264.311 253.829 264.536 253.925C264.767 254.02 264.962 254.135 265.122 254.27L264.724 254.804C264.579 254.699 264.431 254.613 264.281 254.548C264.13 254.478 263.973 254.443 263.807 254.443C263.577 254.443 263.406 254.493 263.296 254.593C263.186 254.689 263.131 254.809 263.131 254.954C263.131 255.069 263.171 255.165 263.251 255.24C263.331 255.315 263.436 255.38 263.567 255.435C263.702 255.49 263.845 255.548 263.995 255.608C264.14 255.658 264.283 255.718 264.423 255.788C264.569 255.854 264.699 255.934 264.814 256.029C264.929 256.119 265.022 256.232 265.092 256.367C265.167 256.497 265.205 256.66 265.205 256.856C265.205 257.086 265.145 257.299 265.025 257.494C264.904 257.69 264.729 257.845 264.499 257.96C264.268 258.071 263.98 258.126 263.634 258.126Z" fill="white"/>
<path d="M249 257C249 260.314 246.09 263 242.5 263C238.91 263 236 260.314 236 257C236 253.686 238.91 251 242.5 251C246.09 251 249 253.686 249 257Z" fill="#FF592F"/>
<path d="M216 257C216 259.209 214.209 261 212 261C209.791 261 208 259.209 208 257C208 254.791 209.791 253 212 253C214.209 253 216 254.791 216 257Z" fill="#D9D9D9"/>
<path d="M230 257C230 259.209 228.209 261 226 261C223.791 261 222 259.209 222 257C222 254.791 223.791 253 226 253C228.209 253 230 254.791 230 257Z" fill="#D9D9D9"/>
<rect x="159.547" y="119.629" width="53.7973" height="63.5787" transform="rotate(-34.7047 159.547 119.629)" fill="#3179FF"/>
<rect x="166.352" y="120.865" width="43.0379" height="30.3221" transform="rotate(-34.7047 166.352 120.865)" fill="#FF592F"/>
<path d="M201.307 133.541L183.616 145.793L166.352 120.865L201.733 96.3617L210.365 108.826" stroke="black"/>
<path d="M221.873 115.134L203.774 89L181.661 104.315L159.547 119.629L168.597 132.696M177.647 145.763L195.746 171.897L217.859 156.583" stroke="black"/>
<rect x="185.844" y="149.01" width="43.0379" height="1.95627" transform="rotate(-34.7047 185.844 149.01)" fill="white"/>
<rect x="188.071" y="152.226" width="43.0379" height="1.95627" transform="rotate(-34.7047 188.071 152.226)" fill="white"/>
<rect x="210.402" y="141.52" width="18.5845" height="0.978133" transform="rotate(-34.7047 210.402 141.52)" fill="white"/>
<path d="M180.692 154.317C181.364 154.076 182.079 153.981 182.791 154.04L190.303 154.656C191.158 154.726 191.533 155.771 190.918 156.37L185.514 161.624C185.003 162.121 184.39 162.504 183.718 162.745L153.85 173.47C152.291 174.03 150.572 173.22 150.013 171.661L149.014 168.88C148.454 167.321 149.264 165.603 150.824 165.043L180.692 154.317Z" fill="#FF592F"/>
<rect x="154.743" y="163.635" width="8.95474" height="1.79095" transform="rotate(70.2473 154.743 163.635)" fill="#3179FF"/>
<path d="M167.882 168.432L153.85 173.47C152.291 174.03 150.572 173.22 150.013 171.661L149.014 168.88C148.454 167.321 149.264 165.603 150.824 165.043L164.856 160.004L169.07 158.491L173.284 156.977L177.498 155.464L180.692 154.317C181.364 154.076 182.079 153.981 182.791 154.04L190.303 154.656C191.158 154.726 191.533 155.771 190.918 156.37L188.617 158.607" stroke="black"/>
<defs>
<clipPath id="clip0_169_819">
<rect width="206" height="364" fill="white" transform="translate(98 235)"/>
</clipPath>
</defs>
</svg>
