<svg width="412" height="732" viewBox="0 0 412 732" fill="none" xmlns="http://www.w3.org/2000/svg">
<g clip-path="url(#clip0_169_1068)">
<rect width="412" height="732" fill="#F5F5F5"/>
<rect x="-0.387925" y="71.6959" width="229" height="387" rx="19.5" transform="rotate(-14.9519 -0.387925 71.6959)" fill="#242424" stroke="#F5F5F5"/>
<g clip-path="url(#clip1_169_1068)">
<rect x="13.6895" y="79.8394" width="206" height="364" rx="14" transform="rotate(-14.9519 13.6895 79.8394)" fill="white"/>
<rect x="25.2998" y="123.316" width="206" height="319" transform="rotate(-14.9519 25.2998 123.316)" fill="#F4F4F4"/>
<path d="M16.5276 90.4668L214.587 37.5753L223.534 71.0778L25.4744 123.969L16.5276 90.4668Z" fill="white"/>
<path d="M32.6995 119.401L72.1143 108.875L72.7721 111.339L33.3573 121.864L32.6995 119.401Z" fill="#FF592F"/>
<path d="M37.2952 103.158L38.5802 102.815L40.9693 111.762L39.6844 112.105L37.2952 103.158ZM34.9053 104.79L36.171 104.452C36.3533 105.135 36.4603 105.807 36.4919 106.468C36.5282 107.121 36.4648 107.762 36.3019 108.392C36.1453 109.02 35.8626 109.641 35.4535 110.254C35.0492 110.859 34.5025 111.46 33.8135 112.058L32.8663 111.224C33.6176 110.575 34.1806 109.931 34.5552 109.293C34.9346 108.647 35.1519 107.975 35.207 107.277C35.2605 106.572 35.1805 105.821 34.9673 105.022L34.9053 104.79ZM31.8813 105.598L35.5043 104.63L35.7778 105.654L32.1548 106.622L31.8813 105.598ZM41.3013 107.233L49.3976 105.071L49.6685 106.085L41.5722 108.247L41.3013 107.233ZM41.0509 102.342L47.1762 100.706L47.8238 103.131L42.9835 104.424L43.2415 105.39L41.9758 105.728L41.4753 103.854L46.3157 102.561L46.1712 102.02L41.3115 103.318L41.0509 102.342ZM41.8752 105.351L48.1551 103.674L48.4157 104.65L42.1358 106.327L41.8752 105.351ZM44.4073 105.182L45.6826 104.841L46.1341 106.532L44.8588 106.873L44.4073 105.182ZM42.5952 108.512L48.8751 106.835L49.5718 109.444L48.2868 109.787L47.8637 108.203L42.8687 109.536L42.5952 108.512ZM50.7412 106.927L58.8471 104.762L59.1258 105.806L51.0198 107.97L50.7412 106.927ZM53.6157 104.048L54.891 103.707L55.4844 105.929L54.2091 106.27L53.6157 104.048ZM49.935 100.497L56.3019 98.797L57.4758 103.193L51.1089 104.893L49.935 100.497ZM55.3071 100.149L51.4715 101.174L52.1011 103.531L55.9367 102.507L55.3071 100.149ZM61.8794 96.7796C62.5428 96.6024 63.135 96.5202 63.6559 96.5329C64.1751 96.5392 64.602 96.6391 64.9366 96.8326C65.2759 97.018 65.4938 97.2911 65.5901 97.6518C65.6864 98.0125 65.6346 98.361 65.4346 98.6973C65.2393 99.0254 64.919 99.3249 64.4738 99.5956C64.0286 99.8663 63.4743 100.09 62.8108 100.267C62.1603 100.441 61.5714 100.522 61.044 100.512C60.5166 100.501 60.0865 100.401 59.7536 100.214C59.419 100.021 59.2036 99.7437 59.1073 99.383C59.0109 99.0223 59.0604 98.6779 59.2557 98.3497C59.4493 98.0151 59.7727 97.7148 60.2261 97.4488C60.6778 97.1764 61.2289 96.9533 61.8794 96.7796ZM62.1426 97.7651C61.7433 97.8717 61.4064 97.9927 61.132 98.1281C60.856 98.257 60.6585 98.396 60.5396 98.5451C60.4271 98.6924 60.3941 98.853 60.4405 99.0269C60.4853 99.1944 60.594 99.3172 60.7666 99.3953C60.944 99.4652 61.1854 99.4905 61.4907 99.471C61.7943 99.4452 62.1457 99.3789 62.5451 99.2723C62.9573 99.1622 63.2982 99.0435 63.5679 98.9163C63.8358 98.7827 64.0292 98.6413 64.1481 98.4923C64.2653 98.3368 64.3015 98.1753 64.2568 98.0078C64.2104 97.8339 64.0985 97.712 63.9211 97.6421C63.7437 97.5721 63.5064 97.5492 63.2093 97.5734C62.9104 97.5911 62.5548 97.655 62.1426 97.7651ZM60.2823 103.24L66.4656 101.589L67.2809 104.642L61.0976 106.293L60.2823 103.24ZM65.4805 102.939L61.8092 103.919L62.0827 104.944L65.754 103.963L65.4805 102.939ZM58.8994 101.86L66.9957 99.6984L67.264 100.703L59.1678 102.865L58.8994 101.86Z" fill="#FF592F"/>
<path d="M84.2755 95.8705L85.2802 95.6021L85.6673 97.0514L84.6625 97.3197L84.2755 95.8705ZM80.6425 96.2196L88.6229 94.0885L88.8396 94.9L80.8593 97.0312L80.6425 96.2196ZM81.981 97.7046L88.1063 96.0688L88.8675 98.9189L87.853 99.1898L87.3086 97.1513L82.1977 98.5161L81.981 97.7046ZM80.5953 91.8954L81.6 91.6271L81.84 92.5256L85.7432 91.4832L85.5033 90.5847L86.5081 90.3164L87.4008 93.6593L81.488 95.2383L80.5953 91.8954ZM82.0464 93.2985L82.2786 94.168L86.1818 93.1257L85.9496 92.2562L82.0464 93.2985ZM88.9287 90.3531L93.0638 89.2488L94.6067 95.0264L90.4716 96.1306L88.9287 90.3531ZM92.2854 90.3261L90.1406 90.8989L91.2526 95.063L93.3974 94.4902L92.2854 90.3261ZM94.2183 88.0297L95.2328 87.7588L97.591 96.5893L96.5765 96.8602L94.2183 88.0297ZM95.9291 91.2576L97.5232 90.8319L97.7477 91.6724L96.1535 92.0981L95.9291 91.2576ZM98.4322 87.8048L104.017 86.3136L104.236 87.1348L98.6515 88.6261L98.4322 87.8048ZM99.1095 94.0619L107.09 91.9308L107.312 92.7617L99.3314 94.8928L99.1095 94.0619ZM103.591 86.4271L104.587 86.1613L104.868 87.2144C104.983 87.646 105.092 88.0792 105.194 88.5142C105.297 88.9492 105.388 89.4216 105.469 89.9313C105.55 90.441 105.605 91.0231 105.635 91.6775L104.607 91.8589C104.588 91.2431 104.539 90.6868 104.462 90.1899C104.389 89.6849 104.301 89.2117 104.196 88.7703C104.092 88.3289 103.984 87.8988 103.873 87.4802L103.591 86.4271ZM104.461 88.7928L104.662 89.5464L99.2522 91.3017L98.895 90.5069L104.461 88.7928Z" fill="black"/>
<path d="M125.394 79.6941L126.408 79.4232L128.767 88.2537L127.752 88.5246L125.394 79.6941ZM123.045 81.3253L124.05 81.057C124.225 81.7139 124.322 82.3608 124.341 82.9977C124.359 83.6345 124.279 84.2665 124.102 84.8935C123.929 85.5124 123.643 86.1202 123.243 86.7168C122.85 87.3117 122.322 87.8942 121.66 88.4643L120.905 87.8069C121.652 87.1659 122.218 86.5108 122.606 85.8416C122.993 85.1724 123.222 84.4799 123.293 83.764C123.369 83.0399 123.302 82.285 123.092 81.4992L123.045 81.3253ZM119.867 82.1741L123.499 81.204L123.716 82.0156L120.083 82.9857L119.867 82.1741ZM129.287 83.8091L137.286 81.6728L137.503 82.4843L129.503 84.6206L129.287 83.8091ZM129.051 78.9348L135.051 77.3326L135.652 79.5837L130.667 80.915L130.958 82.0068L129.963 82.2725L129.478 80.4562L134.454 79.1274L134.255 78.3835L129.26 79.7174L129.051 78.9348ZM129.878 81.9537L136.032 80.3102L136.241 81.0927L130.087 82.7363L129.878 81.9537ZM132.457 81.6893L133.471 81.4184L133.9 83.0222L132.885 83.2931L132.457 81.6893ZM130.54 84.9752L136.704 83.3291L137.39 85.899L136.376 86.1699L135.909 84.4212L130.759 85.7964L130.54 84.9752ZM140.502 76.239L141.565 75.9552C141.768 76.7152 141.789 77.4377 141.627 78.1228C141.464 78.8078 141.138 79.4469 140.648 80.0401C140.156 80.6269 139.517 81.153 138.73 81.6183L138.116 80.9441C138.788 80.5436 139.333 80.1153 139.749 79.6591C140.17 79.1947 140.455 78.7115 140.604 78.2094C140.753 77.7074 140.76 77.2051 140.626 76.7027L140.502 76.239ZM137.565 77.0233L141.198 76.0532L141.415 76.8648L137.782 77.8349L137.565 77.0233ZM143.191 74.9517L144.206 74.6807L145.537 79.666L144.523 79.937L143.191 74.9517ZM142.035 77.5995L143.939 77.0913L144.161 77.9222L142.257 78.4304L142.035 77.5995ZM139.887 81.5683L145.635 80.0332L146.533 83.3954L140.784 84.9305L139.887 81.5683ZM144.854 81.1008L141.096 82.1045L141.563 83.8532L145.321 82.8495L144.854 81.1008ZM147.646 74.3106L148.448 74.0965L148.745 75.2075C148.87 75.6777 148.917 76.1621 148.884 76.6607C148.856 77.1511 148.739 77.6171 148.533 78.0586C148.327 78.5002 148.021 78.8818 147.617 79.2036L146.877 78.563C147.222 78.2777 147.488 77.9549 147.674 77.5945C147.861 77.2342 147.973 76.8661 148.011 76.4903C148.055 76.1128 148.032 75.7566 147.943 75.4217L147.646 74.3106ZM147.83 74.2616L148.622 74.05L148.918 75.1611C149.006 75.4896 149.157 75.7944 149.37 76.0756C149.583 76.3568 149.849 76.5927 150.169 76.7833C150.496 76.9721 150.87 77.0931 151.291 77.1462L150.956 78.0636C150.47 78.0002 150.035 77.8438 149.651 77.5945C149.272 77.3369 148.952 77.0186 148.692 76.6395C148.437 76.2523 148.248 75.83 148.126 75.3727L147.83 74.2616ZM152.292 72.5214L153.258 72.2634L154.685 77.6062L153.718 77.8642L152.292 72.5214ZM151.622 75.0912L153.177 74.6758L153.397 75.497L151.841 75.9124L151.622 75.0912ZM150.446 73.1695L151.403 72.914L152.778 78.0636L151.822 78.319L150.446 73.1695ZM148.813 79.6503L154.803 78.0506L155.616 81.094L154.611 81.3623L154.015 79.1305L149.03 80.4618L148.813 79.6503Z" fill="black"/>
<rect x="36.125" y="132.845" width="93" height="85" rx="6" transform="rotate(-14.9519 36.125 132.845)" fill="white"/>
<path d="M127.225 179.417L134.955 177.353C135.221 177.282 135.495 177.441 135.567 177.707L138.15 187.38C138.255 187.777 137.864 188.125 137.482 187.974L134.232 186.683C133.655 186.454 133.002 186.605 132.583 187.051L132.503 187.144L130.329 189.884C130.073 190.206 129.561 190.099 129.454 189.702L126.871 180.03C126.8 179.763 126.959 179.489 127.225 179.417Z" stroke="#D9D9D9"/>
<rect x="47.6583" y="141.151" width="75" height="4" transform="rotate(-14.9519 47.6583 141.151)" fill="#D9D9D9"/>
<rect x="49.7224" y="148.88" width="75" height="4" transform="rotate(-14.9519 49.7224 148.88)" fill="#D9D9D9"/>
<rect x="51.7865" y="156.609" width="75" height="4" transform="rotate(-14.9519 51.7865 156.609)" fill="#D9D9D9"/>
<rect x="53.8506" y="164.338" width="75" height="4" transform="rotate(-14.9519 53.8506 164.338)" fill="#D9D9D9"/>
<rect x="55.9146" y="172.067" width="75" height="4" transform="rotate(-14.9519 55.9146 172.067)" fill="#D9D9D9"/>
<rect x="57.9786" y="179.796" width="75" height="4" transform="rotate(-14.9519 57.9786 179.796)" fill="#D9D9D9"/>
<rect x="60.0427" y="187.525" width="75" height="4" transform="rotate(-14.9519 60.0427 187.525)" fill="#D9D9D9"/>
<rect x="59.0876" y="218.832" width="93" height="85" rx="6" transform="rotate(-14.9519 59.0876 218.832)" fill="white"/>
<path d="M150.188 265.404L157.917 263.34C158.184 263.269 158.458 263.427 158.529 263.694L161.112 273.367C161.218 273.764 160.827 274.112 160.445 273.961L157.194 272.67C156.618 272.441 155.964 272.591 155.546 273.038L155.466 273.131L153.291 275.871C153.036 276.192 152.523 276.086 152.417 275.689L149.834 266.016C149.763 265.75 149.921 265.476 150.188 265.404Z" stroke="#D9D9D9"/>
<rect x="70.621" y="227.138" width="75" height="4" transform="rotate(-14.9519 70.621 227.138)" fill="#D9D9D9"/>
<rect x="72.6851" y="234.867" width="75" height="4" transform="rotate(-14.9519 72.6851 234.867)" fill="#D9D9D9"/>
<rect x="74.7491" y="242.596" width="75" height="4" transform="rotate(-14.9519 74.7491 242.596)" fill="#D9D9D9"/>
<rect x="76.8132" y="250.325" width="75" height="4" transform="rotate(-14.9519 76.8132 250.325)" fill="#D9D9D9"/>
<rect x="78.8772" y="258.054" width="75" height="4" transform="rotate(-14.9519 78.8772 258.054)" fill="#D9D9D9"/>
<rect x="80.9413" y="265.783" width="75" height="4" transform="rotate(-14.9519 80.9413 265.783)" fill="#D9D9D9"/>
<rect x="83.0054" y="273.512" width="75" height="4" transform="rotate(-14.9519 83.0054 273.512)" fill="#D9D9D9"/>
<rect x="82.0504" y="304.819" width="93" height="85" rx="6" transform="rotate(-14.9519 82.0504 304.819)" fill="white"/>
<path d="M173.151 351.391L180.88 349.327C181.147 349.256 181.421 349.414 181.492 349.681L184.075 359.354C184.181 359.751 183.79 360.099 183.408 359.947L180.157 358.657C179.581 358.428 178.927 358.578 178.509 359.025L178.429 359.118L176.254 361.858C175.999 362.179 175.486 362.073 175.38 361.676L172.797 352.003C172.725 351.736 172.884 351.462 173.151 351.391Z" stroke="#D9D9D9"/>
<rect x="93.5837" y="313.125" width="75" height="4" transform="rotate(-14.9519 93.5837 313.125)" fill="#D9D9D9"/>
<rect x="95.6478" y="320.854" width="75" height="4" transform="rotate(-14.9519 95.6478 320.854)" fill="#D9D9D9"/>
<rect x="97.7119" y="328.583" width="75" height="4" transform="rotate(-14.9519 97.7119 328.583)" fill="#D9D9D9"/>
<rect x="99.776" y="336.312" width="75" height="4" transform="rotate(-14.9519 99.776 336.312)" fill="#D9D9D9"/>
<rect x="101.84" y="344.041" width="75" height="4" transform="rotate(-14.9519 101.84 344.041)" fill="#D9D9D9"/>
<rect x="103.904" y="351.77" width="75" height="4" transform="rotate(-14.9519 103.904 351.77)" fill="#D9D9D9"/>
<rect x="105.968" y="359.499" width="75" height="4" transform="rotate(-14.9519 105.968 359.499)" fill="#D9D9D9"/>
<rect x="105.013" y="390.806" width="93" height="85" rx="6" transform="rotate(-14.9519 105.013 390.806)" fill="white"/>
<rect x="116.546" y="399.111" width="75" height="4" transform="rotate(-14.9519 116.546 399.111)" fill="#D9D9D9"/>
<rect x="118.61" y="406.84" width="75" height="4" transform="rotate(-14.9519 118.61 406.84)" fill="#D9D9D9"/>
<rect x="120.675" y="414.569" width="75" height="4" transform="rotate(-14.9519 120.675 414.569)" fill="#D9D9D9"/>
<rect x="122.739" y="422.299" width="75" height="4" transform="rotate(-14.9519 122.739 422.299)" fill="#D9D9D9"/>
<rect x="124.803" y="430.028" width="75" height="4" transform="rotate(-14.9519 124.803 430.028)" fill="#D9D9D9"/>
<rect x="126.867" y="437.757" width="75" height="4" transform="rotate(-14.9519 126.867 437.757)" fill="#D9D9D9"/>
<rect x="128.931" y="445.486" width="75" height="4" transform="rotate(-14.9519 128.931 445.486)" fill="#D9D9D9"/>
<rect x="129.841" y="107.819" width="93" height="85" rx="6" transform="rotate(-14.9519 129.841 107.819)" fill="white"/>
<path d="M220.941 154.391L228.67 152.327C228.937 152.256 229.211 152.414 229.283 152.681L231.866 162.354C231.971 162.751 231.58 163.099 231.198 162.947L227.948 161.657C227.371 161.428 226.718 161.578 226.299 162.025L226.219 162.118L224.045 164.858C223.789 165.179 223.277 165.073 223.17 164.676L220.587 155.003C220.516 154.736 220.675 154.462 220.941 154.391Z" stroke="#D9D9D9"/>
<rect x="141.374" y="116.125" width="75" height="4" transform="rotate(-14.9519 141.374 116.125)" fill="#D9D9D9"/>
<rect x="143.438" y="123.854" width="75" height="4" transform="rotate(-14.9519 143.438 123.854)" fill="#D9D9D9"/>
<rect x="145.502" y="131.583" width="75" height="4" transform="rotate(-14.9519 145.502 131.583)" fill="#D9D9D9"/>
<rect x="147.567" y="139.312" width="75" height="4" transform="rotate(-14.9519 147.567 139.312)" fill="#D9D9D9"/>
<rect x="149.63" y="147.041" width="75" height="4" transform="rotate(-14.9519 149.63 147.041)" fill="#D9D9D9"/>
<rect x="151.695" y="154.77" width="75" height="4" transform="rotate(-14.9519 151.695 154.77)" fill="#D9D9D9"/>
<rect x="153.759" y="162.499" width="75" height="4" transform="rotate(-14.9519 153.759 162.499)" fill="#D9D9D9"/>
<rect x="152.804" y="193.806" width="93" height="85" rx="6" transform="rotate(-14.9519 152.804 193.806)" fill="white"/>
<path d="M243.904 240.378L251.633 238.314C251.9 238.243 252.174 238.401 252.245 238.668L254.828 248.341C254.934 248.737 254.543 249.086 254.161 248.934L250.91 247.643C250.334 247.415 249.68 247.565 249.262 248.012L249.182 248.105L247.007 250.845C246.752 251.166 246.239 251.059 246.133 250.663L243.55 240.99C243.479 240.723 243.637 240.449 243.904 240.378Z" stroke="#D9D9D9"/>
<rect x="164.337" y="202.111" width="75" height="4" transform="rotate(-14.9519 164.337 202.111)" fill="#D9D9D9"/>
<rect x="166.401" y="209.84" width="75" height="4" transform="rotate(-14.9519 166.401 209.84)" fill="#D9D9D9"/>
<rect x="168.465" y="217.569" width="75" height="4" transform="rotate(-14.9519 168.465 217.569)" fill="#D9D9D9"/>
<rect x="170.529" y="225.299" width="75" height="4" transform="rotate(-14.9519 170.529 225.299)" fill="#D9D9D9"/>
<rect x="172.593" y="233.028" width="75" height="4" transform="rotate(-14.9519 172.593 233.028)" fill="#D9D9D9"/>
<rect x="174.657" y="240.757" width="75" height="4" transform="rotate(-14.9519 174.657 240.757)" fill="#D9D9D9"/>
<rect x="176.721" y="248.486" width="75" height="4" transform="rotate(-14.9519 176.721 248.486)" fill="#D9D9D9"/>
<rect x="175.766" y="279.792" width="93" height="85" rx="6" transform="rotate(-14.9519 175.766 279.792)" fill="white"/>
<path d="M266.867 326.364L274.596 324.3C274.863 324.229 275.137 324.387 275.208 324.654L277.791 334.327C277.897 334.724 277.505 335.072 277.124 334.921L273.873 333.63C273.296 333.401 272.643 333.551 272.225 333.998L272.144 334.091L269.97 336.831C269.715 337.152 269.202 337.046 269.096 336.649L266.513 326.976C266.441 326.71 266.6 326.435 266.867 326.364Z" stroke="#D9D9D9"/>
<rect x="187.3" y="288.098" width="75" height="4" transform="rotate(-14.9519 187.3 288.098)" fill="#D9D9D9"/>
<rect x="189.364" y="295.827" width="75" height="4" transform="rotate(-14.9519 189.364 295.827)" fill="#D9D9D9"/>
<rect x="191.428" y="303.556" width="75" height="4" transform="rotate(-14.9519 191.428 303.556)" fill="#D9D9D9"/>
<rect x="193.492" y="311.285" width="75" height="4" transform="rotate(-14.9519 193.492 311.285)" fill="#D9D9D9"/>
<rect x="195.556" y="319.014" width="75" height="4" transform="rotate(-14.9519 195.556 319.014)" fill="#D9D9D9"/>
<rect x="197.62" y="326.743" width="75" height="4" transform="rotate(-14.9519 197.62 326.743)" fill="#D9D9D9"/>
<rect x="199.684" y="334.472" width="75" height="4" transform="rotate(-14.9519 199.684 334.472)" fill="#D9D9D9"/>
<rect x="198.729" y="365.779" width="93" height="85" rx="6" transform="rotate(-14.9519 198.729 365.779)" fill="white"/>
<path d="M289.829 412.351L297.558 410.287C297.825 410.216 298.099 410.374 298.17 410.641L300.754 420.314C300.859 420.711 300.468 421.059 300.086 420.907L296.836 419.617C296.259 419.388 295.606 419.538 295.187 419.985L295.107 420.078L292.933 422.818C292.677 423.139 292.164 423.033 292.058 422.636L289.475 412.963C289.404 412.696 289.562 412.422 289.829 412.351Z" stroke="#D9D9D9"/>
<rect x="210.262" y="374.084" width="75" height="4" transform="rotate(-14.9519 210.262 374.084)" fill="#D9D9D9"/>
<rect x="212.326" y="381.813" width="75" height="4" transform="rotate(-14.9519 212.326 381.813)" fill="#D9D9D9"/>
<rect x="214.39" y="389.542" width="75" height="4" transform="rotate(-14.9519 214.39 389.542)" fill="#D9D9D9"/>
<rect x="216.454" y="397.272" width="75" height="4" transform="rotate(-14.9519 216.454 397.272)" fill="#D9D9D9"/>
<rect x="218.518" y="405.001" width="75" height="4" transform="rotate(-14.9519 218.518 405.001)" fill="#D9D9D9"/>
<rect x="220.583" y="412.73" width="75" height="4" transform="rotate(-14.9519 220.583 412.73)" fill="#D9D9D9"/>
<rect x="222.647" y="420.459" width="75" height="4" transform="rotate(-14.9519 222.647 420.459)" fill="#D9D9D9"/>
</g>
<rect x="162.835" y="263.594" width="229" height="387" rx="19.5" transform="rotate(12.118 162.835 263.594)" fill="#242424" stroke="#F5F5F5"/>
<g clip-path="url(#clip2_169_1068)">
<rect x="171.665" y="277.252" width="206" height="364" rx="14" transform="rotate(12.118 171.665 277.252)" fill="white"/>
<rect x="162.218" y="321.249" width="206" height="319" transform="rotate(12.118 162.218 321.249)" fill="#F4F4F4"/>
<path d="M169.355 288.007L369.788 331.042L362.508 364.946L162.076 321.911L169.355 288.007Z" fill="white"/>
<path d="M170.46 320.973L201.747 327.691L201.117 330.624L169.83 323.906L170.46 320.973Z" fill="#FF592F"/>
<path d="M182.346 308.818L183.578 309.082L181.634 318.136L180.402 317.871L182.346 308.818ZM180.414 312.054L181.919 312.377L181.695 313.423L180.189 313.1L180.414 312.054ZM180.289 308.539L181.501 308.8L179.681 317.277L178.469 317.016L180.289 308.539ZM175.97 308.502L177.271 308.781L176.148 314.012L174.847 313.733L175.97 308.502ZM174.954 313.234L175.58 313.369C176.017 313.462 176.489 313.55 176.996 313.632C177.512 313.708 178.062 313.751 178.646 313.761L178.524 314.901C177.915 314.879 177.346 314.829 176.818 314.749C176.289 314.67 175.797 314.581 175.341 314.483L174.715 314.349L174.954 313.234ZM191.001 313.642L193.387 314.154L193.162 315.2L190.776 314.688L191.001 313.642ZM188.997 310.972L190.043 311.196L189.76 312.516C189.638 313.083 189.471 313.624 189.258 314.137C189.046 314.651 188.789 315.117 188.487 315.537C188.186 315.956 187.841 316.308 187.453 316.593C187.071 316.879 186.645 317.084 186.175 317.208L185.586 315.998C186.01 315.898 186.39 315.731 186.727 315.496C187.07 315.263 187.373 314.98 187.635 314.648C187.905 314.31 188.127 313.942 188.302 313.543C188.484 313.139 188.621 312.722 188.714 312.292L188.997 310.972ZM189.261 311.028L190.297 311.251L190.014 312.571C189.923 312.995 189.875 313.424 189.87 313.859C189.867 314.288 189.911 314.7 190.004 315.095C190.103 315.491 190.259 315.859 190.473 316.198C190.688 316.531 190.966 316.822 191.308 317.073L190.303 317.941C189.924 317.642 189.618 317.29 189.384 316.885C189.152 316.474 188.986 316.025 188.886 315.54C188.792 315.056 188.752 314.543 188.766 314.001C188.787 313.46 188.857 312.909 188.978 312.348L189.261 311.028ZM193.343 311.168L194.643 311.448L192.693 320.531L191.392 320.251L193.343 311.168ZM202.638 313.174L203.879 313.441L201.936 322.495L200.694 322.228L202.638 313.174ZM200.817 316.414L202.313 316.736L202.086 317.792L200.59 317.47L200.817 316.414ZM200.661 312.903L201.873 313.164L200.047 321.67L198.834 321.409L200.661 312.903ZM197.347 313.521L198.335 313.733L198.164 314.525C198.044 315.086 197.892 315.619 197.708 316.125C197.533 316.626 197.318 317.085 197.065 317.501C196.82 317.912 196.533 318.266 196.203 318.564C195.873 318.861 195.496 319.08 195.07 319.22L194.5 318.065C195.007 317.894 195.436 317.625 195.788 317.257C196.14 316.89 196.428 316.454 196.652 315.95C196.877 315.439 197.052 314.894 197.177 314.313L197.347 313.521ZM197.611 313.578L198.599 313.79L198.428 314.582C198.315 315.11 198.261 315.634 198.265 316.153C198.276 316.673 198.37 317.157 198.547 317.604C198.73 318.053 199.021 318.443 199.421 318.774L198.466 319.602C198.016 319.219 197.693 318.754 197.497 318.207C197.3 317.661 197.204 317.06 197.208 316.407C197.212 315.753 197.29 315.074 197.441 314.37L197.611 313.578ZM195.948 312.7L200.065 313.583L199.84 314.629L195.724 313.746L195.948 312.7Z" fill="#FF592F"/>
<path d="M224.694 321.04L227.129 321.563L226.95 322.394L224.516 321.871L224.694 321.04ZM222.888 318.351L223.719 318.529L223.405 319.996C223.291 320.524 223.125 321.027 222.907 321.505C222.69 321.977 222.426 322.408 222.118 322.798C221.817 323.184 221.477 323.513 221.098 323.786C220.726 324.054 220.327 324.245 219.901 324.358L219.44 323.41C219.828 323.316 220.19 323.155 220.525 322.927C220.867 322.7 221.175 322.425 221.449 322.102C221.731 321.774 221.964 321.419 222.148 321.035C222.341 320.647 222.483 320.241 222.574 319.818L222.888 318.351ZM223.094 318.395L223.915 318.571L223.6 320.038C223.512 320.449 223.473 320.867 223.484 321.292C223.503 321.712 223.573 322.119 223.693 322.513C223.814 322.9 223.982 323.26 224.197 323.593C224.412 323.925 224.676 324.207 224.988 324.437L224.195 325.126C223.853 324.848 223.566 324.517 223.334 324.133C223.105 323.743 222.93 323.317 222.811 322.855C222.692 322.393 222.629 321.909 222.622 321.403C222.616 320.89 222.668 320.377 222.779 319.862L223.094 318.395ZM227.24 318.518L228.267 318.739L226.344 327.695L225.317 327.474L227.24 318.518ZM236.528 320.512L237.506 320.722L235.587 329.659L234.609 329.449L236.528 320.512ZM234.518 323.773L236.132 324.12L235.951 324.96L234.338 324.614L234.518 323.773ZM234.554 320.273L235.522 320.481L233.731 328.821L232.763 328.613L234.554 320.273ZM231.273 320.836L232.065 321.007L231.865 321.935C231.749 322.476 231.599 322.986 231.414 323.465C231.231 323.937 231.012 324.367 230.758 324.756C230.506 325.138 230.218 325.465 229.893 325.736C229.569 326.007 229.205 326.212 228.8 326.35L228.344 325.424C228.834 325.27 229.256 325.02 229.61 324.673C229.972 324.321 230.275 323.895 230.519 323.395C230.762 322.895 230.947 322.352 231.073 321.765L231.273 320.836ZM231.478 320.881L232.26 321.048L232.061 321.977C231.946 322.512 231.901 323.037 231.927 323.554C231.953 324.065 232.062 324.541 232.254 324.985C232.446 325.422 232.733 325.8 233.114 326.121L232.36 326.777C231.94 326.414 231.625 325.975 231.415 325.459C231.207 324.937 231.094 324.368 231.077 323.75C231.067 323.128 231.134 322.481 231.279 321.809L231.478 320.881ZM229.746 320.089L233.852 320.971L233.671 321.812L229.565 320.93L229.746 320.089ZM242.227 322.309L243.302 322.54C243.137 323.309 242.827 323.962 242.371 324.498C241.915 325.034 241.333 325.455 240.627 325.76C239.922 326.058 239.113 326.236 238.201 326.292L237.96 325.412C238.742 325.362 239.422 325.228 240 325.012C240.586 324.79 241.06 324.489 241.421 324.11C241.782 323.73 242.017 323.287 242.126 322.778L242.227 322.309ZM239.255 321.671L242.931 322.46L242.755 323.281L239.078 322.492L239.255 321.671ZM245.207 322.386L246.234 322.607L245.15 327.652L244.124 327.431L245.207 322.386ZM242.973 324.218L244.899 324.632L244.718 325.472L242.792 325.059L242.973 324.218ZM239.253 326.774L245.071 328.023L244.34 331.426L238.523 330.177L239.253 326.774ZM243.889 328.618L240.086 327.802L239.706 329.571L243.509 330.388L243.889 328.618ZM249.465 323.843L250.277 324.017L250.036 325.141C249.933 325.617 249.754 326.07 249.499 326.499C249.251 326.923 248.934 327.284 248.55 327.584C248.165 327.883 247.72 328.084 247.213 328.187L246.846 327.279C247.282 327.182 247.666 327.016 247.996 326.78C248.326 326.544 248.594 326.267 248.798 325.949C249.009 325.633 249.151 325.306 249.224 324.967L249.465 323.843ZM249.651 323.882L250.453 324.055L250.212 325.179C250.14 325.511 250.135 325.851 250.197 326.199C250.259 326.546 250.389 326.877 250.587 327.193C250.792 327.509 251.07 327.787 251.421 328.026L250.705 328.691C250.301 328.413 249.985 328.076 249.757 327.679C249.536 327.277 249.396 326.848 249.337 326.392C249.286 325.932 249.31 325.47 249.41 325.007L249.651 323.882ZM254.416 324.364L255.394 324.573L254.233 329.98L253.256 329.77L254.416 324.364ZM252.651 326.347L254.225 326.685L254.046 327.516L252.472 327.178L252.651 326.347ZM252.478 324.101L253.446 324.309L252.327 329.52L251.359 329.312L252.478 324.101ZM248.075 329.128L254.137 330.43L253.475 333.51L252.459 333.291L252.943 331.033L247.898 329.95L248.075 329.128Z" fill="black"/>
<rect x="167.101" y="336.617" width="60" height="69" transform="rotate(12.118 167.101 336.617)" fill="#D9D9D9"/>
<rect x="151.146" y="410.923" width="60" height="69" transform="rotate(12.118 151.146 410.923)" fill="#D9D9D9"/>
<rect x="135.192" y="485.229" width="60" height="69" transform="rotate(12.118 135.192 485.229)" fill="#D9D9D9"/>
<rect x="119.238" y="559.536" width="60" height="69" transform="rotate(12.118 119.238 559.536)" fill="#D9D9D9"/>
<rect x="103.283" y="633.843" width="60" height="69" transform="rotate(12.118 103.283 633.843)" fill="#D9D9D9"/>
<rect x="230.652" y="350.262" width="60" height="69" transform="rotate(12.118 230.652 350.262)" fill="#D9D9D9"/>
<rect x="214.698" y="424.568" width="60" height="69" transform="rotate(12.118 214.698 424.568)" fill="#D9D9D9"/>
<rect x="198.744" y="498.875" width="60" height="69" transform="rotate(12.118 198.744 498.875)" fill="#D9D9D9"/>
<rect x="182.789" y="573.182" width="60" height="69" transform="rotate(12.118 182.789 573.182)" fill="#D9D9D9"/>
<rect x="166.835" y="647.488" width="60" height="69" transform="rotate(12.118 166.835 647.488)" fill="#D9D9D9"/>
<rect x="294.204" y="363.907" width="60" height="69" transform="rotate(12.118 294.204 363.907)" fill="#D9D9D9"/>
<rect x="278.25" y="438.213" width="60" height="69" transform="rotate(12.118 278.25 438.213)" fill="#D9D9D9"/>
<rect x="262.295" y="512.52" width="60" height="69" transform="rotate(12.118 262.295 512.52)" fill="#D9D9D9"/>
<rect x="246.341" y="586.827" width="60" height="69" transform="rotate(12.118 246.341 586.827)" fill="#D9D9D9"/>
<rect x="230.387" y="661.133" width="60" height="69" transform="rotate(12.118 230.387 661.133)" fill="#D9D9D9"/>
</g>
<path d="M340.843 114.678C356.582 127.398 359.028 150.468 346.308 166.207L335.936 179.042C332.678 183.072 326.77 183.699 322.739 180.442L288.705 152.936C284.674 149.678 284.047 143.77 287.305 139.739L304.438 118.54C313.424 107.42 329.723 105.691 340.843 114.678Z" fill="white" stroke="black" stroke-width="2"/>
<path d="M338.622 118.605C352.131 129.522 354.231 149.324 343.314 162.833L333.115 175.451C331.049 178.009 327.301 178.406 324.743 176.339L292.656 150.407C289.899 148.179 289.471 144.139 291.698 141.382L307.433 121.913C315.132 112.387 329.096 110.906 338.622 118.605Z" fill="#FF39A5" stroke="black" stroke-width="2"/>
<path d="M318.213 128.813C318.899 129.367 319.005 130.371 318.451 131.057C317.897 131.742 316.893 131.849 316.207 131.295C315.522 130.741 315.415 129.736 315.969 129.051C316.523 128.365 317.528 128.259 318.213 128.813Z" fill="black" stroke="black" stroke-width="2"/>
<path d="M325.136 134.407C325.821 134.961 325.928 135.966 325.374 136.651C324.82 137.337 323.815 137.444 323.13 136.89C322.444 136.335 322.338 135.331 322.892 134.645C323.446 133.96 324.45 133.854 325.136 134.407Z" fill="black" stroke="black" stroke-width="2"/>
<path d="M317.566 142.594C319.44 144.109 320.73 145.907 321.33 147.547C321.938 149.209 321.788 150.527 321.13 151.341C320.472 152.156 319.215 152.578 317.463 152.332C315.733 152.09 313.705 151.206 311.83 149.691C309.956 148.176 308.665 146.378 308.065 144.737C307.457 143.076 307.607 141.758 308.265 140.944C308.923 140.13 310.18 139.707 311.932 139.952C313.662 140.195 315.691 141.079 317.566 142.594ZM317.425 142.769C315.692 141.368 313.832 140.522 312.22 140.228L311.901 140.176C310.177 139.934 309.022 140.364 308.44 141.085C307.893 141.761 307.703 142.874 308.174 144.359L308.277 144.66C308.861 146.256 310.123 148.023 311.971 149.517C313.704 150.917 315.563 151.763 317.175 152.058L317.494 152.109C319.219 152.351 320.373 151.921 320.956 151.2C321.502 150.524 321.693 149.411 321.222 147.927L321.118 147.625C320.534 146.029 319.273 144.263 317.425 142.769Z" fill="black" stroke="black" stroke-width="2"/>
<path d="M43.6475 443.681C62.7094 437.305 83.3313 447.589 89.7078 466.65L110.103 527.619C112.38 534.428 108.707 541.794 101.898 544.071L67.6588 555.525C60.85 557.803 53.4839 554.129 51.2062 547.321L27.4217 476.22C22.9175 462.754 30.1819 448.186 43.6475 443.681Z" fill="white" stroke="black" stroke-width="2"/>
<path d="M45.7495 447.64C62.1098 442.167 79.8088 450.993 85.2817 467.354L105.777 528.622C107.354 533.336 104.811 538.435 100.097 540.012L66.6558 551.199C61.9421 552.776 56.8425 550.232 55.2655 545.519L31.8485 475.516C27.9894 463.98 34.2132 451.499 45.7495 447.64Z" fill="#3179FF" stroke="black" stroke-width="2"/>
<path d="M63.3436 470.631C60.9548 468.861 55.4213 467.115 52.3982 474.285" stroke="black" stroke-width="3" stroke-linecap="round"/>
<path d="M79.1806 465.333C76.7918 463.563 71.2583 461.817 68.2353 468.987" stroke="black" stroke-width="3" stroke-linecap="round"/>
<path d="M78.4591 479.666C79.4803 479.363 80.3537 479.395 81.139 479.904L81.2947 480.013C81.6524 480.278 81.9956 480.566 82.3181 480.868L82.6337 481.174C83.7039 482.25 84.4223 483.366 84.659 484.073C85.0594 485.271 84.5385 486.918 82.798 488.702C81.0981 490.445 78.4229 492.097 75.1651 493.187C71.9076 494.276 68.7777 494.566 66.3714 494.197C63.9075 493.82 62.4996 492.818 62.0987 491.62C61.8917 491.001 61.7913 489.911 61.9084 488.641L61.972 488.086C62.0234 487.713 62.0931 487.336 62.1811 486.963L62.2752 486.591C62.561 485.539 63.3021 484.89 64.4415 484.451C65.3251 484.11 66.3728 483.927 67.4817 483.799L68.6072 483.685C70.4711 483.517 72.5461 482.966 74.54 481.756L74.9378 481.505C76.1424 480.716 77.3298 480.001 78.4591 479.666Z" fill="white" stroke="black" stroke-width="2"/>
<circle cx="93.0339" cy="456.02" r="0.368419" transform="rotate(-18.4959 93.0339 456.02)" fill="#D9D9D9"/>
<path d="M68.947 483.89L70.1232 494.374" stroke="black" stroke-width="2"/>
<path d="M74.5377 482.02L79.7897 490.752" stroke="black" stroke-width="2"/>
<path d="M342.395 618.648C346.751 620.161 350.483 623.078 353.002 626.94C356.936 632.971 357.474 640.608 354.424 647.131L344.067 669.286C341.18 675.463 333.831 678.129 327.654 675.242L287.055 656.262C283.341 654.526 281.737 650.107 283.473 646.393L295.385 620.913C298.283 614.715 305.656 612.038 311.855 614.936C313.939 615.91 316.227 616.371 318.525 616.278L328.034 615.898C331.849 615.745 335.658 616.309 339.265 617.561L342.395 618.648Z" fill="white" stroke="black" stroke-width="2"/>
<path d="M339.828 621.759C343.57 623.064 346.781 625.561 348.968 628.867C352.447 634.126 352.94 640.818 350.269 646.531L339.937 668.633C338.26 672.22 333.992 673.769 330.404 672.092L289.289 652.872C287.291 651.938 286.428 649.56 287.363 647.562L298.579 623.57L298.827 623.071C301.506 618.023 307.704 615.911 312.94 618.358C314.771 619.214 316.779 619.624 318.799 619.555L327.14 619.27C330.483 619.156 333.819 619.663 336.978 620.765L339.828 621.759Z" fill="#16F14F" stroke="black" stroke-width="2"/>
<path d="M323.222 634.65C324.3 635.688 324.406 637.396 323.429 638.559C322.409 639.772 320.598 639.928 319.385 638.908C318.224 637.931 318.034 636.23 318.916 635.023L323.222 634.65Z" fill="black" stroke="black"/>
<path d="M310.619 628.758C309.131 628.596 307.752 629.611 307.487 631.106C307.21 632.667 308.251 634.156 309.812 634.433C311.306 634.698 312.733 633.753 313.094 632.301L310.619 628.758Z" fill="black" stroke="black"/>
<path d="M320.399 646.491C318.859 644.76 314.919 642.546 311.47 647.531" stroke="black" stroke-width="3" stroke-linecap="round"/>
</g>
<defs>
<clipPath id="clip0_169_1068">
<rect width="412" height="732" fill="white"/>
</clipPath>
<clipPath id="clip1_169_1068">
<rect width="206" height="364" fill="white" transform="translate(13.6895 79.8394) rotate(-14.9519)"/>
</clipPath>
<clipPath id="clip2_169_1068">
<rect width="206" height="364" fill="white" transform="translate(171.665 277.252) rotate(12.118)"/>
</clipPath>
</defs>
</svg>
