<svg width="61" height="62" viewBox="0 0 61 62" fill="none" xmlns="http://www.w3.org/2000/svg">
<path d="M61 30.5C61 47.3447 47.3447 61 30.5 61C13.6553 61 0 47.3447 0 30.5C0 13.6553 13.6553 0 30.5 0C47.3447 0 61 13.6553 61 30.5Z" fill="#FF592F"/>
<path fill-rule="evenodd" clip-rule="evenodd" d="M31 1.77143C14.8575 1.77143 1.77143 14.8575 1.77143 31C1.77143 47.1425 14.8575 60.2286 31 60.2286V62C13.8792 62 0 48.1208 0 31C0 13.8792 13.8792 0 31 0V1.77143Z" fill="black"/>
<path d="M47.1875 27.8971C49.6042 29.2762 49.6042 32.7238 47.1875 34.1029L25.4375 46.5146C23.0208 47.8937 20 46.1699 20 43.4117L20 18.5883C20 15.8301 23.0208 14.1063 25.4375 15.4854L47.1875 27.8971Z" fill="white"/>
</svg>
