<svg width="48" height="66" viewBox="0 0 48 66" fill="none" xmlns="http://www.w3.org/2000/svg">
<circle cx="24" cy="18" r="17" fill="#FF592F"/>
<path d="M24 35C14.6112 35 7 27.3888 7 18C7 8.61116 14.6112 1 24 1" stroke="black"/>
<path d="M33 16.2679C34.3333 17.0378 34.3333 18.9623 33 19.7321L21 26.6603C19.6667 27.4301 18 26.4678 18 24.9282L18 11.0718C18 9.5322 19.6667 8.56995 21 9.33975L33 16.2679Z" fill="white"/>
<path d="M42.7539 38.1108C43.5104 38.1876 44.1006 38.8263 44.1006 39.603C44.1006 40.3797 43.5104 41.0185 42.7539 41.0952L42.6006 41.103H9.26367C7.69436 41.1031 6.32971 41.5889 5.38965 42.3042C4.45068 43.0187 4 43.8978 4 44.7505C4.00014 45.603 4.45083 46.4814 5.38965 47.1958C6.32971 47.9111 7.69431 48.3969 9.26367 48.397H42.6006L42.7539 48.4048C43.5103 48.4815 44.1005 49.1203 44.1006 49.897C44.1006 50.6737 43.5104 51.3124 42.7539 51.3892L42.6006 51.397H9.26367C7.09786 51.3969 5.08108 50.7307 3.57324 49.5835C2.06421 48.4352 1.00014 46.7403 1 44.7505C1 42.7605 2.06411 41.0649 3.57324 39.9165C5.08107 38.7693 7.09789 38.1031 9.26367 38.103H42.6006L42.7539 38.1108Z" fill="#FF592F"/>
<path d="M5.34766 52.0078C4.59118 52.0845 4.00098 52.7233 4.00098 53.5C4.00098 54.2767 4.59118 54.9155 5.34766 54.9922L5.50098 55H38.8379C40.4072 55.0001 41.7719 55.4859 42.7119 56.2012C43.6509 56.9157 44.1016 57.7948 44.1016 58.6475C44.1014 59.5 43.6507 60.3784 42.7119 61.0928C41.7719 61.8081 40.4072 62.2939 38.8379 62.2939H5.50098L5.34766 62.3018C4.59123 62.3785 4.00107 63.0173 4.00098 63.7939C4.00098 64.5707 4.59118 65.2094 5.34766 65.2861L5.50098 65.2939H38.8379C41.0037 65.2939 43.0205 64.6277 44.5283 63.4805C46.0374 62.3322 47.1014 60.6373 47.1016 58.6475C47.1016 56.6575 46.0375 54.9618 44.5283 53.8135C43.0205 52.6663 41.0037 52.0001 38.8379 52H5.50098L5.34766 52.0078Z" fill="#3179FF"/>
<path d="M10 43H40.5" stroke="black" stroke-linecap="round" stroke-linejoin="round"/>
<path d="M38.1016 56.897H7.60156" stroke="black" stroke-linecap="round" stroke-linejoin="round"/>
<path d="M10 47H40.5" stroke="black" stroke-linecap="round" stroke-linejoin="round"/>
<path d="M38.1016 60.897H7.60156" stroke="black" stroke-linecap="round" stroke-linejoin="round"/>
<path d="M10 45H38" stroke="black" stroke-linecap="round" stroke-linejoin="round"/>
<path d="M38.1016 58.897H10.1016" stroke="black" stroke-linecap="round" stroke-linejoin="round"/>
<path d="M12.5 38H8C5.83333 38.1667 1.4 39.8 1 45" stroke="black" stroke-linecap="round" stroke-linejoin="round"/>
<path d="M24 51H43.5" stroke="black" stroke-linecap="round" stroke-linejoin="round"/>
<path d="M2 52H21.5" stroke="black" stroke-linecap="round" stroke-linejoin="round"/>
<path d="M7 65H38" stroke="black" stroke-linecap="round" stroke-linejoin="round"/>
</svg>
