<svg width="230" height="388" viewBox="0 0 230 388" fill="none" xmlns="http://www.w3.org/2000/svg">
<rect x="0.5" y="0.5" width="229" height="387" rx="19.5" fill="#242424" stroke="#F5F5F5"/>
<g clip-path="url(#clip0_180_3365)">
<rect x="12" y="12" width="206" height="364" rx="14" fill="white"/>
<path d="M31.96 30.68H33.01V39.82H31.96V30.68ZM29.27 31.65H30.31C30.31 32.33 30.2367 32.98 30.09 33.6C29.9433 34.22 29.7033 34.81 29.37 35.37C29.0433 35.9233 28.61 36.4367 28.07 36.91C27.5367 37.3833 26.8767 37.81 26.09 38.19L25.53 37.36C26.4167 36.9333 27.1333 36.4467 27.68 35.9C28.2267 35.3533 28.6267 34.7433 28.88 34.07C29.14 33.39 29.27 32.6433 29.27 31.83V31.65ZM25.98 31.65H29.74V32.49H25.98V31.65ZM34.6592 35.66H42.9392V36.5H34.6592V35.66ZM35.6892 30.89H41.8992V33.22H36.7392V34.35H35.7092V32.47H40.8592V31.7H35.6892V30.89ZM35.7092 34.02H42.0792V34.83H35.7092V34.02ZM38.2692 34.43H39.3192V36.09H38.2692V34.43ZM35.5692 37.11H41.9492V39.77H40.8992V37.96H35.5692V37.11ZM49.8984 30.69H50.9484V39.83H49.8984V30.69ZM50.7084 34.36H52.3584V35.23H50.7084V34.36ZM43.8084 32.1H49.1684V32.94H43.8084V32.1ZM46.5284 33.59C46.9618 33.59 47.3484 33.6833 47.6884 33.87C48.0284 34.05 48.2951 34.3 48.4884 34.62C48.6884 34.94 48.7884 35.3067 48.7884 35.72C48.7884 36.14 48.6884 36.51 48.4884 36.83C48.2951 37.15 48.0284 37.4033 47.6884 37.59C47.3484 37.77 46.9584 37.86 46.5184 37.86C46.0851 37.86 45.6984 37.77 45.3584 37.59C45.0184 37.4033 44.7484 37.15 44.5484 36.83C44.3551 36.51 44.2584 36.14 44.2584 35.72C44.2584 35.3067 44.3551 34.94 44.5484 34.62C44.7484 34.3 45.0184 34.05 45.3584 33.87C45.6984 33.6833 46.0884 33.59 46.5284 33.59ZM46.5184 34.45C46.2784 34.45 46.0618 34.5033 45.8684 34.61C45.6751 34.7167 45.5218 34.8667 45.4084 35.06C45.3018 35.2467 45.2484 35.4667 45.2484 35.72C45.2484 35.98 45.3018 36.2067 45.4084 36.4C45.5218 36.5867 45.6751 36.7333 45.8684 36.84C46.0618 36.9467 46.2784 37 46.5184 37C46.7651 37 46.9818 36.9467 47.1684 36.84C47.3618 36.7333 47.5118 36.5867 47.6184 36.4C47.7318 36.2067 47.7884 35.98 47.7884 35.72C47.7884 35.4667 47.7318 35.2467 47.6184 35.06C47.5118 34.8667 47.3618 34.7167 47.1684 34.61C46.9818 34.5033 46.7651 34.45 46.5184 34.45ZM45.9884 30.81H47.0384V32.45H45.9884V30.81ZM59.5577 30.68H60.6077V39.82H59.5577V30.68ZM56.8677 31.65H57.9077C57.9077 32.33 57.8343 32.98 57.6877 33.6C57.541 34.22 57.301 34.81 56.9677 35.37C56.641 35.9233 56.2077 36.4367 55.6677 36.91C55.1343 37.3833 54.4743 37.81 53.6877 38.19L53.1277 37.36C54.0143 36.9333 54.731 36.4467 55.2777 35.9C55.8243 35.3533 56.2243 34.7433 56.4777 34.07C56.7377 33.39 56.8677 32.6433 56.8677 31.83V31.65ZM53.5777 31.65H57.3377V32.49H53.5777V31.65Z" fill="black"/>
<path d="M123 35H158V37H123V35Z" fill="#D9D9D9"/>
<path d="M169 30.5556C169 28.5919 170.542 27 172.443 27H199.557C201.458 27 203 28.5919 203 30.5556V39.4444C203 41.4081 201.458 43 199.557 43H172.443C170.542 43 169 41.4081 169 39.4444V30.5556Z" fill="#FF592F"/>
<path d="M192.804 37.5806V37.0619C193.336 36.5407 193.79 36.0788 194.167 35.6763C194.549 35.2686 194.84 34.9022 195.041 34.5771C195.243 34.2468 195.343 33.9372 195.343 33.6482C195.343 33.4417 195.307 33.2637 195.235 33.1141C195.168 32.9644 195.062 32.8483 194.918 32.7657C194.778 32.6831 194.6 32.6419 194.383 32.6419C194.162 32.6419 193.958 32.7064 193.772 32.8354C193.586 32.9592 193.416 33.1063 193.261 33.2766L192.758 32.7812C193 32.5128 193.256 32.3038 193.524 32.1542C193.798 32.0045 194.123 31.9297 194.5 31.9297C194.845 31.9297 195.147 31.9994 195.405 32.1387C195.663 32.278 195.862 32.4741 196.001 32.727C196.146 32.9747 196.218 33.2663 196.218 33.6017C196.218 33.9372 196.123 34.2778 195.932 34.6235C195.746 34.9693 195.493 35.328 195.173 35.6995C194.853 36.0711 194.494 36.4633 194.097 36.8761C194.247 36.8607 194.404 36.8478 194.569 36.8374C194.739 36.822 194.894 36.8142 195.034 36.8142H196.489V37.5806H192.804Z" fill="white"/>
<path d="M186.522 39.307V33.3155H187.25L187.328 33.7877H187.343C187.534 33.6329 187.74 33.4987 187.962 33.3851C188.184 33.2716 188.416 33.2148 188.659 33.2148C189.015 33.2148 189.32 33.3052 189.572 33.4858C189.825 33.6664 190.016 33.9193 190.145 34.2444C190.274 34.5643 190.339 34.9437 190.339 35.3823C190.339 35.8674 190.251 36.2828 190.076 36.6286C189.905 36.9744 189.681 37.2375 189.402 37.4182C189.123 37.5988 188.824 37.6891 188.504 37.6891C188.318 37.6891 188.13 37.6478 187.939 37.5652C187.748 37.4775 187.565 37.3562 187.389 37.2014L187.413 37.9291V39.307H186.522ZM188.334 36.9382C188.54 36.9382 188.723 36.8789 188.883 36.7602C189.049 36.6415 189.178 36.4686 189.27 36.2415C189.369 36.0093 189.418 35.7281 189.418 35.3978C189.418 35.0985 189.381 34.843 189.309 34.6314C189.242 34.4147 189.136 34.2495 188.992 34.136C188.847 34.0173 188.656 33.958 188.419 33.958C188.254 33.958 188.089 34.0018 187.924 34.0896C187.764 34.1721 187.593 34.3012 187.413 34.4766V36.5589C187.578 36.6983 187.74 36.7963 187.9 36.8531C188.06 36.9098 188.205 36.9382 188.334 36.9382Z" fill="white"/>
<path d="M183.919 37.6891C183.532 37.6891 183.181 37.6014 182.866 37.4259C182.551 37.2453 182.301 36.9898 182.115 36.6596C181.929 36.3241 181.836 35.9216 181.836 35.452C181.836 35.1062 181.891 34.7966 181.999 34.5231C182.107 34.2444 182.254 34.0096 182.44 33.8186C182.626 33.6225 182.835 33.4729 183.067 33.3697C183.299 33.2664 183.537 33.2148 183.779 33.2148C184.156 33.2148 184.474 33.3 184.732 33.4703C184.99 33.6354 185.186 33.8702 185.32 34.1747C185.454 34.474 185.521 34.825 185.521 35.2275C185.521 35.3152 185.516 35.4004 185.506 35.4829C185.5 35.5603 185.49 35.6274 185.475 35.6842H182.711C182.737 35.9526 182.807 36.1848 182.92 36.3809C183.039 36.5718 183.191 36.7215 183.377 36.8299C183.568 36.9331 183.785 36.9847 184.027 36.9847C184.218 36.9847 184.396 36.9563 184.561 36.8995C184.726 36.8428 184.886 36.7654 185.041 36.6673L185.351 37.2324C185.155 37.3614 184.935 37.4698 184.693 37.5575C184.455 37.6452 184.197 37.6891 183.919 37.6891ZM182.703 35.0649H184.747C184.747 34.7037 184.664 34.4224 184.499 34.2212C184.339 34.0199 184.105 33.9193 183.795 33.9193C183.619 33.9193 183.454 33.9631 183.299 34.0509C183.145 34.1386 183.013 34.2676 182.905 34.4379C182.801 34.6082 182.734 34.8172 182.703 35.0649Z" fill="white"/>
<path d="M180.66 37.6889C180.34 37.6889 180.085 37.627 179.894 37.5031C179.708 37.3741 179.574 37.1987 179.491 36.9768C179.409 36.7497 179.367 36.4865 179.367 36.1872V34.0352H178.748V33.3695L179.414 33.3153L179.514 32.1387H180.258V33.3153H181.364V34.0352H180.258V36.1949C180.258 36.4478 180.307 36.6413 180.405 36.7755C180.503 36.9045 180.663 36.969 180.885 36.969C180.957 36.969 181.034 36.9587 181.117 36.9381C181.199 36.9174 181.272 36.8942 181.334 36.8684L181.496 37.5264C181.383 37.5625 181.254 37.5986 181.109 37.6347C180.97 37.6709 180.82 37.6889 180.66 37.6889Z" fill="white"/>
<path d="M176.873 37.6891C176.584 37.6891 176.295 37.6323 176.006 37.5188C175.723 37.4053 175.477 37.2634 175.271 37.0931L175.697 36.5125C175.883 36.6621 176.071 36.7834 176.262 36.8763C176.458 36.964 176.67 37.0079 176.897 37.0079C177.149 37.0079 177.335 36.9537 177.454 36.8453C177.578 36.7318 177.64 36.5951 177.64 36.4351C177.64 36.3061 177.593 36.1977 177.5 36.11C177.413 36.0222 177.297 35.9474 177.152 35.8855C177.008 35.8184 176.858 35.7564 176.703 35.6997C176.512 35.6274 176.324 35.5423 176.138 35.4442C175.957 35.341 175.808 35.212 175.689 35.0572C175.57 34.8972 175.511 34.6985 175.511 34.4611C175.511 34.2186 175.57 34.0044 175.689 33.8186C175.813 33.6329 175.988 33.4858 176.215 33.3774C176.442 33.269 176.713 33.2148 177.028 33.2148C177.312 33.2148 177.57 33.2639 177.802 33.3619C178.04 33.46 178.241 33.5787 178.406 33.718L177.996 34.2676C177.846 34.1592 177.694 34.0715 177.539 34.0044C177.384 33.9322 177.222 33.896 177.051 33.896C176.814 33.896 176.639 33.9477 176.525 34.0509C176.411 34.1489 176.355 34.2728 176.355 34.4224C176.355 34.5411 176.396 34.6392 176.479 34.7166C176.561 34.794 176.67 34.8611 176.804 34.9178C176.943 34.9746 177.09 35.034 177.245 35.0959C177.395 35.1475 177.542 35.2094 177.686 35.2817C177.836 35.3488 177.97 35.4313 178.089 35.5294C178.207 35.6223 178.303 35.7384 178.375 35.8777C178.453 36.0119 178.491 36.1796 178.491 36.3809C178.491 36.6183 178.429 36.8376 178.305 37.0389C178.182 37.2401 178.001 37.4001 177.764 37.5188C177.526 37.6323 177.229 37.6891 176.873 37.6891Z" fill="white"/>
<path d="M148 36.5C148 40.0899 145.09 43 141.5 43C137.91 43 135 40.0899 135 36.5C135 32.9101 137.91 30 141.5 30C145.09 30 148 32.9101 148 36.5Z" fill="#FF592F"/>
<path d="M128 36C128 38.2091 126.209 40 124 40C121.791 40 120 38.2091 120 36C120 33.7909 121.791 32 124 32C126.209 32 128 33.7909 128 36Z" fill="#D9D9D9"/>
<path d="M162 36C162 38.2091 160.209 40 158 40C155.791 40 154 38.2091 154 36C154 33.7909 155.791 32 158 32C160.209 32 162 33.7909 162 36Z" fill="#D9D9D9"/>
<path d="M137.656 117.369C137.229 117.369 136.861 117.216 136.554 116.909C136.26 116.588 136.113 116.194 136.113 115.726C136.113 115.246 136.26 114.858 136.554 114.564C136.861 114.257 137.229 114.104 137.656 114.104C138.097 114.104 138.464 114.257 138.758 114.564C139.065 114.858 139.219 115.246 139.219 115.726C139.219 116.194 139.065 116.588 138.758 116.909C138.464 117.216 138.097 117.369 137.656 117.369Z" fill="black"/>
<path d="M121.048 109.796H123.132V115.125H121.048V109.796ZM127.74 109.796H129.844V115.125H127.74V109.796ZM117.161 114.765H133.751V116.488H117.161V114.765ZM125.436 101.48C126.731 101.48 127.887 101.681 128.902 102.082C129.917 102.469 130.712 103.023 131.286 103.745C131.874 104.453 132.168 105.294 132.168 106.269C132.168 107.244 131.874 108.093 131.286 108.814C130.712 109.522 129.917 110.076 128.902 110.477C127.887 110.864 126.731 111.058 125.436 111.058C124.14 111.058 122.978 110.864 121.949 110.477C120.934 110.076 120.133 109.522 119.545 108.814C118.971 108.093 118.683 107.244 118.683 106.269C118.683 105.294 118.971 104.453 119.545 103.745C120.133 103.023 120.934 102.469 121.949 102.082C122.978 101.681 124.14 101.48 125.436 101.48ZM125.436 103.123C124.514 103.123 123.699 103.25 122.991 103.504C122.283 103.758 121.729 104.125 121.328 104.606C120.941 105.074 120.747 105.628 120.747 106.269C120.747 106.91 120.941 107.471 121.328 107.952C121.729 108.42 122.283 108.787 122.991 109.054C123.699 109.308 124.514 109.435 125.436 109.435C126.357 109.435 127.166 109.308 127.86 109.054C128.568 108.787 129.122 108.42 129.523 107.952C129.924 107.471 130.124 106.91 130.124 106.269C130.124 105.628 129.924 105.074 129.523 104.606C129.122 104.125 128.568 103.758 127.86 103.504C127.166 103.25 126.357 103.123 125.436 103.123Z" fill="black"/>
<path d="M105.941 106.811H109.247V108.534H105.941V106.811ZM102.314 102.102H103.937V105.408C103.937 106.397 103.844 107.372 103.657 108.333C103.483 109.282 103.223 110.177 102.875 111.018C102.528 111.86 102.094 112.621 101.573 113.302C101.052 113.97 100.444 114.511 99.7496 114.925L98.4473 113.343C99.1018 112.955 99.6695 112.474 100.15 111.9C100.631 111.326 101.032 110.684 101.353 109.976C101.687 109.268 101.927 108.527 102.074 107.752C102.234 106.964 102.314 106.183 102.314 105.408V102.102ZM102.735 102.102H104.338V105.308C104.338 106.043 104.405 106.784 104.538 107.532C104.685 108.267 104.906 108.968 105.2 109.636C105.493 110.304 105.861 110.918 106.302 111.479C106.742 112.04 107.27 112.514 107.884 112.902L106.722 114.525C106.028 114.111 105.427 113.576 104.919 112.922C104.425 112.254 104.017 111.513 103.697 110.698C103.376 109.87 103.136 109.001 102.976 108.093C102.815 107.171 102.735 106.243 102.735 105.308V102.102ZM112.353 100.419H114.356V118.732H112.353V100.419ZM108.626 100.78H110.589V117.871H108.626V100.78Z" fill="black"/>
<path d="M87.3889 102.342H89.2122V103.003C89.2122 103.658 89.092 104.279 88.8515 104.867C88.6244 105.441 88.2905 105.982 87.8497 106.49C87.4089 106.984 86.8879 107.425 86.2868 107.812C85.6991 108.199 85.0379 108.527 84.3032 108.794C83.5819 109.061 82.8072 109.261 81.979 109.395L81.1975 107.732C81.9189 107.638 82.5868 107.485 83.2012 107.271C83.829 107.057 84.3967 106.797 84.9043 106.49C85.4253 106.182 85.8661 105.842 86.2267 105.468C86.6007 105.094 86.8879 104.7 87.0883 104.286C87.2887 103.872 87.3889 103.444 87.3889 103.003V102.342ZM87.9499 102.342H89.7732V103.003C89.7732 103.444 89.8667 103.872 90.0537 104.286C90.2541 104.7 90.5413 105.094 90.9153 105.468C91.2893 105.842 91.7301 106.182 92.2377 106.49C92.7453 106.797 93.313 107.057 93.9408 107.271C94.5686 107.485 95.2432 107.638 95.9645 107.732L95.1831 109.395C94.3549 109.261 93.5735 109.061 92.8388 108.794C92.1175 108.527 91.4563 108.199 90.8552 107.812C90.2541 107.425 89.7331 106.984 89.2923 106.49C88.8649 105.982 88.5309 105.441 88.2905 104.867C88.0634 104.279 87.9499 103.658 87.9499 103.003V102.342ZM87.489 111.879H89.5728V118.732H87.489V111.879ZM80.2959 110.717H96.8461V112.42H80.2959V110.717ZM81.8187 101.48H95.3033V103.144H81.8187V101.48Z" fill="black"/>
<path d="M61.8438 103.384H70.7801V105.087H61.8438V103.384ZM66.3119 106.129C67.0867 106.129 67.7679 106.31 68.3556 106.67C68.9567 107.031 69.4309 107.532 69.7782 108.173C70.1255 108.801 70.2992 109.536 70.2992 110.377C70.2992 111.219 70.1255 111.96 69.7782 112.601C69.4309 113.242 68.9567 113.743 68.3556 114.104C67.7679 114.465 67.0867 114.645 66.3119 114.645C65.5639 114.645 64.8893 114.465 64.2882 114.104C63.6871 113.743 63.2129 113.242 62.8656 112.601C62.5317 111.96 62.3647 111.219 62.3647 110.377C62.3647 109.536 62.5317 108.801 62.8656 108.173C63.2129 107.532 63.6871 107.031 64.2882 106.67C64.8893 106.31 65.5639 106.129 66.3119 106.129ZM66.3319 107.893C65.9312 107.893 65.5706 107.999 65.25 108.213C64.9294 108.414 64.6756 108.701 64.4886 109.075C64.3149 109.435 64.2281 109.87 64.2281 110.377C64.2281 110.885 64.3149 111.326 64.4886 111.7C64.6756 112.074 64.9294 112.367 65.25 112.581C65.5706 112.782 65.9312 112.882 66.3319 112.882C66.7327 112.882 67.0867 112.782 67.3939 112.581C67.7145 112.367 67.9683 112.074 68.1553 111.7C68.3423 111.326 68.4358 110.885 68.4358 110.377C68.4358 109.87 68.3423 109.435 68.1553 109.075C67.9683 108.701 67.7145 108.414 67.3939 108.213C67.0867 107.999 66.7327 107.893 66.3319 107.893ZM75.4486 100.419H77.4523V118.732H75.4486V100.419ZM72.8639 108.013H76.1098V109.736H72.8639V108.013ZM71.5615 100.8H73.5251V117.891H71.5615V100.8ZM65.29 100.94H67.3738V104.446H65.29V100.94Z" fill="black"/>
<path d="M55.5137 100.419H57.6176V118.732H55.5137V100.419ZM57.0766 107.652H60.3826V109.395H57.0766V107.652ZM50.7851 102.362H52.8288C52.8288 104.139 52.555 105.836 52.0073 107.452C51.473 109.055 50.5981 110.531 49.3825 111.88C48.1803 113.229 46.5774 114.404 44.5737 115.406L43.4116 113.803C45.068 112.948 46.4371 111.973 47.5191 110.878C48.6145 109.783 49.4293 108.554 49.9636 107.191C50.5113 105.829 50.7851 104.333 50.7851 102.703V102.362ZM44.3333 102.362H51.8671V104.066H44.3333V102.362Z" fill="black"/>
<path d="M32.2132 112.1H34.297V118.772H32.2132V112.1ZM25 111.459H41.5502V113.182H25V111.459ZM32.2132 103.645H34.0565V104.086C34.0565 104.713 33.9363 105.308 33.6959 105.869C33.4688 106.43 33.1349 106.958 32.6941 107.452C32.2666 107.933 31.7457 108.367 31.1312 108.754C30.5167 109.128 29.8355 109.449 29.0875 109.716C28.3394 109.97 27.538 110.15 26.6831 110.257L25.9417 108.594C26.6764 108.5 27.3643 108.353 28.0055 108.153C28.6467 107.953 29.221 107.706 29.7286 107.412C30.2496 107.104 30.6904 106.777 31.0511 106.43C31.4251 106.069 31.7123 105.695 31.9126 105.308C32.113 104.907 32.2132 104.5 32.2132 104.086V103.645ZM32.4736 103.645H34.317V104.086C34.317 104.486 34.4172 104.887 34.6176 105.288C34.8179 105.675 35.0984 106.049 35.4591 106.41C35.8331 106.771 36.2739 107.098 36.7815 107.392C37.3025 107.686 37.8769 107.939 38.5047 108.153C39.1458 108.353 39.8338 108.5 40.5684 108.594L39.8271 110.257C38.9722 110.15 38.1707 109.97 37.4227 109.716C36.6747 109.449 35.9934 109.121 35.379 108.734C34.7779 108.347 34.2569 107.913 33.8161 107.432C33.3887 106.937 33.0547 106.41 32.8143 105.849C32.5872 105.288 32.4736 104.7 32.4736 104.086V103.645ZM26.5629 102.603H39.9874V104.286H26.5629V102.603ZM32.2132 100.459H34.297V103.184H32.2132V100.459Z" fill="black"/>
<path d="M61.8643 81.395H78.4546V82.9378H61.8643V81.395ZM63.7878 84.18H76.4108V88.2675H65.8916V90.171H63.8278V86.905H74.3471V85.6227H63.7878V84.18ZM63.8278 89.6701H76.9719V91.1327H63.8278V89.6701ZM63.928 73.4404H76.3708V77.4878H66.0319V79.251H63.9681V76.1253H74.2869V74.9031H63.928V73.4404ZM63.9681 78.7902H76.6913V80.2529H63.9681V78.7902Z" fill="black"/>
<path d="M45.1953 74.8438H56.8767V76.5268H45.1953V74.8438ZM43.4321 87.046H59.9824V88.7692H43.4321V87.046ZM55.7747 74.8438H57.8585V76.8274C57.8585 77.6288 57.8451 78.4704 57.8184 79.352C57.805 80.2202 57.7516 81.1753 57.6581 82.2172C57.5646 83.2458 57.4043 84.4079 57.1772 85.7036L55.0734 85.5032C55.3138 84.2877 55.4808 83.1723 55.5743 82.1571C55.6678 81.1419 55.7212 80.1935 55.7346 79.3119C55.7613 78.4303 55.7747 77.6021 55.7747 76.8274V74.8438Z" fill="black"/>
<path d="M25.6606 85.2023H26.9029C27.838 85.2023 28.6661 85.1956 29.3875 85.1822C30.1221 85.1555 30.81 85.1155 31.4512 85.062C32.1057 84.9952 32.7736 84.9084 33.4549 84.8016L33.6552 86.5047C32.9473 86.6249 32.2594 86.7251 31.5915 86.8052C30.9236 86.872 30.209 86.9121 29.4476 86.9254C28.6995 86.9388 27.8513 86.9455 26.9029 86.9455H25.6606V85.2023ZM25.6606 75.0237H32.954V76.7068H27.6643V85.8835H25.6606V75.0237ZM27.0832 79.8325H32.6334V81.4755H27.0832V79.8325ZM38.6243 73H40.628V91.3134H38.6243V73ZM36.0196 80.2332H39.3256V81.9564H36.0196V80.2332ZM34.637 73.3607H36.6006V90.4519H34.637V73.3607Z" fill="black"/>
<path d="M84.7269 141.195H91.4897V142.17H84.7269V141.195ZM83.7061 148.26H93.2878V149.257H83.7061V148.26ZM90.8517 141.195H92.0581V142.344C92.0581 142.808 92.0504 143.295 92.0349 143.805C92.0272 144.308 91.9963 144.861 91.9422 145.464C91.888 146.06 91.7952 146.732 91.6637 147.483L90.4457 147.367C90.5849 146.663 90.6816 146.017 90.7357 145.429C90.7899 144.842 90.8208 144.293 90.8285 143.782C90.844 143.272 90.8517 142.792 90.8517 142.344V141.195Z" fill="black"/>
<path d="M73.4175 147.193H74.1367C74.678 147.193 75.1575 147.19 75.5751 147.182C76.0004 147.166 76.3987 147.143 76.7699 147.112C77.1489 147.074 77.5355 147.023 77.9299 146.961L78.0459 147.947C77.6361 148.017 77.2378 148.075 76.8511 148.121C76.4644 148.16 76.0507 148.183 75.6099 148.191C75.1768 148.199 74.6858 148.203 74.1367 148.203H73.4175V147.193ZM73.4175 141.301H77.6399V142.275H74.5775V147.588H73.4175V141.301ZM74.2411 144.085H77.4543V145.036H74.2411V144.085ZM80.9228 140.129H82.0828V150.731H80.9228V140.129ZM79.4148 144.317H81.3288V145.314H79.4148V144.317ZM78.6143 140.338H79.7512V150.233H78.6143V140.338Z" fill="black"/>
<path d="M60.9995 143.18H68.2728V144.154H60.9995V143.18ZM59.7583 145.43H69.3632V146.405H59.7583V145.43ZM60.9995 140.512H62.2059V143.667H60.9995V140.512ZM60.9183 149.513H68.3308V150.488H60.9183V149.513ZM60.9183 147.367H62.1363V149.769H60.9183V147.367Z" fill="black"/>
<path d="M51.6154 141.892H52.6014V142.309C52.6014 142.913 52.4815 143.473 52.2418 143.991C52.0098 144.51 51.6695 144.958 51.221 145.337C50.7802 145.716 50.2466 146.002 49.6202 146.195L49.0518 145.233C49.6008 145.078 50.0648 144.854 50.4438 144.56C50.8227 144.258 51.1127 143.914 51.3138 143.527C51.5149 143.141 51.6154 142.735 51.6154 142.309V141.892ZM51.8358 141.892H52.8218V142.309C52.8218 142.704 52.9185 143.083 53.1118 143.446C53.3129 143.802 53.599 144.123 53.9702 144.409C54.3492 144.687 54.8093 144.904 55.3506 145.059L54.7938 145.987C54.1674 145.809 53.6338 145.542 53.193 145.186C52.7522 144.823 52.4158 144.394 52.1838 143.899C51.9518 143.404 51.8358 142.874 51.8358 142.309V141.892ZM49.3766 141.265H55.049V142.24H49.3766V141.265ZM51.6154 140.094H52.8218V141.695H51.6154V140.094ZM56.151 140.14H57.3575V146.242H56.151V140.14ZM57.0327 142.646H58.8539V143.643H57.0327V142.646ZM53.3786 147.158H54.411V147.425C54.411 147.835 54.3144 148.222 54.121 148.585C53.9354 148.941 53.6686 149.262 53.3206 149.548C52.9803 149.834 52.5705 150.074 52.091 150.267C51.6193 150.468 51.0972 150.611 50.525 150.696L50.0842 149.768C50.5791 149.706 51.0276 149.598 51.4298 149.443C51.8397 149.289 52.1877 149.107 52.4738 148.898C52.7677 148.689 52.9919 148.457 53.1466 148.202C53.3013 147.947 53.3786 147.688 53.3786 147.425V147.158ZM53.6222 147.158H54.6546V147.425C54.6546 147.68 54.732 147.935 54.8866 148.191C55.049 148.438 55.2772 148.67 55.571 148.887C55.8649 149.103 56.209 149.289 56.6034 149.443C57.0056 149.598 57.4541 149.71 57.9491 149.78L57.5083 150.708C56.936 150.623 56.4101 150.48 55.9306 150.279C55.4589 150.078 55.049 149.834 54.701 149.548C54.3608 149.254 54.094 148.929 53.9006 148.573C53.715 148.21 53.6222 147.827 53.6222 147.425V147.158ZM50.5134 146.752H57.5199V147.727H50.5134V146.752Z" fill="black"/>
<path d="M43.3155 140.129H44.5335V150.755H43.3155V140.129ZM38.8958 140.906C39.4217 140.906 39.8896 141.061 40.2995 141.37C40.7171 141.679 41.0419 142.113 41.2739 142.669C41.5059 143.226 41.6219 143.883 41.6219 144.641C41.6219 145.407 41.5059 146.072 41.2739 146.637C41.0419 147.193 40.7171 147.626 40.2995 147.936C39.8896 148.237 39.4217 148.388 38.8958 148.388C38.37 148.388 37.8982 148.237 37.4806 147.936C37.0707 147.626 36.7459 147.193 36.5062 146.637C36.2742 146.072 36.1582 145.407 36.1582 144.641C36.1582 143.883 36.2742 143.226 36.5062 142.669C36.7459 142.113 37.0707 141.679 37.4806 141.37C37.8982 141.061 38.37 140.906 38.8958 140.906ZM38.8958 142.008C38.5865 142.008 38.312 142.113 38.0722 142.321C37.8402 142.53 37.6585 142.832 37.527 143.226C37.3955 143.621 37.3298 144.092 37.3298 144.641C37.3298 145.198 37.3955 145.674 37.527 146.068C37.6585 146.463 37.8402 146.768 38.0722 146.985C38.312 147.193 38.5865 147.298 38.8958 147.298C39.2052 147.298 39.4758 147.193 39.7078 146.985C39.9398 146.768 40.1216 146.463 40.253 146.068C40.3845 145.674 40.4503 145.198 40.4503 144.641C40.4503 144.092 40.3845 143.621 40.253 143.226C40.1216 142.832 39.9398 142.53 39.7078 142.321C39.4758 142.113 39.2052 142.008 38.8958 142.008Z" fill="black"/>
<path d="M32.2035 140.141H33.4099V145.477H32.2035V140.141ZM32.9111 142.449H34.9064V143.447H32.9111V142.449ZM25.5103 140.813H30.4635V145.187H25.5103V140.813ZM29.2803 141.776H26.7051V144.224H29.2803V141.776ZM26.1715 149.479H26.7167C26.9719 149.479 27.2387 149.471 27.5171 149.456C27.8032 149.432 28.0932 149.398 28.3871 149.351C28.681 149.297 28.971 149.224 29.2571 149.131L29.4427 150.094C29.1256 150.194 28.8124 150.271 28.5031 150.326C28.1938 150.38 27.8883 150.414 27.5867 150.43C27.2928 150.453 27.0028 150.465 26.7167 150.465H26.1715V149.479ZM26.1715 146.428H27.3547V149.734H26.1715V146.428ZM29.0599 146.521H34.3612V147.414H29.0599V146.521ZM31.7163 147.75C32.3041 147.75 32.7835 147.886 33.1547 148.156C33.5259 148.419 33.7115 148.779 33.7115 149.235C33.7115 149.699 33.5259 150.063 33.1547 150.326C32.7835 150.596 32.3041 150.732 31.7163 150.732C31.1286 150.732 30.6491 150.596 30.2779 150.326C29.9067 150.063 29.7211 149.699 29.7211 149.235C29.7211 148.779 29.9067 148.419 30.2779 148.156C30.6491 147.886 31.1286 147.75 31.7163 147.75ZM31.7163 148.586C31.4457 148.586 31.2253 148.644 31.0551 148.76C30.885 148.876 30.7999 149.034 30.7999 149.235C30.7999 149.444 30.885 149.606 31.0551 149.722C31.2253 149.838 31.4457 149.896 31.7163 149.896C31.9793 149.896 32.1958 149.838 32.3659 149.722C32.5438 149.606 32.6327 149.444 32.6327 149.235C32.6327 149.034 32.5438 148.876 32.3659 148.76C32.1958 148.644 31.9793 148.586 31.7163 148.586ZM31.1363 145.674H32.3079V147.17H31.1363V145.674Z" fill="black"/>
<path d="M196 99.5C196 112.479 185.703 123 173 123C160.297 123 150 112.479 150 99.5C150 86.5213 160.297 76 173 76C185.703 76 196 86.5213 196 99.5Z" fill="#FF592F"/>
<path d="M150 99.5C150 86.5213 160.297 76 173 76V76.5281C160.583 76.5281 150.517 86.813 150.517 99.5C150.517 112.187 160.583 122.472 173 122.472V123C160.297 123 150 112.479 150 99.5Z" fill="black"/>
<path d="M168.272 86.7321C168.547 85.7507 169.566 85.178 170.547 85.4529C171.529 85.7278 172.101 86.7463 171.826 87.7277L165.142 111.591C164.867 112.573 163.848 113.145 162.867 112.871C161.885 112.596 161.313 111.577 161.587 110.596L168.272 86.7321Z" fill="white"/>
<path d="M186.12 92C187.158 92 188 92.6716 188 93.5C188 94.3284 187.158 95 186.12 95L160.88 95C159.842 95 159 94.3284 159 93.5C159 92.6716 159.842 92 160.88 92L186.12 92Z" fill="white"/>
<path d="M183.12 101C184.158 101 185 101.895 185 103C185 104.105 184.158 105 183.12 105L157.88 105C156.842 105 156 104.105 156 103C156 101.895 156.842 101 157.88 101L183.12 101Z" fill="white"/>
<path d="M178.899 86.7321C179.174 85.7507 180.192 85.178 181.174 85.4529C182.155 85.7278 182.728 86.7463 182.453 87.7277L175.768 111.591C175.493 112.573 174.475 113.145 173.493 112.871C172.512 112.596 171.939 111.577 172.214 110.596L178.899 86.7321Z" fill="white"/>
<path d="M178.838 86.4366L179.346 86.577L172.497 111.359L171.989 111.219L178.838 86.4366Z" fill="black"/>
<path d="M172 101V101.479H157.438C157.087 101.703 156.696 102.103 156.578 102.616C156.458 103.142 156.613 103.842 157.542 104.661L157.158 105C156.133 104.096 155.882 103.24 156.046 102.521C156.207 101.82 156.751 101.304 157.199 101.04L157.268 101H172Z" fill="black"/>
<rect x="25.5" y="157.5" width="30" height="16" rx="5.5" fill="white"/>
<rect x="25.5" y="157.5" width="30" height="16" rx="5.5" stroke="#FF592F"/>
<rect x="58.5" y="157.5" width="39" height="16" rx="5.5" fill="white"/>
<rect x="58.5" y="157.5" width="39" height="16" rx="5.5" stroke="#FF592F"/>
<rect x="100.5" y="157.5" width="46" height="16" rx="5.5" fill="white"/>
<rect x="100.5" y="157.5" width="46" height="16" rx="5.5" stroke="#FF592F"/>
<rect x="150.5" y="157.5" width="30" height="16" rx="5.5" fill="white"/>
<rect x="150.5" y="157.5" width="30" height="16" rx="5.5" stroke="#FF592F"/>
<path d="M31.52 168.01H39.68V168.63H31.52V168.01ZM35.21 166.04H35.94V168.27H35.21V166.04ZM32.52 161.43H38.65V164.11H33.28V165.97H32.55V163.52H37.92V162.04H32.52V161.43ZM32.55 165.65H38.86V166.26H32.55V165.65ZM40.9992 161.61H45.8192V162.22H40.9992V161.61ZM40.8392 166.02L40.7492 165.39C41.2826 165.39 41.8626 165.387 42.4892 165.38C43.1159 165.367 43.7526 165.343 44.3992 165.31C45.0526 165.27 45.6726 165.217 46.2592 165.15L46.3092 165.71C45.7159 165.797 45.0926 165.863 44.4392 165.91C43.7926 165.957 43.1592 165.987 42.5392 166C41.9259 166.013 41.3592 166.02 40.8392 166.02ZM41.9292 162.07H42.6392V165.53H41.9292V162.07ZM44.1692 162.07H44.8892V165.53H44.1692V162.07ZM46.9392 160.76H47.6792V167.39H46.9392V160.76ZM47.4492 163.53H49.0392V164.15H47.4492V163.53ZM42.1192 168.94H48.0992V169.55H42.1192V168.94ZM42.1192 166.76H42.8492V169.1H42.1192V166.76Z" fill="#535353"/>
<path d="M67.13 166.14H67.88V167.63H67.13V166.14ZM71.08 160.75H71.82V169.76H71.08V160.75ZM64.68 168.01L64.57 167.38C65.1433 167.373 65.7633 167.367 66.43 167.36C67.0967 167.347 67.7767 167.32 68.47 167.28C69.17 167.24 69.8433 167.18 70.49 167.1L70.54 167.65C69.8733 167.757 69.1933 167.837 68.5 167.89C67.8133 167.937 67.1433 167.97 66.49 167.99C65.8433 168.003 65.24 168.01 64.68 168.01ZM64.76 161.87H70.24V162.48H64.76V161.87ZM67.5 163.02C67.9267 163.02 68.3 163.09 68.62 163.23C68.9467 163.363 69.2 163.553 69.38 163.8C69.56 164.047 69.65 164.34 69.65 164.68C69.65 165.013 69.56 165.307 69.38 165.56C69.2 165.807 68.9467 166 68.62 166.14C68.3 166.273 67.9267 166.34 67.5 166.34C67.0733 166.34 66.6967 166.273 66.37 166.14C66.05 166 65.8 165.807 65.62 165.56C65.44 165.307 65.35 165.013 65.35 164.68C65.35 164.34 65.44 164.047 65.62 163.8C65.8 163.553 66.05 163.363 66.37 163.23C66.6967 163.09 67.0733 163.02 67.5 163.02ZM67.5 163.6C67.0733 163.6 66.7233 163.7 66.45 163.9C66.1833 164.1 66.05 164.36 66.05 164.68C66.05 165.007 66.1833 165.27 66.45 165.47C66.7233 165.663 67.0733 165.76 67.5 165.76C67.9267 165.76 68.2733 165.663 68.54 165.47C68.8067 165.27 68.94 165.007 68.94 164.68C68.94 164.36 68.8067 164.1 68.54 163.9C68.2733 163.7 67.9267 163.6 67.5 163.6ZM67.13 160.75H67.88V162.2H67.13V160.75ZM74.1892 161.32H74.9192V162.73H77.6392V161.32H78.3692V165.48H74.1892V161.32ZM74.9192 163.32V164.87H77.6392V163.32H74.9192ZM80.3292 160.76H81.0792V166.22H80.3292V160.76ZM78.0992 166.4C78.7259 166.4 79.2626 166.467 79.7092 166.6C80.1559 166.727 80.4992 166.917 80.7392 167.17C80.9859 167.417 81.1092 167.717 81.1092 168.07C81.1092 168.423 80.9859 168.727 80.7392 168.98C80.4992 169.227 80.1559 169.413 79.7092 169.54C79.2626 169.673 78.7259 169.74 78.0992 169.74C77.1659 169.74 76.4292 169.593 75.8892 169.3C75.3559 169.007 75.0892 168.597 75.0892 168.07C75.0892 167.717 75.2092 167.417 75.4492 167.17C75.6959 166.917 76.0426 166.727 76.4892 166.6C76.9426 166.467 77.4792 166.4 78.0992 166.4ZM78.0992 166.99C77.6326 166.99 77.2292 167.033 76.8892 167.12C76.5492 167.207 76.2859 167.33 76.0992 167.49C75.9192 167.65 75.8292 167.843 75.8292 168.07C75.8292 168.297 75.9192 168.49 76.0992 168.65C76.2859 168.81 76.5492 168.933 76.8892 169.02C77.2292 169.107 77.6326 169.15 78.0992 169.15C78.5726 169.15 78.9759 169.107 79.3092 169.02C79.6492 168.933 79.9092 168.81 80.0892 168.65C80.2759 168.49 80.3692 168.297 80.3692 168.07C80.3692 167.843 80.2759 167.65 80.0892 167.49C79.9092 167.33 79.6492 167.207 79.3092 167.12C78.9759 167.033 78.5726 166.99 78.0992 166.99ZM89.1184 160.75H89.8584V167.8H89.1184V160.75ZM89.5384 163.93H91.2084V164.55H89.5384V163.93ZM84.2284 168.94H90.1884V169.55H84.2284V168.94ZM84.2284 167.33H84.9584V169.12H84.2284V167.33ZM85.3284 165.17H86.0684V166.38H85.3284V165.17ZM82.9684 166.74L82.8784 166.13C83.4118 166.13 83.9984 166.123 84.6384 166.11C85.2851 166.097 85.9451 166.067 86.6184 166.02C87.2918 165.973 87.9384 165.903 88.5584 165.81L88.6184 166.34C87.9784 166.453 87.3218 166.54 86.6484 166.6C85.9818 166.66 85.3318 166.697 84.6984 166.71C84.0718 166.723 83.4951 166.733 82.9684 166.74ZM83.0984 161.66H88.2784V162.23H83.0984V161.66ZM85.6884 162.63C86.3218 162.63 86.8251 162.753 87.1984 163C87.5784 163.247 87.7684 163.583 87.7684 164.01C87.7684 164.443 87.5784 164.783 87.1984 165.03C86.8251 165.277 86.3218 165.4 85.6884 165.4C85.0618 165.4 84.5584 165.277 84.1784 165.03C83.7984 164.783 83.6084 164.443 83.6084 164.01C83.6084 163.583 83.7984 163.247 84.1784 163C84.5584 162.753 85.0618 162.63 85.6884 162.63ZM85.6884 163.16C85.2684 163.16 84.9318 163.237 84.6784 163.39C84.4318 163.543 84.3084 163.75 84.3084 164.01C84.3084 164.27 84.4318 164.477 84.6784 164.63C84.9318 164.783 85.2684 164.86 85.6884 164.86C86.1084 164.86 86.4418 164.783 86.6884 164.63C86.9418 164.477 87.0684 164.27 87.0684 164.01C87.0684 163.75 86.9418 163.543 86.6884 163.39C86.4418 163.237 86.1084 163.16 85.6884 163.16ZM85.3284 160.72H86.0684V161.92H85.3284V160.72Z" fill="#535353"/>
<path d="M110.21 165.57H110.94V167.15H110.21V165.57ZM106.51 165.18H114.65V165.79H106.51V165.18ZM107.42 166.89H113.64V169.76H112.9V167.49H107.42V166.89ZM107.6 160.96H108.33V162.02H112.85V160.96H113.58V164.31H107.6V160.96ZM108.33 162.6V163.71H112.85V162.6H108.33ZM115.709 166.11H123.869V166.72H115.709V166.11ZM119.399 166.39H120.129V169.76H119.399V166.39ZM116.759 161.12H117.489V162.39H122.079V161.12H122.819V164.99H116.759V161.12ZM117.489 163V164.39H122.079V163H117.489ZM131.828 160.75H132.538V169.76H131.828V160.75ZM130.248 164.39H132.018V165.01H130.248V164.39ZM129.778 160.96H130.468V169.29H129.778V160.96ZM125.248 166.88H125.828C126.282 166.88 126.692 166.873 127.058 166.86C127.425 166.847 127.772 166.82 128.098 166.78C128.432 166.74 128.768 166.683 129.108 166.61L129.188 167.23C128.835 167.303 128.488 167.363 128.148 167.41C127.808 167.45 127.452 167.477 127.078 167.49C126.712 167.497 126.295 167.5 125.828 167.5H125.248V166.88ZM125.248 161.86H128.598V162.47H125.988V167.16H125.248V161.86ZM138.148 166.45C138.788 166.45 139.341 166.517 139.808 166.65C140.274 166.777 140.634 166.963 140.888 167.21C141.148 167.457 141.278 167.753 141.278 168.1C141.278 168.44 141.148 168.733 140.888 168.98C140.634 169.227 140.274 169.413 139.808 169.54C139.341 169.673 138.788 169.74 138.148 169.74C137.514 169.74 136.961 169.673 136.488 169.54C136.021 169.413 135.661 169.227 135.408 168.98C135.154 168.733 135.028 168.44 135.028 168.1C135.028 167.753 135.154 167.457 135.408 167.21C135.661 166.963 136.021 166.777 136.488 166.65C136.961 166.517 137.514 166.45 138.148 166.45ZM138.148 167.03C137.668 167.03 137.248 167.073 136.888 167.16C136.534 167.247 136.258 167.37 136.058 167.53C135.858 167.69 135.758 167.88 135.758 168.1C135.758 168.313 135.858 168.5 136.058 168.66C136.258 168.82 136.534 168.94 136.888 169.02C137.248 169.107 137.668 169.15 138.148 169.15C138.634 169.15 139.058 169.107 139.418 169.02C139.778 168.94 140.054 168.82 140.248 168.66C140.448 168.5 140.548 168.313 140.548 168.1C140.548 167.88 140.448 167.69 140.248 167.53C140.054 167.37 139.778 167.247 139.418 167.16C139.058 167.073 138.634 167.03 138.148 167.03ZM135.088 161.22H140.908V161.82H135.088V161.22ZM134.118 164.98H142.238V165.58H134.118V164.98ZM137.518 163.21H138.248V165.16H137.518V163.21ZM140.478 161.22H141.198V161.98C141.198 162.347 141.188 162.72 141.168 163.1C141.148 163.48 141.078 163.903 140.958 164.37L140.228 164.28C140.354 163.82 140.428 163.41 140.448 163.05C140.468 162.69 140.478 162.333 140.478 161.98V161.22Z" fill="#535353"/>
<path d="M156.51 166.01H164.67V166.63H156.51V166.01ZM160.2 166.38H160.93V169.75H160.2V166.38ZM157.57 161.26H163.61V164.75H157.57V161.26ZM162.88 161.86H158.29V164.16H162.88V161.86ZM170.769 162.89H172.639V163.5H170.769V162.89ZM170.769 164.63H172.629V165.24H170.769V164.63ZM165.729 161.68H170.789V162.29H165.729V161.68ZM168.279 162.76C168.679 162.76 169.029 162.827 169.329 162.96C169.636 163.093 169.873 163.283 170.039 163.53C170.213 163.77 170.299 164.053 170.299 164.38C170.299 164.707 170.213 164.99 170.039 165.23C169.873 165.47 169.636 165.657 169.329 165.79C169.029 165.923 168.679 165.99 168.279 165.99C167.879 165.99 167.526 165.923 167.219 165.79C166.919 165.657 166.683 165.47 166.509 165.23C166.343 164.99 166.259 164.707 166.259 164.38C166.259 164.053 166.343 163.77 166.509 163.53C166.683 163.283 166.919 163.093 167.219 162.96C167.526 162.827 167.879 162.76 168.279 162.76ZM168.279 163.33C167.879 163.33 167.556 163.427 167.309 163.62C167.069 163.813 166.949 164.067 166.949 164.38C166.949 164.687 167.069 164.94 167.309 165.14C167.556 165.333 167.879 165.43 168.279 165.43C168.673 165.43 168.993 165.333 169.239 165.14C169.486 164.94 169.609 164.687 169.609 164.38C169.609 164.067 169.486 163.813 169.239 163.62C168.993 163.427 168.673 163.33 168.279 163.33ZM167.919 160.67H168.659V162.03H167.919V160.67ZM172.359 160.75H173.099V166.07H172.359V160.75ZM167.319 166.46H168.039V167.44H172.369V166.46H173.099V169.64H167.319V166.46ZM168.039 168.02V169.04H172.369V168.02H168.039Z" fill="#535353"/>
<path d="M115.757 212H117V222.816H115.757V212ZM112.574 213.148H113.805C113.805 213.953 113.718 214.722 113.544 215.456C113.371 216.189 113.087 216.887 112.692 217.55C112.306 218.205 111.793 218.812 111.154 219.373C110.523 219.933 109.742 220.438 108.811 220.887L108.148 219.905C109.197 219.4 110.045 218.824 110.692 218.177C111.339 217.53 111.813 216.809 112.112 216.012C112.42 215.207 112.574 214.323 112.574 213.361V213.148ZM108.68 213.148H113.13V214.142H108.68V213.148Z" fill="black"/>
<path d="M104.326 212.012H105.569V222.828H104.326V212.012ZM105.285 216.355H107.237V217.384H105.285V216.355ZM97.1191 213.68H103.462V214.674H97.1191V213.68ZM100.338 215.444C100.851 215.444 101.308 215.554 101.711 215.775C102.113 215.988 102.429 216.284 102.657 216.663C102.894 217.041 103.013 217.475 103.013 217.964C103.013 218.461 102.894 218.899 102.657 219.278C102.429 219.657 102.113 219.956 101.711 220.177C101.308 220.39 100.847 220.497 100.326 220.497C99.8134 220.497 99.3558 220.39 98.9534 220.177C98.5511 219.956 98.2315 219.657 97.9949 219.278C97.7661 218.899 97.6517 218.461 97.6517 217.964C97.6517 217.475 97.7661 217.041 97.9949 216.663C98.2315 216.284 98.5511 215.988 98.9534 215.775C99.3558 215.554 99.8173 215.444 100.338 215.444ZM100.326 216.461C100.042 216.461 99.7858 216.524 99.557 216.651C99.3282 216.777 99.1467 216.954 99.0126 217.183C98.8864 217.404 98.8233 217.664 98.8233 217.964C98.8233 218.272 98.8864 218.54 99.0126 218.769C99.1467 218.99 99.3282 219.163 99.557 219.29C99.7858 219.416 100.042 219.479 100.326 219.479C100.618 219.479 100.874 219.416 101.095 219.29C101.324 219.163 101.502 218.99 101.628 218.769C101.762 218.54 101.829 218.272 101.829 217.964C101.829 217.664 101.762 217.404 101.628 217.183C101.502 216.954 101.324 216.777 101.095 216.651C100.874 216.524 100.618 216.461 100.326 216.461ZM99.699 212.154H100.942V214.095H99.699V212.154Z" fill="black"/>
<path d="M86.7302 217.278H87.5231C88.2174 217.278 88.813 217.274 89.31 217.266C89.8071 217.25 90.2607 217.223 90.671 217.183C91.0812 217.144 91.4954 217.085 91.9135 217.006L92.0437 218.012C91.7124 218.067 91.3889 218.114 91.0733 218.154C90.7656 218.185 90.4382 218.209 90.0911 218.225C89.7439 218.24 89.3613 218.252 88.9432 218.26C88.525 218.268 88.0517 218.272 87.5231 218.272H86.7302V217.278ZM86.7065 212.639H91.4047V215.858H87.9491V217.905H86.7302V214.923H90.1739V213.633H86.7065V212.639ZM94.0082 212.012H95.2507V218.674H94.0082V212.012ZM92.0792 213.562H94.2685V214.568H92.0792V213.562ZM92.0792 215.834H94.2685V216.828H92.0792V215.834ZM87.9373 219.207H95.2507V222.84H94.0082V220.201H87.9373V219.207Z" fill="black"/>
<path d="M83.0742 212.012H84.3168V217.81H83.0742V212.012ZM77.2637 218.331H78.4826V219.503H83.0979V218.331H84.3168V222.686H77.2637V218.331ZM78.4826 220.461V221.692H83.0979V220.461H78.4826ZM78.4826 212.497C79.0349 212.497 79.528 212.603 79.9619 212.816C80.3958 213.029 80.735 213.325 80.9796 213.704C81.2321 214.075 81.3583 214.509 81.3583 215.006C81.3583 215.503 81.2321 215.941 80.9796 216.319C80.735 216.698 80.3958 216.994 79.9619 217.207C79.528 217.42 79.0349 217.526 78.4826 217.526C77.9304 217.526 77.4373 217.42 77.0034 217.207C76.5694 216.994 76.2262 216.698 75.9738 216.319C75.7292 215.941 75.6069 215.503 75.6069 215.006C75.6069 214.509 75.7292 214.075 75.9738 213.704C76.2262 213.325 76.5694 213.029 77.0034 212.816C77.4373 212.603 77.9304 212.497 78.4826 212.497ZM78.4826 213.515C78.1591 213.515 77.8712 213.578 77.6187 213.704C77.3742 213.822 77.1809 213.996 77.0389 214.225C76.8968 214.446 76.8258 214.706 76.8258 215.006C76.8258 215.306 76.8968 215.57 77.0389 215.799C77.1809 216.02 77.3742 216.193 77.6187 216.319C77.8712 216.438 78.1591 216.497 78.4826 216.497C78.8061 216.497 79.0901 216.438 79.3347 216.319C79.5871 216.193 79.7844 216.02 79.9264 215.799C80.0763 215.57 80.1512 215.306 80.1512 215.006C80.1512 214.706 80.0763 214.446 79.9264 214.225C79.7844 213.996 79.5871 213.822 79.3347 213.704C79.0901 213.578 78.8061 213.515 78.4826 213.515Z" fill="black"/>
<path d="M67.6601 214.544H69.9086V215.55H67.6601V214.544ZM69.5772 212.012H70.8198V217.905H69.5772V212.012ZM63.7904 218.378H65.0211V219.562H69.5891V218.378H70.8198V222.686H63.7904V218.378ZM65.0211 220.532V221.692H69.5891V220.532H65.0211ZM64.5004 212.852H65.5182V213.645C65.5182 214.308 65.3959 214.935 65.1513 215.526C64.9146 216.118 64.5714 216.639 64.1217 217.089C63.6721 217.53 63.1277 217.866 62.4887 218.094L61.8496 217.1C62.2756 216.958 62.6504 216.769 62.9738 216.532C63.3052 216.296 63.5853 216.023 63.8141 215.716C64.0429 215.4 64.2125 215.069 64.3229 214.722C64.4413 214.367 64.5004 214.008 64.5004 213.645V212.852ZM64.749 212.852H65.7548V213.645C65.7548 214.087 65.8535 214.521 66.0507 214.947C66.2479 215.373 66.5359 215.755 66.9146 216.094C67.2933 216.434 67.7548 216.698 68.2992 216.887L67.6838 217.858C67.0605 217.637 66.528 217.317 66.0862 216.899C65.6523 216.473 65.3209 215.98 65.0921 215.42C64.8633 214.852 64.749 214.26 64.749 213.645V212.852ZM62.2165 212.592H68.0033V213.574H62.2165V212.592Z" fill="black"/>
<path d="M53.7443 213.124H54.7621V213.905C54.7621 214.576 54.6398 215.203 54.3952 215.787C54.1585 216.371 53.8114 216.884 53.3538 217.325C52.9041 217.759 52.3558 218.087 51.7089 218.308L51.0698 217.337C51.6457 217.148 52.1309 216.876 52.5254 216.521C52.9199 216.166 53.2197 215.763 53.4248 215.314C53.6378 214.856 53.7443 214.387 53.7443 213.905V213.124ZM53.9928 213.124H55.0106V213.905C55.0106 214.252 55.0658 214.592 55.1762 214.923C55.2946 215.246 55.4681 215.55 55.6969 215.834C55.9257 216.118 56.2019 216.375 56.5253 216.603C56.8567 216.824 57.2314 217.006 57.6496 217.148L57.0105 218.106C56.3794 217.901 55.8389 217.59 55.3893 217.171C54.9396 216.753 54.5924 216.264 54.3479 215.704C54.1112 215.144 53.9928 214.544 53.9928 213.905V213.124ZM58.6436 212H59.8862V218.544H58.6436V212ZM52.6083 219.065H59.8862V222.828H58.6436V220.071H52.6083V219.065ZM51.4012 212.71H57.3064V213.704H51.4012V212.71Z" fill="black"/>
<path d="M38.4721 213.089H45.3713V214.083H38.4721V213.089ZM37.4307 220.296H47.2056V221.314H37.4307V220.296ZM44.7204 213.089H45.9512V214.26C45.9512 214.734 45.9433 215.231 45.9275 215.752C45.9196 216.264 45.8881 216.828 45.8328 217.444C45.7776 218.051 45.6829 218.738 45.5488 219.503L44.3063 219.385C44.4483 218.667 44.5469 218.008 44.6021 217.408C44.6573 216.809 44.6889 216.249 44.6968 215.728C44.7126 215.207 44.7204 214.718 44.7204 214.26V213.089Z" fill="black"/>
<path d="M26.9346 219.207H27.6683C28.2205 219.207 28.7097 219.203 29.1357 219.195C29.5696 219.179 29.9759 219.156 30.3546 219.124C30.7412 219.085 31.1357 219.033 31.538 218.97L31.6564 219.976C31.2382 220.047 30.8319 220.106 30.4375 220.154C30.043 220.193 29.6209 220.217 29.1712 220.225C28.7294 220.233 28.2284 220.237 27.6683 220.237H26.9346V219.207ZM26.9346 213.195H31.2422V214.189H28.118V219.609H26.9346V213.195ZM27.7748 216.035H31.0528V217.006H27.7748V216.035ZM34.5912 212H35.7746V222.816H34.5912V212ZM33.0528 216.272H35.0054V217.29H33.0528V216.272ZM32.2362 212.213H33.396V222.307H32.2362V212.213Z" fill="black"/>
<rect x="25.5" y="231.5" width="53" height="16" rx="8" fill="white"/>
<rect x="25.5" y="231.5" width="53" height="16" rx="8" stroke="#FF592F"/>
<path d="M36 234V245H35V234H36Z" fill="#9F9F9F"/>
<path d="M100.769 239.328C100.769 243.636 97.2773 247.128 92.9696 247.128C88.662 247.128 85.1699 243.636 85.1699 239.328C85.1699 235.02 88.662 231.528 92.9696 231.528C97.2773 231.528 100.769 235.02 100.769 239.328Z" fill="#FF592F"/>
<path d="M92.1631 234.487C92.1631 234.041 92.5243 233.68 92.97 233.68C93.4156 233.68 93.7768 234.041 93.7768 234.487V244.169C93.7768 244.615 93.4156 244.976 92.97 244.976C92.5243 244.976 92.1631 244.615 92.1631 244.169V234.487Z" fill="white"/>
<path d="M97.8108 238.521C98.2564 238.521 98.6177 238.883 98.6177 239.328C98.6177 239.774 98.2564 240.135 97.8108 240.135L88.1284 240.135C87.6828 240.135 87.3215 239.774 87.3215 239.328C87.3215 238.883 87.6828 238.521 88.1284 238.521L97.8108 238.521Z" fill="white"/>
</g>
<path d="M118 349.5C118 342.596 123.631 337 130.576 337H189.424C196.369 337 202 342.596 202 349.5V349.5C202 356.404 196.369 362 189.424 362H130.576C123.631 362 118 356.404 118 349.5V349.5Z" fill="#FF592F"/>
<path d="M27 349.5C27 342.596 32.6306 337 39.5763 337H98.4237C105.369 337 111 342.596 111 349.5V349.5C111 356.404 105.369 362 98.4237 362H39.5763C32.6306 362 27 356.404 27 349.5V349.5Z" fill="white"/>
<path d="M98.4237 361.528V362H39.5763V361.528H98.4237ZM110.525 349.5C110.525 342.857 105.107 337.472 98.4237 337.472H39.5763C32.8927 337.472 27.4746 342.857 27.4746 349.5C27.4746 356.143 32.8927 361.528 39.5763 361.528V362L39.2519 361.996C32.4561 361.825 27 356.296 27 349.5C27 342.704 32.4561 337.175 39.2519 337.004L39.5763 337H98.4237L98.7481 337.004C105.544 337.175 111 342.704 111 349.5C111 356.296 105.544 361.825 98.7481 361.996L98.4237 362V361.528C105.107 361.528 110.525 356.143 110.525 349.5Z" fill="#FF592F"/>
<path d="M173.281 351.618H180.31V352.349H173.281V351.618ZM176.337 350.039H177.228V351.916H176.337V350.039ZM174.113 346.041H179.478V348.503H175.004V349.938H174.13V347.798H178.595V346.763H174.113V346.041ZM174.13 349.581H179.656V350.294H174.13V349.581Z" fill="white"/>
<path d="M168.477 347.612H170.123V348.325H168.477V347.612ZM168.417 349.547H170.106V350.269H168.417V349.547ZM171.253 345.498H172.101V353.257H171.253V345.498ZM169.674 345.685H170.514V352.884H169.674V345.685ZM167.942 346.449H168.791C168.791 347.156 168.7 347.824 168.519 348.452C168.338 349.075 168.035 349.652 167.611 350.184C167.192 350.716 166.632 351.194 165.93 351.619L165.42 350.982C166.015 350.626 166.496 350.227 166.864 349.785C167.237 349.344 167.509 348.86 167.679 348.333C167.854 347.807 167.942 347.238 167.942 346.627V346.449ZM165.802 346.449H168.256V347.17H165.802V346.449Z" fill="white"/>
<path d="M162.832 345.498H163.715V351.118H162.832V345.498ZM163.46 347.722H164.818V348.452H163.46V347.722ZM157.984 349.064H158.613C159.156 349.064 159.626 349.058 160.022 349.047C160.424 349.035 160.789 349.013 161.117 348.979C161.445 348.939 161.773 348.885 162.102 348.817L162.195 349.53C161.861 349.598 161.524 349.652 161.185 349.692C160.845 349.726 160.469 349.751 160.056 349.768C159.648 349.785 159.167 349.794 158.613 349.794H157.984V349.064ZM157.984 346.143H161.431V346.865H158.876V349.454H157.984V346.143ZM158.808 352.383H164.037V353.104H158.808V352.383ZM158.808 350.541H159.699V352.731H158.808V350.541Z" fill="white"/>
<path d="M151.451 345.659C152.017 345.659 152.507 345.719 152.92 345.837C153.333 345.956 153.65 346.126 153.871 346.347C154.097 346.568 154.21 346.836 154.21 347.153C154.21 347.459 154.097 347.725 153.871 347.951C153.65 348.172 153.333 348.342 152.92 348.461C152.507 348.574 152.017 348.63 151.451 348.63C150.891 348.63 150.402 348.574 149.983 348.461C149.57 348.342 149.25 348.172 149.023 347.951C148.797 347.725 148.684 347.459 148.684 347.153C148.684 346.836 148.797 346.568 149.023 346.347C149.25 346.126 149.57 345.956 149.983 345.837C150.402 345.719 150.891 345.659 151.451 345.659ZM151.451 346.355C151.067 346.355 150.735 346.386 150.458 346.449C150.181 346.511 149.969 346.601 149.821 346.72C149.674 346.834 149.601 346.978 149.601 347.153C149.601 347.317 149.674 347.459 149.821 347.578C149.969 347.697 150.181 347.787 150.458 347.849C150.735 347.912 151.067 347.943 151.451 347.943C151.836 347.943 152.164 347.912 152.436 347.849C152.713 347.787 152.926 347.697 153.073 347.578C153.22 347.459 153.294 347.317 153.294 347.153C153.294 346.978 153.22 346.834 153.073 346.72C152.926 346.601 152.713 346.511 152.436 346.449C152.164 346.386 151.836 346.355 151.451 346.355ZM148.786 350.574H154.109V353.164H148.786V350.574ZM153.234 351.279H149.652V352.459H153.234V351.279ZM147.945 349.199H154.957V349.912H147.945V349.199Z" fill="white"/>
<path d="M145.255 345.498H146.146V353.274H145.255V345.498ZM145.951 348.478H147.352V349.216H145.951V348.478ZM140.45 350.626H141.078C141.542 350.626 141.97 350.62 142.36 350.609C142.751 350.592 143.13 350.566 143.498 350.532C143.866 350.493 144.239 350.439 144.618 350.371L144.712 351.109C144.321 351.183 143.936 351.24 143.557 351.279C143.184 351.313 142.793 351.339 142.386 351.356C141.984 351.367 141.548 351.373 141.078 351.373H140.45V350.626ZM140.45 346.237H144.058V346.958H141.333V350.974H140.45V346.237Z" fill="white"/>
<path d="M79.2101 345.498H80.1014V353.257H79.2101V345.498ZM76.9265 346.322H77.8093C77.8093 346.899 77.7471 347.451 77.6226 347.977C77.4981 348.503 77.2943 349.004 77.0113 349.48C76.734 349.949 76.3662 350.385 75.9077 350.787C75.455 351.189 74.8947 351.551 74.2269 351.873L73.7515 351.169C74.5042 350.807 75.1126 350.394 75.5767 349.929C76.0407 349.465 76.3803 348.948 76.5954 348.376C76.8161 347.799 76.9265 347.165 76.9265 346.474V346.322ZM74.1335 346.322H77.3254V347.035H74.1335V346.322Z" fill="#FF592F"/>
<path d="M71.0015 345.498H71.8929V353.257H71.0015V345.498ZM71.6637 348.563H73.0644V349.301H71.6637V348.563ZM68.9981 346.322H69.864C69.864 347.074 69.748 347.793 69.5159 348.478C69.2895 349.157 68.9188 349.782 68.4038 350.354C67.8945 350.926 67.2153 351.424 66.3664 351.848L65.874 351.169C66.5758 350.807 67.1559 350.394 67.6143 349.929C68.0784 349.465 68.4236 348.945 68.65 348.367C68.8821 347.79 68.9981 347.156 68.9981 346.466V346.322ZM66.2645 346.322H69.4565V347.043H66.2645V346.322Z" fill="#FF592F"/>
<path d="M63.8543 348.52H65.255V349.259H63.8543V348.52ZM63.1921 345.498H64.0835V353.257H63.1921V345.498ZM58.3447 346.254H59.2361V351.067H58.3447V346.254ZM58.3447 350.583H58.9899C59.5502 350.583 60.1275 350.56 60.7217 350.515C61.3216 350.464 61.9385 350.374 62.5724 350.244L62.6658 350.982C62.0149 351.112 61.3839 351.203 60.7727 351.254C60.1614 351.299 59.5672 351.322 58.9899 351.322H58.3447V350.583Z" fill="#FF592F"/>
<defs>
<clipPath id="clip0_180_3365">
<rect width="206" height="364" fill="white" transform="translate(12 12)"/>
</clipPath>
</defs>
</svg>
