<svg width="238" height="935" viewBox="0 0 238 935" fill="none" xmlns="http://www.w3.org/2000/svg">
<path d="M31.5556 120.77C31.4716 120.17 31.5076 119.636 31.6636 119.168C31.8196 118.688 32.0356 118.256 32.3116 117.872C32.5996 117.476 32.8876 117.11 33.1756 116.774C33.4756 116.426 33.7276 116.084 33.9316 115.748C34.1476 115.4 34.2556 115.028 34.2556 114.632C34.2556 114.296 34.1836 114.002 34.0396 113.75C33.9076 113.486 33.7096 113.276 33.4456 113.12C33.1936 112.964 32.8756 112.886 32.4916 112.886C32.0716 112.886 31.6756 112.988 31.3036 113.192C30.9436 113.384 30.6136 113.648 30.3136 113.984L29.1436 112.922C29.5876 112.418 30.1096 112.004 30.7096 111.68C31.3096 111.356 31.9816 111.194 32.7256 111.194C33.4336 111.194 34.0516 111.326 34.5796 111.59C35.1196 111.842 35.5336 112.214 35.8216 112.706C36.1216 113.186 36.2716 113.786 36.2716 114.506C36.2716 115.022 36.1636 115.49 35.9476 115.91C35.7436 116.318 35.4856 116.702 35.1736 117.062C34.8616 117.422 34.5556 117.788 34.2556 118.16C33.9676 118.52 33.7336 118.91 33.5536 119.33C33.3736 119.75 33.3136 120.23 33.3736 120.77H31.5556ZM32.4916 125.252C32.0956 125.252 31.7656 125.114 31.5016 124.838C31.2376 124.55 31.1056 124.196 31.1056 123.776C31.1056 123.344 31.2376 122.996 31.5016 122.732C31.7656 122.456 32.0956 122.318 32.4916 122.318C32.8876 122.318 33.2176 122.456 33.4816 122.732C33.7576 122.996 33.8956 123.344 33.8956 123.776C33.8956 124.196 33.7576 124.55 33.4816 124.838C33.2176 125.114 32.8876 125.252 32.4916 125.252ZM40.4149 120.77C40.3309 120.17 40.3669 119.636 40.5229 119.168C40.6789 118.688 40.8949 118.256 41.1709 117.872C41.4589 117.476 41.7469 117.11 42.0349 116.774C42.3349 116.426 42.5869 116.084 42.7909 115.748C43.0069 115.4 43.1149 115.028 43.1149 114.632C43.1149 114.296 43.0429 114.002 42.8989 113.75C42.7669 113.486 42.5689 113.276 42.3049 113.12C42.0529 112.964 41.7349 112.886 41.3509 112.886C40.9309 112.886 40.5349 112.988 40.1629 113.192C39.8029 113.384 39.4729 113.648 39.1729 113.984L38.0029 112.922C38.4469 112.418 38.9689 112.004 39.5689 111.68C40.1689 111.356 40.8409 111.194 41.5849 111.194C42.2929 111.194 42.9109 111.326 43.4389 111.59C43.9789 111.842 44.3929 112.214 44.6809 112.706C44.9809 113.186 45.1309 113.786 45.1309 114.506C45.1309 115.022 45.0229 115.49 44.8069 115.91C44.6029 116.318 44.3449 116.702 44.0329 117.062C43.7209 117.422 43.4149 117.788 43.1149 118.16C42.8269 118.52 42.5929 118.91 42.4129 119.33C42.2329 119.75 42.1729 120.23 42.2329 120.77H40.4149ZM41.3509 125.252C40.9549 125.252 40.6249 125.114 40.3609 124.838C40.0969 124.55 39.9649 124.196 39.9649 123.776C39.9649 123.344 40.0969 122.996 40.3609 122.732C40.6249 122.456 40.9549 122.318 41.3509 122.318C41.7469 122.318 42.0769 122.456 42.3409 122.732C42.6169 122.996 42.7549 123.344 42.7549 123.776C42.7549 124.196 42.6169 124.55 42.3409 124.838C42.0769 125.114 41.7469 125.252 41.3509 125.252ZM49.2743 120.77C49.1903 120.17 49.2263 119.636 49.3823 119.168C49.5383 118.688 49.7543 118.256 50.0303 117.872C50.3183 117.476 50.6063 117.11 50.8943 116.774C51.1943 116.426 51.4463 116.084 51.6503 115.748C51.8663 115.4 51.9743 115.028 51.9743 114.632C51.9743 114.296 51.9023 114.002 51.7583 113.75C51.6263 113.486 51.4283 113.276 51.1643 113.12C50.9123 112.964 50.5943 112.886 50.2103 112.886C49.7903 112.886 49.3943 112.988 49.0223 113.192C48.6623 113.384 48.3323 113.648 48.0323 113.984L46.8623 112.922C47.3063 112.418 47.8283 112.004 48.4283 111.68C49.0283 111.356 49.7003 111.194 50.4443 111.194C51.1523 111.194 51.7703 111.326 52.2983 111.59C52.8383 111.842 53.2523 112.214 53.5403 112.706C53.8403 113.186 53.9903 113.786 53.9903 114.506C53.9903 115.022 53.8823 115.49 53.6663 115.91C53.4623 116.318 53.2043 116.702 52.8923 117.062C52.5803 117.422 52.2743 117.788 51.9743 118.16C51.6863 118.52 51.4523 118.91 51.2723 119.33C51.0923 119.75 51.0323 120.23 51.0923 120.77H49.2743ZM50.2103 125.252C49.8143 125.252 49.4843 125.114 49.2203 124.838C48.9563 124.55 48.8243 124.196 48.8243 123.776C48.8243 123.344 48.9563 122.996 49.2203 122.732C49.4843 122.456 49.8143 122.318 50.2103 122.318C50.6063 122.318 50.9363 122.456 51.2003 122.732C51.4763 122.996 51.6143 123.344 51.6143 123.776C51.6143 124.196 51.4763 124.55 51.2003 124.838C50.9363 125.114 50.6063 125.252 50.2103 125.252ZM58.1337 120.77C58.0497 120.17 58.0857 119.636 58.2417 119.168C58.3977 118.688 58.6137 118.256 58.8897 117.872C59.1777 117.476 59.4657 117.11 59.7537 116.774C60.0537 116.426 60.3057 116.084 60.5097 115.748C60.7257 115.4 60.8337 115.028 60.8337 114.632C60.8337 114.296 60.7617 114.002 60.6177 113.75C60.4857 113.486 60.2877 113.276 60.0237 113.12C59.7717 112.964 59.4537 112.886 59.0697 112.886C58.6497 112.886 58.2537 112.988 57.8817 113.192C57.5217 113.384 57.1917 113.648 56.8917 113.984L55.7217 112.922C56.1657 112.418 56.6877 112.004 57.2877 111.68C57.8877 111.356 58.5597 111.194 59.3037 111.194C60.0117 111.194 60.6297 111.326 61.1577 111.59C61.6977 111.842 62.1117 112.214 62.3997 112.706C62.6997 113.186 62.8497 113.786 62.8497 114.506C62.8497 115.022 62.7417 115.49 62.5257 115.91C62.3217 116.318 62.0637 116.702 61.7517 117.062C61.4397 117.422 61.1337 117.788 60.8337 118.16C60.5457 118.52 60.3117 118.91 60.1317 119.33C59.9517 119.75 59.8917 120.23 59.9517 120.77H58.1337ZM59.0697 125.252C58.6737 125.252 58.3437 125.114 58.0797 124.838C57.8157 124.55 57.6837 124.196 57.6837 123.776C57.6837 123.344 57.8157 122.996 58.0797 122.732C58.3437 122.456 58.6737 122.318 59.0697 122.318C59.4657 122.318 59.7957 122.456 60.0597 122.732C60.3357 122.996 60.4737 123.344 60.4737 123.776C60.4737 124.196 60.3357 124.55 60.0597 124.838C59.7957 125.114 59.4657 125.252 59.0697 125.252ZM66.9931 120.77C66.9091 120.17 66.9451 119.636 67.1011 119.168C67.2571 118.688 67.4731 118.256 67.7491 117.872C68.0371 117.476 68.3251 117.11 68.6131 116.774C68.9131 116.426 69.1651 116.084 69.3691 115.748C69.5851 115.4 69.6931 115.028 69.6931 114.632C69.6931 114.296 69.6211 114.002 69.4771 113.75C69.3451 113.486 69.1471 113.276 68.8831 113.12C68.6311 112.964 68.3131 112.886 67.9291 112.886C67.5091 112.886 67.1131 112.988 66.7411 113.192C66.3811 113.384 66.0511 113.648 65.7511 113.984L64.5811 112.922C65.0251 112.418 65.5471 112.004 66.1471 111.68C66.7471 111.356 67.4191 111.194 68.1631 111.194C68.8711 111.194 69.4891 111.326 70.0171 111.59C70.5571 111.842 70.9711 112.214 71.2591 112.706C71.5591 113.186 71.7091 113.786 71.7091 114.506C71.7091 115.022 71.6011 115.49 71.3851 115.91C71.1811 116.318 70.9231 116.702 70.6111 117.062C70.2991 117.422 69.9931 117.788 69.6931 118.16C69.4051 118.52 69.1711 118.91 68.9911 119.33C68.8111 119.75 68.7511 120.23 68.8111 120.77H66.9931ZM67.9291 125.252C67.5331 125.252 67.2031 125.114 66.9391 124.838C66.6751 124.55 66.5431 124.196 66.5431 123.776C66.5431 123.344 66.6751 122.996 66.9391 122.732C67.2031 122.456 67.5331 122.318 67.9291 122.318C68.3251 122.318 68.6551 122.456 68.9191 122.732C69.1951 122.996 69.3331 123.344 69.3331 123.776C69.3331 124.196 69.1951 124.55 68.9191 124.838C68.6551 125.114 68.3251 125.252 67.9291 125.252Z" fill="#F5F5F5"/>
<path d="M31.5556 287.77C31.4716 287.17 31.5076 286.636 31.6636 286.168C31.8196 285.688 32.0356 285.256 32.3116 284.872C32.5996 284.476 32.8876 284.11 33.1756 283.774C33.4756 283.426 33.7276 283.084 33.9316 282.748C34.1476 282.4 34.2556 282.028 34.2556 281.632C34.2556 281.296 34.1836 281.002 34.0396 280.75C33.9076 280.486 33.7096 280.276 33.4456 280.12C33.1936 279.964 32.8756 279.886 32.4916 279.886C32.0716 279.886 31.6756 279.988 31.3036 280.192C30.9436 280.384 30.6136 280.648 30.3136 280.984L29.1436 279.922C29.5876 279.418 30.1096 279.004 30.7096 278.68C31.3096 278.356 31.9816 278.194 32.7256 278.194C33.4336 278.194 34.0516 278.326 34.5796 278.59C35.1196 278.842 35.5336 279.214 35.8216 279.706C36.1216 280.186 36.2716 280.786 36.2716 281.506C36.2716 282.022 36.1636 282.49 35.9476 282.91C35.7436 283.318 35.4856 283.702 35.1736 284.062C34.8616 284.422 34.5556 284.788 34.2556 285.16C33.9676 285.52 33.7336 285.91 33.5536 286.33C33.3736 286.75 33.3136 287.23 33.3736 287.77H31.5556ZM32.4916 292.252C32.0956 292.252 31.7656 292.114 31.5016 291.838C31.2376 291.55 31.1056 291.196 31.1056 290.776C31.1056 290.344 31.2376 289.996 31.5016 289.732C31.7656 289.456 32.0956 289.318 32.4916 289.318C32.8876 289.318 33.2176 289.456 33.4816 289.732C33.7576 289.996 33.8956 290.344 33.8956 290.776C33.8956 291.196 33.7576 291.55 33.4816 291.838C33.2176 292.114 32.8876 292.252 32.4916 292.252ZM40.4149 287.77C40.3309 287.17 40.3669 286.636 40.5229 286.168C40.6789 285.688 40.8949 285.256 41.1709 284.872C41.4589 284.476 41.7469 284.11 42.0349 283.774C42.3349 283.426 42.5869 283.084 42.7909 282.748C43.0069 282.4 43.1149 282.028 43.1149 281.632C43.1149 281.296 43.0429 281.002 42.8989 280.75C42.7669 280.486 42.5689 280.276 42.3049 280.12C42.0529 279.964 41.7349 279.886 41.3509 279.886C40.9309 279.886 40.5349 279.988 40.1629 280.192C39.8029 280.384 39.4729 280.648 39.1729 280.984L38.0029 279.922C38.4469 279.418 38.9689 279.004 39.5689 278.68C40.1689 278.356 40.8409 278.194 41.5849 278.194C42.2929 278.194 42.9109 278.326 43.4389 278.59C43.9789 278.842 44.3929 279.214 44.6809 279.706C44.9809 280.186 45.1309 280.786 45.1309 281.506C45.1309 282.022 45.0229 282.49 44.8069 282.91C44.6029 283.318 44.3449 283.702 44.0329 284.062C43.7209 284.422 43.4149 284.788 43.1149 285.16C42.8269 285.52 42.5929 285.91 42.4129 286.33C42.2329 286.75 42.1729 287.23 42.2329 287.77H40.4149ZM41.3509 292.252C40.9549 292.252 40.6249 292.114 40.3609 291.838C40.0969 291.55 39.9649 291.196 39.9649 290.776C39.9649 290.344 40.0969 289.996 40.3609 289.732C40.6249 289.456 40.9549 289.318 41.3509 289.318C41.7469 289.318 42.0769 289.456 42.3409 289.732C42.6169 289.996 42.7549 290.344 42.7549 290.776C42.7549 291.196 42.6169 291.55 42.3409 291.838C42.0769 292.114 41.7469 292.252 41.3509 292.252ZM49.2743 287.77C49.1903 287.17 49.2263 286.636 49.3823 286.168C49.5383 285.688 49.7543 285.256 50.0303 284.872C50.3183 284.476 50.6063 284.11 50.8943 283.774C51.1943 283.426 51.4463 283.084 51.6503 282.748C51.8663 282.4 51.9743 282.028 51.9743 281.632C51.9743 281.296 51.9023 281.002 51.7583 280.75C51.6263 280.486 51.4283 280.276 51.1643 280.12C50.9123 279.964 50.5943 279.886 50.2103 279.886C49.7903 279.886 49.3943 279.988 49.0223 280.192C48.6623 280.384 48.3323 280.648 48.0323 280.984L46.8623 279.922C47.3063 279.418 47.8283 279.004 48.4283 278.68C49.0283 278.356 49.7003 278.194 50.4443 278.194C51.1523 278.194 51.7703 278.326 52.2983 278.59C52.8383 278.842 53.2523 279.214 53.5403 279.706C53.8403 280.186 53.9903 280.786 53.9903 281.506C53.9903 282.022 53.8823 282.49 53.6663 282.91C53.4623 283.318 53.2043 283.702 52.8923 284.062C52.5803 284.422 52.2743 284.788 51.9743 285.16C51.6863 285.52 51.4523 285.91 51.2723 286.33C51.0923 286.75 51.0323 287.23 51.0923 287.77H49.2743ZM50.2103 292.252C49.8143 292.252 49.4843 292.114 49.2203 291.838C48.9563 291.55 48.8243 291.196 48.8243 290.776C48.8243 290.344 48.9563 289.996 49.2203 289.732C49.4843 289.456 49.8143 289.318 50.2103 289.318C50.6063 289.318 50.9363 289.456 51.2003 289.732C51.4763 289.996 51.6143 290.344 51.6143 290.776C51.6143 291.196 51.4763 291.55 51.2003 291.838C50.9363 292.114 50.6063 292.252 50.2103 292.252ZM58.1337 287.77C58.0497 287.17 58.0857 286.636 58.2417 286.168C58.3977 285.688 58.6137 285.256 58.8897 284.872C59.1777 284.476 59.4657 284.11 59.7537 283.774C60.0537 283.426 60.3057 283.084 60.5097 282.748C60.7257 282.4 60.8337 282.028 60.8337 281.632C60.8337 281.296 60.7617 281.002 60.6177 280.75C60.4857 280.486 60.2877 280.276 60.0237 280.12C59.7717 279.964 59.4537 279.886 59.0697 279.886C58.6497 279.886 58.2537 279.988 57.8817 280.192C57.5217 280.384 57.1917 280.648 56.8917 280.984L55.7217 279.922C56.1657 279.418 56.6877 279.004 57.2877 278.68C57.8877 278.356 58.5597 278.194 59.3037 278.194C60.0117 278.194 60.6297 278.326 61.1577 278.59C61.6977 278.842 62.1117 279.214 62.3997 279.706C62.6997 280.186 62.8497 280.786 62.8497 281.506C62.8497 282.022 62.7417 282.49 62.5257 282.91C62.3217 283.318 62.0637 283.702 61.7517 284.062C61.4397 284.422 61.1337 284.788 60.8337 285.16C60.5457 285.52 60.3117 285.91 60.1317 286.33C59.9517 286.75 59.8917 287.23 59.9517 287.77H58.1337ZM59.0697 292.252C58.6737 292.252 58.3437 292.114 58.0797 291.838C57.8157 291.55 57.6837 291.196 57.6837 290.776C57.6837 290.344 57.8157 289.996 58.0797 289.732C58.3437 289.456 58.6737 289.318 59.0697 289.318C59.4657 289.318 59.7957 289.456 60.0597 289.732C60.3357 289.996 60.4737 290.344 60.4737 290.776C60.4737 291.196 60.3357 291.55 60.0597 291.838C59.7957 292.114 59.4657 292.252 59.0697 292.252ZM66.9931 287.77C66.9091 287.17 66.9451 286.636 67.1011 286.168C67.2571 285.688 67.4731 285.256 67.7491 284.872C68.0371 284.476 68.3251 284.11 68.6131 283.774C68.9131 283.426 69.1651 283.084 69.3691 282.748C69.5851 282.4 69.6931 282.028 69.6931 281.632C69.6931 281.296 69.6211 281.002 69.4771 280.75C69.3451 280.486 69.1471 280.276 68.8831 280.12C68.6311 279.964 68.3131 279.886 67.9291 279.886C67.5091 279.886 67.1131 279.988 66.7411 280.192C66.3811 280.384 66.0511 280.648 65.7511 280.984L64.5811 279.922C65.0251 279.418 65.5471 279.004 66.1471 278.68C66.7471 278.356 67.4191 278.194 68.1631 278.194C68.8711 278.194 69.4891 278.326 70.0171 278.59C70.5571 278.842 70.9711 279.214 71.2591 279.706C71.5591 280.186 71.7091 280.786 71.7091 281.506C71.7091 282.022 71.6011 282.49 71.3851 282.91C71.1811 283.318 70.9231 283.702 70.6111 284.062C70.2991 284.422 69.9931 284.788 69.6931 285.16C69.4051 285.52 69.1711 285.91 68.9911 286.33C68.8111 286.75 68.7511 287.23 68.8111 287.77H66.9931ZM67.9291 292.252C67.5331 292.252 67.2031 292.114 66.9391 291.838C66.6751 291.55 66.5431 291.196 66.5431 290.776C66.5431 290.344 66.6751 289.996 66.9391 289.732C67.2031 289.456 67.5331 289.318 67.9291 289.318C68.3251 289.318 68.6551 289.456 68.9191 289.732C69.1951 289.996 69.3331 290.344 69.3331 290.776C69.3331 291.196 69.1951 291.55 68.9191 291.838C68.6551 292.114 68.3251 292.252 67.9291 292.252Z" fill="#F5F5F5"/>
<path d="M31.5556 454.77C31.4716 454.17 31.5076 453.636 31.6636 453.168C31.8196 452.688 32.0356 452.256 32.3116 451.872C32.5996 451.476 32.8876 451.11 33.1756 450.774C33.4756 450.426 33.7276 450.084 33.9316 449.748C34.1476 449.4 34.2556 449.028 34.2556 448.632C34.2556 448.296 34.1836 448.002 34.0396 447.75C33.9076 447.486 33.7096 447.276 33.4456 447.12C33.1936 446.964 32.8756 446.886 32.4916 446.886C32.0716 446.886 31.6756 446.988 31.3036 447.192C30.9436 447.384 30.6136 447.648 30.3136 447.984L29.1436 446.922C29.5876 446.418 30.1096 446.004 30.7096 445.68C31.3096 445.356 31.9816 445.194 32.7256 445.194C33.4336 445.194 34.0516 445.326 34.5796 445.59C35.1196 445.842 35.5336 446.214 35.8216 446.706C36.1216 447.186 36.2716 447.786 36.2716 448.506C36.2716 449.022 36.1636 449.49 35.9476 449.91C35.7436 450.318 35.4856 450.702 35.1736 451.062C34.8616 451.422 34.5556 451.788 34.2556 452.16C33.9676 452.52 33.7336 452.91 33.5536 453.33C33.3736 453.75 33.3136 454.23 33.3736 454.77H31.5556ZM32.4916 459.252C32.0956 459.252 31.7656 459.114 31.5016 458.838C31.2376 458.55 31.1056 458.196 31.1056 457.776C31.1056 457.344 31.2376 456.996 31.5016 456.732C31.7656 456.456 32.0956 456.318 32.4916 456.318C32.8876 456.318 33.2176 456.456 33.4816 456.732C33.7576 456.996 33.8956 457.344 33.8956 457.776C33.8956 458.196 33.7576 458.55 33.4816 458.838C33.2176 459.114 32.8876 459.252 32.4916 459.252ZM40.4149 454.77C40.3309 454.17 40.3669 453.636 40.5229 453.168C40.6789 452.688 40.8949 452.256 41.1709 451.872C41.4589 451.476 41.7469 451.11 42.0349 450.774C42.3349 450.426 42.5869 450.084 42.7909 449.748C43.0069 449.4 43.1149 449.028 43.1149 448.632C43.1149 448.296 43.0429 448.002 42.8989 447.75C42.7669 447.486 42.5689 447.276 42.3049 447.12C42.0529 446.964 41.7349 446.886 41.3509 446.886C40.9309 446.886 40.5349 446.988 40.1629 447.192C39.8029 447.384 39.4729 447.648 39.1729 447.984L38.0029 446.922C38.4469 446.418 38.9689 446.004 39.5689 445.68C40.1689 445.356 40.8409 445.194 41.5849 445.194C42.2929 445.194 42.9109 445.326 43.4389 445.59C43.9789 445.842 44.3929 446.214 44.6809 446.706C44.9809 447.186 45.1309 447.786 45.1309 448.506C45.1309 449.022 45.0229 449.49 44.8069 449.91C44.6029 450.318 44.3449 450.702 44.0329 451.062C43.7209 451.422 43.4149 451.788 43.1149 452.16C42.8269 452.52 42.5929 452.91 42.4129 453.33C42.2329 453.75 42.1729 454.23 42.2329 454.77H40.4149ZM41.3509 459.252C40.9549 459.252 40.6249 459.114 40.3609 458.838C40.0969 458.55 39.9649 458.196 39.9649 457.776C39.9649 457.344 40.0969 456.996 40.3609 456.732C40.6249 456.456 40.9549 456.318 41.3509 456.318C41.7469 456.318 42.0769 456.456 42.3409 456.732C42.6169 456.996 42.7549 457.344 42.7549 457.776C42.7549 458.196 42.6169 458.55 42.3409 458.838C42.0769 459.114 41.7469 459.252 41.3509 459.252ZM49.2743 454.77C49.1903 454.17 49.2263 453.636 49.3823 453.168C49.5383 452.688 49.7543 452.256 50.0303 451.872C50.3183 451.476 50.6063 451.11 50.8943 450.774C51.1943 450.426 51.4463 450.084 51.6503 449.748C51.8663 449.4 51.9743 449.028 51.9743 448.632C51.9743 448.296 51.9023 448.002 51.7583 447.75C51.6263 447.486 51.4283 447.276 51.1643 447.12C50.9123 446.964 50.5943 446.886 50.2103 446.886C49.7903 446.886 49.3943 446.988 49.0223 447.192C48.6623 447.384 48.3323 447.648 48.0323 447.984L46.8623 446.922C47.3063 446.418 47.8283 446.004 48.4283 445.68C49.0283 445.356 49.7003 445.194 50.4443 445.194C51.1523 445.194 51.7703 445.326 52.2983 445.59C52.8383 445.842 53.2523 446.214 53.5403 446.706C53.8403 447.186 53.9903 447.786 53.9903 448.506C53.9903 449.022 53.8823 449.49 53.6663 449.91C53.4623 450.318 53.2043 450.702 52.8923 451.062C52.5803 451.422 52.2743 451.788 51.9743 452.16C51.6863 452.52 51.4523 452.91 51.2723 453.33C51.0923 453.75 51.0323 454.23 51.0923 454.77H49.2743ZM50.2103 459.252C49.8143 459.252 49.4843 459.114 49.2203 458.838C48.9563 458.55 48.8243 458.196 48.8243 457.776C48.8243 457.344 48.9563 456.996 49.2203 456.732C49.4843 456.456 49.8143 456.318 50.2103 456.318C50.6063 456.318 50.9363 456.456 51.2003 456.732C51.4763 456.996 51.6143 457.344 51.6143 457.776C51.6143 458.196 51.4763 458.55 51.2003 458.838C50.9363 459.114 50.6063 459.252 50.2103 459.252ZM58.1337 454.77C58.0497 454.17 58.0857 453.636 58.2417 453.168C58.3977 452.688 58.6137 452.256 58.8897 451.872C59.1777 451.476 59.4657 451.11 59.7537 450.774C60.0537 450.426 60.3057 450.084 60.5097 449.748C60.7257 449.4 60.8337 449.028 60.8337 448.632C60.8337 448.296 60.7617 448.002 60.6177 447.75C60.4857 447.486 60.2877 447.276 60.0237 447.12C59.7717 446.964 59.4537 446.886 59.0697 446.886C58.6497 446.886 58.2537 446.988 57.8817 447.192C57.5217 447.384 57.1917 447.648 56.8917 447.984L55.7217 446.922C56.1657 446.418 56.6877 446.004 57.2877 445.68C57.8877 445.356 58.5597 445.194 59.3037 445.194C60.0117 445.194 60.6297 445.326 61.1577 445.59C61.6977 445.842 62.1117 446.214 62.3997 446.706C62.6997 447.186 62.8497 447.786 62.8497 448.506C62.8497 449.022 62.7417 449.49 62.5257 449.91C62.3217 450.318 62.0637 450.702 61.7517 451.062C61.4397 451.422 61.1337 451.788 60.8337 452.16C60.5457 452.52 60.3117 452.91 60.1317 453.33C59.9517 453.75 59.8917 454.23 59.9517 454.77H58.1337ZM59.0697 459.252C58.6737 459.252 58.3437 459.114 58.0797 458.838C57.8157 458.55 57.6837 458.196 57.6837 457.776C57.6837 457.344 57.8157 456.996 58.0797 456.732C58.3437 456.456 58.6737 456.318 59.0697 456.318C59.4657 456.318 59.7957 456.456 60.0597 456.732C60.3357 456.996 60.4737 457.344 60.4737 457.776C60.4737 458.196 60.3357 458.55 60.0597 458.838C59.7957 459.114 59.4657 459.252 59.0697 459.252ZM66.9931 454.77C66.9091 454.17 66.9451 453.636 67.1011 453.168C67.2571 452.688 67.4731 452.256 67.7491 451.872C68.0371 451.476 68.3251 451.11 68.6131 450.774C68.9131 450.426 69.1651 450.084 69.3691 449.748C69.5851 449.4 69.6931 449.028 69.6931 448.632C69.6931 448.296 69.6211 448.002 69.4771 447.75C69.3451 447.486 69.1471 447.276 68.8831 447.12C68.6311 446.964 68.3131 446.886 67.9291 446.886C67.5091 446.886 67.1131 446.988 66.7411 447.192C66.3811 447.384 66.0511 447.648 65.7511 447.984L64.5811 446.922C65.0251 446.418 65.5471 446.004 66.1471 445.68C66.7471 445.356 67.4191 445.194 68.1631 445.194C68.8711 445.194 69.4891 445.326 70.0171 445.59C70.5571 445.842 70.9711 446.214 71.2591 446.706C71.5591 447.186 71.7091 447.786 71.7091 448.506C71.7091 449.022 71.6011 449.49 71.3851 449.91C71.1811 450.318 70.9231 450.702 70.6111 451.062C70.2991 451.422 69.9931 451.788 69.6931 452.16C69.4051 452.52 69.1711 452.91 68.9911 453.33C68.8111 453.75 68.7511 454.23 68.8111 454.77H66.9931ZM67.9291 459.252C67.5331 459.252 67.2031 459.114 66.9391 458.838C66.6751 458.55 66.5431 458.196 66.5431 457.776C66.5431 457.344 66.6751 456.996 66.9391 456.732C67.2031 456.456 67.5331 456.318 67.9291 456.318C68.3251 456.318 68.6551 456.456 68.9191 456.732C69.1951 456.996 69.3331 457.344 69.3331 457.776C69.3331 458.196 69.1951 458.55 68.9191 458.838C68.6551 459.114 68.3251 459.252 67.9291 459.252Z" fill="#F5F5F5"/>
<path d="M31.5556 621.77C31.4716 621.17 31.5076 620.636 31.6636 620.168C31.8196 619.688 32.0356 619.256 32.3116 618.872C32.5996 618.476 32.8876 618.11 33.1756 617.774C33.4756 617.426 33.7276 617.084 33.9316 616.748C34.1476 616.4 34.2556 616.028 34.2556 615.632C34.2556 615.296 34.1836 615.002 34.0396 614.75C33.9076 614.486 33.7096 614.276 33.4456 614.12C33.1936 613.964 32.8756 613.886 32.4916 613.886C32.0716 613.886 31.6756 613.988 31.3036 614.192C30.9436 614.384 30.6136 614.648 30.3136 614.984L29.1436 613.922C29.5876 613.418 30.1096 613.004 30.7096 612.68C31.3096 612.356 31.9816 612.194 32.7256 612.194C33.4336 612.194 34.0516 612.326 34.5796 612.59C35.1196 612.842 35.5336 613.214 35.8216 613.706C36.1216 614.186 36.2716 614.786 36.2716 615.506C36.2716 616.022 36.1636 616.49 35.9476 616.91C35.7436 617.318 35.4856 617.702 35.1736 618.062C34.8616 618.422 34.5556 618.788 34.2556 619.16C33.9676 619.52 33.7336 619.91 33.5536 620.33C33.3736 620.75 33.3136 621.23 33.3736 621.77H31.5556ZM32.4916 626.252C32.0956 626.252 31.7656 626.114 31.5016 625.838C31.2376 625.55 31.1056 625.196 31.1056 624.776C31.1056 624.344 31.2376 623.996 31.5016 623.732C31.7656 623.456 32.0956 623.318 32.4916 623.318C32.8876 623.318 33.2176 623.456 33.4816 623.732C33.7576 623.996 33.8956 624.344 33.8956 624.776C33.8956 625.196 33.7576 625.55 33.4816 625.838C33.2176 626.114 32.8876 626.252 32.4916 626.252ZM40.4149 621.77C40.3309 621.17 40.3669 620.636 40.5229 620.168C40.6789 619.688 40.8949 619.256 41.1709 618.872C41.4589 618.476 41.7469 618.11 42.0349 617.774C42.3349 617.426 42.5869 617.084 42.7909 616.748C43.0069 616.4 43.1149 616.028 43.1149 615.632C43.1149 615.296 43.0429 615.002 42.8989 614.75C42.7669 614.486 42.5689 614.276 42.3049 614.12C42.0529 613.964 41.7349 613.886 41.3509 613.886C40.9309 613.886 40.5349 613.988 40.1629 614.192C39.8029 614.384 39.4729 614.648 39.1729 614.984L38.0029 613.922C38.4469 613.418 38.9689 613.004 39.5689 612.68C40.1689 612.356 40.8409 612.194 41.5849 612.194C42.2929 612.194 42.9109 612.326 43.4389 612.59C43.9789 612.842 44.3929 613.214 44.6809 613.706C44.9809 614.186 45.1309 614.786 45.1309 615.506C45.1309 616.022 45.0229 616.49 44.8069 616.91C44.6029 617.318 44.3449 617.702 44.0329 618.062C43.7209 618.422 43.4149 618.788 43.1149 619.16C42.8269 619.52 42.5929 619.91 42.4129 620.33C42.2329 620.75 42.1729 621.23 42.2329 621.77H40.4149ZM41.3509 626.252C40.9549 626.252 40.6249 626.114 40.3609 625.838C40.0969 625.55 39.9649 625.196 39.9649 624.776C39.9649 624.344 40.0969 623.996 40.3609 623.732C40.6249 623.456 40.9549 623.318 41.3509 623.318C41.7469 623.318 42.0769 623.456 42.3409 623.732C42.6169 623.996 42.7549 624.344 42.7549 624.776C42.7549 625.196 42.6169 625.55 42.3409 625.838C42.0769 626.114 41.7469 626.252 41.3509 626.252ZM49.2743 621.77C49.1903 621.17 49.2263 620.636 49.3823 620.168C49.5383 619.688 49.7543 619.256 50.0303 618.872C50.3183 618.476 50.6063 618.11 50.8943 617.774C51.1943 617.426 51.4463 617.084 51.6503 616.748C51.8663 616.4 51.9743 616.028 51.9743 615.632C51.9743 615.296 51.9023 615.002 51.7583 614.75C51.6263 614.486 51.4283 614.276 51.1643 614.12C50.9123 613.964 50.5943 613.886 50.2103 613.886C49.7903 613.886 49.3943 613.988 49.0223 614.192C48.6623 614.384 48.3323 614.648 48.0323 614.984L46.8623 613.922C47.3063 613.418 47.8283 613.004 48.4283 612.68C49.0283 612.356 49.7003 612.194 50.4443 612.194C51.1523 612.194 51.7703 612.326 52.2983 612.59C52.8383 612.842 53.2523 613.214 53.5403 613.706C53.8403 614.186 53.9903 614.786 53.9903 615.506C53.9903 616.022 53.8823 616.49 53.6663 616.91C53.4623 617.318 53.2043 617.702 52.8923 618.062C52.5803 618.422 52.2743 618.788 51.9743 619.16C51.6863 619.52 51.4523 619.91 51.2723 620.33C51.0923 620.75 51.0323 621.23 51.0923 621.77H49.2743ZM50.2103 626.252C49.8143 626.252 49.4843 626.114 49.2203 625.838C48.9563 625.55 48.8243 625.196 48.8243 624.776C48.8243 624.344 48.9563 623.996 49.2203 623.732C49.4843 623.456 49.8143 623.318 50.2103 623.318C50.6063 623.318 50.9363 623.456 51.2003 623.732C51.4763 623.996 51.6143 624.344 51.6143 624.776C51.6143 625.196 51.4763 625.55 51.2003 625.838C50.9363 626.114 50.6063 626.252 50.2103 626.252ZM58.1337 621.77C58.0497 621.17 58.0857 620.636 58.2417 620.168C58.3977 619.688 58.6137 619.256 58.8897 618.872C59.1777 618.476 59.4657 618.11 59.7537 617.774C60.0537 617.426 60.3057 617.084 60.5097 616.748C60.7257 616.4 60.8337 616.028 60.8337 615.632C60.8337 615.296 60.7617 615.002 60.6177 614.75C60.4857 614.486 60.2877 614.276 60.0237 614.12C59.7717 613.964 59.4537 613.886 59.0697 613.886C58.6497 613.886 58.2537 613.988 57.8817 614.192C57.5217 614.384 57.1917 614.648 56.8917 614.984L55.7217 613.922C56.1657 613.418 56.6877 613.004 57.2877 612.68C57.8877 612.356 58.5597 612.194 59.3037 612.194C60.0117 612.194 60.6297 612.326 61.1577 612.59C61.6977 612.842 62.1117 613.214 62.3997 613.706C62.6997 614.186 62.8497 614.786 62.8497 615.506C62.8497 616.022 62.7417 616.49 62.5257 616.91C62.3217 617.318 62.0637 617.702 61.7517 618.062C61.4397 618.422 61.1337 618.788 60.8337 619.16C60.5457 619.52 60.3117 619.91 60.1317 620.33C59.9517 620.75 59.8917 621.23 59.9517 621.77H58.1337ZM59.0697 626.252C58.6737 626.252 58.3437 626.114 58.0797 625.838C57.8157 625.55 57.6837 625.196 57.6837 624.776C57.6837 624.344 57.8157 623.996 58.0797 623.732C58.3437 623.456 58.6737 623.318 59.0697 623.318C59.4657 623.318 59.7957 623.456 60.0597 623.732C60.3357 623.996 60.4737 624.344 60.4737 624.776C60.4737 625.196 60.3357 625.55 60.0597 625.838C59.7957 626.114 59.4657 626.252 59.0697 626.252ZM66.9931 621.77C66.9091 621.17 66.9451 620.636 67.1011 620.168C67.2571 619.688 67.4731 619.256 67.7491 618.872C68.0371 618.476 68.3251 618.11 68.6131 617.774C68.9131 617.426 69.1651 617.084 69.3691 616.748C69.5851 616.4 69.6931 616.028 69.6931 615.632C69.6931 615.296 69.6211 615.002 69.4771 614.75C69.3451 614.486 69.1471 614.276 68.8831 614.12C68.6311 613.964 68.3131 613.886 67.9291 613.886C67.5091 613.886 67.1131 613.988 66.7411 614.192C66.3811 614.384 66.0511 614.648 65.7511 614.984L64.5811 613.922C65.0251 613.418 65.5471 613.004 66.1471 612.68C66.7471 612.356 67.4191 612.194 68.1631 612.194C68.8711 612.194 69.4891 612.326 70.0171 612.59C70.5571 612.842 70.9711 613.214 71.2591 613.706C71.5591 614.186 71.7091 614.786 71.7091 615.506C71.7091 616.022 71.6011 616.49 71.3851 616.91C71.1811 617.318 70.9231 617.702 70.6111 618.062C70.2991 618.422 69.9931 618.788 69.6931 619.16C69.4051 619.52 69.1711 619.91 68.9911 620.33C68.8111 620.75 68.7511 621.23 68.8111 621.77H66.9931ZM67.9291 626.252C67.5331 626.252 67.2031 626.114 66.9391 625.838C66.6751 625.55 66.5431 625.196 66.5431 624.776C66.5431 624.344 66.6751 623.996 66.9391 623.732C67.2031 623.456 67.5331 623.318 67.9291 623.318C68.3251 623.318 68.6551 623.456 68.9191 623.732C69.1951 623.996 69.3331 624.344 69.3331 624.776C69.3331 625.196 69.1951 625.55 68.9191 625.838C68.6551 626.114 68.3251 626.252 67.9291 626.252Z" fill="#F5F5F5"/>
<path d="M31.5556 788.77C31.4716 788.17 31.5076 787.636 31.6636 787.168C31.8196 786.688 32.0356 786.256 32.3116 785.872C32.5996 785.476 32.8876 785.11 33.1756 784.774C33.4756 784.426 33.7276 784.084 33.9316 783.748C34.1476 783.4 34.2556 783.028 34.2556 782.632C34.2556 782.296 34.1836 782.002 34.0396 781.75C33.9076 781.486 33.7096 781.276 33.4456 781.12C33.1936 780.964 32.8756 780.886 32.4916 780.886C32.0716 780.886 31.6756 780.988 31.3036 781.192C30.9436 781.384 30.6136 781.648 30.3136 781.984L29.1436 780.922C29.5876 780.418 30.1096 780.004 30.7096 779.68C31.3096 779.356 31.9816 779.194 32.7256 779.194C33.4336 779.194 34.0516 779.326 34.5796 779.59C35.1196 779.842 35.5336 780.214 35.8216 780.706C36.1216 781.186 36.2716 781.786 36.2716 782.506C36.2716 783.022 36.1636 783.49 35.9476 783.91C35.7436 784.318 35.4856 784.702 35.1736 785.062C34.8616 785.422 34.5556 785.788 34.2556 786.16C33.9676 786.52 33.7336 786.91 33.5536 787.33C33.3736 787.75 33.3136 788.23 33.3736 788.77H31.5556ZM32.4916 793.252C32.0956 793.252 31.7656 793.114 31.5016 792.838C31.2376 792.55 31.1056 792.196 31.1056 791.776C31.1056 791.344 31.2376 790.996 31.5016 790.732C31.7656 790.456 32.0956 790.318 32.4916 790.318C32.8876 790.318 33.2176 790.456 33.4816 790.732C33.7576 790.996 33.8956 791.344 33.8956 791.776C33.8956 792.196 33.7576 792.55 33.4816 792.838C33.2176 793.114 32.8876 793.252 32.4916 793.252ZM40.4149 788.77C40.3309 788.17 40.3669 787.636 40.5229 787.168C40.6789 786.688 40.8949 786.256 41.1709 785.872C41.4589 785.476 41.7469 785.11 42.0349 784.774C42.3349 784.426 42.5869 784.084 42.7909 783.748C43.0069 783.4 43.1149 783.028 43.1149 782.632C43.1149 782.296 43.0429 782.002 42.8989 781.75C42.7669 781.486 42.5689 781.276 42.3049 781.12C42.0529 780.964 41.7349 780.886 41.3509 780.886C40.9309 780.886 40.5349 780.988 40.1629 781.192C39.8029 781.384 39.4729 781.648 39.1729 781.984L38.0029 780.922C38.4469 780.418 38.9689 780.004 39.5689 779.68C40.1689 779.356 40.8409 779.194 41.5849 779.194C42.2929 779.194 42.9109 779.326 43.4389 779.59C43.9789 779.842 44.3929 780.214 44.6809 780.706C44.9809 781.186 45.1309 781.786 45.1309 782.506C45.1309 783.022 45.0229 783.49 44.8069 783.91C44.6029 784.318 44.3449 784.702 44.0329 785.062C43.7209 785.422 43.4149 785.788 43.1149 786.16C42.8269 786.52 42.5929 786.91 42.4129 787.33C42.2329 787.75 42.1729 788.23 42.2329 788.77H40.4149ZM41.3509 793.252C40.9549 793.252 40.6249 793.114 40.3609 792.838C40.0969 792.55 39.9649 792.196 39.9649 791.776C39.9649 791.344 40.0969 790.996 40.3609 790.732C40.6249 790.456 40.9549 790.318 41.3509 790.318C41.7469 790.318 42.0769 790.456 42.3409 790.732C42.6169 790.996 42.7549 791.344 42.7549 791.776C42.7549 792.196 42.6169 792.55 42.3409 792.838C42.0769 793.114 41.7469 793.252 41.3509 793.252ZM49.2743 788.77C49.1903 788.17 49.2263 787.636 49.3823 787.168C49.5383 786.688 49.7543 786.256 50.0303 785.872C50.3183 785.476 50.6063 785.11 50.8943 784.774C51.1943 784.426 51.4463 784.084 51.6503 783.748C51.8663 783.4 51.9743 783.028 51.9743 782.632C51.9743 782.296 51.9023 782.002 51.7583 781.75C51.6263 781.486 51.4283 781.276 51.1643 781.12C50.9123 780.964 50.5943 780.886 50.2103 780.886C49.7903 780.886 49.3943 780.988 49.0223 781.192C48.6623 781.384 48.3323 781.648 48.0323 781.984L46.8623 780.922C47.3063 780.418 47.8283 780.004 48.4283 779.68C49.0283 779.356 49.7003 779.194 50.4443 779.194C51.1523 779.194 51.7703 779.326 52.2983 779.59C52.8383 779.842 53.2523 780.214 53.5403 780.706C53.8403 781.186 53.9903 781.786 53.9903 782.506C53.9903 783.022 53.8823 783.49 53.6663 783.91C53.4623 784.318 53.2043 784.702 52.8923 785.062C52.5803 785.422 52.2743 785.788 51.9743 786.16C51.6863 786.52 51.4523 786.91 51.2723 787.33C51.0923 787.75 51.0323 788.23 51.0923 788.77H49.2743ZM50.2103 793.252C49.8143 793.252 49.4843 793.114 49.2203 792.838C48.9563 792.55 48.8243 792.196 48.8243 791.776C48.8243 791.344 48.9563 790.996 49.2203 790.732C49.4843 790.456 49.8143 790.318 50.2103 790.318C50.6063 790.318 50.9363 790.456 51.2003 790.732C51.4763 790.996 51.6143 791.344 51.6143 791.776C51.6143 792.196 51.4763 792.55 51.2003 792.838C50.9363 793.114 50.6063 793.252 50.2103 793.252ZM58.1337 788.77C58.0497 788.17 58.0857 787.636 58.2417 787.168C58.3977 786.688 58.6137 786.256 58.8897 785.872C59.1777 785.476 59.4657 785.11 59.7537 784.774C60.0537 784.426 60.3057 784.084 60.5097 783.748C60.7257 783.4 60.8337 783.028 60.8337 782.632C60.8337 782.296 60.7617 782.002 60.6177 781.75C60.4857 781.486 60.2877 781.276 60.0237 781.12C59.7717 780.964 59.4537 780.886 59.0697 780.886C58.6497 780.886 58.2537 780.988 57.8817 781.192C57.5217 781.384 57.1917 781.648 56.8917 781.984L55.7217 780.922C56.1657 780.418 56.6877 780.004 57.2877 779.68C57.8877 779.356 58.5597 779.194 59.3037 779.194C60.0117 779.194 60.6297 779.326 61.1577 779.59C61.6977 779.842 62.1117 780.214 62.3997 780.706C62.6997 781.186 62.8497 781.786 62.8497 782.506C62.8497 783.022 62.7417 783.49 62.5257 783.91C62.3217 784.318 62.0637 784.702 61.7517 785.062C61.4397 785.422 61.1337 785.788 60.8337 786.16C60.5457 786.52 60.3117 786.91 60.1317 787.33C59.9517 787.75 59.8917 788.23 59.9517 788.77H58.1337ZM59.0697 793.252C58.6737 793.252 58.3437 793.114 58.0797 792.838C57.8157 792.55 57.6837 792.196 57.6837 791.776C57.6837 791.344 57.8157 790.996 58.0797 790.732C58.3437 790.456 58.6737 790.318 59.0697 790.318C59.4657 790.318 59.7957 790.456 60.0597 790.732C60.3357 790.996 60.4737 791.344 60.4737 791.776C60.4737 792.196 60.3357 792.55 60.0597 792.838C59.7957 793.114 59.4657 793.252 59.0697 793.252ZM66.9931 788.77C66.9091 788.17 66.9451 787.636 67.1011 787.168C67.2571 786.688 67.4731 786.256 67.7491 785.872C68.0371 785.476 68.3251 785.11 68.6131 784.774C68.9131 784.426 69.1651 784.084 69.3691 783.748C69.5851 783.4 69.6931 783.028 69.6931 782.632C69.6931 782.296 69.6211 782.002 69.4771 781.75C69.3451 781.486 69.1471 781.276 68.8831 781.12C68.6311 780.964 68.3131 780.886 67.9291 780.886C67.5091 780.886 67.1131 780.988 66.7411 781.192C66.3811 781.384 66.0511 781.648 65.7511 781.984L64.5811 780.922C65.0251 780.418 65.5471 780.004 66.1471 779.68C66.7471 779.356 67.4191 779.194 68.1631 779.194C68.8711 779.194 69.4891 779.326 70.0171 779.59C70.5571 779.842 70.9711 780.214 71.2591 780.706C71.5591 781.186 71.7091 781.786 71.7091 782.506C71.7091 783.022 71.6011 783.49 71.3851 783.91C71.1811 784.318 70.9231 784.702 70.6111 785.062C70.2991 785.422 69.9931 785.788 69.6931 786.16C69.4051 786.52 69.1711 786.91 68.9911 787.33C68.8111 787.75 68.7511 788.23 68.8111 788.77H66.9931ZM67.9291 793.252C67.5331 793.252 67.2031 793.114 66.9391 792.838C66.6751 792.55 66.5431 792.196 66.5431 791.776C66.5431 791.344 66.6751 790.996 66.9391 790.732C67.2031 790.456 67.5331 790.318 67.9291 790.318C68.3251 790.318 68.6551 790.456 68.9191 790.732C69.1951 790.996 69.3331 791.344 69.3331 791.776C69.3331 792.196 69.1951 792.55 68.9191 792.838C68.6551 793.114 68.3251 793.252 67.9291 793.252Z" fill="#F5F5F5"/>
<path d="M169.556 120.77C169.472 120.17 169.508 119.636 169.664 119.168C169.82 118.688 170.036 118.256 170.312 117.872C170.6 117.476 170.888 117.11 171.176 116.774C171.476 116.426 171.728 116.084 171.932 115.748C172.148 115.4 172.256 115.028 172.256 114.632C172.256 114.296 172.184 114.002 172.04 113.75C171.908 113.486 171.71 113.276 171.446 113.12C171.194 112.964 170.876 112.886 170.492 112.886C170.072 112.886 169.676 112.988 169.304 113.192C168.944 113.384 168.614 113.648 168.314 113.984L167.144 112.922C167.588 112.418 168.11 112.004 168.71 111.68C169.31 111.356 169.982 111.194 170.726 111.194C171.434 111.194 172.052 111.326 172.58 111.59C173.12 111.842 173.534 112.214 173.822 112.706C174.122 113.186 174.272 113.786 174.272 114.506C174.272 115.022 174.164 115.49 173.948 115.91C173.744 116.318 173.486 116.702 173.174 117.062C172.862 117.422 172.556 117.788 172.256 118.16C171.968 118.52 171.734 118.91 171.554 119.33C171.374 119.75 171.314 120.23 171.374 120.77H169.556ZM170.492 125.252C170.096 125.252 169.766 125.114 169.502 124.838C169.238 124.55 169.106 124.196 169.106 123.776C169.106 123.344 169.238 122.996 169.502 122.732C169.766 122.456 170.096 122.318 170.492 122.318C170.888 122.318 171.218 122.456 171.482 122.732C171.758 122.996 171.896 123.344 171.896 123.776C171.896 124.196 171.758 124.55 171.482 124.838C171.218 125.114 170.888 125.252 170.492 125.252ZM178.415 120.77C178.331 120.17 178.367 119.636 178.523 119.168C178.679 118.688 178.895 118.256 179.171 117.872C179.459 117.476 179.747 117.11 180.035 116.774C180.335 116.426 180.587 116.084 180.791 115.748C181.007 115.4 181.115 115.028 181.115 114.632C181.115 114.296 181.043 114.002 180.899 113.75C180.767 113.486 180.569 113.276 180.305 113.12C180.053 112.964 179.735 112.886 179.351 112.886C178.931 112.886 178.535 112.988 178.163 113.192C177.803 113.384 177.473 113.648 177.173 113.984L176.003 112.922C176.447 112.418 176.969 112.004 177.569 111.68C178.169 111.356 178.841 111.194 179.585 111.194C180.293 111.194 180.911 111.326 181.439 111.59C181.979 111.842 182.393 112.214 182.681 112.706C182.981 113.186 183.131 113.786 183.131 114.506C183.131 115.022 183.023 115.49 182.807 115.91C182.603 116.318 182.345 116.702 182.033 117.062C181.721 117.422 181.415 117.788 181.115 118.16C180.827 118.52 180.593 118.91 180.413 119.33C180.233 119.75 180.173 120.23 180.233 120.77H178.415ZM179.351 125.252C178.955 125.252 178.625 125.114 178.361 124.838C178.097 124.55 177.965 124.196 177.965 123.776C177.965 123.344 178.097 122.996 178.361 122.732C178.625 122.456 178.955 122.318 179.351 122.318C179.747 122.318 180.077 122.456 180.341 122.732C180.617 122.996 180.755 123.344 180.755 123.776C180.755 124.196 180.617 124.55 180.341 124.838C180.077 125.114 179.747 125.252 179.351 125.252ZM187.274 120.77C187.19 120.17 187.226 119.636 187.382 119.168C187.538 118.688 187.754 118.256 188.03 117.872C188.318 117.476 188.606 117.11 188.894 116.774C189.194 116.426 189.446 116.084 189.65 115.748C189.866 115.4 189.974 115.028 189.974 114.632C189.974 114.296 189.902 114.002 189.758 113.75C189.626 113.486 189.428 113.276 189.164 113.12C188.912 112.964 188.594 112.886 188.21 112.886C187.79 112.886 187.394 112.988 187.022 113.192C186.662 113.384 186.332 113.648 186.032 113.984L184.862 112.922C185.306 112.418 185.828 112.004 186.428 111.68C187.028 111.356 187.7 111.194 188.444 111.194C189.152 111.194 189.77 111.326 190.298 111.59C190.838 111.842 191.252 112.214 191.54 112.706C191.84 113.186 191.99 113.786 191.99 114.506C191.99 115.022 191.882 115.49 191.666 115.91C191.462 116.318 191.204 116.702 190.892 117.062C190.58 117.422 190.274 117.788 189.974 118.16C189.686 118.52 189.452 118.91 189.272 119.33C189.092 119.75 189.032 120.23 189.092 120.77H187.274ZM188.21 125.252C187.814 125.252 187.484 125.114 187.22 124.838C186.956 124.55 186.824 124.196 186.824 123.776C186.824 123.344 186.956 122.996 187.22 122.732C187.484 122.456 187.814 122.318 188.21 122.318C188.606 122.318 188.936 122.456 189.2 122.732C189.476 122.996 189.614 123.344 189.614 123.776C189.614 124.196 189.476 124.55 189.2 124.838C188.936 125.114 188.606 125.252 188.21 125.252ZM196.134 120.77C196.05 120.17 196.086 119.636 196.242 119.168C196.398 118.688 196.614 118.256 196.89 117.872C197.178 117.476 197.466 117.11 197.754 116.774C198.054 116.426 198.306 116.084 198.51 115.748C198.726 115.4 198.834 115.028 198.834 114.632C198.834 114.296 198.762 114.002 198.618 113.75C198.486 113.486 198.288 113.276 198.024 113.12C197.772 112.964 197.454 112.886 197.07 112.886C196.65 112.886 196.254 112.988 195.882 113.192C195.522 113.384 195.192 113.648 194.892 113.984L193.722 112.922C194.166 112.418 194.688 112.004 195.288 111.68C195.888 111.356 196.56 111.194 197.304 111.194C198.012 111.194 198.63 111.326 199.158 111.59C199.698 111.842 200.112 112.214 200.4 112.706C200.7 113.186 200.85 113.786 200.85 114.506C200.85 115.022 200.742 115.49 200.526 115.91C200.322 116.318 200.064 116.702 199.752 117.062C199.44 117.422 199.134 117.788 198.834 118.16C198.546 118.52 198.312 118.91 198.132 119.33C197.952 119.75 197.892 120.23 197.952 120.77H196.134ZM197.07 125.252C196.674 125.252 196.344 125.114 196.08 124.838C195.816 124.55 195.684 124.196 195.684 123.776C195.684 123.344 195.816 122.996 196.08 122.732C196.344 122.456 196.674 122.318 197.07 122.318C197.466 122.318 197.796 122.456 198.06 122.732C198.336 122.996 198.474 123.344 198.474 123.776C198.474 124.196 198.336 124.55 198.06 124.838C197.796 125.114 197.466 125.252 197.07 125.252ZM204.993 120.77C204.909 120.17 204.945 119.636 205.101 119.168C205.257 118.688 205.473 118.256 205.749 117.872C206.037 117.476 206.325 117.11 206.613 116.774C206.913 116.426 207.165 116.084 207.369 115.748C207.585 115.4 207.693 115.028 207.693 114.632C207.693 114.296 207.621 114.002 207.477 113.75C207.345 113.486 207.147 113.276 206.883 113.12C206.631 112.964 206.313 112.886 205.929 112.886C205.509 112.886 205.113 112.988 204.741 113.192C204.381 113.384 204.051 113.648 203.751 113.984L202.581 112.922C203.025 112.418 203.547 112.004 204.147 111.68C204.747 111.356 205.419 111.194 206.163 111.194C206.871 111.194 207.489 111.326 208.017 111.59C208.557 111.842 208.971 112.214 209.259 112.706C209.559 113.186 209.709 113.786 209.709 114.506C209.709 115.022 209.601 115.49 209.385 115.91C209.181 116.318 208.923 116.702 208.611 117.062C208.299 117.422 207.993 117.788 207.693 118.16C207.405 118.52 207.171 118.91 206.991 119.33C206.811 119.75 206.751 120.23 206.811 120.77H204.993ZM205.929 125.252C205.533 125.252 205.203 125.114 204.939 124.838C204.675 124.55 204.543 124.196 204.543 123.776C204.543 123.344 204.675 122.996 204.939 122.732C205.203 122.456 205.533 122.318 205.929 122.318C206.325 122.318 206.655 122.456 206.919 122.732C207.195 122.996 207.333 123.344 207.333 123.776C207.333 124.196 207.195 124.55 206.919 124.838C206.655 125.114 206.325 125.252 205.929 125.252Z" fill="#F5F5F5"/>
<path d="M169.556 287.77C169.472 287.17 169.508 286.636 169.664 286.168C169.82 285.688 170.036 285.256 170.312 284.872C170.6 284.476 170.888 284.11 171.176 283.774C171.476 283.426 171.728 283.084 171.932 282.748C172.148 282.4 172.256 282.028 172.256 281.632C172.256 281.296 172.184 281.002 172.04 280.75C171.908 280.486 171.71 280.276 171.446 280.12C171.194 279.964 170.876 279.886 170.492 279.886C170.072 279.886 169.676 279.988 169.304 280.192C168.944 280.384 168.614 280.648 168.314 280.984L167.144 279.922C167.588 279.418 168.11 279.004 168.71 278.68C169.31 278.356 169.982 278.194 170.726 278.194C171.434 278.194 172.052 278.326 172.58 278.59C173.12 278.842 173.534 279.214 173.822 279.706C174.122 280.186 174.272 280.786 174.272 281.506C174.272 282.022 174.164 282.49 173.948 282.91C173.744 283.318 173.486 283.702 173.174 284.062C172.862 284.422 172.556 284.788 172.256 285.16C171.968 285.52 171.734 285.91 171.554 286.33C171.374 286.75 171.314 287.23 171.374 287.77H169.556ZM170.492 292.252C170.096 292.252 169.766 292.114 169.502 291.838C169.238 291.55 169.106 291.196 169.106 290.776C169.106 290.344 169.238 289.996 169.502 289.732C169.766 289.456 170.096 289.318 170.492 289.318C170.888 289.318 171.218 289.456 171.482 289.732C171.758 289.996 171.896 290.344 171.896 290.776C171.896 291.196 171.758 291.55 171.482 291.838C171.218 292.114 170.888 292.252 170.492 292.252ZM178.415 287.77C178.331 287.17 178.367 286.636 178.523 286.168C178.679 285.688 178.895 285.256 179.171 284.872C179.459 284.476 179.747 284.11 180.035 283.774C180.335 283.426 180.587 283.084 180.791 282.748C181.007 282.4 181.115 282.028 181.115 281.632C181.115 281.296 181.043 281.002 180.899 280.75C180.767 280.486 180.569 280.276 180.305 280.12C180.053 279.964 179.735 279.886 179.351 279.886C178.931 279.886 178.535 279.988 178.163 280.192C177.803 280.384 177.473 280.648 177.173 280.984L176.003 279.922C176.447 279.418 176.969 279.004 177.569 278.68C178.169 278.356 178.841 278.194 179.585 278.194C180.293 278.194 180.911 278.326 181.439 278.59C181.979 278.842 182.393 279.214 182.681 279.706C182.981 280.186 183.131 280.786 183.131 281.506C183.131 282.022 183.023 282.49 182.807 282.91C182.603 283.318 182.345 283.702 182.033 284.062C181.721 284.422 181.415 284.788 181.115 285.16C180.827 285.52 180.593 285.91 180.413 286.33C180.233 286.75 180.173 287.23 180.233 287.77H178.415ZM179.351 292.252C178.955 292.252 178.625 292.114 178.361 291.838C178.097 291.55 177.965 291.196 177.965 290.776C177.965 290.344 178.097 289.996 178.361 289.732C178.625 289.456 178.955 289.318 179.351 289.318C179.747 289.318 180.077 289.456 180.341 289.732C180.617 289.996 180.755 290.344 180.755 290.776C180.755 291.196 180.617 291.55 180.341 291.838C180.077 292.114 179.747 292.252 179.351 292.252ZM187.274 287.77C187.19 287.17 187.226 286.636 187.382 286.168C187.538 285.688 187.754 285.256 188.03 284.872C188.318 284.476 188.606 284.11 188.894 283.774C189.194 283.426 189.446 283.084 189.65 282.748C189.866 282.4 189.974 282.028 189.974 281.632C189.974 281.296 189.902 281.002 189.758 280.75C189.626 280.486 189.428 280.276 189.164 280.12C188.912 279.964 188.594 279.886 188.21 279.886C187.79 279.886 187.394 279.988 187.022 280.192C186.662 280.384 186.332 280.648 186.032 280.984L184.862 279.922C185.306 279.418 185.828 279.004 186.428 278.68C187.028 278.356 187.7 278.194 188.444 278.194C189.152 278.194 189.77 278.326 190.298 278.59C190.838 278.842 191.252 279.214 191.54 279.706C191.84 280.186 191.99 280.786 191.99 281.506C191.99 282.022 191.882 282.49 191.666 282.91C191.462 283.318 191.204 283.702 190.892 284.062C190.58 284.422 190.274 284.788 189.974 285.16C189.686 285.52 189.452 285.91 189.272 286.33C189.092 286.75 189.032 287.23 189.092 287.77H187.274ZM188.21 292.252C187.814 292.252 187.484 292.114 187.22 291.838C186.956 291.55 186.824 291.196 186.824 290.776C186.824 290.344 186.956 289.996 187.22 289.732C187.484 289.456 187.814 289.318 188.21 289.318C188.606 289.318 188.936 289.456 189.2 289.732C189.476 289.996 189.614 290.344 189.614 290.776C189.614 291.196 189.476 291.55 189.2 291.838C188.936 292.114 188.606 292.252 188.21 292.252ZM196.134 287.77C196.05 287.17 196.086 286.636 196.242 286.168C196.398 285.688 196.614 285.256 196.89 284.872C197.178 284.476 197.466 284.11 197.754 283.774C198.054 283.426 198.306 283.084 198.51 282.748C198.726 282.4 198.834 282.028 198.834 281.632C198.834 281.296 198.762 281.002 198.618 280.75C198.486 280.486 198.288 280.276 198.024 280.12C197.772 279.964 197.454 279.886 197.07 279.886C196.65 279.886 196.254 279.988 195.882 280.192C195.522 280.384 195.192 280.648 194.892 280.984L193.722 279.922C194.166 279.418 194.688 279.004 195.288 278.68C195.888 278.356 196.56 278.194 197.304 278.194C198.012 278.194 198.63 278.326 199.158 278.59C199.698 278.842 200.112 279.214 200.4 279.706C200.7 280.186 200.85 280.786 200.85 281.506C200.85 282.022 200.742 282.49 200.526 282.91C200.322 283.318 200.064 283.702 199.752 284.062C199.44 284.422 199.134 284.788 198.834 285.16C198.546 285.52 198.312 285.91 198.132 286.33C197.952 286.75 197.892 287.23 197.952 287.77H196.134ZM197.07 292.252C196.674 292.252 196.344 292.114 196.08 291.838C195.816 291.55 195.684 291.196 195.684 290.776C195.684 290.344 195.816 289.996 196.08 289.732C196.344 289.456 196.674 289.318 197.07 289.318C197.466 289.318 197.796 289.456 198.06 289.732C198.336 289.996 198.474 290.344 198.474 290.776C198.474 291.196 198.336 291.55 198.06 291.838C197.796 292.114 197.466 292.252 197.07 292.252ZM204.993 287.77C204.909 287.17 204.945 286.636 205.101 286.168C205.257 285.688 205.473 285.256 205.749 284.872C206.037 284.476 206.325 284.11 206.613 283.774C206.913 283.426 207.165 283.084 207.369 282.748C207.585 282.4 207.693 282.028 207.693 281.632C207.693 281.296 207.621 281.002 207.477 280.75C207.345 280.486 207.147 280.276 206.883 280.12C206.631 279.964 206.313 279.886 205.929 279.886C205.509 279.886 205.113 279.988 204.741 280.192C204.381 280.384 204.051 280.648 203.751 280.984L202.581 279.922C203.025 279.418 203.547 279.004 204.147 278.68C204.747 278.356 205.419 278.194 206.163 278.194C206.871 278.194 207.489 278.326 208.017 278.59C208.557 278.842 208.971 279.214 209.259 279.706C209.559 280.186 209.709 280.786 209.709 281.506C209.709 282.022 209.601 282.49 209.385 282.91C209.181 283.318 208.923 283.702 208.611 284.062C208.299 284.422 207.993 284.788 207.693 285.16C207.405 285.52 207.171 285.91 206.991 286.33C206.811 286.75 206.751 287.23 206.811 287.77H204.993ZM205.929 292.252C205.533 292.252 205.203 292.114 204.939 291.838C204.675 291.55 204.543 291.196 204.543 290.776C204.543 290.344 204.675 289.996 204.939 289.732C205.203 289.456 205.533 289.318 205.929 289.318C206.325 289.318 206.655 289.456 206.919 289.732C207.195 289.996 207.333 290.344 207.333 290.776C207.333 291.196 207.195 291.55 206.919 291.838C206.655 292.114 206.325 292.252 205.929 292.252Z" fill="#F5F5F5"/>
<path d="M169.556 454.77C169.472 454.17 169.508 453.636 169.664 453.168C169.82 452.688 170.036 452.256 170.312 451.872C170.6 451.476 170.888 451.11 171.176 450.774C171.476 450.426 171.728 450.084 171.932 449.748C172.148 449.4 172.256 449.028 172.256 448.632C172.256 448.296 172.184 448.002 172.04 447.75C171.908 447.486 171.71 447.276 171.446 447.12C171.194 446.964 170.876 446.886 170.492 446.886C170.072 446.886 169.676 446.988 169.304 447.192C168.944 447.384 168.614 447.648 168.314 447.984L167.144 446.922C167.588 446.418 168.11 446.004 168.71 445.68C169.31 445.356 169.982 445.194 170.726 445.194C171.434 445.194 172.052 445.326 172.58 445.59C173.12 445.842 173.534 446.214 173.822 446.706C174.122 447.186 174.272 447.786 174.272 448.506C174.272 449.022 174.164 449.49 173.948 449.91C173.744 450.318 173.486 450.702 173.174 451.062C172.862 451.422 172.556 451.788 172.256 452.16C171.968 452.52 171.734 452.91 171.554 453.33C171.374 453.75 171.314 454.23 171.374 454.77H169.556ZM170.492 459.252C170.096 459.252 169.766 459.114 169.502 458.838C169.238 458.55 169.106 458.196 169.106 457.776C169.106 457.344 169.238 456.996 169.502 456.732C169.766 456.456 170.096 456.318 170.492 456.318C170.888 456.318 171.218 456.456 171.482 456.732C171.758 456.996 171.896 457.344 171.896 457.776C171.896 458.196 171.758 458.55 171.482 458.838C171.218 459.114 170.888 459.252 170.492 459.252ZM178.415 454.77C178.331 454.17 178.367 453.636 178.523 453.168C178.679 452.688 178.895 452.256 179.171 451.872C179.459 451.476 179.747 451.11 180.035 450.774C180.335 450.426 180.587 450.084 180.791 449.748C181.007 449.4 181.115 449.028 181.115 448.632C181.115 448.296 181.043 448.002 180.899 447.75C180.767 447.486 180.569 447.276 180.305 447.12C180.053 446.964 179.735 446.886 179.351 446.886C178.931 446.886 178.535 446.988 178.163 447.192C177.803 447.384 177.473 447.648 177.173 447.984L176.003 446.922C176.447 446.418 176.969 446.004 177.569 445.68C178.169 445.356 178.841 445.194 179.585 445.194C180.293 445.194 180.911 445.326 181.439 445.59C181.979 445.842 182.393 446.214 182.681 446.706C182.981 447.186 183.131 447.786 183.131 448.506C183.131 449.022 183.023 449.49 182.807 449.91C182.603 450.318 182.345 450.702 182.033 451.062C181.721 451.422 181.415 451.788 181.115 452.16C180.827 452.52 180.593 452.91 180.413 453.33C180.233 453.75 180.173 454.23 180.233 454.77H178.415ZM179.351 459.252C178.955 459.252 178.625 459.114 178.361 458.838C178.097 458.55 177.965 458.196 177.965 457.776C177.965 457.344 178.097 456.996 178.361 456.732C178.625 456.456 178.955 456.318 179.351 456.318C179.747 456.318 180.077 456.456 180.341 456.732C180.617 456.996 180.755 457.344 180.755 457.776C180.755 458.196 180.617 458.55 180.341 458.838C180.077 459.114 179.747 459.252 179.351 459.252ZM187.274 454.77C187.19 454.17 187.226 453.636 187.382 453.168C187.538 452.688 187.754 452.256 188.03 451.872C188.318 451.476 188.606 451.11 188.894 450.774C189.194 450.426 189.446 450.084 189.65 449.748C189.866 449.4 189.974 449.028 189.974 448.632C189.974 448.296 189.902 448.002 189.758 447.75C189.626 447.486 189.428 447.276 189.164 447.12C188.912 446.964 188.594 446.886 188.21 446.886C187.79 446.886 187.394 446.988 187.022 447.192C186.662 447.384 186.332 447.648 186.032 447.984L184.862 446.922C185.306 446.418 185.828 446.004 186.428 445.68C187.028 445.356 187.7 445.194 188.444 445.194C189.152 445.194 189.77 445.326 190.298 445.59C190.838 445.842 191.252 446.214 191.54 446.706C191.84 447.186 191.99 447.786 191.99 448.506C191.99 449.022 191.882 449.49 191.666 449.91C191.462 450.318 191.204 450.702 190.892 451.062C190.58 451.422 190.274 451.788 189.974 452.16C189.686 452.52 189.452 452.91 189.272 453.33C189.092 453.75 189.032 454.23 189.092 454.77H187.274ZM188.21 459.252C187.814 459.252 187.484 459.114 187.22 458.838C186.956 458.55 186.824 458.196 186.824 457.776C186.824 457.344 186.956 456.996 187.22 456.732C187.484 456.456 187.814 456.318 188.21 456.318C188.606 456.318 188.936 456.456 189.2 456.732C189.476 456.996 189.614 457.344 189.614 457.776C189.614 458.196 189.476 458.55 189.2 458.838C188.936 459.114 188.606 459.252 188.21 459.252ZM196.134 454.77C196.05 454.17 196.086 453.636 196.242 453.168C196.398 452.688 196.614 452.256 196.89 451.872C197.178 451.476 197.466 451.11 197.754 450.774C198.054 450.426 198.306 450.084 198.51 449.748C198.726 449.4 198.834 449.028 198.834 448.632C198.834 448.296 198.762 448.002 198.618 447.75C198.486 447.486 198.288 447.276 198.024 447.12C197.772 446.964 197.454 446.886 197.07 446.886C196.65 446.886 196.254 446.988 195.882 447.192C195.522 447.384 195.192 447.648 194.892 447.984L193.722 446.922C194.166 446.418 194.688 446.004 195.288 445.68C195.888 445.356 196.56 445.194 197.304 445.194C198.012 445.194 198.63 445.326 199.158 445.59C199.698 445.842 200.112 446.214 200.4 446.706C200.7 447.186 200.85 447.786 200.85 448.506C200.85 449.022 200.742 449.49 200.526 449.91C200.322 450.318 200.064 450.702 199.752 451.062C199.44 451.422 199.134 451.788 198.834 452.16C198.546 452.52 198.312 452.91 198.132 453.33C197.952 453.75 197.892 454.23 197.952 454.77H196.134ZM197.07 459.252C196.674 459.252 196.344 459.114 196.08 458.838C195.816 458.55 195.684 458.196 195.684 457.776C195.684 457.344 195.816 456.996 196.08 456.732C196.344 456.456 196.674 456.318 197.07 456.318C197.466 456.318 197.796 456.456 198.06 456.732C198.336 456.996 198.474 457.344 198.474 457.776C198.474 458.196 198.336 458.55 198.06 458.838C197.796 459.114 197.466 459.252 197.07 459.252ZM204.993 454.77C204.909 454.17 204.945 453.636 205.101 453.168C205.257 452.688 205.473 452.256 205.749 451.872C206.037 451.476 206.325 451.11 206.613 450.774C206.913 450.426 207.165 450.084 207.369 449.748C207.585 449.4 207.693 449.028 207.693 448.632C207.693 448.296 207.621 448.002 207.477 447.75C207.345 447.486 207.147 447.276 206.883 447.12C206.631 446.964 206.313 446.886 205.929 446.886C205.509 446.886 205.113 446.988 204.741 447.192C204.381 447.384 204.051 447.648 203.751 447.984L202.581 446.922C203.025 446.418 203.547 446.004 204.147 445.68C204.747 445.356 205.419 445.194 206.163 445.194C206.871 445.194 207.489 445.326 208.017 445.59C208.557 445.842 208.971 446.214 209.259 446.706C209.559 447.186 209.709 447.786 209.709 448.506C209.709 449.022 209.601 449.49 209.385 449.91C209.181 450.318 208.923 450.702 208.611 451.062C208.299 451.422 207.993 451.788 207.693 452.16C207.405 452.52 207.171 452.91 206.991 453.33C206.811 453.75 206.751 454.23 206.811 454.77H204.993ZM205.929 459.252C205.533 459.252 205.203 459.114 204.939 458.838C204.675 458.55 204.543 458.196 204.543 457.776C204.543 457.344 204.675 456.996 204.939 456.732C205.203 456.456 205.533 456.318 205.929 456.318C206.325 456.318 206.655 456.456 206.919 456.732C207.195 456.996 207.333 457.344 207.333 457.776C207.333 458.196 207.195 458.55 206.919 458.838C206.655 459.114 206.325 459.252 205.929 459.252Z" fill="#F5F5F5"/>
<path d="M169.556 621.77C169.472 621.17 169.508 620.636 169.664 620.168C169.82 619.688 170.036 619.256 170.312 618.872C170.6 618.476 170.888 618.11 171.176 617.774C171.476 617.426 171.728 617.084 171.932 616.748C172.148 616.4 172.256 616.028 172.256 615.632C172.256 615.296 172.184 615.002 172.04 614.75C171.908 614.486 171.71 614.276 171.446 614.12C171.194 613.964 170.876 613.886 170.492 613.886C170.072 613.886 169.676 613.988 169.304 614.192C168.944 614.384 168.614 614.648 168.314 614.984L167.144 613.922C167.588 613.418 168.11 613.004 168.71 612.68C169.31 612.356 169.982 612.194 170.726 612.194C171.434 612.194 172.052 612.326 172.58 612.59C173.12 612.842 173.534 613.214 173.822 613.706C174.122 614.186 174.272 614.786 174.272 615.506C174.272 616.022 174.164 616.49 173.948 616.91C173.744 617.318 173.486 617.702 173.174 618.062C172.862 618.422 172.556 618.788 172.256 619.16C171.968 619.52 171.734 619.91 171.554 620.33C171.374 620.75 171.314 621.23 171.374 621.77H169.556ZM170.492 626.252C170.096 626.252 169.766 626.114 169.502 625.838C169.238 625.55 169.106 625.196 169.106 624.776C169.106 624.344 169.238 623.996 169.502 623.732C169.766 623.456 170.096 623.318 170.492 623.318C170.888 623.318 171.218 623.456 171.482 623.732C171.758 623.996 171.896 624.344 171.896 624.776C171.896 625.196 171.758 625.55 171.482 625.838C171.218 626.114 170.888 626.252 170.492 626.252ZM178.415 621.77C178.331 621.17 178.367 620.636 178.523 620.168C178.679 619.688 178.895 619.256 179.171 618.872C179.459 618.476 179.747 618.11 180.035 617.774C180.335 617.426 180.587 617.084 180.791 616.748C181.007 616.4 181.115 616.028 181.115 615.632C181.115 615.296 181.043 615.002 180.899 614.75C180.767 614.486 180.569 614.276 180.305 614.12C180.053 613.964 179.735 613.886 179.351 613.886C178.931 613.886 178.535 613.988 178.163 614.192C177.803 614.384 177.473 614.648 177.173 614.984L176.003 613.922C176.447 613.418 176.969 613.004 177.569 612.68C178.169 612.356 178.841 612.194 179.585 612.194C180.293 612.194 180.911 612.326 181.439 612.59C181.979 612.842 182.393 613.214 182.681 613.706C182.981 614.186 183.131 614.786 183.131 615.506C183.131 616.022 183.023 616.49 182.807 616.91C182.603 617.318 182.345 617.702 182.033 618.062C181.721 618.422 181.415 618.788 181.115 619.16C180.827 619.52 180.593 619.91 180.413 620.33C180.233 620.75 180.173 621.23 180.233 621.77H178.415ZM179.351 626.252C178.955 626.252 178.625 626.114 178.361 625.838C178.097 625.55 177.965 625.196 177.965 624.776C177.965 624.344 178.097 623.996 178.361 623.732C178.625 623.456 178.955 623.318 179.351 623.318C179.747 623.318 180.077 623.456 180.341 623.732C180.617 623.996 180.755 624.344 180.755 624.776C180.755 625.196 180.617 625.55 180.341 625.838C180.077 626.114 179.747 626.252 179.351 626.252ZM187.274 621.77C187.19 621.17 187.226 620.636 187.382 620.168C187.538 619.688 187.754 619.256 188.03 618.872C188.318 618.476 188.606 618.11 188.894 617.774C189.194 617.426 189.446 617.084 189.65 616.748C189.866 616.4 189.974 616.028 189.974 615.632C189.974 615.296 189.902 615.002 189.758 614.75C189.626 614.486 189.428 614.276 189.164 614.12C188.912 613.964 188.594 613.886 188.21 613.886C187.79 613.886 187.394 613.988 187.022 614.192C186.662 614.384 186.332 614.648 186.032 614.984L184.862 613.922C185.306 613.418 185.828 613.004 186.428 612.68C187.028 612.356 187.7 612.194 188.444 612.194C189.152 612.194 189.77 612.326 190.298 612.59C190.838 612.842 191.252 613.214 191.54 613.706C191.84 614.186 191.99 614.786 191.99 615.506C191.99 616.022 191.882 616.49 191.666 616.91C191.462 617.318 191.204 617.702 190.892 618.062C190.58 618.422 190.274 618.788 189.974 619.16C189.686 619.52 189.452 619.91 189.272 620.33C189.092 620.75 189.032 621.23 189.092 621.77H187.274ZM188.21 626.252C187.814 626.252 187.484 626.114 187.22 625.838C186.956 625.55 186.824 625.196 186.824 624.776C186.824 624.344 186.956 623.996 187.22 623.732C187.484 623.456 187.814 623.318 188.21 623.318C188.606 623.318 188.936 623.456 189.2 623.732C189.476 623.996 189.614 624.344 189.614 624.776C189.614 625.196 189.476 625.55 189.2 625.838C188.936 626.114 188.606 626.252 188.21 626.252ZM196.134 621.77C196.05 621.17 196.086 620.636 196.242 620.168C196.398 619.688 196.614 619.256 196.89 618.872C197.178 618.476 197.466 618.11 197.754 617.774C198.054 617.426 198.306 617.084 198.51 616.748C198.726 616.4 198.834 616.028 198.834 615.632C198.834 615.296 198.762 615.002 198.618 614.75C198.486 614.486 198.288 614.276 198.024 614.12C197.772 613.964 197.454 613.886 197.07 613.886C196.65 613.886 196.254 613.988 195.882 614.192C195.522 614.384 195.192 614.648 194.892 614.984L193.722 613.922C194.166 613.418 194.688 613.004 195.288 612.68C195.888 612.356 196.56 612.194 197.304 612.194C198.012 612.194 198.63 612.326 199.158 612.59C199.698 612.842 200.112 613.214 200.4 613.706C200.7 614.186 200.85 614.786 200.85 615.506C200.85 616.022 200.742 616.49 200.526 616.91C200.322 617.318 200.064 617.702 199.752 618.062C199.44 618.422 199.134 618.788 198.834 619.16C198.546 619.52 198.312 619.91 198.132 620.33C197.952 620.75 197.892 621.23 197.952 621.77H196.134ZM197.07 626.252C196.674 626.252 196.344 626.114 196.08 625.838C195.816 625.55 195.684 625.196 195.684 624.776C195.684 624.344 195.816 623.996 196.08 623.732C196.344 623.456 196.674 623.318 197.07 623.318C197.466 623.318 197.796 623.456 198.06 623.732C198.336 623.996 198.474 624.344 198.474 624.776C198.474 625.196 198.336 625.55 198.06 625.838C197.796 626.114 197.466 626.252 197.07 626.252ZM204.993 621.77C204.909 621.17 204.945 620.636 205.101 620.168C205.257 619.688 205.473 619.256 205.749 618.872C206.037 618.476 206.325 618.11 206.613 617.774C206.913 617.426 207.165 617.084 207.369 616.748C207.585 616.4 207.693 616.028 207.693 615.632C207.693 615.296 207.621 615.002 207.477 614.75C207.345 614.486 207.147 614.276 206.883 614.12C206.631 613.964 206.313 613.886 205.929 613.886C205.509 613.886 205.113 613.988 204.741 614.192C204.381 614.384 204.051 614.648 203.751 614.984L202.581 613.922C203.025 613.418 203.547 613.004 204.147 612.68C204.747 612.356 205.419 612.194 206.163 612.194C206.871 612.194 207.489 612.326 208.017 612.59C208.557 612.842 208.971 613.214 209.259 613.706C209.559 614.186 209.709 614.786 209.709 615.506C209.709 616.022 209.601 616.49 209.385 616.91C209.181 617.318 208.923 617.702 208.611 618.062C208.299 618.422 207.993 618.788 207.693 619.16C207.405 619.52 207.171 619.91 206.991 620.33C206.811 620.75 206.751 621.23 206.811 621.77H204.993ZM205.929 626.252C205.533 626.252 205.203 626.114 204.939 625.838C204.675 625.55 204.543 625.196 204.543 624.776C204.543 624.344 204.675 623.996 204.939 623.732C205.203 623.456 205.533 623.318 205.929 623.318C206.325 623.318 206.655 623.456 206.919 623.732C207.195 623.996 207.333 624.344 207.333 624.776C207.333 625.196 207.195 625.55 206.919 625.838C206.655 626.114 206.325 626.252 205.929 626.252Z" fill="#F5F5F5"/>
<path d="M169.556 788.77C169.472 788.17 169.508 787.636 169.664 787.168C169.82 786.688 170.036 786.256 170.312 785.872C170.6 785.476 170.888 785.11 171.176 784.774C171.476 784.426 171.728 784.084 171.932 783.748C172.148 783.4 172.256 783.028 172.256 782.632C172.256 782.296 172.184 782.002 172.04 781.75C171.908 781.486 171.71 781.276 171.446 781.12C171.194 780.964 170.876 780.886 170.492 780.886C170.072 780.886 169.676 780.988 169.304 781.192C168.944 781.384 168.614 781.648 168.314 781.984L167.144 780.922C167.588 780.418 168.11 780.004 168.71 779.68C169.31 779.356 169.982 779.194 170.726 779.194C171.434 779.194 172.052 779.326 172.58 779.59C173.12 779.842 173.534 780.214 173.822 780.706C174.122 781.186 174.272 781.786 174.272 782.506C174.272 783.022 174.164 783.49 173.948 783.91C173.744 784.318 173.486 784.702 173.174 785.062C172.862 785.422 172.556 785.788 172.256 786.16C171.968 786.52 171.734 786.91 171.554 787.33C171.374 787.75 171.314 788.23 171.374 788.77H169.556ZM170.492 793.252C170.096 793.252 169.766 793.114 169.502 792.838C169.238 792.55 169.106 792.196 169.106 791.776C169.106 791.344 169.238 790.996 169.502 790.732C169.766 790.456 170.096 790.318 170.492 790.318C170.888 790.318 171.218 790.456 171.482 790.732C171.758 790.996 171.896 791.344 171.896 791.776C171.896 792.196 171.758 792.55 171.482 792.838C171.218 793.114 170.888 793.252 170.492 793.252ZM178.415 788.77C178.331 788.17 178.367 787.636 178.523 787.168C178.679 786.688 178.895 786.256 179.171 785.872C179.459 785.476 179.747 785.11 180.035 784.774C180.335 784.426 180.587 784.084 180.791 783.748C181.007 783.4 181.115 783.028 181.115 782.632C181.115 782.296 181.043 782.002 180.899 781.75C180.767 781.486 180.569 781.276 180.305 781.12C180.053 780.964 179.735 780.886 179.351 780.886C178.931 780.886 178.535 780.988 178.163 781.192C177.803 781.384 177.473 781.648 177.173 781.984L176.003 780.922C176.447 780.418 176.969 780.004 177.569 779.68C178.169 779.356 178.841 779.194 179.585 779.194C180.293 779.194 180.911 779.326 181.439 779.59C181.979 779.842 182.393 780.214 182.681 780.706C182.981 781.186 183.131 781.786 183.131 782.506C183.131 783.022 183.023 783.49 182.807 783.91C182.603 784.318 182.345 784.702 182.033 785.062C181.721 785.422 181.415 785.788 181.115 786.16C180.827 786.52 180.593 786.91 180.413 787.33C180.233 787.75 180.173 788.23 180.233 788.77H178.415ZM179.351 793.252C178.955 793.252 178.625 793.114 178.361 792.838C178.097 792.55 177.965 792.196 177.965 791.776C177.965 791.344 178.097 790.996 178.361 790.732C178.625 790.456 178.955 790.318 179.351 790.318C179.747 790.318 180.077 790.456 180.341 790.732C180.617 790.996 180.755 791.344 180.755 791.776C180.755 792.196 180.617 792.55 180.341 792.838C180.077 793.114 179.747 793.252 179.351 793.252ZM187.274 788.77C187.19 788.17 187.226 787.636 187.382 787.168C187.538 786.688 187.754 786.256 188.03 785.872C188.318 785.476 188.606 785.11 188.894 784.774C189.194 784.426 189.446 784.084 189.65 783.748C189.866 783.4 189.974 783.028 189.974 782.632C189.974 782.296 189.902 782.002 189.758 781.75C189.626 781.486 189.428 781.276 189.164 781.12C188.912 780.964 188.594 780.886 188.21 780.886C187.79 780.886 187.394 780.988 187.022 781.192C186.662 781.384 186.332 781.648 186.032 781.984L184.862 780.922C185.306 780.418 185.828 780.004 186.428 779.68C187.028 779.356 187.7 779.194 188.444 779.194C189.152 779.194 189.77 779.326 190.298 779.59C190.838 779.842 191.252 780.214 191.54 780.706C191.84 781.186 191.99 781.786 191.99 782.506C191.99 783.022 191.882 783.49 191.666 783.91C191.462 784.318 191.204 784.702 190.892 785.062C190.58 785.422 190.274 785.788 189.974 786.16C189.686 786.52 189.452 786.91 189.272 787.33C189.092 787.75 189.032 788.23 189.092 788.77H187.274ZM188.21 793.252C187.814 793.252 187.484 793.114 187.22 792.838C186.956 792.55 186.824 792.196 186.824 791.776C186.824 791.344 186.956 790.996 187.22 790.732C187.484 790.456 187.814 790.318 188.21 790.318C188.606 790.318 188.936 790.456 189.2 790.732C189.476 790.996 189.614 791.344 189.614 791.776C189.614 792.196 189.476 792.55 189.2 792.838C188.936 793.114 188.606 793.252 188.21 793.252ZM196.134 788.77C196.05 788.17 196.086 787.636 196.242 787.168C196.398 786.688 196.614 786.256 196.89 785.872C197.178 785.476 197.466 785.11 197.754 784.774C198.054 784.426 198.306 784.084 198.51 783.748C198.726 783.4 198.834 783.028 198.834 782.632C198.834 782.296 198.762 782.002 198.618 781.75C198.486 781.486 198.288 781.276 198.024 781.12C197.772 780.964 197.454 780.886 197.07 780.886C196.65 780.886 196.254 780.988 195.882 781.192C195.522 781.384 195.192 781.648 194.892 781.984L193.722 780.922C194.166 780.418 194.688 780.004 195.288 779.68C195.888 779.356 196.56 779.194 197.304 779.194C198.012 779.194 198.63 779.326 199.158 779.59C199.698 779.842 200.112 780.214 200.4 780.706C200.7 781.186 200.85 781.786 200.85 782.506C200.85 783.022 200.742 783.49 200.526 783.91C200.322 784.318 200.064 784.702 199.752 785.062C199.44 785.422 199.134 785.788 198.834 786.16C198.546 786.52 198.312 786.91 198.132 787.33C197.952 787.75 197.892 788.23 197.952 788.77H196.134ZM197.07 793.252C196.674 793.252 196.344 793.114 196.08 792.838C195.816 792.55 195.684 792.196 195.684 791.776C195.684 791.344 195.816 790.996 196.08 790.732C196.344 790.456 196.674 790.318 197.07 790.318C197.466 790.318 197.796 790.456 198.06 790.732C198.336 790.996 198.474 791.344 198.474 791.776C198.474 792.196 198.336 792.55 198.06 792.838C197.796 793.114 197.466 793.252 197.07 793.252ZM204.993 788.77C204.909 788.17 204.945 787.636 205.101 787.168C205.257 786.688 205.473 786.256 205.749 785.872C206.037 785.476 206.325 785.11 206.613 784.774C206.913 784.426 207.165 784.084 207.369 783.748C207.585 783.4 207.693 783.028 207.693 782.632C207.693 782.296 207.621 782.002 207.477 781.75C207.345 781.486 207.147 781.276 206.883 781.12C206.631 780.964 206.313 780.886 205.929 780.886C205.509 780.886 205.113 780.988 204.741 781.192C204.381 781.384 204.051 781.648 203.751 781.984L202.581 780.922C203.025 780.418 203.547 780.004 204.147 779.68C204.747 779.356 205.419 779.194 206.163 779.194C206.871 779.194 207.489 779.326 208.017 779.59C208.557 779.842 208.971 780.214 209.259 780.706C209.559 781.186 209.709 781.786 209.709 782.506C209.709 783.022 209.601 783.49 209.385 783.91C209.181 784.318 208.923 784.702 208.611 785.062C208.299 785.422 207.993 785.788 207.693 786.16C207.405 786.52 207.171 786.91 206.991 787.33C206.811 787.75 206.751 788.23 206.811 788.77H204.993ZM205.929 793.252C205.533 793.252 205.203 793.114 204.939 792.838C204.675 792.55 204.543 792.196 204.543 791.776C204.543 791.344 204.675 790.996 204.939 790.732C205.203 790.456 205.533 790.318 205.929 790.318C206.325 790.318 206.655 790.456 206.919 790.732C207.195 790.996 207.333 791.344 207.333 791.776C207.333 792.196 207.195 792.55 206.919 792.838C206.655 793.114 206.325 793.252 205.929 793.252Z" fill="#F5F5F5"/>
<circle cx="49.5" cy="50.5" r="49.5" fill="#3179FF"/>
<circle cx="49.5" cy="50.5" r="47.5" stroke="#FF592F" stroke-width="4"/>
<g filter="url(#filter0_ii_195_1004)">
<rect x="44" y="53.1445" width="13" height="39" rx="6.5" fill="#E3FFAF"/>
</g>
<g filter="url(#filter1_iii_195_1004)">
<path d="M6.88425 44.9318C9.02969 36.6854 21.0753 32.6812 33.7885 35.9884C40.844 37.8239 46.6214 41.5266 50.0005 45.8673C53.3796 41.5264 59.1574 37.8238 66.2133 35.9884C78.9268 32.6816 90.9727 36.6862 93.1176 44.9327C95.2625 53.1793 86.6943 62.5458 73.9809 65.8527C64.1799 68.4018 54.7772 66.6043 50.0005 61.8693C45.2237 66.6044 35.821 68.4021 26.02 65.8527C13.3067 62.5454 4.73912 53.1782 6.88425 44.9318Z" fill="#E3FFAF"/>
</g>
<g filter="url(#filter2_di_195_1004)">
<path d="M17.9867 45.8115C24.8392 44.1676 31.5805 45.2234 37.1879 47.1748C42.6529 49.0767 47.1063 51.8527 49.6391 53.917C54.7849 49.2684 61.0935 46.9542 66.8637 45.9395C72.7071 44.912 78.0702 45.2021 81.2631 45.8008C81.8057 45.9027 82.1636 46.4261 82.0619 46.9688C81.9601 47.5114 81.4376 47.8682 80.8949 47.7666C77.9324 47.2111 72.8108 46.9242 67.2094 47.9092C61.6119 48.8936 55.6059 51.1354 50.7865 55.5752C50.4686 55.8681 50.0126 55.9144 49.6498 55.7266C49.3032 55.9067 48.8683 55.8741 48.5492 55.6084C46.2329 53.6798 41.9017 50.9337 36.5307 49.0645C31.163 47.1965 24.8255 46.2273 18.4535 47.7559C17.9165 47.8847 17.3754 47.5545 17.2465 47.0176C17.1177 46.4806 17.4497 45.9404 17.9867 45.8115Z" fill="#54843E"/>
</g>
<g filter="url(#filter3_ii_195_1004)">
<path d="M55 30.6098C55 33.0344 52.7614 35 50 35C47.2386 35 45 33.0344 45 30.6098C45 28.1851 47.2386 20 50 20C52.7614 20 55 28.1851 55 30.6098Z" fill="#B7D0FF"/>
</g>
<circle cx="188.5" cy="49.5" r="49.5" fill="#FF592F"/>
<g filter="url(#filter4_i_195_1004)">
<path d="M210.642 58C209.016 60.6412 208 64.3679 208 68.5C208 72.6321 209.016 76.3588 210.642 79H167V58H210.642Z" fill="white"/>
</g>
<g filter="url(#filter5_ii_195_1004)">
<path d="M210 55C210.943 55 211.81 55.3265 212.494 55.8727C213.515 56.6882 212.601 58 211.294 58H169C167.895 58 167 58.8954 167 60V77C167 78.1046 167.895 79 169 79H211.294C212.601 79 213.515 80.3118 212.494 81.1273C211.81 81.6735 210.943 82 210 82H168C165.791 82 164 80.2091 164 78V59C164 56.7909 165.791 55 168 55H210Z" fill="#3179FF"/>
</g>
<g filter="url(#filter6_d_195_1004)">
<path d="M172 63.5H199" stroke="#C2C2C2" stroke-linecap="round"/>
</g>
<g filter="url(#filter7_d_195_1004)">
<path d="M189 68L206 68" stroke="#C2C2C2" stroke-linecap="round"/>
</g>
<g filter="url(#filter8_d_195_1004)">
<path d="M172 73L205 73" stroke="#C2C2C2" stroke-linecap="round"/>
</g>
<g filter="url(#filter9_ii_195_1004)">
<path d="M203.5 30.1699C206.833 32.0944 206.833 36.9056 203.5 38.8301L184.75 49.6554C181.417 51.5799 177.25 49.1743 177.25 45.3253L177.25 23.6747C177.25 19.8257 181.417 17.4201 184.75 19.3446L203.5 30.1699Z" fill="white"/>
</g>
<circle cx="49.5" cy="217.5" r="49.5" fill="url(#paint0_linear_195_1004)"/>
<g filter="url(#filter10_ii_195_1004)">
<path fill-rule="evenodd" clip-rule="evenodd" d="M18.617 193.759C10.2807 202.096 9.51677 215.137 16.3252 224.335L18.617 226.993L43.0122 251.388C46.5269 254.903 52.2254 254.903 55.7401 251.388L80.1353 226.993L82.4271 224.335C89.2356 215.137 88.4716 202.096 80.1353 193.759C71.7435 185.367 58.5841 188.649 49.3761 195.604C40.1682 188.649 27.0088 185.367 18.617 193.759Z" fill="url(#paint1_radial_195_1004)"/>
</g>
<g filter="url(#filter11_dii_195_1004)">
<path fill-rule="evenodd" clip-rule="evenodd" d="M33.7939 206.582C29.5709 210.805 29.1839 217.412 32.6329 222.072L33.7939 223.418L43.0121 232.636C46.5268 236.151 52.2253 236.151 55.74 232.636L64.9582 223.418L66.1192 222.072C69.5682 217.412 69.1812 210.805 64.9582 206.582C60.707 202.331 54.0407 203.994 49.376 207.517C44.7114 203.994 38.0451 202.331 33.7939 206.582Z" fill="url(#paint2_radial_195_1004)"/>
</g>
<circle cx="49.5" cy="384.5" r="49.5" fill="#FF592F"/>
<circle cx="49.5" cy="551.5" r="49.5" fill="#FF592F"/>
<circle cx="49.5" cy="718.5" r="49.5" fill="#FF592F"/>
<circle cx="49.5" cy="885.5" r="49.5" fill="#FF592F"/>
<circle cx="188.5" cy="217.5" r="49.5" fill="url(#paint3_linear_195_1004)"/>
<g filter="url(#filter12_i_195_1004)">
<path d="M187 188C199.724 188 210.31 197.14 212.558 209.213C212.843 210.091 213 211.027 213 212V231C213 234.12 211.412 236.869 209 238.483V244C209 248.971 204.971 253 200 253C197.172 253 194.65 251.694 193 249.654V250.5C193 256.299 188.299 261 182.5 261C176.701 261 172 256.299 172 250.5V243.773C171.357 243.92 170.688 244 170 244C165.029 244 161 239.971 161 235V216C161 215.756 161.012 215.514 161.031 215.275C161.011 214.853 161 214.428 161 214C161 199.641 172.641 188 187 188ZM174 201C171.791 201 170 204.582 170 209C170 213.418 171.791 217 174 217C176.209 217 178 213.418 178 209C178 204.582 176.209 201 174 201ZM186 201C183.791 201 182 204.582 182 209C182 213.418 183.791 217 186 217C188.209 217 190 213.418 190 209C190 204.582 188.209 201 186 201Z" fill="white"/>
</g>
<ellipse cx="180" cy="224" rx="4" ry="6" transform="rotate(-180 180 224)" fill="#FFBFC0"/>
<path d="M198 221.001C193.334 219.001 185.3 216.901 190.5 224.501" stroke="#666666" stroke-width="2" stroke-linecap="round"/>
<path d="M169 221.089C165.953 218.854 160.708 216.508 164.103 225" stroke="#666666" stroke-width="2" stroke-linecap="round"/>
<ellipse cx="174" cy="209" rx="4" ry="8" transform="rotate(-180 174 209)" fill="url(#paint4_linear_195_1004)"/>
<ellipse cx="186" cy="209" rx="4" ry="8" transform="rotate(-180 186 209)" fill="url(#paint5_linear_195_1004)"/>
<circle cx="188.5" cy="384.5" r="49.5" fill="#FF592F"/>
<circle cx="188.5" cy="551.5" r="49.5" fill="#FF592F"/>
<circle cx="188.5" cy="718.5" r="49.5" fill="#FF592F"/>
<circle cx="188.5" cy="885.5" r="49.5" fill="#FF592F"/>
<path d="M44.1887 397.67C43.8247 395.07 43.9807 392.756 44.6567 390.728C45.3327 388.648 46.2687 386.776 47.4647 385.112C48.7127 383.396 49.9607 381.81 51.2087 380.354C52.5087 378.846 53.6007 377.364 54.4847 375.908C55.4207 374.4 55.8887 372.788 55.8887 371.072C55.8887 369.616 55.5767 368.342 54.9527 367.25C54.3807 366.106 53.5227 365.196 52.3787 364.52C51.2867 363.844 49.9087 363.506 48.2447 363.506C46.4247 363.506 44.7087 363.948 43.0967 364.832C41.5367 365.664 40.1067 366.808 38.8067 368.264L33.7367 363.662C35.6607 361.478 37.9227 359.684 40.5227 358.28C43.1227 356.876 46.0347 356.174 49.2587 356.174C52.3267 356.174 55.0047 356.746 57.2927 357.89C59.6327 358.982 61.4267 360.594 62.6747 362.726C63.9747 364.806 64.6247 367.406 64.6247 370.526C64.6247 372.762 64.1567 374.79 63.2207 376.61C62.3367 378.378 61.2187 380.042 59.8667 381.602C58.5147 383.162 57.1887 384.748 55.8887 386.36C54.6407 387.92 53.6267 389.61 52.8467 391.43C52.0667 393.25 51.8067 395.33 52.0667 397.67H44.1887ZM48.2447 417.092C46.5287 417.092 45.0987 416.494 43.9547 415.298C42.8107 414.05 42.2387 412.516 42.2387 410.696C42.2387 408.824 42.8107 407.316 43.9547 406.172C45.0987 404.976 46.5287 404.378 48.2447 404.378C49.9607 404.378 51.3907 404.976 52.5347 406.172C53.7307 407.316 54.3287 408.824 54.3287 410.696C54.3287 412.516 53.7307 414.05 52.5347 415.298C51.3907 416.494 49.9607 417.092 48.2447 417.092Z" fill="white"/>
<path d="M44.1887 564.67C43.8247 562.07 43.9807 559.756 44.6567 557.728C45.3327 555.648 46.2687 553.776 47.4647 552.112C48.7127 550.396 49.9607 548.81 51.2087 547.354C52.5087 545.846 53.6007 544.364 54.4847 542.908C55.4207 541.4 55.8887 539.788 55.8887 538.072C55.8887 536.616 55.5767 535.342 54.9527 534.25C54.3807 533.106 53.5227 532.196 52.3787 531.52C51.2867 530.844 49.9087 530.506 48.2447 530.506C46.4247 530.506 44.7087 530.948 43.0967 531.832C41.5367 532.664 40.1067 533.808 38.8067 535.264L33.7367 530.662C35.6607 528.478 37.9227 526.684 40.5227 525.28C43.1227 523.876 46.0347 523.174 49.2587 523.174C52.3267 523.174 55.0047 523.746 57.2927 524.89C59.6327 525.982 61.4267 527.594 62.6747 529.726C63.9747 531.806 64.6247 534.406 64.6247 537.526C64.6247 539.762 64.1567 541.79 63.2207 543.61C62.3367 545.378 61.2187 547.042 59.8667 548.602C58.5147 550.162 57.1887 551.748 55.8887 553.36C54.6407 554.92 53.6267 556.61 52.8467 558.43C52.0667 560.25 51.8067 562.33 52.0667 564.67H44.1887ZM48.2447 584.092C46.5287 584.092 45.0987 583.494 43.9547 582.298C42.8107 581.05 42.2387 579.516 42.2387 577.696C42.2387 575.824 42.8107 574.316 43.9547 573.172C45.0987 571.976 46.5287 571.378 48.2447 571.378C49.9607 571.378 51.3907 571.976 52.5347 573.172C53.7307 574.316 54.3287 575.824 54.3287 577.696C54.3287 579.516 53.7307 581.05 52.5347 582.298C51.3907 583.494 49.9607 584.092 48.2447 584.092Z" fill="white"/>
<path d="M44.1887 731.67C43.8247 729.07 43.9807 726.756 44.6567 724.728C45.3327 722.648 46.2687 720.776 47.4647 719.112C48.7127 717.396 49.9607 715.81 51.2087 714.354C52.5087 712.846 53.6007 711.364 54.4847 709.908C55.4207 708.4 55.8887 706.788 55.8887 705.072C55.8887 703.616 55.5767 702.342 54.9527 701.25C54.3807 700.106 53.5227 699.196 52.3787 698.52C51.2867 697.844 49.9087 697.506 48.2447 697.506C46.4247 697.506 44.7087 697.948 43.0967 698.832C41.5367 699.664 40.1067 700.808 38.8067 702.264L33.7367 697.662C35.6607 695.478 37.9227 693.684 40.5227 692.28C43.1227 690.876 46.0347 690.174 49.2587 690.174C52.3267 690.174 55.0047 690.746 57.2927 691.89C59.6327 692.982 61.4267 694.594 62.6747 696.726C63.9747 698.806 64.6247 701.406 64.6247 704.526C64.6247 706.762 64.1567 708.79 63.2207 710.61C62.3367 712.378 61.2187 714.042 59.8667 715.602C58.5147 717.162 57.1887 718.748 55.8887 720.36C54.6407 721.92 53.6267 723.61 52.8467 725.43C52.0667 727.25 51.8067 729.33 52.0667 731.67H44.1887ZM48.2447 751.092C46.5287 751.092 45.0987 750.494 43.9547 749.298C42.8107 748.05 42.2387 746.516 42.2387 744.696C42.2387 742.824 42.8107 741.316 43.9547 740.172C45.0987 738.976 46.5287 738.378 48.2447 738.378C49.9607 738.378 51.3907 738.976 52.5347 740.172C53.7307 741.316 54.3287 742.824 54.3287 744.696C54.3287 746.516 53.7307 748.05 52.5347 749.298C51.3907 750.494 49.9607 751.092 48.2447 751.092Z" fill="white"/>
<path d="M183.189 397.67C182.825 395.07 182.981 392.756 183.657 390.728C184.333 388.648 185.269 386.776 186.465 385.112C187.713 383.396 188.961 381.81 190.209 380.354C191.509 378.846 192.601 377.364 193.485 375.908C194.421 374.4 194.889 372.788 194.889 371.072C194.889 369.616 194.577 368.342 193.953 367.25C193.381 366.106 192.523 365.196 191.379 364.52C190.287 363.844 188.909 363.506 187.245 363.506C185.425 363.506 183.709 363.948 182.097 364.832C180.537 365.664 179.107 366.808 177.807 368.264L172.737 363.662C174.661 361.478 176.923 359.684 179.523 358.28C182.123 356.876 185.035 356.174 188.259 356.174C191.327 356.174 194.005 356.746 196.293 357.89C198.633 358.982 200.427 360.594 201.675 362.726C202.975 364.806 203.625 367.406 203.625 370.526C203.625 372.762 203.157 374.79 202.221 376.61C201.337 378.378 200.219 380.042 198.867 381.602C197.515 383.162 196.189 384.748 194.889 386.36C193.641 387.92 192.627 389.61 191.847 391.43C191.067 393.25 190.807 395.33 191.067 397.67H183.189ZM187.245 417.092C185.529 417.092 184.099 416.494 182.955 415.298C181.811 414.05 181.239 412.516 181.239 410.696C181.239 408.824 181.811 407.316 182.955 406.172C184.099 404.976 185.529 404.378 187.245 404.378C188.961 404.378 190.391 404.976 191.535 406.172C192.731 407.316 193.329 408.824 193.329 410.696C193.329 412.516 192.731 414.05 191.535 415.298C190.391 416.494 188.961 417.092 187.245 417.092Z" fill="white"/>
<path d="M183.189 564.67C182.825 562.07 182.981 559.756 183.657 557.728C184.333 555.648 185.269 553.776 186.465 552.112C187.713 550.396 188.961 548.81 190.209 547.354C191.509 545.846 192.601 544.364 193.485 542.908C194.421 541.4 194.889 539.788 194.889 538.072C194.889 536.616 194.577 535.342 193.953 534.25C193.381 533.106 192.523 532.196 191.379 531.52C190.287 530.844 188.909 530.506 187.245 530.506C185.425 530.506 183.709 530.948 182.097 531.832C180.537 532.664 179.107 533.808 177.807 535.264L172.737 530.662C174.661 528.478 176.923 526.684 179.523 525.28C182.123 523.876 185.035 523.174 188.259 523.174C191.327 523.174 194.005 523.746 196.293 524.89C198.633 525.982 200.427 527.594 201.675 529.726C202.975 531.806 203.625 534.406 203.625 537.526C203.625 539.762 203.157 541.79 202.221 543.61C201.337 545.378 200.219 547.042 198.867 548.602C197.515 550.162 196.189 551.748 194.889 553.36C193.641 554.92 192.627 556.61 191.847 558.43C191.067 560.25 190.807 562.33 191.067 564.67H183.189ZM187.245 584.092C185.529 584.092 184.099 583.494 182.955 582.298C181.811 581.05 181.239 579.516 181.239 577.696C181.239 575.824 181.811 574.316 182.955 573.172C184.099 571.976 185.529 571.378 187.245 571.378C188.961 571.378 190.391 571.976 191.535 573.172C192.731 574.316 193.329 575.824 193.329 577.696C193.329 579.516 192.731 581.05 191.535 582.298C190.391 583.494 188.961 584.092 187.245 584.092Z" fill="white"/>
<path d="M183.189 731.67C182.825 729.07 182.981 726.756 183.657 724.728C184.333 722.648 185.269 720.776 186.465 719.112C187.713 717.396 188.961 715.81 190.209 714.354C191.509 712.846 192.601 711.364 193.485 709.908C194.421 708.4 194.889 706.788 194.889 705.072C194.889 703.616 194.577 702.342 193.953 701.25C193.381 700.106 192.523 699.196 191.379 698.52C190.287 697.844 188.909 697.506 187.245 697.506C185.425 697.506 183.709 697.948 182.097 698.832C180.537 699.664 179.107 700.808 177.807 702.264L172.737 697.662C174.661 695.478 176.923 693.684 179.523 692.28C182.123 690.876 185.035 690.174 188.259 690.174C191.327 690.174 194.005 690.746 196.293 691.89C198.633 692.982 200.427 694.594 201.675 696.726C202.975 698.806 203.625 701.406 203.625 704.526C203.625 706.762 203.157 708.79 202.221 710.61C201.337 712.378 200.219 714.042 198.867 715.602C197.515 717.162 196.189 718.748 194.889 720.36C193.641 721.92 192.627 723.61 191.847 725.43C191.067 727.25 190.807 729.33 191.067 731.67H183.189ZM187.245 751.092C185.529 751.092 184.099 750.494 182.955 749.298C181.811 748.05 181.239 746.516 181.239 744.696C181.239 742.824 181.811 741.316 182.955 740.172C184.099 738.976 185.529 738.378 187.245 738.378C188.961 738.378 190.391 738.976 191.535 740.172C192.731 741.316 193.329 742.824 193.329 744.696C193.329 746.516 192.731 748.05 191.535 749.298C190.391 750.494 188.961 751.092 187.245 751.092Z" fill="white"/>
<defs>
<filter id="filter0_ii_195_1004" x="41" y="51.1445" width="16" height="45" filterUnits="userSpaceOnUse" color-interpolation-filters="sRGB">
<feFlood flood-opacity="0" result="BackgroundImageFix"/>
<feBlend mode="normal" in="SourceGraphic" in2="BackgroundImageFix" result="shape"/>
<feColorMatrix in="SourceAlpha" type="matrix" values="0 0 0 0 0 0 0 0 0 0 0 0 0 0 0 0 0 0 127 0" result="hardAlpha"/>
<feOffset dx="-3" dy="-2"/>
<feGaussianBlur stdDeviation="2.5"/>
<feComposite in2="hardAlpha" operator="arithmetic" k2="-1" k3="1"/>
<feColorMatrix type="matrix" values="0 0 0 0 0.0509804 0 0 0 0 0.631373 0 0 0 0 0 0 0 0 0.55 0"/>
<feBlend mode="normal" in2="shape" result="effect1_innerShadow_195_1004"/>
<feColorMatrix in="SourceAlpha" type="matrix" values="0 0 0 0 0 0 0 0 0 0 0 0 0 0 0 0 0 0 127 0" result="hardAlpha"/>
<feOffset dy="12"/>
<feGaussianBlur stdDeviation="2"/>
<feComposite in2="hardAlpha" operator="arithmetic" k2="-1" k3="1"/>
<feColorMatrix type="matrix" values="0 0 0 0 0.187647 0 0 0 0 0.633219 0 0 0 0 0.303618 0 0 0 1 0"/>
<feBlend mode="normal" in2="effect1_innerShadow_195_1004" result="effect2_innerShadow_195_1004"/>
</filter>
<filter id="filter1_iii_195_1004" x="6.55518" y="23.8281" width="86.8916" height="43.1843" filterUnits="userSpaceOnUse" color-interpolation-filters="sRGB">
<feFlood flood-opacity="0" result="BackgroundImageFix"/>
<feBlend mode="normal" in="SourceGraphic" in2="BackgroundImageFix" result="shape"/>
<feColorMatrix in="SourceAlpha" type="matrix" values="0 0 0 0 0 0 0 0 0 0 0 0 0 0 0 0 0 0 127 0" result="hardAlpha"/>
<feMorphology radius="3" operator="erode" in="SourceAlpha" result="effect1_innerShadow_195_1004"/>
<feOffset dy="-11"/>
<feGaussianBlur stdDeviation="5"/>
<feComposite in2="hardAlpha" operator="arithmetic" k2="-1" k3="1"/>
<feColorMatrix type="matrix" values="0 0 0 0 0.052676 0 0 0 0 0.632113 0 0 0 0 0 0 0 0 0.7 0"/>
<feBlend mode="normal" in2="shape" result="effect1_innerShadow_195_1004"/>
<feColorMatrix in="SourceAlpha" type="matrix" values="0 0 0 0 0 0 0 0 0 0 0 0 0 0 0 0 0 0 127 0" result="hardAlpha"/>
<feMorphology radius="1" operator="erode" in="SourceAlpha" result="effect2_innerShadow_195_1004"/>
<feOffset dy="-5"/>
<feGaussianBlur stdDeviation="2"/>
<feComposite in2="hardAlpha" operator="arithmetic" k2="-1" k3="1"/>
<feColorMatrix type="matrix" values="0 0 0 0 1 0 0 0 0 0.994085 0 0 0 0 0.645101 0 0 0 1 0"/>
<feBlend mode="normal" in2="effect1_innerShadow_195_1004" result="effect2_innerShadow_195_1004"/>
<feColorMatrix in="SourceAlpha" type="matrix" values="0 0 0 0 0 0 0 0 0 0 0 0 0 0 0 0 0 0 127 0" result="hardAlpha"/>
<feOffset dy="-3"/>
<feGaussianBlur stdDeviation="2.5"/>
<feComposite in2="hardAlpha" operator="arithmetic" k2="-1" k3="1"/>
<feColorMatrix type="matrix" values="0 0 0 0 0 0 0 0 0 0.603499 0 0 0 0 0.1207 0 0 0 0.46 0"/>
<feBlend mode="normal" in2="effect2_innerShadow_195_1004" result="effect3_innerShadow_195_1004"/>
</filter>
<filter id="filter2_di_195_1004" x="14.2188" y="42" width="70.8604" height="16.8394" filterUnits="userSpaceOnUse" color-interpolation-filters="sRGB">
<feFlood flood-opacity="0" result="BackgroundImageFix"/>
<feColorMatrix in="SourceAlpha" type="matrix" values="0 0 0 0 0 0 0 0 0 0 0 0 0 0 0 0 0 0 127 0" result="hardAlpha"/>
<feOffset/>
<feGaussianBlur stdDeviation="1.5"/>
<feComposite in2="hardAlpha" operator="out"/>
<feColorMatrix type="matrix" values="0 0 0 0 0.0678365 0 0 0 0 0.336963 0 0 0 0 0.00742042 0 0 0 0.89 0"/>
<feBlend mode="normal" in2="BackgroundImageFix" result="effect1_dropShadow_195_1004"/>
<feBlend mode="normal" in="SourceGraphic" in2="effect1_dropShadow_195_1004" result="shape"/>
<feColorMatrix in="SourceAlpha" type="matrix" values="0 0 0 0 0 0 0 0 0 0 0 0 0 0 0 0 0 0 127 0" result="hardAlpha"/>
<feOffset dy="1"/>
<feComposite in2="hardAlpha" operator="arithmetic" k2="-1" k3="1"/>
<feColorMatrix type="matrix" values="0 0 0 0 1 0 0 0 0 1 0 0 0 0 1 0 0 0 0.25 0"/>
<feBlend mode="normal" in2="shape" result="effect2_innerShadow_195_1004"/>
</filter>
<filter id="filter3_ii_195_1004" x="43" y="18" width="14" height="18" filterUnits="userSpaceOnUse" color-interpolation-filters="sRGB">
<feFlood flood-opacity="0" result="BackgroundImageFix"/>
<feBlend mode="normal" in="SourceGraphic" in2="BackgroundImageFix" result="shape"/>
<feColorMatrix in="SourceAlpha" type="matrix" values="0 0 0 0 0 0 0 0 0 0 0 0 0 0 0 0 0 0 127 0" result="hardAlpha"/>
<feOffset dx="2" dy="1"/>
<feGaussianBlur stdDeviation="1.5"/>
<feComposite in2="hardAlpha" operator="arithmetic" k2="-1" k3="1"/>
<feColorMatrix type="matrix" values="0 0 0 0 1 0 0 0 0 1 0 0 0 0 1 0 0 0 0.45 0"/>
<feBlend mode="normal" in2="shape" result="effect1_innerShadow_195_1004"/>
<feColorMatrix in="SourceAlpha" type="matrix" values="0 0 0 0 0 0 0 0 0 0 0 0 0 0 0 0 0 0 127 0" result="hardAlpha"/>
<feOffset dx="-2" dy="-2"/>
<feGaussianBlur stdDeviation="2"/>
<feComposite in2="hardAlpha" operator="arithmetic" k2="-1" k3="1"/>
<feColorMatrix type="matrix" values="0 0 0 0 0 0 0 0 0 0.499667 0 0 0 0 0.81027 0 0 0 0.55 0"/>
<feBlend mode="normal" in2="effect1_innerShadow_195_1004" result="effect2_innerShadow_195_1004"/>
</filter>
<filter id="filter4_i_195_1004" x="167" y="58" width="43.6416" height="23" filterUnits="userSpaceOnUse" color-interpolation-filters="sRGB">
<feFlood flood-opacity="0" result="BackgroundImageFix"/>
<feBlend mode="normal" in="SourceGraphic" in2="BackgroundImageFix" result="shape"/>
<feColorMatrix in="SourceAlpha" type="matrix" values="0 0 0 0 0 0 0 0 0 0 0 0 0 0 0 0 0 0 127 0" result="hardAlpha"/>
<feOffset dy="2"/>
<feGaussianBlur stdDeviation="2"/>
<feComposite in2="hardAlpha" operator="arithmetic" k2="-1" k3="1"/>
<feColorMatrix type="matrix" values="0 0 0 0 0 0 0 0 0 0 0 0 0 0 0 0 0 0 0.25 0"/>
<feBlend mode="normal" in2="shape" result="effect1_innerShadow_195_1004"/>
</filter>
<filter id="filter5_ii_195_1004" x="164" y="53" width="48.9321" height="30" filterUnits="userSpaceOnUse" color-interpolation-filters="sRGB">
<feFlood flood-opacity="0" result="BackgroundImageFix"/>
<feBlend mode="normal" in="SourceGraphic" in2="BackgroundImageFix" result="shape"/>
<feColorMatrix in="SourceAlpha" type="matrix" values="0 0 0 0 0 0 0 0 0 0 0 0 0 0 0 0 0 0 127 0" result="hardAlpha"/>
<feOffset dy="1"/>
<feGaussianBlur stdDeviation="2"/>
<feComposite in2="hardAlpha" operator="arithmetic" k2="-1" k3="1"/>
<feColorMatrix type="matrix" values="0 0 0 0 1 0 0 0 0 1 0 0 0 0 1 0 0 0 0.64 0"/>
<feBlend mode="normal" in2="shape" result="effect1_innerShadow_195_1004"/>
<feColorMatrix in="SourceAlpha" type="matrix" values="0 0 0 0 0 0 0 0 0 0 0 0 0 0 0 0 0 0 127 0" result="hardAlpha"/>
<feOffset dy="-2"/>
<feGaussianBlur stdDeviation="1"/>
<feComposite in2="hardAlpha" operator="arithmetic" k2="-1" k3="1"/>
<feColorMatrix type="matrix" values="0 0 0 0 0 0 0 0 0 0.247598 0 0 0 0 0.707422 0 0 0 0.63 0"/>
<feBlend mode="normal" in2="effect1_innerShadow_195_1004" result="effect2_innerShadow_195_1004"/>
</filter>
<filter id="filter6_d_195_1004" x="169.5" y="61" width="32" height="5" filterUnits="userSpaceOnUse" color-interpolation-filters="sRGB">
<feFlood flood-opacity="0" result="BackgroundImageFix"/>
<feColorMatrix in="SourceAlpha" type="matrix" values="0 0 0 0 0 0 0 0 0 0 0 0 0 0 0 0 0 0 127 0" result="hardAlpha"/>
<feOffset/>
<feGaussianBlur stdDeviation="1"/>
<feComposite in2="hardAlpha" operator="out"/>
<feColorMatrix type="matrix" values="0 0 0 0 0 0 0 0 0 0 0 0 0 0 0 0 0 0 0.27 0"/>
<feBlend mode="normal" in2="BackgroundImageFix" result="effect1_dropShadow_195_1004"/>
<feBlend mode="normal" in="SourceGraphic" in2="effect1_dropShadow_195_1004" result="shape"/>
</filter>
<filter id="filter7_d_195_1004" x="186.5" y="65.5" width="22" height="5" filterUnits="userSpaceOnUse" color-interpolation-filters="sRGB">
<feFlood flood-opacity="0" result="BackgroundImageFix"/>
<feColorMatrix in="SourceAlpha" type="matrix" values="0 0 0 0 0 0 0 0 0 0 0 0 0 0 0 0 0 0 127 0" result="hardAlpha"/>
<feOffset/>
<feGaussianBlur stdDeviation="1"/>
<feComposite in2="hardAlpha" operator="out"/>
<feColorMatrix type="matrix" values="0 0 0 0 0 0 0 0 0 0 0 0 0 0 0 0 0 0 0.27 0"/>
<feBlend mode="normal" in2="BackgroundImageFix" result="effect1_dropShadow_195_1004"/>
<feBlend mode="normal" in="SourceGraphic" in2="effect1_dropShadow_195_1004" result="shape"/>
</filter>
<filter id="filter8_d_195_1004" x="169.5" y="70.5" width="38" height="5" filterUnits="userSpaceOnUse" color-interpolation-filters="sRGB">
<feFlood flood-opacity="0" result="BackgroundImageFix"/>
<feColorMatrix in="SourceAlpha" type="matrix" values="0 0 0 0 0 0 0 0 0 0 0 0 0 0 0 0 0 0 127 0" result="hardAlpha"/>
<feOffset/>
<feGaussianBlur stdDeviation="1"/>
<feComposite in2="hardAlpha" operator="out"/>
<feColorMatrix type="matrix" values="0 0 0 0 0 0 0 0 0 0 0 0 0 0 0 0 0 0 0.27 0"/>
<feBlend mode="normal" in2="BackgroundImageFix" result="effect1_dropShadow_195_1004"/>
<feBlend mode="normal" in="SourceGraphic" in2="effect1_dropShadow_195_1004" result="shape"/>
</filter>
<filter id="filter9_ii_195_1004" x="176.25" y="12.6672" width="29.75" height="37.6655" filterUnits="userSpaceOnUse" color-interpolation-filters="sRGB">
<feFlood flood-opacity="0" result="BackgroundImageFix"/>
<feBlend mode="normal" in="SourceGraphic" in2="BackgroundImageFix" result="shape"/>
<feColorMatrix in="SourceAlpha" type="matrix" values="0 0 0 0 0 0 0 0 0 0 0 0 0 0 0 0 0 0 127 0" result="hardAlpha"/>
<feOffset dx="-1" dy="-6"/>
<feGaussianBlur stdDeviation="4"/>
<feComposite in2="hardAlpha" operator="arithmetic" k2="-1" k3="1"/>
<feColorMatrix type="matrix" values="0 0 0 0 0 0 0 0 0 0 0 0 0 0 0 0 0 0 0.25 0"/>
<feBlend mode="normal" in2="shape" result="effect1_innerShadow_195_1004"/>
<feColorMatrix in="SourceAlpha" type="matrix" values="0 0 0 0 0 0 0 0 0 0 0 0 0 0 0 0 0 0 127 0" result="hardAlpha"/>
<feOffset dy="-2"/>
<feGaussianBlur stdDeviation="2"/>
<feComposite in2="hardAlpha" operator="arithmetic" k2="-1" k3="1"/>
<feColorMatrix type="matrix" values="0 0 0 0 1 0 0 0 0 1 0 0 0 0 1 0 0 0 1 0"/>
<feBlend mode="normal" in2="effect1_innerShadow_195_1004" result="effect2_innerShadow_195_1004"/>
</filter>
<filter id="filter10_ii_195_1004" x="9.73389" y="181.771" width="81.2842" height="74.2539" filterUnits="userSpaceOnUse" color-interpolation-filters="sRGB">
<feFlood flood-opacity="0" result="BackgroundImageFix"/>
<feBlend mode="normal" in="SourceGraphic" in2="BackgroundImageFix" result="shape"/>
<feColorMatrix in="SourceAlpha" type="matrix" values="0 0 0 0 0 0 0 0 0 0 0 0 0 0 0 0 0 0 127 0" result="hardAlpha"/>
<feOffset dx="7" dy="2"/>
<feGaussianBlur stdDeviation="2"/>
<feComposite in2="hardAlpha" operator="arithmetic" k2="-1" k3="1"/>
<feColorMatrix type="matrix" values="0 0 0 0 1 0 0 0 0 0.784217 0 0 0 0 0.906494 0 0 0 0.42 0"/>
<feBlend mode="normal" in2="shape" result="effect1_innerShadow_195_1004"/>
<feColorMatrix in="SourceAlpha" type="matrix" values="0 0 0 0 0 0 0 0 0 0 0 0 0 0 0 0 0 0 127 0" result="hardAlpha"/>
<feOffset dx="-2" dy="-7"/>
<feGaussianBlur stdDeviation="3.5"/>
<feComposite in2="hardAlpha" operator="arithmetic" k2="-1" k3="1"/>
<feColorMatrix type="matrix" values="0 0 0 0 0.728966 0 0 0 0 0 0 0 0 0 0.315885 0 0 0 1 0"/>
<feBlend mode="normal" in2="effect1_innerShadow_195_1004" result="effect2_innerShadow_195_1004"/>
</filter>
<filter id="filter11_dii_195_1004" x="24.3071" y="196.055" width="52.1377" height="45.2173" filterUnits="userSpaceOnUse" color-interpolation-filters="sRGB">
<feFlood flood-opacity="0" result="BackgroundImageFix"/>
<feColorMatrix in="SourceAlpha" type="matrix" values="0 0 0 0 0 0 0 0 0 0 0 0 0 0 0 0 0 0 127 0" result="hardAlpha"/>
<feOffset dx="1" dy="-1"/>
<feGaussianBlur stdDeviation="3.5"/>
<feComposite in2="hardAlpha" operator="out"/>
<feColorMatrix type="matrix" values="0 0 0 0 0.209679 0 0 0 0 0 0 0 0 0 0.0629038 0 0 0 0.79 0"/>
<feBlend mode="normal" in2="BackgroundImageFix" result="effect1_dropShadow_195_1004"/>
<feBlend mode="normal" in="SourceGraphic" in2="effect1_dropShadow_195_1004" result="shape"/>
<feColorMatrix in="SourceAlpha" type="matrix" values="0 0 0 0 0 0 0 0 0 0 0 0 0 0 0 0 0 0 127 0" result="hardAlpha"/>
<feOffset dx="7" dy="2"/>
<feGaussianBlur stdDeviation="2"/>
<feComposite in2="hardAlpha" operator="arithmetic" k2="-1" k3="1"/>
<feColorMatrix type="matrix" values="0 0 0 0 1 0 0 0 0 0.964149 0 0 0 0 0.984465 0 0 0 0.42 0"/>
<feBlend mode="normal" in2="shape" result="effect2_innerShadow_195_1004"/>
<feColorMatrix in="SourceAlpha" type="matrix" values="0 0 0 0 0 0 0 0 0 0 0 0 0 0 0 0 0 0 127 0" result="hardAlpha"/>
<feOffset dx="-2" dy="-7"/>
<feGaussianBlur stdDeviation="3.5"/>
<feComposite in2="hardAlpha" operator="arithmetic" k2="-1" k3="1"/>
<feColorMatrix type="matrix" values="0 0 0 0 1 0 0 0 0 0.137733 0 0 0 0 0.511382 0 0 0 1 0"/>
<feBlend mode="normal" in2="effect2_innerShadow_195_1004" result="effect3_innerShadow_195_1004"/>
</filter>
<filter id="filter12_i_195_1004" x="158" y="185" width="55" height="76" filterUnits="userSpaceOnUse" color-interpolation-filters="sRGB">
<feFlood flood-opacity="0" result="BackgroundImageFix"/>
<feBlend mode="normal" in="SourceGraphic" in2="BackgroundImageFix" result="shape"/>
<feColorMatrix in="SourceAlpha" type="matrix" values="0 0 0 0 0 0 0 0 0 0 0 0 0 0 0 0 0 0 127 0" result="hardAlpha"/>
<feOffset dx="-3" dy="-3"/>
<feGaussianBlur stdDeviation="2.5"/>
<feComposite in2="hardAlpha" operator="arithmetic" k2="-1" k3="1"/>
<feColorMatrix type="matrix" values="0 0 0 0 0 0 0 0 0 0 0 0 0 0 0 0 0 0 0.45 0"/>
<feBlend mode="normal" in2="shape" result="effect1_innerShadow_195_1004"/>
</filter>
<linearGradient id="paint0_linear_195_1004" x1="49.5" y1="168" x2="49.5" y2="267" gradientUnits="userSpaceOnUse">
<stop stop-color="#FF87B1"/>
<stop offset="1" stop-color="#FFFBCF"/>
</linearGradient>
<radialGradient id="paint1_radial_195_1004" cx="0" cy="0" r="1" gradientUnits="userSpaceOnUse" gradientTransform="translate(49 216) rotate(34.5085) scale(58.2495)">
<stop stop-color="#FF42AD"/>
<stop offset="1" stop-color="#FF2226"/>
</radialGradient>
<radialGradient id="paint2_radial_195_1004" cx="0" cy="0" r="1" gradientUnits="userSpaceOnUse" gradientTransform="translate(49.1855 217.849) rotate(39.1173) scale(39.0722)">
<stop stop-color="#FFCBE8"/>
<stop offset="1" stop-color="#FF2194"/>
</radialGradient>
<linearGradient id="paint3_linear_195_1004" x1="188.5" y1="168" x2="188.5" y2="267" gradientUnits="userSpaceOnUse">
<stop/>
<stop offset="1" stop-color="#6F4A69"/>
</linearGradient>
<linearGradient id="paint4_linear_195_1004" x1="174" y1="201" x2="174" y2="217" gradientUnits="userSpaceOnUse">
<stop stop-color="#753684"/>
<stop offset="1"/>
</linearGradient>
<linearGradient id="paint5_linear_195_1004" x1="186" y1="201" x2="186" y2="217" gradientUnits="userSpaceOnUse">
<stop stop-color="#753684"/>
<stop offset="1"/>
</linearGradient>
</defs>
</svg>
