<svg xmlns="http://www.w3.org/2000/svg" width="230" height="388" fill="none"><rect width="230" height="388" fill="#242424" rx="20"/><g clip-path="url(#a)"><rect width="206" height="364" x="12" y="12" fill="#fff" rx="14"/><path fill="#000" d="M31.96 30.68h1.05v9.14h-1.05v-9.14Zm-2.69.97h1.04c0 .68-.073 1.33-.22 1.95a6.263 6.263 0 0 1-.72 1.77 6.344 6.344 0 0 1-1.3 1.54c-.533.473-1.193.9-1.98 1.28l-.56-.83c.887-.427 1.603-.913 2.15-1.46a5.128 5.128 0 0 0 1.2-1.83c.26-.68.39-1.427.39-2.24v-.18Zm-3.29 0h3.76v.84h-3.76v-.84Zm8.68 4.01h8.28v.84h-8.28v-.84Zm1.03-4.77h6.21v2.33h-5.16v1.13h-1.03v-1.88h5.15v-.77h-5.17v-.81Zm.02 3.13h6.37v.81h-6.37v-.81Zm2.56.41h1.05v1.66h-1.05v-1.66Zm-2.7 2.68h6.38v2.66H40.9v-1.81h-5.33v-.85Zm14.328-6.42h1.05v9.14h-1.05v-9.14Zm.81 3.67h1.65v.87h-1.65v-.87Zm-6.9-2.26h5.36v.84h-5.36v-.84Zm2.72 1.49c.434 0 .82.093 1.16.28.34.18.607.43.8.75.2.32.3.687.3 1.1a2.09 2.09 0 0 1-1.1 1.87c-.34.18-.73.27-1.17.27-.433 0-.82-.09-1.16-.27-.34-.187-.61-.44-.81-.76-.193-.32-.29-.69-.29-1.11 0-.413.097-.78.29-1.1.2-.32.47-.57.81-.75.34-.187.73-.28 1.17-.28Zm-.01.86c-.24 0-.456.053-.65.16a1.194 1.194 0 0 0-.46.45c-.106.187-.16.407-.16.66 0 .26.054.487.16.68.114.187.267.333.46.44.194.107.41.16.65.16.247 0 .464-.053.65-.16.194-.107.344-.253.45-.44.114-.193.17-.42.17-.68 0-.253-.056-.473-.17-.66a1.124 1.124 0 0 0-.45-.45 1.287 1.287 0 0 0-.65-.16Zm-.53-3.64h1.05v1.64h-1.05v-1.64Zm13.57-.13h1.05v9.14h-1.05v-9.14Zm-2.69.97h1.04c0 .68-.074 1.33-.22 1.95a6.263 6.263 0 0 1-.72 1.77 6.344 6.344 0 0 1-1.3 1.54c-.534.473-1.194.9-1.98 1.28l-.56-.83c.886-.427 1.603-.913 2.15-1.46a5.131 5.131 0 0 0 1.2-1.83c.26-.68.39-1.427.39-2.24v-.18Zm-3.29 0h3.76v.84h-3.76v-.84Z"/><path fill="#D9D9D9" d="M132 34h29v2h-29v-2Z"/><path fill="#FF592F" d="M171 29.556c0-1.964 1.451-3.556 3.241-3.556h25.518c1.79 0 3.241 1.592 3.241 3.556v8.888c0 1.964-1.451 3.556-3.241 3.556h-25.518c-1.79 0-3.241-1.592-3.241-3.556v-8.888Z"/><path fill="#fff" d="M193.598 36.456v-.7h1.193v-3.625h-.972v-.538c.255-.049.476-.105.663-.17.191-.068.366-.149.523-.242h.641v4.575h1.054v.7h-3.102ZM187.317 38.1v-5.703h.692l.074.449h.015c.182-.147.378-.275.589-.383.212-.108.433-.162.663-.162.339 0 .629.086.87.258.241.172.422.412.545.722.123.304.184.665.184 1.083 0 .462-.083.857-.25 1.186-.162.33-.376.58-.641.752-.265.172-.55.257-.855.257-.177 0-.356-.039-.538-.117a2.14 2.14 0 0 1-.523-.347l.022.693v1.311h-.847Zm1.724-2.255a.855.855 0 0 0 .523-.17 1.1 1.1 0 0 0 .368-.493 2.05 2.05 0 0 0 .14-.803c0-.285-.034-.529-.103-.73a.925.925 0 0 0-.302-.471c-.137-.113-.319-.17-.545-.17a1 1 0 0 0-.472.125 2.116 2.116 0 0 0-.486.369v1.982c.157.132.312.226.464.28.153.054.29.08.413.08ZM184.838 36.56c-.368 0-.702-.084-1.002-.251a1.894 1.894 0 0 1-.714-.73c-.177-.319-.266-.702-.266-1.149 0-.329.052-.624.155-.884a1.967 1.967 0 0 1 1.017-1.098c.221-.098.447-.147.678-.147.358 0 .66.08.906.243.246.157.432.38.56.67.128.285.192.62.192 1.002 0 .084-.005.165-.015.244a.968.968 0 0 1-.03.191h-2.63c.025.256.091.477.199.663.113.182.258.324.435.428.181.098.388.147.619.147.181 0 .351-.027.508-.081.157-.054.309-.128.457-.221l.294.538a2.955 2.955 0 0 1-.626.31 2.108 2.108 0 0 1-.737.124Zm-1.156-2.498h1.945c0-.344-.079-.612-.236-.803-.152-.192-.376-.288-.67-.288a.942.942 0 0 0-.472.126 1.078 1.078 0 0 0-.376.368 1.496 1.496 0 0 0-.191.597ZM181.736 36.56c-.304 0-.547-.06-.729-.178a1.026 1.026 0 0 1-.383-.5 2.184 2.184 0 0 1-.118-.752V33.08h-.589v-.633l.633-.052.096-1.12h.707v1.12h1.054v.685h-1.054v2.056c0 .24.047.425.14.553.094.123.246.184.457.184.069 0 .142-.01.221-.03.079-.02.147-.041.206-.066l.155.626a6.201 6.201 0 0 1-.368.104 1.705 1.705 0 0 1-.428.051ZM178.133 36.56c-.275 0-.551-.055-.826-.163a2.628 2.628 0 0 1-.7-.405l.406-.552c.176.142.356.257.538.346.186.083.388.125.604.125.24 0 .417-.052.53-.155a.51.51 0 0 0 .177-.39.407.407 0 0 0-.133-.31 1.041 1.041 0 0 0-.331-.213 5.514 5.514 0 0 0-.428-.177 4.738 4.738 0 0 1-.537-.243 1.417 1.417 0 0 1-.428-.369.925.925 0 0 1-.169-.567c0-.23.056-.435.169-.611.118-.177.285-.317.501-.42.216-.104.474-.155.774-.155.27 0 .516.046.737.14.226.093.417.206.574.339l-.39.523a2.309 2.309 0 0 0-.435-.25 1.083 1.083 0 0 0-.464-.104c-.226 0-.393.05-.501.148a.447.447 0 0 0-.162.353c0 .113.039.206.118.28.078.074.182.138.309.192l.42.17c.143.048.283.107.42.176.143.064.27.142.383.236.113.088.204.199.273.331.074.128.11.288.11.48 0 .225-.058.434-.176.626-.118.191-.29.343-.516.456-.226.108-.509.162-.847.162Z"/><path fill="#FF592F" d="M136 35.5c0 3.59-2.686 6.5-6 6.5s-6-2.91-6-6.5 2.686-6.5 6-6.5 6 2.91 6 6.5Z"/><path fill="#D9D9D9" d="M150 35c0 2.21-1.567 4-3.5 4s-3.5-1.79-3.5-4 1.567-4 3.5-4 3.5 1.79 3.5 4ZM164 35c0 2.21-1.567 4-3.5 4s-3.5-1.79-3.5-4 1.567-4 3.5-4 3.5 1.79 3.5 4Z"/><path fill="#000" d="M104.812 101.734c-.079-.562-.045-1.062.101-1.5.146-.45.349-.854.607-1.214.27-.37.539-.713.809-1.028.281-.326.517-.646.708-.96a1.95 1.95 0 0 0 .303-1.045c0-.315-.067-.59-.202-.826a1.409 1.409 0 0 0-.556-.59c-.236-.146-.534-.22-.894-.22-.393 0-.764.096-1.112.287-.337.18-.646.427-.927.742l-1.095-.995c.415-.471.904-.859 1.466-1.162a3.91 3.91 0 0 1 1.888-.455c.663 0 1.241.123 1.736.37.505.236.893.585 1.162 1.045.281.45.422 1.011.422 1.686 0 .483-.101.921-.304 1.314a5.184 5.184 0 0 1-.724 1.079c-.292.337-.579.68-.86 1.028-.27.337-.489.702-.657 1.095-.169.394-.225.843-.169 1.349h-1.702Zm.876 4.196a1.23 1.23 0 0 1-.926-.387 1.415 1.415 0 0 1-.371-.995c0-.404.123-.73.371-.977.247-.259.556-.388.926-.388.371 0 .68.129.927.388.259.247.388.573.388.977 0 .394-.129.725-.388.995a1.23 1.23 0 0 1-.927.387ZM90.353 99.56h1.753v4.483h-1.753V99.56Zm5.63 0h1.769v4.483h-1.77V99.56Zm-8.9 4.179h13.955v1.45H87.084v-1.45Zm6.961-11.174c1.09 0 2.062.169 2.916.506.854.326 1.522.792 2.005 1.399.495.595.742 1.303.742 2.124 0 .82-.247 1.533-.742 2.14-.483.595-1.151 1.062-2.005 1.399-.854.326-1.826.488-2.916.488-1.09 0-2.067-.162-2.932-.488-.854-.337-1.528-.804-2.023-1.4-.483-.606-.725-1.32-.725-2.14 0-.82.242-1.528.725-2.123.495-.607 1.169-1.073 2.023-1.399.865-.337 1.842-.506 2.932-.506Zm0 1.382c-.775 0-1.46.107-2.056.32-.596.214-1.062.523-1.399.928-.326.393-.489.86-.489 1.399s.163 1.01.49 1.415c.336.393.802.702 1.398.927.595.214 1.28.32 2.056.32.775 0 1.455-.106 2.04-.32.595-.225 1.061-.534 1.398-.927.337-.404.506-.876.506-1.415a2.08 2.08 0 0 0-.506-1.4c-.337-.404-.803-.713-1.399-.926-.584-.214-1.264-.32-2.039-.32ZM81.978 91.672h1.753v15.405h-1.753V91.672Zm1.197 6.203h2.73v1.466h-2.73v-1.466Zm-8.663-4.568h1.635c0 .989-.045 1.95-.135 2.882-.09.922-.258 1.815-.506 2.68a12.43 12.43 0 0 1-1.028 2.511c-.438.809-1 1.59-1.685 2.343l-1.399-.995a11.383 11.383 0 0 0 1.534-2.039c.404-.696.719-1.421.944-2.174.236-.764.398-1.562.488-2.393.101-.832.152-1.708.152-2.63v-.185Zm-2.528 0h3.202v1.433h-3.202v-1.433Zm6.741 0h1.652c0 1.011-.04 2.017-.118 3.017-.079 1-.23 1.989-.455 2.966a14.15 14.15 0 0 1-.978 2.815c-.426.91-.983 1.781-1.668 2.612l-1.399-.961a11.493 11.493 0 0 0 1.5-2.325c.393-.809.697-1.64.91-2.495.214-.854.36-1.736.438-2.646.08-.91.118-1.848.118-2.814v-.169Zm-2.056 0h2.781v1.433h-2.78v-1.433ZM66.34 91.656h1.753v8.41H66.34v-8.41Zm1.045 3.505h2.899v1.466h-2.9v-1.466Zm-9.236 5.612h9.944v3.658h-8.174v1.651h-1.736v-2.899h8.174v-1.095h-8.208v-1.315Zm.034 4.854h10.415v1.315H58.183v-1.315Zm-2.09-12.674h9.084v1.349h-9.084v-1.349Zm4.55 1.888c1.124 0 2.023.23 2.697.69.685.45 1.028 1.068 1.028 1.855 0 .764-.343 1.37-1.028 1.82-.674.45-1.573.674-2.697.674-1.135 0-2.045-.224-2.73-.674-.674-.45-1.011-1.056-1.011-1.82 0-.787.337-1.405 1.011-1.854.685-.46 1.595-.691 2.73-.691Zm0 1.28c-.629 0-1.129.113-1.5.338-.37.213-.556.517-.556.91 0 .404.185.713.556.927.371.213.871.32 1.5.32.618 0 1.107-.107 1.466-.32.371-.214.557-.523.557-.927 0-.393-.186-.697-.556-.91-.36-.225-.849-.337-1.467-.337Zm-.893-4.583h1.77v2.36h-1.77v-2.36ZM40.571 100.066h13.955v1.415H40.571v-1.415Zm1.736-8.04h10.466v3.927h-8.696v1.905H42.34v-3.169h8.68v-1.297h-8.714v-1.366Zm.034 5.276h10.736v1.365H42.34v-1.365Zm4.315.69h1.77v2.798h-1.77v-2.797Zm-4.551 4.517h10.753v4.483h-1.77v-3.05h-8.983v-1.433ZM36.022 91.672h1.77v15.405h-1.77V91.672Zm-4.534 1.635h1.753c0 1.146-.123 2.242-.37 3.287a10.552 10.552 0 0 1-1.214 2.983c-.55.932-1.281 1.797-2.191 2.595-.899.798-2.011 1.517-3.337 2.157l-.944-1.398c1.494-.719 2.702-1.54 3.624-2.461.92-.921 1.595-1.95 2.022-3.084.438-1.146.657-2.405.657-3.775v-.304Zm-5.544 0h6.337v1.416h-6.337v-1.416ZM117.119 68.862c1.731 0 3.073.23 4.028.691.967.45 1.45 1.101 1.45 1.955 0 .854-.483 1.511-1.45 1.972-.955.46-2.297.691-4.028.691-1.73 0-3.078-.23-4.045-.69-.966-.462-1.449-1.119-1.449-1.973 0-.854.483-1.505 1.449-1.955.967-.46 2.315-.69 4.045-.69Zm-.017 1.315c-.786 0-1.455.05-2.005.152-.539.1-.95.252-1.23.455-.27.19-.405.432-.405.724 0 .293.135.54.405.742.28.202.691.354 1.23.455.55.101 1.219.152 2.005.152.809 0 1.484-.05 2.023-.152.539-.101.949-.253 1.23-.455s.422-.45.422-.742-.141-.533-.422-.724c-.281-.203-.691-.354-1.23-.455-.539-.101-1.214-.152-2.023-.152Zm-6.943 4.887h13.921v1.4h-13.921v-1.4Zm1.634 2.512h10.534v3.69h-8.764v1.635h-1.736V80.02h8.764v-1.112h-8.798v-1.331Zm.034 4.955h10.938v1.348h-10.938V82.53ZM102.542 71.171h3.876v1.433h-3.876V71.17Zm3.101-2.545h1.77v7.888h-1.77v-7.888Zm-8.258 8.613h10.028v3.893h-8.258v2.157h-1.736v-3.455h8.258v-1.213h-8.292v-1.382Zm.034 5.207h10.516v1.383H97.419v-1.382Zm.927-13.33h1.449v1.28c0 .955-.169 1.848-.506 2.68a6.12 6.12 0 0 1-1.466 2.14c-.63.607-1.399 1.062-2.309 1.365l-.91-1.382c.798-.27 1.478-.646 2.04-1.129a4.736 4.736 0 0 0 1.263-1.668c.293-.63.439-1.298.439-2.006v-1.28Zm.337 0h1.432v1.28c0 .483.079.955.236 1.416.157.45.393.876.708 1.28.315.394.697.748 1.146 1.063.449.303.961.544 1.534.724l-.91 1.382c-.877-.303-1.624-.741-2.242-1.314a5.954 5.954 0 0 1-1.416-2.04 6.494 6.494 0 0 1-.488-2.51v-1.282ZM79.15 80.66h13.955v1.449H79.15v-1.45Zm6.034-3.607h1.753v4.028h-1.753v-4.028Zm-.067-7.483h1.55v1.163c0 .651-.107 1.28-.32 1.887a5.849 5.849 0 0 1-.893 1.669 7.302 7.302 0 0 1-1.365 1.399 8.568 8.568 0 0 1-1.753 1.061 8.571 8.571 0 0 1-1.989.64l-.742-1.482a7.69 7.69 0 0 0 3.253-1.365c.46-.337.86-.708 1.197-1.113.337-.415.595-.848.775-1.297.191-.461.287-.927.287-1.4V69.57Zm.337 0h1.533v1.163c0 .472.096.938.287 1.399.19.46.455.893.792 1.297.337.405.736.781 1.197 1.13.46.337.966.623 1.516.859.551.225 1.135.388 1.753.489l-.758 1.483a8.882 8.882 0 0 1-3.742-1.685 7.748 7.748 0 0 1-1.382-1.4 6.755 6.755 0 0 1-.893-1.685 5.93 5.93 0 0 1-.303-1.887V69.57ZM70.766 68.61h1.77v15.437h-1.77V68.61Zm-6.421 1.129c.764 0 1.444.224 2.039.674.607.45 1.079 1.078 1.416 1.887.337.81.505 1.764.505 2.865 0 1.113-.168 2.08-.505 2.9-.337.808-.81 1.438-1.416 1.887a3.352 3.352 0 0 1-2.04.657c-.763 0-1.449-.219-2.055-.657-.596-.45-1.068-1.079-1.416-1.888-.337-.82-.506-1.786-.506-2.898 0-1.102.169-2.057.506-2.866.348-.809.82-1.438 1.416-1.887a3.368 3.368 0 0 1 2.056-.674Zm0 1.6c-.45 0-.849.152-1.197.456-.337.303-.601.741-.792 1.314-.191.573-.287 1.259-.287 2.056 0 .81.096 1.5.287 2.073.19.573.455 1.017.792 1.332a1.77 1.77 0 0 0 1.197.455c.45 0 .842-.152 1.18-.455.337-.315.6-.758.791-1.331.191-.574.287-1.265.287-2.074 0-.797-.096-1.483-.286-2.056-.191-.573-.455-1.01-.793-1.314a1.708 1.708 0 0 0-1.18-.455ZM42.324 69.368h9.843V70.8h-9.843v-1.432Zm-1.753 5.612h13.955v1.432H40.571V74.98Zm10.483-5.612h1.736v1.18c0 .662-.022 1.381-.067 2.157-.034.764-.169 1.663-.405 2.696l-1.752-.05c.247-1.023.387-1.916.42-2.68a36.37 36.37 0 0 0 .068-2.124v-1.18Zm-8.797 8.915H52.79v5.545H42.257v-5.545Zm8.814 1.4h-7.095v2.746h7.095v-2.747ZM28.977 70.919h1.416v2.157c0 .854-.1 1.69-.303 2.511a9.617 9.617 0 0 1-.893 2.292 8.2 8.2 0 0 1-1.382 1.905c-.54.55-1.135.988-1.787 1.314L25 79.7a5.916 5.916 0 0 0 1.618-1.129 7.291 7.291 0 0 0 1.264-1.601 8.594 8.594 0 0 0 .809-1.904 7.154 7.154 0 0 0 .287-1.99V70.92Zm.371 0h1.416v2.157c0 .64.096 1.275.287 1.904.19.63.46 1.225.808 1.787a6.981 6.981 0 0 0 1.248 1.5 5.797 5.797 0 0 0 1.634 1.045l-.977 1.398a6.42 6.42 0 0 1-1.82-1.23 8.13 8.13 0 0 1-1.4-1.786 9.853 9.853 0 0 1-.892-2.191 9.708 9.708 0 0 1-.304-2.427v-2.157Zm-3.792-.776h8.63v1.467h-8.63v-1.467Zm10.416-1.517h1.77v15.405h-1.77V68.626Z"/><path fill="#3179FF" d="M145.372 66.221 164 71.987v27.942l-18.628-5.766V66.22Z"/><path fill="#fff" d="m142.711 68.439 19.515 5.766v27.941l-19.515-5.765V68.439Z"/><path fill="#fff" d="m143.77 66.567 19.455 5.963-.283 27.94-19.456-5.963.284-27.94Z"/><path fill="#3179FF" d="M145.619 67.108c-1.068.059-2.464 1.094-2.464 3.327h-.887c0-2.646 1.708-4.124 3.301-4.213l.05.886Z"/><path fill="#000" d="M145.163 66.443c-1.2.066-2.674 1.212-2.674 3.548h-.443c0-2.542 1.63-3.91 3.092-3.991l.025.443Z"/><path fill="#3179FF" d="m142.268 70.213 18.627 5.766v27.941l-18.627-5.766V70.213Z"/><path fill="#000" d="M142.489 69.991v27.055h-.443V69.99h.443ZM160.899 75.816l-.004.168c-.074 3.03-.162 7.575-.188 11.361-.013 1.894-.01 3.596.018 4.824.014.614.034 1.106.062 1.443a3.231 3.231 0 0 0 .054.414l.004.014a.03.03 0 0 0-.004-.01.2.2 0 0 0-.167-.09v.445a.247.247 0 0 1-.182-.083.336.336 0 0 1-.054-.086.792.792 0 0 1-.042-.147 4.028 4.028 0 0 1-.052-.42c-.028-.35-.048-.853-.062-1.47a173.05 173.05 0 0 1-.019-4.837c.026-3.72.112-8.171.185-11.2l-11.371-3.5.13-.423 11.692 3.597ZM163.845 71.776l-.134.423-17.519-5.544.134-.423 17.519 5.544ZM163.845 104.374l-.134.423-17.519-5.544.134-.423 17.519 5.544Z"/><path fill="#FF592F" d="m138.719 73.761 18.628 5.766v27.942l-18.628-5.766V73.761Z"/><path fill="#fff" d="m136.058 75.978 19.515 5.766v27.942l-19.515-5.766V75.978Z"/><path fill="#fff" d="m137.117 74.106 19.455 5.964-.283 27.94-19.455-5.963.283-27.94Z"/><path fill="#FF592F" d="M138.966 74.647c-1.068.06-2.464 1.095-2.464 3.327h-.887c0-2.646 1.708-4.124 3.301-4.212l.05.885Z"/><path fill="#000" d="M138.51 73.983c-1.199.066-2.673 1.212-2.673 3.548h-.443c0-2.542 1.63-3.91 3.092-3.991l.024.443Z"/><path fill="#FF592F" d="m135.615 77.753 18.627 5.766v27.941l-18.627-5.765V77.753Z"/><path fill="#000" d="m154.247 83.356-.004.168a697.95 697.95 0 0 0-.188 11.361c-.013 1.894-.011 3.596.017 4.824.014.614.035 1.106.062 1.443.014.169.029.293.044.37l.011.044.004.014-.005-.009a.223.223 0 0 0-.018-.025.2.2 0 0 0-.149-.065v.444a.243.243 0 0 1-.181-.083.301.301 0 0 1-.054-.086.73.73 0 0 1-.042-.147 3.809 3.809 0 0 1-.052-.421c-.029-.35-.049-.852-.063-1.469a177.576 177.576 0 0 1-.018-4.836c.025-3.721.111-8.172.185-11.202l-11.372-3.499.131-.423 11.692 3.597ZM157.192 79.316l-.133.422-17.519-5.544.133-.422 17.519 5.543ZM135.837 77.531v27.055h-.443V77.531h.443ZM154.975 111.471l-.134.422-17.519-5.544.134-.422 17.519 5.544Z"/><g clip-path="url(#b)"><path fill="#FFEAF2" d="M50.744 120.104h127.818v176.215H50.744V120.104Z"/><path fill="#FF9797" d="M83.008 228.066h52.12v68.253h-52.12v-68.253Z"/><path fill="#624040" d="M146.297 181.531c0 26.386-16.668 47.776-37.229 47.776-20.56 0-37.228-21.39-37.228-47.776 0-26.387 16.668-47.777 37.228-47.777 20.561 0 37.229 21.39 37.229 47.777Z"/><path fill="#FFC779" d="M138.851 181.531c0 20.903-13.334 37.849-29.782 37.849-16.45 0-29.783-16.946-29.783-37.849 0-20.904 13.334-37.849 29.783-37.849 16.448 0 29.782 16.945 29.782 37.849Z"/><path fill="#624040" d="m94.177 163.537 3.376-16.261v-4.065l16.033-3.253 1.687 23.579H94.177Z"/><path fill="#242424" d="M101.623 179.049c0 4.454-2.778 8.066-6.205 8.066s-6.205-3.612-6.205-8.066c0-4.455 2.778-8.067 6.205-8.067s6.205 3.612 6.205 8.067ZM122.719 179.049c0 4.454-3.056 8.066-6.825 8.066-3.77 0-6.826-3.612-6.826-8.066 0-4.455 3.056-8.067 6.826-8.067 3.769 0 6.825 3.612 6.825 8.067Z"/><path fill="#242424" d="M91.086 167.724c.272 2.403 1.14 3.526 1.874 4.058.78.567 1.639.635 2.117.554l.535 3.174c-1.214.205-2.973.015-4.542-1.124-1.616-1.173-2.83-3.203-3.18-6.3l3.196-.362ZM111.496 167.724c.272 2.403 1.141 3.526 1.874 4.058.781.567 1.639.635 2.117.554l.536 3.174c-1.215.205-2.974.015-4.543-1.124-1.616-1.173-2.829-3.203-3.18-6.3l3.196-.362ZM117.755 199.693c-2.219 3.637-5.389 5.313-8.49 5.841-3.02.514-5.879-.07-7.642-.787l1.364-2.681c1.257.511 3.423.957 5.662.576 2.156-.368 4.478-1.515 6.213-4.358l2.893 1.409Z"/><path fill="#FFA1A4" d="M99.14 196.422c0 4.455-3.055 8.066-6.825 8.066-3.769 0-6.825-3.611-6.825-8.066s3.056-8.066 6.826-8.066c3.769 0 6.825 3.611 6.825 8.066ZM132.647 196.422c0 4.455-3.056 8.066-6.826 8.066-3.769 0-6.825-3.611-6.825-8.066s3.056-8.066 6.825-8.066c3.77 0 6.826 3.611 6.826 8.066Z"/><path fill="#FFC779" d="M101.623 211.934h11.168v16.132h-11.168v-16.132Z"/><path fill="#FFC779" d="M87.972 224.344h38.47v3.309c0 9.138-7.177 16.546-16.029 16.546h-6.412c-8.852 0-16.029-7.408-16.029-16.546v-3.309ZM68.117 245.439H84.25v57.75c0 4.43-3.612 8.021-8.067 8.021M131.406 245.439h14.891v57.75c0 4.43-3.333 8.021-7.446 8.021"/><path fill="#56A700" d="M190.691 115.014c-5.248 6.61-12.04 9.954-15.171 7.468-3.132-2.486-1.416-9.86 3.832-16.47 5.248-6.61 12.041-9.953 15.172-7.468 3.131 2.486 1.415 9.86-3.833 16.47ZM150.619 168.309c-5.231 6.623-12.015 9.984-15.153 7.506-3.137-2.477-1.44-9.856 3.791-16.479 5.231-6.624 12.015-9.985 15.152-7.507 3.138 2.478 1.441 9.856-3.79 16.48Z"/><path fill="#56A700" d="M138.43 161.2c-8.411-.691-14.965-4.481-14.638-8.465.327-3.985 7.412-6.655 15.823-5.964 8.412.691 14.966 4.481 14.639 8.466-.328 3.984-7.412 6.654-15.824 5.963ZM194.612 121.854c-7.596 3.679-15.167 3.744-16.909.146-1.743-3.598 3.003-9.497 10.599-13.176 7.596-3.679 15.166-3.744 16.909-.146 1.742 3.598-3.003 9.497-10.599 13.176Z"/><path fill="#FF7373" d="M170.285 112.749c3.625-3.116 9.282-1.324 10.453 3.311a6.454 6.454 0 0 0 6.327 4.868c4.78-.056 7.962 4.953 5.879 9.256a6.455 6.455 0 0 0 1.717 7.796c3.699 3.029 2.916 8.911-1.445 10.869a6.456 6.456 0 0 0-3.696 7.076c.886 4.698-3.494 8.701-8.094 7.397a6.456 6.456 0 0 0-7.379 3.045c-2.341 4.169-8.27 4.42-10.955.464a6.457 6.457 0 0 0-7.611-2.411c-4.472 1.689-9.175-1.93-8.69-6.686a6.456 6.456 0 0 0-4.28-6.739c-4.512-1.581-5.788-7.376-2.359-10.707a6.458 6.458 0 0 0 1.053-7.914c-2.44-4.112.307-9.372 5.075-9.719a6.455 6.455 0 0 0 5.893-5.386c.774-4.717 6.26-6.981 10.136-4.182a6.455 6.455 0 0 0 7.976-.338Z"/><path fill="#FFA9A9" d="M161.967 111.995c2.494-4.08 8.358-4.08 10.852 0l.151.248c1.552 2.539 4.623 3.67 7.425 2.734l.273-.091c4.502-1.503 8.994 2.312 8.313 7.06l-.042.288c-.423 2.955 1.21 5.819 3.951 6.925l.267.108c4.403 1.777 5.422 7.621 1.885 10.815l-.215.194c-2.202 1.988-2.769 5.245-1.372 7.875l.136.256c2.244 4.226-.687 9.366-5.426 9.512l-.287.008c-2.949.091-5.452 2.217-6.053 5.14l-.058.285c-.965 4.698-6.475 6.727-10.198 3.757l-.226-.181a6.32 6.32 0 0 0-7.901 0l-.226.181c-3.722 2.97-9.232.941-10.197-3.757l-.059-.285c-.6-2.923-3.103-5.049-6.052-5.14l-.288-.008c-4.738-.146-7.67-5.286-5.426-9.512l.137-.256c1.396-2.63.829-5.887-1.373-7.875l-.214-.194c-3.537-3.194-2.519-9.038 1.884-10.815l.267-.108c2.741-1.106 4.375-3.97 3.951-6.925l-.041-.288c-.681-4.748 3.811-8.563 8.313-7.06l.273.091c2.802.936 5.872-.195 7.425-2.734l.151-.248Z"/><path fill="#FF5454" d="M169.303 122.104c2.38-2.046 6.081-.873 6.85 2.17a4.224 4.224 0 0 0 4.146 3.19c3.138-.037 5.22 3.24 3.852 6.065a4.225 4.225 0 0 0 1.126 5.109c2.428 1.989 1.916 5.837-.947 7.122a4.225 4.225 0 0 0-2.422 4.638c.582 3.084-2.284 5.703-5.304 4.847a4.225 4.225 0 0 0-4.836 1.995c-1.537 2.737-5.416 2.901-7.179.304a4.224 4.224 0 0 0-4.987-1.579c-2.936 1.108-6.013-1.26-5.694-4.382a4.226 4.226 0 0 0-2.805-4.416c-2.962-1.038-3.798-4.83-1.546-7.017a4.226 4.226 0 0 0 .69-5.186c-1.602-2.699.195-6.14 3.326-6.368a4.224 4.224 0 0 0 3.861-3.53c.509-3.097 4.098-4.578 6.642-2.74a4.225 4.225 0 0 0 5.227-.222Z"/><path fill="#FFD6D6" d="M168.521 129.57c1.381-1.188 3.528-.507 3.974 1.259a2.453 2.453 0 0 0 2.406 1.851c1.821-.022 3.029 1.88 2.236 3.519a2.452 2.452 0 0 0 .653 2.965c1.409 1.154 1.112 3.387-.55 4.133a2.45 2.45 0 0 0-1.405 2.69c.337 1.79-1.326 3.31-3.078 2.813a2.452 2.452 0 0 0-2.806 1.158c-.892 1.588-3.143 1.683-4.166.176a2.449 2.449 0 0 0-2.893-.916c-1.704.643-3.49-.731-3.305-2.543a2.451 2.451 0 0 0-1.627-2.562c-1.719-.603-2.204-2.803-.897-4.072.813-.79.978-2.034.4-3.009-.93-1.566.113-3.563 1.93-3.696a2.452 2.452 0 0 0 2.241-2.048c.295-1.797 2.377-2.656 3.854-1.59a2.45 2.45 0 0 0 3.033-.128Z"/><path fill="#56A700" d="M163.611 197.444c3.246-5.707 8.07-9.088 10.774-7.55 2.703 1.538 2.263 7.412-.984 13.119-3.246 5.708-8.07 9.088-10.773 7.551-2.704-1.538-2.264-7.412.983-13.12Z"/><path fill="#56A700" d="M159.781 192.653c5.402-3.734 11.214-4.687 12.983-2.128 1.769 2.558-1.176 7.659-6.578 11.393-5.401 3.734-11.214 4.687-12.982 2.128-1.769-2.558 1.176-7.659 6.577-11.393Z"/><path fill="#FF7373" d="M179.571 196.753c-2.42 2.833-6.976 2.131-8.431-1.3a5.015 5.015 0 0 0-5.445-2.988c-3.675.615-6.714-2.851-5.623-6.415a5.015 5.015 0 0 0-2.25-5.789c-3.211-1.891-3.31-6.5-.185-8.528a5.016 5.016 0 0 0 1.998-5.881c-1.244-3.513 1.642-7.107 5.341-6.652a5.015 5.015 0 0 0 5.31-3.221c1.306-3.491 5.827-4.389 8.367-1.663a5.016 5.016 0 0 0 6.139.946c3.243-1.834 7.284.383 7.478 4.105a5.016 5.016 0 0 0 4.094 4.67c3.664.68 5.334 4.976 3.09 7.951a5.017 5.017 0 0 0 .135 6.21c2.37 2.876.887 7.24-2.744 8.077a5.015 5.015 0 0 0-3.888 4.843c-.033 3.727-3.974 6.117-7.294 4.424a5.016 5.016 0 0 0-6.092 1.211Z"/><path fill="#FFA9A9" d="M186.05 195.782c-1.476 3.49-6.108 4.208-8.571 1.329a5.1 5.1 0 0 0-6.196-1.225c-3.374 1.725-7.384-.702-7.421-4.491a5.099 5.099 0 0 0-3.959-4.921c-3.693-.848-5.204-5.285-2.797-8.211a5.102 5.102 0 0 0 .131-6.315c-2.285-3.023-.591-7.393 3.134-8.088a5.098 5.098 0 0 0 4.159-4.753c.194-3.784 4.301-6.043 7.6-4.18a5.102 5.102 0 0 0 6.242-.968c2.58-2.775 7.178-1.865 8.509 1.682a5.1 5.1 0 0 0 5.403 3.271c3.76-.467 6.698 3.185 5.437 6.759a5.1 5.1 0 0 0 2.037 5.978c3.18 2.06 3.083 6.746-.18 8.672a5.101 5.101 0 0 0-2.282 5.889c1.112 3.622-1.974 7.15-5.712 6.528a5.1 5.1 0 0 0-5.534 3.044Z"/><path fill="#FF5454" d="M179.209 189.443c-1.586 1.857-4.571 1.397-5.525-.851a3.287 3.287 0 0 0-3.567-1.959c-2.409.403-4.4-1.868-3.685-4.203a3.288 3.288 0 0 0-1.475-3.794c-2.104-1.239-2.169-4.259-.121-5.588a3.286 3.286 0 0 0 1.309-3.854c-.815-2.302 1.077-4.658 3.5-4.359a3.287 3.287 0 0 0 3.48-2.111c.856-2.287 3.818-2.876 5.483-1.089a3.287 3.287 0 0 0 4.023.619c2.125-1.202 4.773.252 4.9 2.69a3.287 3.287 0 0 0 2.683 3.061c2.401.445 3.495 3.26 2.025 5.21a3.286 3.286 0 0 0 .088 4.069c1.553 1.885.582 4.745-1.798 5.293a3.287 3.287 0 0 0-2.548 3.174c-.022 2.442-2.604 4.008-4.78 2.899a3.288 3.288 0 0 0-3.992.793Z"/><path fill="#FFD6D6" d="M178.922 183.611a1.908 1.908 0 0 1-3.206-.494 1.908 1.908 0 0 0-2.07-1.137 1.907 1.907 0 0 1-2.139-2.439 1.907 1.907 0 0 0-.855-2.201 1.907 1.907 0 0 1-.07-3.243 1.907 1.907 0 0 0 .759-2.236 1.908 1.908 0 0 1 2.031-2.53 1.906 1.906 0 0 0 2.019-1.224 1.908 1.908 0 0 1 3.182-.633 1.906 1.906 0 0 0 2.334.36c1.233-.698 2.77.146 2.844 1.561a1.906 1.906 0 0 0 1.556 1.776 1.907 1.907 0 0 1 1.176 3.023 1.907 1.907 0 0 0 .051 2.361 1.908 1.908 0 0 1-1.044 3.072 1.906 1.906 0 0 0-1.478 1.841 1.908 1.908 0 0 1-2.774 1.683 1.906 1.906 0 0 0-2.316.46Z"/><path fill="#56A700" d="M155.892 151.693c3.232-5.716 8.047-9.108 10.754-7.577 2.708 1.531 2.283 7.405-.949 13.121-3.232 5.716-8.047 9.109-10.755 7.578-2.707-1.531-2.282-7.406.95-13.122Z"/><path fill="#56A700" d="M166.11 155.705c6.55-.472 12.04 1.661 12.264 4.763.223 3.103-4.905 6-11.455 6.472-6.549.472-12.04-1.661-12.263-4.763-.223-3.103 4.905-6 11.454-6.472Z"/><path fill="#FF7373" d="M147.398 196.753c-2.421 2.833-6.976 2.131-8.431-1.3a5.016 5.016 0 0 0-5.445-2.988c-3.676.615-6.714-2.851-5.623-6.415a5.017 5.017 0 0 0-2.25-5.789c-3.211-1.891-3.311-6.5-.185-8.528a5.016 5.016 0 0 0 1.998-5.881c-1.244-3.513 1.642-7.107 5.341-6.652a5.015 5.015 0 0 0 5.31-3.221c1.305-3.491 5.826-4.389 8.367-1.663a5.016 5.016 0 0 0 6.139.946c3.243-1.834 7.284.383 7.478 4.105a5.014 5.014 0 0 0 4.094 4.67c3.664.68 5.334 4.976 3.09 7.951a5.017 5.017 0 0 0 .134 6.21c2.37 2.876.888 7.24-2.743 8.077a5.017 5.017 0 0 0-3.889 4.843c-.033 3.727-3.974 6.117-7.294 4.424a5.015 5.015 0 0 0-6.091 1.211Z"/><path fill="#FFA9A9" d="M153.877 195.782c-1.477 3.49-6.108 4.208-8.572 1.329a5.1 5.1 0 0 0-6.196-1.225c-3.374 1.725-7.384-.702-7.421-4.491a5.099 5.099 0 0 0-3.958-4.921c-3.694-.848-5.205-5.285-2.798-8.211a5.101 5.101 0 0 0 .131-6.315c-2.284-3.023-.591-7.393 3.135-8.088a5.098 5.098 0 0 0 4.158-4.753c.194-3.784 4.301-6.043 7.601-4.18a5.1 5.1 0 0 0 6.241-.968c2.581-2.775 7.179-1.865 8.509 1.682a5.1 5.1 0 0 0 5.403 3.271c3.761-.467 6.699 3.185 5.437 6.759a5.1 5.1 0 0 0 2.037 5.978c3.181 2.06 3.084 6.746-.179 8.672a5.1 5.1 0 0 0-2.283 5.889c1.113 3.622-1.974 7.15-5.712 6.528a5.099 5.099 0 0 0-5.533 3.044Z"/><path fill="#FF5454" d="M147.036 189.443c-1.586 1.857-4.571 1.397-5.525-.851a3.288 3.288 0 0 0-3.568-1.959c-2.408.403-4.399-1.868-3.685-4.203a3.288 3.288 0 0 0-1.474-3.794c-2.104-1.239-2.169-4.259-.121-5.588a3.288 3.288 0 0 0 1.309-3.854c-.815-2.302 1.076-4.658 3.5-4.359a3.288 3.288 0 0 0 3.48-2.111c.855-2.287 3.818-2.876 5.483-1.089a3.286 3.286 0 0 0 4.022.619c2.126-1.202 4.774.252 4.901 2.69a3.286 3.286 0 0 0 2.683 3.061c2.401.445 3.495 3.26 2.025 5.21a3.286 3.286 0 0 0 .088 4.069c1.553 1.885.581 4.745-1.798 5.293a3.287 3.287 0 0 0-2.548 3.174c-.022 2.442-2.605 4.008-4.78 2.899a3.288 3.288 0 0 0-3.992.793Z"/><path fill="#FFD6D6" d="M146.749 183.611a1.908 1.908 0 0 1-3.206-.494 1.907 1.907 0 0 0-2.07-1.137 1.907 1.907 0 0 1-2.139-2.439 1.905 1.905 0 0 0-.855-2.201 1.907 1.907 0 0 1-.07-3.243 1.906 1.906 0 0 0 .759-2.236 1.908 1.908 0 0 1 2.031-2.53 1.907 1.907 0 0 0 2.02-1.224 1.907 1.907 0 0 1 3.181-.633 1.906 1.906 0 0 0 2.334.36 1.907 1.907 0 0 1 2.844 1.561 1.907 1.907 0 0 0 1.557 1.776 1.907 1.907 0 0 1 1.175 3.023 1.907 1.907 0 0 0 .051 2.361 1.908 1.908 0 0 1-1.044 3.072c-.859.198-1.47.96-1.478 1.841a1.908 1.908 0 0 1-2.774 1.683 1.906 1.906 0 0 0-2.316.46Z"/><path fill="#FF9797" d="M150.02 235.512c0 8.224-6.389 14.891-14.271 14.891-7.882 0-14.271-6.667-14.271-14.891s6.389-14.891 14.271-14.891c7.882 0 14.271 6.667 14.271 14.891ZM94.177 235.512c0 8.224-6.667 14.891-14.892 14.891-8.224 0-14.891-6.667-14.891-14.891s6.667-14.891 14.891-14.891c8.225 0 14.892 6.667 14.892 14.891Z"/><path fill="#56A700" d="M86.12 294.851c-5.275-3.205-8.32-7.828-6.802-10.326 1.518-2.499 7.024-1.927 12.299 1.277 5.275 3.205 8.32 7.828 6.803 10.327-1.518 2.498-7.025 1.926-12.3-1.278ZM43.797 270.639c-5.283-3.191-8.34-7.806-6.83-10.309 1.512-2.502 7.02-1.944 12.303 1.247 5.283 3.191 8.34 7.806 6.83 10.309-1.512 2.502-7.02 1.944-12.303-1.247Z"/><path fill="#56A700" d="M47.842 261.148c-.266-6.166 1.885-11.267 4.806-11.394 2.921-.126 5.505 4.771 5.771 10.937.266 6.166-1.885 11.267-4.806 11.393-2.921.126-5.505-4.77-5.771-10.936ZM81.515 298.32c-3.362-5.176-4.1-10.663-1.649-12.255 2.452-1.593 7.165 1.311 10.527 6.487 3.362 5.176 4.1 10.662 1.649 12.255-2.452 1.593-7.165-1.312-10.527-6.487Z"/><path fill="#FF7373" d="M85.902 279.838c2.597 2.351 1.814 6.612-1.448 7.886a4.714 4.714 0 0 0-2.955 5.035c.479 3.47-2.86 6.231-6.178 5.11a4.713 4.713 0 0 0-5.5 1.958c-1.864 2.965-6.196 2.934-8.018-.057a4.715 4.715 0 0 0-5.471-2.036c-3.334 1.074-6.633-1.735-6.106-5.197a4.715 4.715 0 0 0-2.883-5.077c-3.244-1.32-3.966-5.592-1.336-7.905a4.715 4.715 0 0 0 1.055-5.742c-1.636-3.097.557-6.834 4.058-6.915a4.715 4.715 0 0 0 4.499-3.721c.737-3.424 4.819-4.877 7.553-2.688a4.715 4.715 0 0 0 5.838.041c2.766-2.149 6.826-.638 7.515 2.796a4.715 4.715 0 0 0 4.445 3.784c3.5.131 5.64 3.899 3.96 6.972a4.714 4.714 0 0 0 .972 5.756Z"/><path fill="#FFA9A9" d="M85.165 273.724c3.238 1.481 3.788 5.852 1.017 8.089a4.794 4.794 0 0 0-1.318 5.788c1.529 3.217-.86 6.919-4.42 6.851a4.794 4.794 0 0 0-4.731 3.586c-.896 3.447-5.105 4.748-7.79 2.407a4.793 4.793 0 0 0-5.929-.293c-2.902 2.064-6.962.355-7.514-3.164a4.792 4.792 0 0 0-4.353-4.035c-3.55-.284-5.562-4.204-3.723-7.254a4.794 4.794 0 0 0-.74-5.89c-2.538-2.499-1.56-6.795 1.81-7.949a4.793 4.793 0 0 0 3.218-4.988c-.336-3.546 3.174-6.207 6.497-4.926a4.793 4.793 0 0 0 5.672-1.752c2.021-2.932 6.421-2.715 8.143.403a4.793 4.793 0 0 0 5.471 2.303c3.433-.947 6.664 2.048 5.979 5.543a4.794 4.794 0 0 0 2.71 5.281Z"/><path fill="#FF5454" d="M79.025 279.98c1.701 1.54 1.189 4.333-.95 5.168a3.088 3.088 0 0 0-1.936 3.299c.314 2.274-1.874 4.083-4.048 3.349a3.088 3.088 0 0 0-3.604 1.282c-1.222 1.944-4.06 1.923-5.254-.037a3.09 3.09 0 0 0-3.586-1.334c-2.185.704-4.346-1.137-4-3.406a3.088 3.088 0 0 0-1.89-3.326c-2.126-.866-2.599-3.665-.875-5.181a3.09 3.09 0 0 0 .69-3.763c-1.072-2.029.365-4.477 2.66-4.531a3.09 3.09 0 0 0 2.948-2.438c.483-2.244 3.158-3.196 4.95-1.762a3.088 3.088 0 0 0 3.825.027c1.813-1.408 4.474-.418 4.925 1.832a3.09 3.09 0 0 0 2.913 2.48c2.293.086 3.695 2.555 2.594 4.569a3.09 3.09 0 0 0 .638 3.772Z"/><path fill="#FFD6D6" d="M73.537 280.093c.988.894.69 2.514-.55 2.999a1.792 1.792 0 0 0-1.124 1.914 1.792 1.792 0 0 1-2.35 1.943 1.793 1.793 0 0 0-2.09.745 1.793 1.793 0 0 1-3.05-.022 1.793 1.793 0 0 0-2.08-.774 1.793 1.793 0 0 1-2.321-1.976 1.793 1.793 0 0 0-1.096-1.931 1.792 1.792 0 0 1-.508-3.006c.622-.547.788-1.45.4-2.183a1.792 1.792 0 0 1 1.544-2.629 1.794 1.794 0 0 0 1.71-1.415 1.793 1.793 0 0 1 2.872-1.023 1.792 1.792 0 0 0 2.22.016 1.792 1.792 0 0 1 2.858 1.063 1.792 1.792 0 0 0 1.69 1.439 1.793 1.793 0 0 1 1.506 2.651 1.793 1.793 0 0 0 .37 2.189Z"/><path fill="#fff" d="M101.623 244.199h9.927v52.12h-9.927v-52.12Z"/><path fill="#FF7B7B" d="m112.126 251.404-.784 1.404-10.128-5.657.785-1.405 10.127 5.658ZM112.126 261.167l-.784 1.404-10.128-5.657.785-1.404 10.127 5.657ZM112.126 270.929l-.784 1.404-10.128-5.657.785-1.404 10.127 5.657ZM112.126 280.691l-.784 1.404-10.128-5.657.785-1.404 10.127 5.657ZM112.126 290.454l-.784 1.404-10.128-5.657.785-1.404 10.127 5.657Z"/><path fill="#FF7B7B" d="m102.101 252.939-.824-1.381 9.963-5.942.824 1.381-9.963 5.942ZM102.101 262.702l-.824-1.382 9.963-5.942.824 1.382-9.963 5.942ZM102.101 272.464l-.824-1.382 9.963-5.941.824 1.381-9.963 5.942ZM102.101 282.227l-.824-1.382 9.963-5.942.824 1.382-9.963 5.942ZM102.101 291.989l-.824-1.382 9.963-5.941.824 1.381-9.963 5.942Z"/></g><path fill="#242424" d="M60.72 303.75h.74v7.05h-.74v-7.05Zm.42 3.18h1.67v.62h-1.67v-.62Zm-5.31 5.01h5.96v.61h-5.96v-.61Zm0-1.61h.73v1.79h-.73v-1.79Zm1.1-2.16h.74v1.21h-.74v-1.21Zm-2.36 1.57-.09-.61c.533 0 1.12-.007 1.76-.02a39.978 39.978 0 0 0 1.98-.09c.673-.047 1.32-.117 1.94-.21l.06.53c-.64.113-1.297.2-1.97.26-.667.06-1.317.097-1.95.11-.627.013-1.203.023-1.73.03Zm.13-5.08h5.18v.57H54.7v-.57Zm2.59.97c.633 0 1.137.123 1.51.37.38.247.57.583.57 1.01 0 .433-.19.773-.57 1.02-.373.247-.877.37-1.51.37-.627 0-1.13-.123-1.51-.37-.38-.247-.57-.587-.57-1.02 0-.427.19-.763.57-1.01.38-.247.883-.37 1.51-.37Zm0 .53c-.42 0-.757.077-1.01.23-.247.153-.37.36-.37.62s.123.467.37.62c.253.153.59.23 1.01.23.42 0 .753-.077 1-.23.253-.153.38-.36.38-.62s-.127-.467-.38-.62c-.247-.153-.58-.23-1-.23Zm-.36-2.44h.74v1.2h-.74v-1.2Zm8.72.6h.59v1.23c0 .433-.087.867-.26 1.3a3.73 3.73 0 0 1-.72 1.17c-.307.347-.68.617-1.12.81l-.4-.57c.393-.173.73-.407 1.01-.7.286-.3.506-.627.66-.98.16-.353.24-.697.24-1.03v-1.23Zm.12 0h.59v1.23c0 .333.073.663.22.99.153.32.37.61.65.87.28.253.606.457.98.61l-.39.57a3.21 3.21 0 0 1-1.1-.73 3.405 3.405 0 0 1-.71-1.06c-.16-.4-.24-.817-.24-1.25v-1.23Zm4.81-.56h.71v5.56h-.71v-5.56Zm-1.5 2.45h1.75v.61h-1.75v-.61Zm-.44-2.28h.71v5.1h-.71v-5.1Zm-.29 5.61c.613 0 1.143.063 1.59.19.446.12.79.3 1.03.54.24.24.36.53.36.87 0 .34-.12.627-.36.86-.24.24-.584.423-1.03.55-.447.127-.977.19-1.59.19-.62 0-1.154-.063-1.6-.19-.447-.127-.79-.31-1.03-.55-.24-.233-.36-.52-.36-.86 0-.34.12-.63.36-.87s.583-.42 1.03-.54c.446-.127.98-.19 1.6-.19Zm0 .58c-.7 0-1.254.09-1.66.27-.407.18-.61.43-.61.75 0 .313.203.563.61.75.406.18.96.27 1.66.27.46 0 .856-.04 1.19-.12.34-.08.6-.197.78-.35.186-.153.28-.337.28-.55 0-.32-.204-.57-.61-.75-.4-.18-.947-.27-1.64-.27Zm5.628-1.48h6.16v.61h-6.16v-.61Zm-1.06 2.32h8.16v.62h-8.16v-.62Zm1.06-6.41h6.06v.6h-5.31v3.68h-.75v-4.28Zm.51 2.01h5.36v.6h-5.36v-.6Zm14.27-2.8h.74v5.5h-.74v-5.5Zm-1.73 2.17h1.99v.62h-1.99v-.62Zm-3.53 3.85h6v2.99h-.74v-2.38h-5.26v-.61Zm-1-1.63h.67c.506 0 .976-.003 1.41-.01.44-.013.873-.04 1.3-.08.426-.04.87-.1 1.33-.18l.06.62c-.474.073-.927.13-1.36.17-.427.04-.864.067-1.31.08-.44.013-.917.02-1.43.02h-.67v-.62Zm-.02-3.85h3.97v2.47h-3.22v1.8h-.73v-2.39h3.22v-1.27h-3.24v-.61Zm12.499 2.98h1.74v.62h-1.74v-.62Zm3.26-3.53h.71v9.01h-.71v-9.01Zm-1.78.2h.71v8.35h-.71v-8.35Zm-3.12.57c.386 0 .723.127 1.01.38.293.253.517.613.67 1.08.16.467.24 1.017.24 1.65 0 .64-.08 1.193-.24 1.66-.153.467-.377.827-.67 1.08-.287.253-.623.38-1.01.38-.38 0-.713-.127-1-.38-.287-.253-.51-.613-.67-1.08-.16-.467-.24-1.02-.24-1.66 0-.633.08-1.183.24-1.65.16-.467.383-.827.67-1.08.287-.253.62-.38 1-.38Zm0 .69c-.247 0-.463.1-.65.3-.18.2-.32.48-.42.84-.1.36-.15.787-.15 1.28 0 .487.05.913.15 1.28.1.367.24.65.42.85.187.2.403.3.65.3.253 0 .47-.1.65-.3.187-.2.33-.483.43-.85.1-.367.15-.793.15-1.28 0-.493-.05-.92-.15-1.28-.1-.36-.243-.64-.43-.84a.844.844 0 0 0-.65-.3Zm16.016-1.46h.74v9.01h-.74v-9.01Zm-4.07 2.11h.61v.83c0 .473-.067.933-.2 1.38-.127.447-.307.86-.54 1.24-.234.38-.504.717-.81 1.01a4.072 4.072 0 0 1-.99.69l-.42-.58c.326-.147.63-.35.91-.61.286-.26.536-.553.75-.88.22-.333.39-.69.51-1.07.12-.387.18-.78.18-1.18v-.83Zm.14 0h.59v.83c0 .38.063.753.19 1.12.126.367.3.71.52 1.03.22.313.473.593.76.84.286.247.596.443.93.59l-.42.57a4.07 4.07 0 0 1-1-.65 5.03 5.03 0 0 1-.82-.97 4.924 4.924 0 0 1-.55-1.19c-.134-.433-.2-.88-.2-1.34v-.83Zm-2.26-.53h4.95v.6h-4.95v-.6Zm2.12-1.42h.74v1.76h-.74v-1.76Zm13.269-.15h.75v6.59h-.75v-6.59Zm-5 8.18h6.03v.61h-6.03v-.61Zm0-2.26h.74v2.45h-.74v-2.45Zm.93-5.28c.447 0 .843.093 1.19.28.353.18.63.437.83.77.207.333.31.717.31 1.15 0 .427-.103.807-.31 1.14-.2.333-.477.597-.83.79-.347.187-.743.28-1.19.28-.44 0-.837-.093-1.19-.28a2.232 2.232 0 0 1-.84-.79 2.17 2.17 0 0 1-.3-1.14c0-.433.1-.817.3-1.15.207-.333.487-.59.84-.77.353-.187.75-.28 1.19-.28Zm0 .64a1.72 1.72 0 0 0-.83.2c-.24.133-.43.317-.57.55-.14.233-.21.503-.21.81 0 .3.07.567.21.8.14.233.33.417.57.55.247.133.523.2.83.2.307 0 .583-.067.83-.2s.437-.317.57-.55c.14-.233.21-.5.21-.8 0-.307-.07-.577-.21-.81a1.412 1.412 0 0 0-.57-.55 1.72 1.72 0 0 0-.83-.2Zm15.786-1.29h.71v9.01h-.71v-9.01Zm-1.57 3.7h1.77v.62h-1.77v-.62Zm-.48-3.49h.7v8.33h-.7v-8.33Zm-4.4.9h.74v5.19h-.74v-5.19Zm0 4.89h.56c.473 0 .97-.017 1.49-.05.526-.04 1.086-.12 1.68-.24l.08.65c-.614.12-1.187.2-1.72.24-.527.033-1.037.05-1.53.05h-.56v-.65Zm14.899-6h.74v9h-.74v-9Zm.54 3.69h1.67v.62h-1.67v-.62Zm-2.83-2.72h.72c0 .847-.14 1.66-.42 2.44-.28.773-.72 1.49-1.32 2.15-.6.66-1.383 1.23-2.35 1.71l-.42-.57c.847-.427 1.55-.923 2.11-1.49.56-.567.98-1.197 1.26-1.89.28-.7.42-1.443.42-2.23v-.12Zm-3.38 0h3.76v.62h-3.76v-.62ZM61.12 316.75h.74v9.02h-.74v-9.02Zm-3.99.71c.447 0 .84.127 1.18.38.34.253.607.617.8 1.09.193.467.29 1.017.29 1.65 0 .64-.097 1.193-.29 1.66-.193.467-.46.83-.8 1.09-.34.253-.733.38-1.18.38-.44 0-.833-.127-1.18-.38-.34-.26-.607-.623-.8-1.09-.193-.467-.29-1.02-.29-1.66 0-.633.097-1.183.29-1.65.193-.473.46-.837.8-1.09.347-.253.74-.38 1.18-.38Zm0 .66c-.307 0-.577.103-.81.31-.233.2-.417.487-.55.86-.133.367-.2.797-.2 1.29s.067.927.2 1.3.317.663.55.87c.233.207.503.31.81.31.307 0 .577-.103.81-.31.233-.207.417-.497.55-.87.133-.373.2-.807.2-1.3s-.067-.923-.2-1.29c-.133-.373-.317-.66-.55-.86a1.183 1.183 0 0 0-.81-.31Zm10.13 1.89h1.78v.62h-1.78v-.62Zm-1.63-2.4h.58v1.75c0 .467-.05.923-.15 1.37-.094.44-.234.857-.42 1.25-.187.387-.41.737-.67 1.05-.26.313-.55.567-.87.76l-.47-.55c.3-.18.573-.41.82-.69.246-.28.456-.593.63-.94a4.89 4.89 0 0 0 .55-2.25v-1.75Zm.14 0h.57v1.73c0 .36.043.72.13 1.08.093.36.22.707.38 1.04.166.327.366.627.6.9.24.267.506.487.8.66l-.43.58c-.32-.2-.607-.45-.86-.75a4.67 4.67 0 0 1-.65-1.02 6.295 6.295 0 0 1-.4-1.21 5.976 5.976 0 0 1-.14-1.28v-1.73Zm4.87-.86h.71v9.01h-.71v-9.01Zm-1.83.2h.7v8.35h-.7v-8.35Zm7.598 2.33h2.03v.6h-2.03v-.6Zm-.07 2.26h2.09v.6h-2.09v-.6Zm3.5-4.79h.71v9.01h-.71v-9.01Zm-1.8.24h.7v8.3h-.7v-8.3Zm-2 .92h.71c0 .767-.116 1.51-.35 2.23-.226.72-.59 1.39-1.09 2.01-.493.62-1.14 1.17-1.94 1.65l-.44-.53c.707-.427 1.29-.913 1.75-1.46a5.59 5.59 0 0 0 1.02-1.77c.227-.64.34-1.31.34-2.01v-.12Zm-2.73 0h3.03v.61h-3.03v-.61Zm12.47 2.37h1.74v.62h-1.74v-.62Zm3.26-3.53h.71v9.01h-.71v-9.01Zm-1.78.2h.71v8.35h-.71v-8.35Zm-3.12.57c.386 0 .723.127 1.01.38.293.253.516.613.67 1.08.16.467.24 1.017.24 1.65 0 .64-.08 1.193-.24 1.66-.154.467-.377.827-.67 1.08-.287.253-.624.38-1.01.38-.38 0-.714-.127-1-.38-.287-.253-.51-.613-.67-1.08-.16-.467-.24-1.02-.24-1.66 0-.633.08-1.183.24-1.65.16-.467.383-.827.67-1.08.286-.253.62-.38 1-.38Zm0 .69c-.247 0-.464.1-.65.3-.18.2-.32.48-.42.84-.1.36-.15.787-.15 1.28 0 .487.05.913.15 1.28.1.367.24.65.42.85.186.2.403.3.65.3.253 0 .47-.1.65-.3.186-.2.33-.483.43-.85.1-.367.15-.793.15-1.28 0-.493-.05-.92-.15-1.28-.1-.36-.244-.64-.43-.84a.844.844 0 0 0-.65-.3Zm11.799.7h2.29v.62h-2.29v-.62Zm-2.33-1.61h.6v1.13c0 .567-.107 1.1-.32 1.6-.207.5-.497.937-.87 1.31-.373.367-.803.65-1.29.85l-.39-.59a3.497 3.497 0 0 0 1.62-1.25 3.4 3.4 0 0 0 .48-.91 3.06 3.06 0 0 0 .17-1.01v-1.13Zm.13 0h.6v1.16c0 .32.053.63.16.93.113.3.27.58.47.84.2.26.433.49.7.69.273.2.57.36.89.48l-.4.58a4.06 4.06 0 0 1-1.25-.81 4.004 4.004 0 0 1-.86-1.21 3.664 3.664 0 0 1-.31-1.5v-1.16Zm4.22-.54h.74v6.75h-.74v-6.75Zm-5.01 8.18h5.97v.61h-5.97v-.61Zm0-2.19h.73v2.46h-.73v-2.46Zm15.996-5.99h.74v6.11h-.74v-6.11Zm.42 2.74h1.67v.62h-1.67v-.62Zm-2.54 3.49c.926 0 1.646.12 2.16.36.513.233.77.573.77 1.02 0 .447-.257.787-.77 1.02-.514.24-1.234.36-2.16.36-.927 0-1.647-.12-2.16-.36-.514-.233-.77-.573-.77-1.02 0-.447.256-.787.77-1.02.513-.24 1.233-.36 2.16-.36Zm0 .56c-.694 0-1.234.07-1.62.21-.38.14-.57.343-.57.61 0 .26.19.463.57.61.386.14.926.21 1.62.21.693 0 1.23-.07 1.61-.21.38-.147.57-.35.57-.61 0-.267-.19-.47-.57-.61-.38-.14-.917-.21-1.61-.21Zm-1.67-2.68h.74v1.22h-.74v-1.22Zm-2.36 1.57-.09-.6c.54 0 1.13-.003 1.77-.01.646-.013 1.303-.04 1.97-.08.673-.047 1.32-.117 1.94-.21l.06.52c-.64.113-1.297.2-1.97.26-.667.053-1.317.087-1.95.1a84.17 84.17 0 0 1-1.73.02Zm.13-4.89h5.18v.57h-5.18v-.57Zm2.59.97c.633 0 1.136.113 1.51.34.38.22.57.53.57.93s-.19.713-.57.94c-.374.227-.877.34-1.51.34-.627 0-1.13-.113-1.51-.34-.38-.227-.57-.54-.57-.94 0-.4.19-.71.57-.93.38-.227.883-.34 1.51-.34Zm0 .51c-.42 0-.757.07-1.01.21-.247.14-.37.323-.37.55 0 .233.123.42.37.56.253.14.59.21 1.01.21.42 0 .753-.07 1-.21.253-.14.38-.327.38-.56 0-.227-.127-.41-.38-.55-.247-.14-.58-.21-1-.21Zm-.36-2.35h.74v1.07h-.74v-1.07Zm13.439.07h.74v9.02h-.74v-9.02Zm-2.75 2.14h3.07v.62h-3.07v-.62Zm-3.41-1.13h.74v5.58h-.74v-5.58Zm0 5.26h.67c.507 0 .977-.007 1.41-.02.44-.02.863-.053 1.27-.1.407-.047.827-.113 1.26-.2l.09.61c-.447.087-.88.157-1.3.21-.413.047-.843.08-1.29.1-.44.02-.92.03-1.44.03h-.67v-.63Zm3.41-2.08h3.07v.61h-3.07v-.61Zm6.569 1.9a2.11 2.11 0 0 1 .06-.93c.087-.28.21-.53.37-.75.167-.227.333-.44.5-.64.173-.207.32-.413.44-.62.12-.213.18-.443.18-.69 0-.207-.043-.393-.13-.56a.917.917 0 0 0-.37-.41c-.16-.107-.367-.16-.62-.16s-.493.057-.72.17a1.92 1.92 0 0 0-.61.49l-.47-.44c.227-.253.497-.467.81-.64.313-.173.67-.26 1.07-.26.373 0 .697.073.97.22.273.14.487.343.64.61.153.26.23.57.23.93 0 .3-.063.57-.19.81-.12.233-.267.457-.44.67-.173.207-.343.42-.51.64-.167.22-.3.457-.4.71-.1.247-.13.53-.09.85h-.72Zm.39 2.29a.599.599 0 0 1-.44-.18.644.644 0 0 1-.17-.46c0-.2.057-.36.17-.48.12-.12.267-.18.44-.18.167 0 .31.06.43.18s.18.28.18.48c0 .187-.06.34-.18.46a.586.586 0 0 1-.43.18Zm3.778-2.29-.11-4.33-.02-.98h.82l-.02.98-.11 4.33h-.56Zm.28 2.29a.586.586 0 0 1-.43-.18.622.622 0 0 1-.18-.46c0-.2.06-.36.18-.48s.263-.18.43-.18c.167 0 .31.06.43.18s.18.28.18.48c0 .187-.06.34-.18.46a.586.586 0 0 1-.43.18Z"/></g><path fill="#FF592F" d="M118 349.5c0-6.904 5.631-12.5 12.576-12.5h58.848c6.945 0 12.576 5.596 12.576 12.5s-5.631 12.5-12.576 12.5h-58.848c-6.945 0-12.576-5.596-12.576-12.5Z"/><path fill="#fff" d="M27 349.5c0-6.904 5.63-12.5 12.576-12.5h58.848c6.945 0 12.576 5.596 12.576 12.5S105.369 362 98.424 362H39.576C32.631 362 27 356.404 27 349.5Z"/><path fill="#FF592F" d="M98.424 361.528V362H39.576v-.472h58.848Zm12.101-12.028c0-6.643-5.418-12.028-12.101-12.028H39.576c-6.683 0-12.101 5.385-12.101 12.028 0 6.643 5.418 12.028 12.101 12.028V362l-.324-.004C32.456 361.825 27 356.296 27 349.5s5.456-12.325 12.252-12.496l.324-.004h58.848l.324.004c6.796.171 12.252 5.7 12.252 12.496s-5.456 12.325-12.252 12.496l-.324.004v-.472c6.683 0 12.101-5.385 12.101-12.028Z"/><path fill="#fff" d="M173.281 351.618h7.029v.731h-7.029v-.731Zm3.056-1.579h.891v1.877h-.891v-1.877Zm-2.224-3.998h5.365v2.462h-4.474v1.435h-.874v-2.14h4.465v-1.035h-4.482v-.722Zm.017 3.54h5.526v.713h-5.526v-.713ZM168.477 347.611h1.646v.713h-1.646v-.713Zm-.06 1.936h1.689v.722h-1.689v-.722Zm2.836-4.049h.848v7.759h-.848v-7.759Zm-1.579.186h.84v7.199h-.84v-7.199Zm-1.732.764h.849c0 .708-.091 1.376-.272 2.004a5.007 5.007 0 0 1-.908 1.732c-.419.532-.979 1.01-1.681 1.434l-.51-.636c.595-.357 1.076-.756 1.444-1.197.373-.442.645-.926.815-1.452a5.374 5.374 0 0 0 .263-1.706v-.179Zm-2.14 0h2.454v.722h-2.454v-.722ZM162.832 345.498h.883v5.619h-.883v-5.619Zm.628 2.224h1.358v.73h-1.358v-.73Zm-5.476 1.341h.629c.543 0 1.013-.006 1.409-.017.402-.011.767-.034 1.095-.068.328-.039.656-.093.985-.161l.093.713c-.334.068-.671.122-1.01.161-.34.034-.716.06-1.129.077-.408.017-.889.025-1.443.025h-.629v-.73Zm0-2.92h3.447v.721h-2.555v2.59h-.892v-3.311Zm.824 6.239h5.229v.722h-5.229v-.722Zm0-1.842h.891v2.19h-.891v-2.19ZM151.451 345.659c.566 0 1.056.059 1.469.178.413.119.73.289.951.509.226.221.339.49.339.807 0 .305-.113.571-.339.798-.221.221-.538.39-.951.509-.413.113-.903.17-1.469.17-.56 0-1.049-.057-1.468-.17-.413-.119-.733-.288-.96-.509a1.095 1.095 0 0 1-.339-.798c0-.317.113-.586.339-.807.227-.22.547-.39.96-.509.419-.119.908-.178 1.468-.178Zm0 .696a4.61 4.61 0 0 0-.993.093c-.277.062-.489.153-.637.272a.523.523 0 0 0-.22.433.53.53 0 0 0 .22.424c.148.119.36.21.637.272.277.062.609.093.993.093.385 0 .713-.031.985-.093.277-.062.49-.153.637-.272a.523.523 0 0 0 0-.857c-.147-.119-.36-.21-.637-.272a4.494 4.494 0 0 0-.985-.093Zm-2.665 4.219h5.323v2.589h-5.323v-2.589Zm4.448.705h-3.582v1.18h3.582v-1.18Zm-5.289-2.08h7.012v.713h-7.012v-.713ZM145.255 345.498h.891v7.776h-.891v-7.776Zm.696 2.979h1.401v.739h-1.401v-.739Zm-5.501 2.148h.628c.464 0 .892-.006 1.282-.017.391-.017.77-.042 1.138-.076.368-.04.741-.094 1.12-.162l.094.739c-.391.074-.776.13-1.155.17-.373.034-.764.059-1.171.076a47.93 47.93 0 0 1-1.308.017h-.628v-.747Zm0-4.389h3.608v.722h-2.725v4.015h-.883v-4.737Z"/><path fill="#FF592F" d="M79.21 345.498h.891v7.759h-.89v-7.759Zm-2.283.823h.882c0 .577-.062 1.129-.186 1.655a5.305 5.305 0 0 1-1.715 2.81c-.453.402-1.013.764-1.681 1.087l-.476-.705c.753-.362 1.362-.775 1.826-1.239a4.353 4.353 0 0 0 1.018-1.554c.221-.577.332-1.211.332-1.901v-.153Zm-2.794 0h3.192v.713h-3.192v-.713ZM71.001 345.498h.892v7.759H71v-7.759Zm.663 3.064h1.4v.739h-1.4v-.739Zm-2.666-2.241h.866a6.67 6.67 0 0 1-.348 2.156 5.282 5.282 0 0 1-1.112 1.876c-.51.572-1.189 1.07-2.038 1.495l-.492-.68c.702-.362 1.282-.775 1.74-1.239.464-.464.81-.985 1.036-1.562a5.051 5.051 0 0 0 .348-1.902v-.144Zm-2.734 0h3.193v.722h-3.192v-.722ZM63.854 348.52h1.401v.738h-1.4v-.738Zm-.662-3.022h.892v7.759h-.892v-7.759Zm-4.847.755h.891v4.814h-.891v-4.814Zm0 4.33h.645c.56 0 1.137-.023 1.732-.068.6-.051 1.216-.142 1.85-.272l.094.739c-.651.13-1.282.22-1.893.271-.612.046-1.206.068-1.783.068h-.645v-.738Z"/><defs><clipPath id="a"><path fill="#fff" d="M12 12h206v364H12z"/></clipPath><clipPath id="b"><path fill="#fff" d="M53 125h124v170H53z"/></clipPath></defs></svg>