<svg width="103" height="67" viewBox="0 0 103 67" fill="none" xmlns="http://www.w3.org/2000/svg">
<path d="M27.0026 32.0537C27.545 31.5896 28.1804 31.2471 28.8661 31.0491L36.3397 28.8912C37.1646 28.653 37.8863 29.4966 37.5234 30.2747L34.2351 37.3244C33.9334 37.9712 33.4966 38.546 32.9543 39.01L8.23149 60.1622C6.97254 61.2394 5.07878 61.092 4.00165 59.833L1.95061 57.4358C0.873482 56.1768 1.02088 54.283 2.27983 53.2059L27.0026 32.0537Z" fill="#FF592F"/>
<rect x="5.56543" y="50.395" width="9.15493" height="1.83099" transform="rotate(49.4505 5.56543 50.395)" fill="#3179FF"/>
<path d="M19.8646 50.2092L8.23149 60.1622C6.97254 61.2394 5.07878 61.092 4.00165 59.833L1.95061 57.4358C0.873482 56.1768 1.02088 54.283 2.27983 53.2059L13.9129 43.2529L17.3911 40.2771L20.8693 37.3012L24.3474 34.3254L27.0026 32.0537C27.545 31.5896 28.1804 31.2471 28.8661 31.0491L36.3397 28.8912C37.1646 28.653 37.8863 29.4966 37.5234 30.2747L36.1153 33.2934" stroke="black"/>
<rect x="47" y="1" width="55" height="65" fill="#3179FF"/>
<rect x="52" y="6" width="44" height="31" fill="#FF592F"/>
<path d="M74 37H52V6H96V21.5" stroke="black"/>
<path d="M102 33.5V1H74.5H47V17.25M47 33.5V66H74.5" stroke="black"/>
<rect x="52" y="41" width="44" height="2" fill="white"/>
<rect x="52" y="45" width="44" height="2" fill="white"/>
</svg>
