<svg width="230" height="388" viewBox="0 0 230 388" fill="none" xmlns="http://www.w3.org/2000/svg">
<rect x="0.5" y="0.5" width="229" height="387" rx="19.5" fill="#242424" stroke="#F5F5F5"/>
<g clip-path="url(#clip0_180_3362)">
<rect x="12" y="12" width="206" height="364" rx="14" fill="white"/>
<path d="M31.96 30.68H33.01V39.82H31.96V30.68ZM29.27 31.65H30.31C30.31 32.33 30.2367 32.98 30.09 33.6C29.9433 34.22 29.7033 34.81 29.37 35.37C29.0433 35.9233 28.61 36.4367 28.07 36.91C27.5367 37.3833 26.8767 37.81 26.09 38.19L25.53 37.36C26.4167 36.9333 27.1333 36.4467 27.68 35.9C28.2267 35.3533 28.6267 34.7433 28.88 34.07C29.14 33.39 29.27 32.6433 29.27 31.83V31.65ZM25.98 31.65H29.74V32.49H25.98V31.65ZM34.6592 35.66H42.9392V36.5H34.6592V35.66ZM35.6892 30.89H41.8992V33.22H36.7392V34.35H35.7092V32.47H40.8592V31.7H35.6892V30.89ZM35.7092 34.02H42.0792V34.83H35.7092V34.02ZM38.2692 34.43H39.3192V36.09H38.2692V34.43ZM35.5692 37.11H41.9492V39.77H40.8992V37.96H35.5692V37.11ZM49.8984 30.69H50.9484V39.83H49.8984V30.69ZM50.7084 34.36H52.3584V35.23H50.7084V34.36ZM43.8084 32.1H49.1684V32.94H43.8084V32.1ZM46.5284 33.59C46.9618 33.59 47.3484 33.6833 47.6884 33.87C48.0284 34.05 48.2951 34.3 48.4884 34.62C48.6884 34.94 48.7884 35.3067 48.7884 35.72C48.7884 36.14 48.6884 36.51 48.4884 36.83C48.2951 37.15 48.0284 37.4033 47.6884 37.59C47.3484 37.77 46.9584 37.86 46.5184 37.86C46.0851 37.86 45.6984 37.77 45.3584 37.59C45.0184 37.4033 44.7484 37.15 44.5484 36.83C44.3551 36.51 44.2584 36.14 44.2584 35.72C44.2584 35.3067 44.3551 34.94 44.5484 34.62C44.7484 34.3 45.0184 34.05 45.3584 33.87C45.6984 33.6833 46.0884 33.59 46.5284 33.59ZM46.5184 34.45C46.2784 34.45 46.0618 34.5033 45.8684 34.61C45.6751 34.7167 45.5218 34.8667 45.4084 35.06C45.3018 35.2467 45.2484 35.4667 45.2484 35.72C45.2484 35.98 45.3018 36.2067 45.4084 36.4C45.5218 36.5867 45.6751 36.7333 45.8684 36.84C46.0618 36.9467 46.2784 37 46.5184 37C46.7651 37 46.9818 36.9467 47.1684 36.84C47.3618 36.7333 47.5118 36.5867 47.6184 36.4C47.7318 36.2067 47.7884 35.98 47.7884 35.72C47.7884 35.4667 47.7318 35.2467 47.6184 35.06C47.5118 34.8667 47.3618 34.7167 47.1684 34.61C46.9818 34.5033 46.7651 34.45 46.5184 34.45ZM45.9884 30.81H47.0384V32.45H45.9884V30.81ZM59.5577 30.68H60.6077V39.82H59.5577V30.68ZM56.8677 31.65H57.9077C57.9077 32.33 57.8343 32.98 57.6877 33.6C57.541 34.22 57.301 34.81 56.9677 35.37C56.641 35.9233 56.2077 36.4367 55.6677 36.91C55.1343 37.3833 54.4743 37.81 53.6877 38.19L53.1277 37.36C54.0143 36.9333 54.731 36.4467 55.2777 35.9C55.8243 35.3533 56.2243 34.7433 56.4777 34.07C56.7377 33.39 56.8677 32.6433 56.8677 31.83V31.65ZM53.5777 31.65H57.3377V32.49H53.5777V31.65Z" fill="black"/>
<path d="M118.287 100.442C117.936 100.442 117.634 100.316 117.382 100.064C117.141 99.8004 117.02 99.4768 117.02 99.0928C117.02 98.6978 117.141 98.3796 117.382 98.1383C117.634 97.8859 117.936 97.7598 118.287 97.7598C118.649 97.7598 118.951 97.8859 119.192 98.1383C119.445 98.3796 119.571 98.6978 119.571 99.0928C119.571 99.4768 119.445 99.8004 119.192 100.064C118.951 100.316 118.649 100.442 118.287 100.442Z" fill="black"/>
<path d="M104.646 94.2223H106.357V98.5998H104.646V94.2223ZM110.142 94.2223H111.87V98.5998H110.142V94.2223ZM101.453 98.3036H115.08V99.7189H101.453V98.3036ZM108.25 87.3926C109.314 87.3926 110.263 87.5571 111.097 87.8863C111.931 88.2045 112.584 88.6598 113.055 89.2522C113.538 89.8337 113.779 90.5249 113.779 91.3258C113.779 92.1267 113.538 92.8234 113.055 93.4159C112.584 93.9973 111.931 94.4527 111.097 94.7818C110.263 95.1 109.314 95.2591 108.25 95.2591C107.186 95.2591 106.231 95.1 105.386 94.7818C104.553 94.4527 103.894 93.9973 103.412 93.4159C102.94 92.8234 102.704 92.1267 102.704 91.3258C102.704 90.5249 102.94 89.8337 103.412 89.2522C103.894 88.6598 104.553 88.2045 105.386 87.8863C106.231 87.5571 107.186 87.3926 108.25 87.3926ZM108.25 88.7421C107.493 88.7421 106.824 88.8463 106.242 89.0547C105.661 89.2632 105.205 89.5649 104.876 89.9599C104.558 90.3439 104.399 90.7992 104.399 91.3258C104.399 91.8524 104.558 92.3132 104.876 92.7082C105.205 93.0922 105.661 93.3939 106.242 93.6133C106.824 93.8218 107.493 93.926 108.25 93.926C109.007 93.926 109.671 93.8218 110.241 93.6133C110.823 93.3939 111.278 93.0922 111.607 92.7082C111.936 92.3132 112.101 91.8524 112.101 91.3258C112.101 90.7992 111.936 90.3439 111.607 89.9599C111.278 89.5649 110.823 89.2632 110.241 89.0547C109.671 88.8463 109.007 88.7421 108.25 88.7421Z" fill="black"/>
<path d="M92.2382 91.7703H94.9536V93.1856H92.2382V91.7703ZM89.2595 87.9029H90.5925V90.6183C90.5925 91.4302 90.5157 92.2311 90.3621 93.021C90.2195 93.8 90.0055 94.5351 89.7203 95.2263C89.435 95.9175 89.0784 96.5429 88.6506 97.1024C88.2227 97.651 87.7235 98.0953 87.153 98.4354L86.0833 97.1353C86.6208 96.8171 87.0871 96.4222 87.4821 95.9504C87.8771 95.4786 88.2062 94.952 88.4695 94.3705C88.7438 93.789 88.9413 93.1801 89.062 92.5438C89.1936 91.8965 89.2595 91.2547 89.2595 90.6183V87.9029ZM89.6051 87.9029H90.9216V90.536C90.9216 91.1395 90.9765 91.7484 91.0862 92.3628C91.2069 92.9662 91.3879 93.5422 91.6293 94.0908C91.8707 94.6393 92.1724 95.144 92.5344 95.6048C92.8965 96.0656 93.3298 96.4551 93.8345 96.7733L92.88 98.1063C92.3095 97.7662 91.8158 97.3273 91.3989 96.7897C90.9929 96.2411 90.6583 95.6322 90.395 94.963C90.1317 94.2828 89.9342 93.5696 89.8025 92.8236C89.6709 92.0665 89.6051 91.304 89.6051 90.536V87.9029ZM97.5044 86.5205H99.1502V101.562H97.5044V86.5205ZM94.4434 86.8167H96.0562V100.855H94.4434V86.8167Z" fill="black"/>
<path d="M77.0006 88.1002H78.4982V88.6433C78.4982 89.1809 78.3995 89.6911 78.202 90.1738C78.0155 90.6456 77.7412 91.0899 77.3791 91.5068C77.0171 91.9128 76.5892 92.2748 76.0955 92.593C75.6127 92.9112 75.0696 93.18 74.4662 93.3994C73.8738 93.6188 73.2374 93.7834 72.5572 93.8931L71.9154 92.5272C72.5078 92.4504 73.0564 92.3242 73.5611 92.1487C74.0767 91.9731 74.543 91.7592 74.9599 91.5068C75.3878 91.2545 75.7499 90.9747 76.0461 90.6675C76.3533 90.3603 76.5892 90.0367 76.7537 89.6966C76.9183 89.3565 77.0006 89.0054 77.0006 88.6433V88.1002ZM77.4614 88.1002H78.959V88.6433C78.959 89.0054 79.0358 89.3565 79.1894 89.6966C79.354 90.0367 79.5898 90.3603 79.897 90.6675C80.2042 90.9747 80.5663 91.2545 80.9832 91.5068C81.4001 91.7592 81.8664 91.9731 82.3821 92.1487C82.8977 92.3242 83.4518 92.4504 84.0442 92.5272L83.4024 93.8931C82.7222 93.7834 82.0803 93.6188 81.4769 93.3994C80.8845 93.18 80.3414 92.9112 79.8477 92.593C79.354 92.2748 78.9261 91.9128 78.564 91.5068C78.2129 91.0899 77.9387 90.6456 77.7412 90.1738C77.5547 89.6911 77.4614 89.1809 77.4614 88.6433V88.1002ZM77.0829 95.9338H78.7944V101.562H77.0829V95.9338ZM71.1748 94.9793H84.7683V96.3781H71.1748V94.9793ZM72.4255 87.3926H83.5011V88.7585H72.4255V87.3926Z" fill="black"/>
<path d="M56.019 88.9562H63.3589V90.355H56.019V88.9562ZM59.689 91.2108C60.3253 91.2108 60.8848 91.3589 61.3676 91.6551C61.8613 91.9513 62.2508 92.3628 62.536 92.8894C62.8213 93.405 62.9639 94.0085 62.9639 94.6997C62.9639 95.3909 62.8213 95.9998 62.536 96.5264C62.2508 97.053 61.8613 97.4645 61.3676 97.7607C60.8848 98.0569 60.3253 98.205 59.689 98.205C59.0746 98.205 58.5205 98.0569 58.0268 97.7607C57.5331 97.4645 57.1436 97.053 56.8584 96.5264C56.5841 95.9998 56.4469 95.3909 56.4469 94.6997C56.4469 94.0085 56.5841 93.405 56.8584 92.8894C57.1436 92.3628 57.5331 91.9513 58.0268 91.6551C58.5205 91.3589 59.0746 91.2108 59.689 91.2108ZM59.7054 92.659C59.3763 92.659 59.0801 92.7468 58.8167 92.9223C58.5534 93.0869 58.345 93.3228 58.1914 93.63C58.0487 93.9262 57.9774 94.2828 57.9774 94.6997C57.9774 95.1166 58.0487 95.4786 58.1914 95.7858C58.345 96.093 58.5534 96.3344 58.8167 96.5099C59.0801 96.6745 59.3763 96.7568 59.7054 96.7568C60.0346 96.7568 60.3253 96.6745 60.5776 96.5099C60.841 96.3344 61.0494 96.093 61.203 95.7858C61.3566 95.4786 61.4334 95.1166 61.4334 94.6997C61.4334 94.2828 61.3566 93.9262 61.203 93.63C61.0494 93.3228 60.841 93.0869 60.5776 92.9223C60.3253 92.7468 60.0346 92.659 59.7054 92.659ZM67.1934 86.5205H68.8391V101.562H67.1934V86.5205ZM65.0704 92.7577H67.7365V94.173H65.0704V92.7577ZM64.0007 86.8332H65.6135V100.871H64.0007V86.8332ZM58.8497 86.9484H60.5612V89.8284H58.8497V86.9484Z" fill="black"/>
<path d="M40.8962 94.7162H54.5227V96.0986H40.8962V94.7162ZM42.5913 86.8662H52.8112V90.7007H44.3193V92.5604H42.6242V89.4664H51.0996V88.1992H42.5913V86.8662ZM42.6242 92.0173H53.1074V93.3503H42.6242V92.0173ZM46.8372 92.692H48.5652V95.4239H46.8372V92.692ZM42.3938 97.1025H52.8934V101.48H51.1654V98.5014H42.3938V97.1025Z" fill="black"/>
<path d="M36.454 86.5205H38.182V101.562H36.454V86.5205ZM32.027 88.1168H33.7385C33.7385 89.2359 33.6179 90.3056 33.3765 91.326C33.1351 92.3463 32.7402 93.3173 32.1916 94.2389C31.654 95.1495 30.9408 95.9943 30.0522 96.7733C29.1745 97.5522 28.0883 98.2544 26.7937 98.8798L25.8721 97.5138C27.3313 96.8117 28.5107 96.0107 29.4103 95.1111C30.31 94.2114 30.9683 93.2076 31.3852 92.0995C31.8131 90.9804 32.027 89.7516 32.027 88.4131V88.1168ZM26.6126 88.1168H32.8005V89.4992H26.6126V88.1168Z" fill="black"/>
<path d="M82.3818 64H84.0275V79.0418H82.3818V64ZM76.1117 69.9904H79.6335V71.3563H76.1117V69.9904ZM79.2385 64.3621H80.8513V78.3176H79.2385V64.3621ZM75.9965 65.8432H77.6587C77.6587 67.2146 77.4776 68.5092 77.1156 69.7271C76.7645 70.9449 76.1775 72.0694 75.3547 73.1008C74.5428 74.1321 73.4511 75.0537 72.0797 75.8655L71.0923 74.6313C72.2553 73.9401 73.1933 73.1666 73.9064 72.3108C74.6306 71.455 75.1572 70.517 75.4863 69.4967C75.8264 68.4763 75.9965 67.3737 75.9965 66.1888V65.8432ZM71.8164 65.8432H76.5725V67.242H71.8164V65.8432Z" fill="black"/>
<path d="M56.0354 71.6027H69.6618V72.9851H56.0354V71.6027ZM61.9764 69.9076H63.7044V72.261H61.9764V69.9076ZM57.8128 73.6434H59.5078V74.8612H66.2881V73.6434H67.9832V78.8603H57.8128V73.6434ZM59.5078 76.1778V77.5108H66.2881V76.1778H59.5078ZM57.7305 64.2793H67.9503V67.9492H59.4585V69.7924H57.7634V66.6985H66.2388V65.6123H57.7305V64.2793ZM57.7634 69.0848H68.2465V70.4178H57.7634V69.0848Z" fill="black"/>
<path d="M44.2041 73.3972H45.965V79.0419H44.2041V73.3972ZM49.3881 73.3972H51.1325V79.0419H49.3881V73.3972ZM40.8962 72.4756H54.5227V73.8909H40.8962V72.4756ZM47.6765 64.5762C48.7298 64.5762 49.6569 64.7133 50.4578 64.9876C51.2587 65.2509 51.8841 65.6294 52.3339 66.1231C52.7837 66.6168 53.0086 67.2038 53.0086 67.884C53.0086 68.5533 52.7837 69.1403 52.3339 69.6449C51.8841 70.1387 51.2587 70.5227 50.4578 70.7969C49.6569 71.0603 48.7298 71.1919 47.6765 71.1919C46.6233 71.1919 45.6907 71.0603 44.8788 70.7969C44.0779 70.5227 43.4526 70.1387 43.0027 69.6449C42.5529 69.1403 42.328 68.5533 42.328 67.884C42.328 67.2038 42.5529 66.6168 43.0027 66.1231C43.4526 65.6294 44.0779 65.2509 44.8788 64.9876C45.6907 64.7133 46.6233 64.5762 47.6765 64.5762ZM47.6765 65.9421C46.9524 65.9421 46.3216 66.0244 45.784 66.189C45.2574 66.3426 44.8459 66.562 44.5497 66.8472C44.2535 67.1325 44.1054 67.4781 44.1054 67.884C44.1054 68.29 44.2535 68.6411 44.5497 68.9373C44.8459 69.2225 45.2574 69.442 45.784 69.5956C46.3216 69.7382 46.9524 69.8095 47.6765 69.8095C48.3897 69.8095 49.0096 69.7382 49.5362 69.5956C50.0738 69.442 50.4907 69.2225 50.7869 68.9373C51.0832 68.6411 51.2313 68.29 51.2313 67.884C51.2313 67.4781 51.0832 67.1325 50.7869 66.8472C50.4907 66.562 50.0738 66.3426 49.5362 66.189C49.0096 66.0244 48.3897 65.9421 47.6765 65.9421Z" fill="black"/>
<path d="M29.3115 66.2548H30.6939V68.3613C30.6939 69.1731 30.5897 69.9795 30.3813 70.7805C30.1838 71.5704 29.8985 72.3219 29.5255 73.0351C29.1525 73.7372 28.7026 74.3626 28.176 74.9112C27.6604 75.4488 27.0898 75.8767 26.4645 76.1948L25.4771 74.8289C26.0476 74.5436 26.5632 74.1706 27.024 73.7098C27.4958 73.238 27.9017 72.7114 28.2418 72.1299C28.5929 71.5375 28.8562 70.9231 29.0318 70.2867C29.2183 69.6394 29.3115 68.9976 29.3115 68.3613V66.2548ZM29.6571 66.2548H31.0231V68.3613C31.0231 68.9537 31.1109 69.5517 31.2864 70.1551C31.4619 70.7475 31.7143 71.3235 32.0434 71.8831C32.3726 72.4316 32.7675 72.9308 33.2283 73.3807C33.7001 73.8195 34.2212 74.1761 34.7917 74.4504L33.8372 75.8163C33.2009 75.5091 32.6249 75.0977 32.1092 74.582C31.6046 74.0554 31.1657 73.4575 30.7927 72.7882C30.4306 72.119 30.1509 71.4058 29.9534 70.6488C29.7559 69.8918 29.6571 69.1293 29.6571 68.3613V66.2548ZM26.0201 65.4977H34.1993V66.9295H26.0201V65.4977ZM35.6804 64.0166H37.4084V79.0584H35.6804V64.0166ZM37.0299 69.9411H39.7453V71.3729H37.0299V69.9411Z" fill="black"/>
<path d="M25 122.526C25 117.265 29.6853 113 35.4649 113H190.535C196.315 113 201 117.265 201 122.526V313.474C201 318.735 196.315 323 190.535 323H35.4649C29.6853 323 25 318.735 25 313.474V122.526Z" fill="#F4F4F4"/>
</g>
<path d="M118 349.5C118 342.596 123.631 337 130.576 337H189.424C196.369 337 202 342.596 202 349.5V349.5C202 356.404 196.369 362 189.424 362H130.576C123.631 362 118 356.404 118 349.5V349.5Z" fill="#FF592F"/>
<path d="M27 349.5C27 342.596 32.6306 337 39.5763 337H98.4237C105.369 337 111 342.596 111 349.5V349.5C111 356.404 105.369 362 98.4237 362H39.5763C32.6306 362 27 356.404 27 349.5V349.5Z" fill="white"/>
<path d="M98.4237 361.528V362H39.5763V361.528H98.4237ZM110.525 349.5C110.525 342.857 105.107 337.472 98.4237 337.472H39.5763C32.8927 337.472 27.4746 342.857 27.4746 349.5C27.4746 356.143 32.8927 361.528 39.5763 361.528V362L39.2519 361.996C32.4561 361.825 27 356.296 27 349.5C27 342.704 32.4561 337.175 39.2519 337.004L39.5763 337H98.4237L98.7481 337.004C105.544 337.175 111 342.704 111 349.5C111 356.296 105.544 361.825 98.7481 361.996L98.4237 362V361.528C105.107 361.528 110.525 356.143 110.525 349.5Z" fill="#FF592F"/>
<path d="M173.281 351.618H180.31V352.349H173.281V351.618ZM176.337 350.039H177.228V351.916H176.337V350.039ZM174.113 346.041H179.478V348.503H175.004V349.938H174.13V347.798H178.595V346.763H174.113V346.041ZM174.13 349.581H179.656V350.294H174.13V349.581Z" fill="white"/>
<path d="M168.477 347.612H170.123V348.325H168.477V347.612ZM168.417 349.547H170.106V350.269H168.417V349.547ZM171.253 345.498H172.101V353.257H171.253V345.498ZM169.674 345.685H170.514V352.884H169.674V345.685ZM167.942 346.449H168.791C168.791 347.156 168.7 347.824 168.519 348.452C168.338 349.075 168.035 349.652 167.611 350.184C167.192 350.716 166.632 351.194 165.93 351.619L165.42 350.982C166.015 350.626 166.496 350.227 166.864 349.785C167.237 349.344 167.509 348.86 167.679 348.333C167.854 347.807 167.942 347.238 167.942 346.627V346.449ZM165.802 346.449H168.256V347.17H165.802V346.449Z" fill="white"/>
<path d="M162.832 345.498H163.715V351.118H162.832V345.498ZM163.46 347.722H164.818V348.452H163.46V347.722ZM157.984 349.064H158.613C159.156 349.064 159.626 349.058 160.022 349.047C160.424 349.035 160.789 349.013 161.117 348.979C161.445 348.939 161.773 348.885 162.102 348.817L162.195 349.53C161.861 349.598 161.524 349.652 161.185 349.692C160.845 349.726 160.469 349.751 160.056 349.768C159.648 349.785 159.167 349.794 158.613 349.794H157.984V349.064ZM157.984 346.143H161.431V346.865H158.876V349.454H157.984V346.143ZM158.808 352.383H164.037V353.104H158.808V352.383ZM158.808 350.541H159.699V352.731H158.808V350.541Z" fill="white"/>
<path d="M151.451 345.659C152.017 345.659 152.507 345.719 152.92 345.837C153.333 345.956 153.65 346.126 153.871 346.347C154.097 346.568 154.21 346.836 154.21 347.153C154.21 347.459 154.097 347.725 153.871 347.951C153.65 348.172 153.333 348.342 152.92 348.461C152.507 348.574 152.017 348.63 151.451 348.63C150.891 348.63 150.402 348.574 149.983 348.461C149.57 348.342 149.25 348.172 149.023 347.951C148.797 347.725 148.684 347.459 148.684 347.153C148.684 346.836 148.797 346.568 149.023 346.347C149.25 346.126 149.57 345.956 149.983 345.837C150.402 345.719 150.891 345.659 151.451 345.659ZM151.451 346.355C151.067 346.355 150.735 346.386 150.458 346.449C150.181 346.511 149.969 346.601 149.821 346.72C149.674 346.834 149.601 346.978 149.601 347.153C149.601 347.317 149.674 347.459 149.821 347.578C149.969 347.697 150.181 347.787 150.458 347.849C150.735 347.912 151.067 347.943 151.451 347.943C151.836 347.943 152.164 347.912 152.436 347.849C152.713 347.787 152.926 347.697 153.073 347.578C153.22 347.459 153.294 347.317 153.294 347.153C153.294 346.978 153.22 346.834 153.073 346.72C152.926 346.601 152.713 346.511 152.436 346.449C152.164 346.386 151.836 346.355 151.451 346.355ZM148.786 350.574H154.109V353.164H148.786V350.574ZM153.234 351.279H149.652V352.459H153.234V351.279ZM147.945 349.199H154.957V349.912H147.945V349.199Z" fill="white"/>
<path d="M145.255 345.498H146.146V353.274H145.255V345.498ZM145.951 348.478H147.352V349.216H145.951V348.478ZM140.45 350.626H141.078C141.542 350.626 141.97 350.62 142.36 350.609C142.751 350.592 143.13 350.566 143.498 350.532C143.866 350.493 144.239 350.439 144.618 350.371L144.712 351.109C144.321 351.183 143.936 351.24 143.557 351.279C143.184 351.313 142.793 351.339 142.386 351.356C141.984 351.367 141.548 351.373 141.078 351.373H140.45V350.626ZM140.45 346.237H144.058V346.958H141.333V350.974H140.45V346.237Z" fill="white"/>
<path d="M79.2101 345.498H80.1014V353.257H79.2101V345.498ZM76.9265 346.322H77.8093C77.8093 346.899 77.7471 347.451 77.6226 347.977C77.4981 348.503 77.2943 349.004 77.0113 349.48C76.734 349.949 76.3662 350.385 75.9077 350.787C75.455 351.189 74.8947 351.551 74.2269 351.873L73.7515 351.169C74.5042 350.807 75.1126 350.394 75.5767 349.929C76.0407 349.465 76.3803 348.948 76.5954 348.376C76.8161 347.799 76.9265 347.165 76.9265 346.474V346.322ZM74.1335 346.322H77.3254V347.035H74.1335V346.322Z" fill="#FF592F"/>
<path d="M71.0015 345.498H71.8929V353.257H71.0015V345.498ZM71.6637 348.563H73.0644V349.301H71.6637V348.563ZM68.9981 346.322H69.864C69.864 347.074 69.748 347.793 69.5159 348.478C69.2895 349.157 68.9188 349.782 68.4038 350.354C67.8945 350.926 67.2153 351.424 66.3664 351.848L65.874 351.169C66.5758 350.807 67.1559 350.394 67.6143 349.929C68.0784 349.465 68.4236 348.945 68.65 348.367C68.8821 347.79 68.9981 347.156 68.9981 346.466V346.322ZM66.2645 346.322H69.4565V347.043H66.2645V346.322Z" fill="#FF592F"/>
<path d="M63.8543 348.52H65.255V349.259H63.8543V348.52ZM63.1921 345.498H64.0835V353.257H63.1921V345.498ZM58.3447 346.254H59.2361V351.067H58.3447V346.254ZM58.3447 350.583H58.9899C59.5502 350.583 60.1275 350.56 60.7217 350.515C61.3216 350.464 61.9385 350.374 62.5724 350.244L62.6658 350.982C62.0149 351.112 61.3839 351.203 60.7727 351.254C60.1614 351.299 59.5672 351.322 58.9899 351.322H58.3447V350.583Z" fill="#FF592F"/>
<path d="M125 33H160V34H125V33Z" fill="#D9D9D9"/>
<path d="M170 28.3333C170 26.4924 171.496 25 173.342 25H199.658C201.504 25 203 26.4924 203 28.3333V36.6667C203 38.5076 201.504 40 199.658 40H173.342C171.496 40 170 38.5076 170 36.6667V28.3333Z" fill="#FF592F"/>
<path d="M194.785 35.1257C194.494 35.1257 194.236 35.0906 194.011 35.0205C193.79 34.9503 193.595 34.8576 193.424 34.7424C193.254 34.6221 193.106 34.4944 192.981 34.3591L193.402 33.803C193.567 33.9633 193.755 34.1036 193.965 34.2238C194.176 34.3441 194.424 34.4042 194.71 34.4042C194.92 34.4042 195.103 34.3691 195.258 34.299C195.413 34.2288 195.534 34.1286 195.619 33.9984C195.709 33.8681 195.754 33.7128 195.754 33.5324C195.754 33.332 195.704 33.1616 195.604 33.0214C195.509 32.8761 195.341 32.7633 195.1 32.6832C194.865 32.603 194.539 32.5629 194.123 32.5629V31.9166C194.489 31.9166 194.775 31.8765 194.98 31.7963C195.191 31.7112 195.341 31.6009 195.431 31.4657C195.526 31.3254 195.574 31.17 195.574 30.9997C195.574 30.7592 195.499 30.5713 195.348 30.436C195.198 30.2957 194.99 30.2256 194.725 30.2256C194.514 30.2256 194.316 30.2757 194.131 30.3759C193.95 30.4711 193.78 30.5964 193.62 30.7517L193.169 30.2106C193.389 30.0152 193.63 29.8548 193.89 29.7296C194.151 29.5993 194.439 29.5342 194.755 29.5342C195.085 29.5342 195.378 29.5893 195.634 29.6995C195.889 29.8097 196.09 29.9701 196.235 30.1805C196.38 30.3859 196.453 30.6364 196.453 30.9321C196.453 31.2427 196.365 31.5032 196.19 31.7137C196.02 31.9191 195.789 32.0769 195.499 32.1871V32.2247C195.709 32.2748 195.899 32.36 196.07 32.4802C196.245 32.6005 196.383 32.7533 196.483 32.9387C196.583 33.1191 196.633 33.332 196.633 33.5775C196.633 33.9032 196.548 34.1812 196.378 34.4117C196.213 34.6422 195.99 34.8201 195.709 34.9453C195.428 35.0656 195.12 35.1257 194.785 35.1257Z" fill="white"/>
<path d="M187.003 36.6959V30.879H187.709L187.785 31.3374H187.8C187.985 31.1871 188.185 31.0568 188.401 30.9466C188.616 30.8364 188.842 30.7812 189.077 30.7812C189.423 30.7812 189.719 30.8689 189.964 31.0443C190.21 31.2197 190.395 31.4652 190.52 31.7808C190.645 32.0914 190.708 32.4597 190.708 32.8856C190.708 33.3565 190.623 33.7599 190.453 34.0956C190.287 34.4313 190.069 34.6868 189.799 34.8621C189.528 35.0375 189.238 35.1252 188.927 35.1252C188.747 35.1252 188.564 35.0851 188.378 35.0049C188.193 34.9198 188.015 34.802 187.845 34.6517L187.867 35.3582V36.6959H187.003ZM188.762 34.3962C188.962 34.3962 189.14 34.3386 189.295 34.2233C189.455 34.1081 189.581 33.9403 189.671 33.7198C189.766 33.4943 189.814 33.2213 189.814 32.9006C189.814 32.61 189.779 32.362 189.708 32.1566C189.643 31.9461 189.541 31.7858 189.4 31.6756C189.26 31.5604 189.075 31.5027 188.844 31.5027C188.684 31.5027 188.524 31.5453 188.363 31.6305C188.208 31.7107 188.043 31.8359 187.867 32.0063V34.0279C188.028 34.1632 188.185 34.2584 188.341 34.3135C188.496 34.3686 188.636 34.3962 188.762 34.3962Z" fill="white"/>
<path d="M184.474 35.1252C184.099 35.1252 183.758 35.04 183.452 34.8697C183.147 34.6943 182.904 34.4463 182.723 34.1256C182.543 33.8 182.453 33.4092 182.453 32.9532C182.453 32.6175 182.505 32.3169 182.61 32.0514C182.716 31.7808 182.858 31.5528 183.039 31.3675C183.219 31.1771 183.422 31.0318 183.648 30.9316C183.873 30.8314 184.104 30.7812 184.339 30.7812C184.705 30.7812 185.013 30.8639 185.263 31.0293C185.514 31.1896 185.704 31.4176 185.835 31.7132C185.965 32.0038 186.03 32.3445 186.03 32.7353C186.03 32.8204 186.025 32.9031 186.015 32.9833C186.01 33.0584 186 33.1236 185.985 33.1787H183.302C183.327 33.4392 183.395 33.6647 183.505 33.8551C183.62 34.0405 183.768 34.1858 183.948 34.291C184.134 34.3912 184.344 34.4413 184.58 34.4413C184.765 34.4413 184.938 34.4137 185.098 34.3586C185.258 34.3035 185.414 34.2283 185.564 34.1331L185.865 34.6818C185.674 34.807 185.461 34.9123 185.226 34.9974C184.995 35.0826 184.745 35.1252 184.474 35.1252ZM183.294 32.5774H185.278C185.278 32.2267 185.198 31.9537 185.038 31.7583C184.883 31.5629 184.655 31.4652 184.354 31.4652C184.184 31.4652 184.023 31.5077 183.873 31.5929C183.723 31.6781 183.595 31.8034 183.49 31.9687C183.39 32.134 183.324 32.337 183.294 32.5774Z" fill="white"/>
<path d="M181.31 35.1259C181 35.1259 180.752 35.0658 180.566 34.9455C180.386 34.8203 180.256 34.6499 180.176 34.4345C180.095 34.214 180.055 33.9585 180.055 33.6679V31.5786H179.454V30.9323L180.1 30.8797L180.198 29.7373H180.92V30.8797H181.994V31.5786H180.92V33.6754C180.92 33.9209 180.967 34.1088 181.062 34.2391C181.158 34.3643 181.313 34.427 181.528 34.427C181.599 34.427 181.674 34.4169 181.754 34.3969C181.834 34.3769 181.904 34.3543 181.964 34.3293L182.122 34.9681C182.012 35.0031 181.887 35.0382 181.746 35.0733C181.611 35.1084 181.466 35.1259 181.31 35.1259Z" fill="white"/>
<path d="M177.634 35.1252C177.354 35.1252 177.073 35.0701 176.793 34.9598C176.517 34.8496 176.279 34.7118 176.079 34.5465L176.492 33.9828C176.672 34.1281 176.855 34.2459 177.041 34.3361C177.231 34.4212 177.436 34.4638 177.657 34.4638C177.902 34.4638 178.083 34.4112 178.198 34.306C178.318 34.1958 178.378 34.063 178.378 33.9077C178.378 33.7824 178.333 33.6772 178.243 33.592C178.158 33.5069 178.045 33.4342 177.905 33.3741C177.765 33.309 177.619 33.2488 177.469 33.1937C177.284 33.1236 177.101 33.0409 176.92 32.9457C176.745 32.8455 176.6 32.7202 176.484 32.5699C176.369 32.4146 176.312 32.2217 176.312 31.9912C176.312 31.7558 176.369 31.5478 176.484 31.3675C176.605 31.1871 176.775 31.0443 176.995 30.9391C177.216 30.8339 177.479 30.7812 177.785 30.7812C178.06 30.7812 178.311 30.8288 178.536 30.924C178.767 31.0192 178.962 31.1345 179.122 31.2698L178.724 31.8034C178.579 31.6981 178.431 31.613 178.281 31.5478C178.13 31.4777 177.973 31.4426 177.807 31.4426C177.577 31.4426 177.406 31.4927 177.296 31.5929C177.186 31.6881 177.131 31.8084 177.131 31.9537C177.131 32.0689 177.171 32.1641 177.251 32.2393C177.331 32.3144 177.436 32.3795 177.567 32.4347C177.702 32.4898 177.845 32.5474 177.995 32.6075C178.14 32.6576 178.283 32.7177 178.423 32.7879C178.569 32.853 178.699 32.9332 178.814 33.0284C178.929 33.1186 179.022 33.2313 179.092 33.3666C179.167 33.4968 179.205 33.6597 179.205 33.8551C179.205 34.0855 179.145 34.2985 179.025 34.4939C178.904 34.6893 178.729 34.8446 178.499 34.9598C178.268 35.0701 177.98 35.1252 177.634 35.1252Z" fill="white"/>
<path d="M163 34C163 37.3137 160.09 40 156.5 40C152.91 40 150 37.3137 150 34C150 30.6863 152.91 28 156.5 28C160.09 28 163 30.6863 163 34Z" fill="#FF592F"/>
<path d="M130 34C130 36.2091 128.209 38 126 38C123.791 38 122 36.2091 122 34C122 31.7909 123.791 30 126 30C128.209 30 130 31.7909 130 34Z" fill="#D9D9D9"/>
<path d="M144 34C144 36.2091 142.209 38 140 38C137.791 38 136 36.2091 136 34C136 31.7909 137.791 30 140 30C142.209 30 144 31.7909 144 34Z" fill="#D9D9D9"/>
<defs>
<clipPath id="clip0_180_3362">
<rect width="206" height="364" fill="white" transform="translate(12 12)"/>
</clipPath>
</defs>
</svg>
