<svg width="549" height="484" viewBox="0 0 549 484" fill="none" xmlns="http://www.w3.org/2000/svg">
<path d="M29.348 199.7H32.604V239.388H29.348V199.7ZM31.856 215.496H39.248V218.268H31.856V215.496ZM4.004 226.672H7.084C9.548 226.672 11.792 226.643 13.816 226.584C15.8693 226.496 17.8347 226.349 19.712 226.144C21.5893 225.939 23.5253 225.645 25.52 225.264L25.916 228.08C23.8627 228.432 21.868 228.711 19.932 228.916C18.0253 229.121 16.0307 229.268 13.948 229.356C11.8947 229.415 9.60667 229.444 7.084 229.444H4.004V226.672ZM4.004 203.572H22.352V206.256H7.216V227.86H4.004V203.572ZM42.7206 221.744H78.6246V224.428H42.7206V221.744ZM47.4726 235.736H74.8406V238.42H47.4726V235.736ZM47.4726 227.684H50.7286V236.704H47.4726V227.684ZM47.2966 201.108H73.9606V210.744H50.5966V216.244H47.3846V208.28H70.7926V203.704H47.2966V201.108ZM47.3846 215.364H74.8406V217.96H47.3846V215.364ZM93.038 231.38H128.942V234.108H93.038V231.38ZM109.186 221.656H112.398V232.348H109.186V221.656ZM109.098 202.428H111.958V205.508C111.958 207.209 111.65 208.823 111.034 210.348C110.418 211.844 109.567 213.237 108.482 214.528C107.426 215.789 106.209 216.933 104.83 217.96C103.481 218.957 102.043 219.793 100.518 220.468C98.9927 221.143 97.4673 221.641 95.942 221.964L94.534 219.28C95.854 219.016 97.1887 218.605 98.538 218.048C99.9167 217.461 101.237 216.743 102.498 215.892C103.759 215.012 104.889 214.029 105.886 212.944C106.883 211.859 107.661 210.685 108.218 209.424C108.805 208.163 109.098 206.857 109.098 205.508V202.428ZM109.67 202.428H112.486V205.508C112.486 206.887 112.779 208.207 113.366 209.468C113.953 210.7 114.745 211.859 115.742 212.944C116.739 214.029 117.869 215.012 119.13 215.892C120.391 216.743 121.711 217.461 123.09 218.048C124.469 218.605 125.818 219.016 127.138 219.28L125.686 221.964C124.19 221.641 122.679 221.143 121.154 220.468C119.629 219.793 118.177 218.957 116.798 217.96C115.419 216.933 114.187 215.789 113.102 214.528C112.046 213.237 111.21 211.844 110.594 210.348C109.978 208.823 109.67 207.209 109.67 205.508V202.428ZM153.843 207.136H164.051V209.864H153.843V207.136ZM162.731 199.7H165.987V220.204H162.731V199.7ZM140.599 222.316H165.987V231.6H143.899V237.76H140.731V229.092H162.775V224.956H140.599V222.316ZM140.731 236.132H167.527V238.816H140.731V236.132ZM143.547 200.932H146.187V204.804C146.187 207.209 145.717 209.453 144.779 211.536C143.869 213.589 142.593 215.364 140.951 216.86C139.308 218.327 137.401 219.456 135.231 220.248L133.515 217.696C135.48 216.992 137.211 216.009 138.707 214.748C140.203 213.487 141.376 212.005 142.227 210.304C143.107 208.603 143.547 206.769 143.547 204.804V200.932ZM144.031 200.932H146.671V204.804C146.671 206.124 146.92 207.4 147.419 208.632C147.917 209.864 148.607 211.008 149.487 212.064C150.396 213.12 151.452 214.059 152.655 214.88C153.857 215.672 155.163 216.303 156.571 216.772L154.855 219.324C152.772 218.561 150.909 217.476 149.267 216.068C147.653 214.631 146.377 212.944 145.439 211.008C144.5 209.072 144.031 207.004 144.031 204.804V200.932ZM203.031 199.7H206.287V239.388H203.031V199.7ZM185.475 202.824C187.44 202.824 189.171 203.381 190.667 204.496C192.163 205.611 193.336 207.209 194.187 209.292C195.038 211.345 195.463 213.765 195.463 216.552C195.463 219.368 195.038 221.803 194.187 223.856C193.336 225.909 192.163 227.508 190.667 228.652C189.171 229.767 187.44 230.324 185.475 230.324C183.539 230.324 181.808 229.767 180.283 228.652C178.787 227.508 177.614 225.909 176.763 223.856C175.912 221.803 175.487 219.368 175.487 216.552C175.487 213.765 175.912 211.345 176.763 209.292C177.614 207.209 178.787 205.611 180.283 204.496C181.808 203.381 183.539 202.824 185.475 202.824ZM185.475 205.728C184.126 205.728 182.938 206.183 181.911 207.092C180.884 207.972 180.078 209.233 179.491 210.876C178.904 212.489 178.611 214.381 178.611 216.552C178.611 218.723 178.904 220.629 179.491 222.272C180.078 223.915 180.884 225.191 181.911 226.1C182.938 227.009 184.126 227.464 185.475 227.464C186.824 227.464 188.012 227.009 189.039 226.1C190.066 225.191 190.872 223.915 191.459 222.272C192.046 220.629 192.339 218.723 192.339 216.552C192.339 214.381 192.046 212.489 191.459 210.876C190.872 209.233 190.066 207.972 189.039 207.092C188.012 206.183 186.824 205.728 185.475 205.728ZM241.836 199.744H245.092V223.636H241.836V199.744ZM244.08 209.776H251.076V212.504H244.08V209.776ZM216.228 218.576H219.308C221.654 218.576 223.84 218.547 225.864 218.488C227.917 218.4 229.897 218.268 231.804 218.092C233.74 217.887 235.764 217.608 237.876 217.256L238.14 219.984C236.028 220.336 233.989 220.615 232.024 220.82C230.058 220.996 228.049 221.128 225.996 221.216C223.942 221.275 221.713 221.304 219.308 221.304H216.228V218.576ZM216.14 202.208H233.916V212.768H219.396V220.336H216.228V210.172H230.704V204.892H216.14V202.208ZM232.508 224.956C235.206 224.956 237.524 225.249 239.46 225.836C241.396 226.393 242.877 227.2 243.904 228.256C244.93 229.283 245.444 230.559 245.444 232.084C245.444 234.343 244.3 236.103 242.012 237.364C239.724 238.625 236.556 239.256 232.508 239.256C229.838 239.256 227.536 238.977 225.6 238.42C223.664 237.863 222.168 237.056 221.112 236C220.085 234.915 219.572 233.609 219.572 232.084C219.572 230.559 220.085 229.283 221.112 228.256C222.168 227.2 223.664 226.393 225.6 225.836C227.536 225.249 229.838 224.956 232.508 224.956ZM232.508 227.508C230.484 227.508 228.738 227.699 227.272 228.08C225.834 228.432 224.72 228.945 223.928 229.62C223.136 230.295 222.74 231.116 222.74 232.084C222.74 233.052 223.136 233.888 223.928 234.592C224.72 235.267 225.834 235.78 227.272 236.132C228.738 236.513 230.484 236.704 232.508 236.704C234.532 236.704 236.277 236.513 237.744 236.132C239.21 235.78 240.34 235.267 241.132 234.592C241.924 233.888 242.32 233.052 242.32 232.084C242.32 231.116 241.924 230.295 241.132 229.62C240.34 228.945 239.21 228.432 237.744 228.08C236.277 227.699 234.532 227.508 232.508 227.508ZM294.001 199.7H297.257V239.388H294.001V199.7ZM281.549 212.9H295.101V215.584H281.549V212.9ZM266.897 204.144H270.153V228.74H266.897V204.144ZM266.897 226.98H269.933C272.016 226.98 274.025 226.936 275.961 226.848C277.897 226.76 279.818 226.599 281.725 226.364C283.632 226.129 285.597 225.807 287.621 225.396L288.017 228.124C285.934 228.535 283.91 228.857 281.945 229.092C280.009 229.327 278.058 229.503 276.093 229.62C274.128 229.708 272.074 229.752 269.933 229.752H266.897V226.98ZM305.174 222.844H341.078V225.572H305.174V222.844ZM321.41 224.472H324.622V239.3H321.41V224.472ZM309.838 201.944H336.414V217.3H309.838V201.944ZM333.202 204.584H313.006V214.704H333.202V204.584ZM385.675 199.7H388.799V227.552H385.675V199.7ZM373.927 212.064H379.999V214.748H373.927V212.064ZM378.503 200.316H381.583V224.516H378.503V200.316ZM355.271 204.76H375.071V207.4H355.271V204.76ZM365.127 209.512C366.74 209.512 368.163 209.82 369.395 210.436C370.627 211.023 371.595 211.859 372.299 212.944C373.003 214 373.355 215.247 373.355 216.684C373.355 218.092 373.003 219.353 372.299 220.468C371.595 221.553 370.627 222.389 369.395 222.976C368.163 223.563 366.74 223.856 365.127 223.856C363.543 223.856 362.135 223.563 360.903 222.976C359.671 222.389 358.703 221.553 357.999 220.468C357.295 219.353 356.943 218.092 356.943 216.684C356.943 215.247 357.295 214 357.999 212.944C358.703 211.859 359.671 211.023 360.903 210.436C362.135 209.82 363.543 209.512 365.127 209.512ZM365.127 212.064C363.572 212.064 362.311 212.489 361.343 213.34C360.375 214.191 359.891 215.305 359.891 216.684C359.891 218.063 360.375 219.177 361.343 220.028C362.311 220.879 363.572 221.304 365.127 221.304C366.711 221.304 367.987 220.879 368.955 220.028C369.923 219.177 370.407 218.063 370.407 216.684C370.407 215.305 369.923 214.191 368.955 213.34C367.987 212.489 366.711 212.064 365.127 212.064ZM363.543 200.052H366.755V206.564H363.543V200.052ZM374.103 225.88H376.875V226.936C376.875 228.608 376.435 230.133 375.555 231.512C374.704 232.891 373.546 234.108 372.079 235.164C370.612 236.191 368.97 237.041 367.151 237.716C365.332 238.42 363.455 238.904 361.519 239.168L360.331 236.66C361.71 236.455 363.059 236.161 364.379 235.78C365.699 235.369 366.946 234.871 368.119 234.284C369.292 233.697 370.319 233.023 371.199 232.26C372.108 231.497 372.812 230.676 373.311 229.796C373.839 228.887 374.103 227.933 374.103 226.936V225.88ZM374.543 225.88H377.359V226.936C377.359 227.933 377.608 228.887 378.107 229.796C378.606 230.676 379.31 231.497 380.219 232.26C381.128 233.023 382.155 233.697 383.299 234.284C384.472 234.871 385.719 235.369 387.039 235.78C388.388 236.161 389.738 236.455 391.087 236.66L389.899 239.168C388.374 238.933 386.863 238.581 385.367 238.112C383.871 237.643 382.463 237.041 381.143 236.308C379.852 235.575 378.708 234.739 377.711 233.8C376.743 232.861 375.966 231.82 375.379 230.676C374.822 229.532 374.543 228.285 374.543 226.936V225.88ZM423.336 199.7H426.592V219.94H423.336V199.7ZM425.712 208.764H432.576V211.492H425.712V208.764ZM412.424 201.724H415.944C415.944 205.009 415.181 207.928 413.656 210.48C412.16 213.003 410.018 215.144 407.232 216.904C404.445 218.635 401.145 219.969 397.332 220.908L396.056 218.18C399.517 217.388 402.465 216.273 404.9 214.836C407.334 213.399 409.197 211.712 410.488 209.776C411.778 207.84 412.424 205.713 412.424 203.396V201.724ZM397.728 201.724H414.272V204.408H397.728V201.724ZM401.644 221.788H426.592V231.424H404.944V237.804H401.732V228.872H423.424V224.428H401.644V221.788ZM401.732 236.308H428.088V238.948H401.732V236.308ZM465.66 199.7H468.872V239.388H465.66V199.7ZM457.608 208.852H466.628V211.536H457.608V208.852ZM437.94 227.332H440.844C442.927 227.332 444.892 227.303 446.74 227.244C448.618 227.156 450.48 227.039 452.328 226.892C454.206 226.716 456.156 226.467 458.18 226.144L458.488 228.872C456.406 229.195 454.411 229.444 452.504 229.62C450.627 229.796 448.735 229.913 446.828 229.972C444.951 230.031 442.956 230.06 440.844 230.06H437.94V227.332ZM437.808 203.352H455.056V217.3H441.152V227.992H437.94V214.616H451.844V206.036H437.808V203.352ZM457.3 219.676H466.32V222.404H457.3V219.676ZM480.309 226.496L479.825 207.444L479.737 203.132H483.345L483.257 207.444L482.773 226.496H480.309ZM481.541 236.572C480.807 236.572 480.177 236.308 479.649 235.78C479.121 235.252 478.857 234.577 478.857 233.756C478.857 232.876 479.121 232.172 479.649 231.644C480.177 231.116 480.807 230.852 481.541 230.852C482.274 230.852 482.905 231.116 483.433 231.644C483.961 232.172 484.225 232.876 484.225 233.756C484.225 234.577 483.961 235.252 483.433 235.78C482.905 236.308 482.274 236.572 481.541 236.572Z" fill="#484848"/>
<path d="M49.328 80.7H52.584V120.388H49.328V80.7ZM31.772 83.824C33.7373 83.824 35.468 84.3813 36.964 85.496C38.46 86.6107 39.6333 88.2093 40.484 90.292C41.3347 92.3453 41.76 94.7653 41.76 97.552C41.76 100.368 41.3347 102.803 40.484 104.856C39.6333 106.909 38.46 108.508 36.964 109.652C35.468 110.767 33.7373 111.324 31.772 111.324C29.836 111.324 28.1053 110.767 26.58 109.652C25.084 108.508 23.9107 106.909 23.06 104.856C22.2093 102.803 21.784 100.368 21.784 97.552C21.784 94.7653 22.2093 92.3453 23.06 90.292C23.9107 88.2093 25.084 86.6107 26.58 85.496C28.1053 84.3813 29.836 83.824 31.772 83.824ZM31.772 86.728C30.4227 86.728 29.2347 87.1827 28.208 88.092C27.1813 88.972 26.3747 90.2333 25.788 91.876C25.2013 93.4893 24.908 95.3813 24.908 97.552C24.908 99.7227 25.2013 101.629 25.788 103.272C26.3747 104.915 27.1813 106.191 28.208 107.1C29.2347 108.009 30.4227 108.464 31.772 108.464C33.1213 108.464 34.3093 108.009 35.336 107.1C36.3627 106.191 37.1693 104.915 37.756 103.272C38.3427 101.629 38.636 99.7227 38.636 97.552C38.636 95.3813 38.3427 93.4893 37.756 91.876C37.1693 90.2333 36.3627 88.972 35.336 88.092C34.3093 87.1827 33.1213 86.728 31.772 86.728ZM91.2126 80.7H94.3366V120.344H91.2126V80.7ZM73.7446 97.068H83.9966V99.752H73.7446V97.068ZM82.9846 81.756H86.0646V118.276H82.9846V81.756ZM74.5366 85.804H77.6606C77.6606 89.1773 77.1619 92.448 76.1646 95.616C75.1672 98.784 73.5686 101.732 71.3686 104.46C69.1686 107.188 66.2939 109.608 62.7446 111.72L60.8526 109.388C63.9619 107.511 66.5286 105.369 68.5526 102.964C70.5766 100.559 72.0726 97.9627 73.0406 95.176C74.0379 92.36 74.5366 89.412 74.5366 86.332V85.804ZM62.4806 85.804H75.8126V88.488H62.4806V85.804ZM121.554 83.824C123.461 83.824 125.147 84.3813 126.614 85.496C128.11 86.6107 129.269 88.2093 130.09 90.292C130.911 92.3453 131.322 94.7653 131.322 97.552C131.322 100.368 130.911 102.803 130.09 104.856C129.269 106.909 128.11 108.508 126.614 109.652C125.147 110.767 123.461 111.324 121.554 111.324C119.647 111.324 117.946 110.767 116.45 109.652C114.983 108.508 113.825 106.909 112.974 104.856C112.153 102.803 111.742 100.368 111.742 97.552C111.742 94.7653 112.153 92.3453 112.974 90.292C113.825 88.2093 114.983 86.6107 116.45 85.496C117.946 84.3813 119.647 83.824 121.554 83.824ZM121.554 86.728C120.234 86.728 119.061 87.1827 118.034 88.092C117.037 88.972 116.245 90.2333 115.658 91.876C115.101 93.4893 114.822 95.3813 114.822 97.552C114.822 99.7227 115.101 101.629 115.658 103.272C116.245 104.915 117.037 106.191 118.034 107.1C119.061 108.009 120.234 108.464 121.554 108.464C122.874 108.464 124.033 108.009 125.03 107.1C126.057 106.191 126.849 104.915 127.406 103.272C127.963 101.629 128.242 99.7227 128.242 97.552C128.242 95.3813 127.963 93.4893 127.406 91.876C126.849 90.2333 126.057 88.972 125.03 88.092C124.033 87.1827 122.874 86.728 121.554 86.728ZM140.298 80.7H143.51V120.388H140.298V80.7ZM130.222 95.968H141.75V98.608H130.222V95.968ZM158.159 116.736H185.395V119.42H158.159V116.736ZM158.159 107.188H161.415V118.144H158.159V107.188ZM181.171 80.744H184.427V109.608H181.171V80.744ZM173.691 91.7H183.723V94.384H173.691V91.7ZM152.615 100.368H154.287C155.049 100.368 155.885 100.353 156.795 100.324C157.704 100.295 158.687 100.221 159.743 100.104C160.799 99.9573 161.899 99.7667 163.043 99.532L163.395 102.216C162.163 102.48 161.004 102.671 159.919 102.788C158.833 102.905 157.821 102.979 156.883 103.008C155.973 103.037 155.108 103.052 154.287 103.052H152.615V100.368ZM152.615 84.044H162.559V86.728H155.827V101.248H152.615V84.044ZM164.759 100.368H166.695C168.073 100.368 169.335 100.353 170.479 100.324C171.623 100.295 172.737 100.207 173.823 100.06C174.937 99.9133 176.081 99.7227 177.255 99.488L177.607 102.128C176.375 102.392 175.187 102.597 174.043 102.744C172.928 102.861 171.769 102.949 170.567 103.008C169.393 103.037 168.103 103.052 166.695 103.052H164.759V100.368ZM164.759 84.044H175.671V86.728H167.971V101.16H164.759V84.044ZM201.788 112.38H237.692V115.108H201.788V112.38ZM217.936 102.656H221.148V113.348H217.936V102.656ZM217.848 83.428H220.708V86.508C220.708 88.2093 220.4 89.8227 219.784 91.348C219.168 92.844 218.317 94.2373 217.232 95.528C216.176 96.7893 214.959 97.9333 213.58 98.96C212.231 99.9573 210.793 100.793 209.268 101.468C207.743 102.143 206.217 102.641 204.692 102.964L203.284 100.28C204.604 100.016 205.939 99.6053 207.288 99.048C208.667 98.4613 209.987 97.7427 211.248 96.892C212.509 96.012 213.639 95.0293 214.636 93.944C215.633 92.8587 216.411 91.6853 216.968 90.424C217.555 89.1627 217.848 87.8573 217.848 86.508V83.428ZM218.42 83.428H221.236V86.508C221.236 87.8867 221.529 89.2067 222.116 90.468C222.703 91.7 223.495 92.8587 224.492 93.944C225.489 95.0293 226.619 96.012 227.88 96.892C229.141 97.7427 230.461 98.4613 231.84 99.048C233.219 99.6053 234.568 100.016 235.888 100.28L234.436 102.964C232.94 102.641 231.429 102.143 229.904 101.468C228.379 100.793 226.927 99.9573 225.548 98.96C224.169 97.9333 222.937 96.7893 221.852 95.528C220.796 94.2373 219.96 92.844 219.344 91.348C218.728 89.8227 218.42 88.2093 218.42 86.508V83.428ZM262.593 88.136H272.801V90.864H262.593V88.136ZM271.481 80.7H274.737V101.204H271.481V80.7ZM249.349 103.316H274.737V112.6H252.649V118.76H249.481V110.092H271.525V105.956H249.349V103.316ZM249.481 117.132H276.277V119.816H249.481V117.132ZM252.297 81.932H254.937V85.804C254.937 88.2093 254.467 90.4533 253.529 92.536C252.619 94.5893 251.343 96.364 249.701 97.86C248.058 99.3267 246.151 100.456 243.981 101.248L242.265 98.696C244.23 97.992 245.961 97.0093 247.457 95.748C248.953 94.4867 250.126 93.0053 250.977 91.304C251.857 89.6027 252.297 87.7693 252.297 85.804V81.932ZM252.781 81.932H255.421V85.804C255.421 87.124 255.67 88.4 256.169 89.632C256.667 90.864 257.357 92.008 258.237 93.064C259.146 94.12 260.202 95.0587 261.405 95.88C262.607 96.672 263.913 97.3027 265.321 97.772L263.605 100.324C261.522 99.5613 259.659 98.476 258.017 97.068C256.403 95.6307 255.127 93.944 254.189 92.008C253.25 90.072 252.781 88.004 252.781 85.804V81.932ZM311.781 80.7H315.037V120.388H311.781V80.7ZM294.225 83.824C296.19 83.824 297.921 84.3813 299.417 85.496C300.913 86.6107 302.086 88.2093 302.937 90.292C303.788 92.3453 304.213 94.7653 304.213 97.552C304.213 100.368 303.788 102.803 302.937 104.856C302.086 106.909 300.913 108.508 299.417 109.652C297.921 110.767 296.19 111.324 294.225 111.324C292.289 111.324 290.558 110.767 289.033 109.652C287.537 108.508 286.364 106.909 285.513 104.856C284.662 102.803 284.237 100.368 284.237 97.552C284.237 94.7653 284.662 92.3453 285.513 90.292C286.364 88.2093 287.537 86.6107 289.033 85.496C290.558 84.3813 292.289 83.824 294.225 83.824ZM294.225 86.728C292.876 86.728 291.688 87.1827 290.661 88.092C289.634 88.972 288.828 90.2333 288.241 91.876C287.654 93.4893 287.361 95.3813 287.361 97.552C287.361 99.7227 287.654 101.629 288.241 103.272C288.828 104.915 289.634 106.191 290.661 107.1C291.688 108.009 292.876 108.464 294.225 108.464C295.574 108.464 296.762 108.009 297.789 107.1C298.816 106.191 299.622 104.915 300.209 103.272C300.796 101.629 301.089 99.7227 301.089 97.552C301.089 95.3813 300.796 93.4893 300.209 91.876C299.622 90.2333 298.816 88.972 297.789 88.092C296.762 87.1827 295.574 86.728 294.225 86.728ZM333.47 104.944H336.022V107.364C336.022 109.036 335.655 110.708 334.922 112.38C334.218 114.023 333.191 115.489 331.842 116.78C330.522 118.071 328.923 119.083 327.046 119.816L325.418 117.396C327.09 116.78 328.512 115.929 329.686 114.844C330.888 113.759 331.812 112.571 332.458 111.28C333.132 109.96 333.47 108.655 333.47 107.364V104.944ZM334.13 104.944H336.594V107.364C336.594 108.713 336.858 110.063 337.386 111.412C337.943 112.761 338.75 113.993 339.806 115.108C340.891 116.193 342.211 117.059 343.766 117.704L342.358 120.168C340.48 119.435 338.926 118.393 337.694 117.044C336.491 115.695 335.596 114.184 335.01 112.512C334.423 110.811 334.13 109.095 334.13 107.364V104.944ZM348.122 104.944H350.586V107.364C350.586 108.86 350.278 110.459 349.662 112.16C349.075 113.832 348.18 115.387 346.978 116.824C345.775 118.261 344.235 119.376 342.358 120.168L340.95 117.704C342.534 116.971 343.854 116.017 344.91 114.844C345.995 113.641 346.802 112.38 347.33 111.06C347.858 109.74 348.122 108.508 348.122 107.364V104.944ZM348.738 104.944H351.334V107.364C351.334 108.743 351.656 110.092 352.302 111.412C352.947 112.732 353.871 113.92 355.074 114.976C356.276 116.003 357.714 116.809 359.386 117.396L357.714 119.816C355.836 119.112 354.223 118.129 352.874 116.868C351.524 115.607 350.498 114.155 349.794 112.512C349.09 110.869 348.738 109.153 348.738 107.364V104.944ZM342.71 90.776H353.402V93.46H342.71V90.776ZM333.998 82.988C335.934 82.988 337.65 83.384 339.146 84.176C340.671 84.9387 341.874 86.024 342.754 87.432C343.634 88.8107 344.074 90.4093 344.074 92.228C344.074 94.0467 343.634 95.6453 342.754 97.024C341.874 98.4027 340.671 99.488 339.146 100.28C337.65 101.072 335.934 101.468 333.998 101.468C332.032 101.468 330.287 101.072 328.762 100.28C327.266 99.488 326.078 98.4027 325.198 97.024C324.318 95.6453 323.878 94.0467 323.878 92.228C323.878 90.4093 324.318 88.8107 325.198 87.432C326.078 86.024 327.266 84.9387 328.762 84.176C330.287 83.384 332.032 82.988 333.998 82.988ZM333.998 85.716C332.648 85.716 331.446 85.9947 330.39 86.552C329.334 87.1093 328.498 87.8867 327.882 88.884C327.295 89.852 327.002 90.9667 327.002 92.228C327.002 93.4893 327.295 94.6187 327.882 95.616C328.498 96.584 329.334 97.3467 330.39 97.904C331.446 98.4613 332.648 98.74 333.998 98.74C335.318 98.74 336.506 98.4613 337.562 97.904C338.618 97.3467 339.439 96.584 340.026 95.616C340.642 94.6187 340.95 93.4893 340.95 92.228C340.95 90.9667 340.642 89.852 340.026 88.884C339.439 87.8867 338.618 87.1093 337.562 86.552C336.506 85.9947 335.318 85.716 333.998 85.716ZM352.434 80.7H355.69V103.36H352.434V80.7ZM374.342 86.288H377.026V93.064C377.026 95.1173 376.718 97.156 376.102 99.18C375.486 101.175 374.65 103.052 373.594 104.812C372.538 106.572 371.321 108.127 369.942 109.476C368.593 110.825 367.156 111.896 365.63 112.688L363.738 110.092C365.117 109.417 366.437 108.479 367.698 107.276C368.989 106.073 370.133 104.695 371.13 103.14C372.128 101.585 372.905 99.9427 373.462 98.212C374.049 96.4813 374.342 94.7653 374.342 93.064V86.288ZM374.958 86.288H377.598V93.064C377.598 94.736 377.877 96.3933 378.434 98.036C379.021 99.6787 379.813 101.233 380.81 102.7C381.837 104.137 382.981 105.413 384.242 106.528C385.533 107.643 386.897 108.508 388.334 109.124L386.486 111.72C384.932 110.987 383.45 109.989 382.042 108.728C380.664 107.467 379.432 106.015 378.346 104.372C377.29 102.7 376.454 100.911 375.838 99.004C375.252 97.068 374.958 95.088 374.958 93.064V86.288ZM364.97 84.792H387.058V87.564H364.97V84.792ZM392.734 80.7H395.99V120.344H392.734V80.7ZM409.759 107.496C409.553 105.971 409.641 104.607 410.023 103.404C410.404 102.172 410.947 101.072 411.651 100.104C412.384 99.1067 413.117 98.168 413.851 97.288C414.613 96.3787 415.259 95.4693 415.787 94.56C416.315 93.6213 416.579 92.6093 416.579 91.524C416.579 90.6147 416.388 89.7933 416.007 89.06C415.655 88.2973 415.112 87.696 414.379 87.256C413.675 86.7867 412.765 86.552 411.651 86.552C410.536 86.552 409.48 86.8013 408.483 87.3C407.485 87.7987 406.591 88.5173 405.799 89.456L403.731 87.52C404.728 86.4053 405.916 85.4667 407.295 84.704C408.673 83.9413 410.243 83.56 412.003 83.56C413.645 83.56 415.068 83.8827 416.271 84.528C417.473 85.144 418.412 86.0387 419.087 87.212C419.761 88.356 420.099 89.72 420.099 91.304C420.099 92.624 419.82 93.812 419.263 94.868C418.735 95.8947 418.089 96.8773 417.327 97.816C416.564 98.7253 415.816 99.664 415.083 100.632C414.349 101.6 413.763 102.641 413.323 103.756C412.883 104.841 412.751 106.088 412.927 107.496H409.759ZM411.475 117.572C410.712 117.572 410.067 117.308 409.539 116.78C409.04 116.252 408.791 115.577 408.791 114.756C408.791 113.876 409.04 113.172 409.539 112.644C410.067 112.116 410.712 111.852 411.475 111.852C412.208 111.852 412.839 112.116 413.367 112.644C413.895 113.172 414.159 113.876 414.159 114.756C414.159 115.577 413.895 116.252 413.367 116.78C412.839 117.308 412.208 117.572 411.475 117.572ZM428.098 107.496L427.614 88.444L427.526 84.132H431.134L431.046 88.444L430.562 107.496H428.098ZM429.33 117.572C428.597 117.572 427.966 117.308 427.438 116.78C426.91 116.252 426.646 115.577 426.646 114.756C426.646 113.876 426.91 113.172 427.438 112.644C427.966 112.116 428.597 111.852 429.33 111.852C430.063 111.852 430.694 112.116 431.222 112.644C431.75 113.172 432.014 113.876 432.014 114.756C432.014 115.577 431.75 116.252 431.222 116.78C430.694 117.308 430.063 117.572 429.33 117.572Z" fill="#484848"/>
<path d="M62.548 318.7H65.804V358.388H62.548V318.7ZM50.096 331.9H63.648V334.584H50.096V331.9ZM35.444 323.144H38.7V347.74H35.444V323.144ZM35.444 345.98H38.48C40.5627 345.98 42.572 345.936 44.508 345.848C46.444 345.76 48.3653 345.599 50.272 345.364C52.1787 345.129 54.144 344.807 56.168 344.396L56.564 347.124C54.4813 347.535 52.4573 347.857 50.492 348.092C48.556 348.327 46.6053 348.503 44.64 348.62C42.6747 348.708 40.6213 348.752 38.48 348.752H35.444V345.98ZM73.7206 341.844H109.625V344.572H73.7206V341.844ZM89.9566 343.472H93.1686V358.3H89.9566V343.472ZM78.3846 320.944H104.961V336.3H78.3846V320.944ZM101.749 323.584H81.5526V333.704H101.749V323.584ZM153.078 318.7H156.334V358.388H153.078V318.7ZM126.326 322.088H129.538V332.692H141.594V322.088H144.85V348.752H126.326V322.088ZM129.538 335.332V346.068H141.594V335.332H129.538ZM164.471 338.016H200.287V340.7H164.471V338.016ZM180.751 343.868H183.523V345.188C183.523 346.977 183.112 348.591 182.291 350.028C181.469 351.465 180.355 352.741 178.947 353.856C177.539 354.941 175.94 355.851 174.151 356.584C172.361 357.317 170.499 357.845 168.563 358.168L167.331 355.616C169.061 355.352 170.719 354.927 172.303 354.34C173.916 353.724 175.353 352.961 176.615 352.052C177.876 351.143 178.873 350.116 179.607 348.972C180.369 347.828 180.751 346.567 180.751 345.188V343.868ZM181.235 343.868H184.007V345.188C184.007 346.567 184.373 347.828 185.107 348.972C185.869 350.116 186.881 351.143 188.143 352.052C189.404 352.961 190.841 353.724 192.455 354.34C194.068 354.927 195.74 355.352 197.471 355.616L196.195 358.168C194.259 357.845 192.396 357.317 190.607 356.584C188.817 355.851 187.219 354.941 185.811 353.856C184.403 352.741 183.288 351.465 182.467 350.028C181.645 348.591 181.235 346.977 181.235 345.188V343.868ZM180.751 319.36H183.523V321.208C183.523 322.616 183.229 323.936 182.643 325.168C182.085 326.4 181.293 327.544 180.267 328.6C179.24 329.627 178.067 330.551 176.747 331.372C175.427 332.164 174.004 332.839 172.479 333.396C170.983 333.924 169.457 334.32 167.903 334.584L166.671 331.988C168.02 331.783 169.369 331.46 170.719 331.02C172.068 330.551 173.329 329.993 174.503 329.348C175.705 328.673 176.776 327.911 177.715 327.06C178.653 326.209 179.387 325.3 179.915 324.332C180.472 323.335 180.751 322.293 180.751 321.208V319.36ZM181.279 319.36H184.051V321.208C184.051 322.264 184.315 323.291 184.843 324.288C185.4 325.256 186.148 326.165 187.087 327.016C188.025 327.837 189.096 328.6 190.299 329.304C191.501 329.979 192.763 330.551 194.083 331.02C195.432 331.46 196.767 331.783 198.087 331.988L196.855 334.584C195.329 334.32 193.819 333.909 192.323 333.352C190.827 332.795 189.404 332.105 188.055 331.284C186.735 330.463 185.561 329.539 184.535 328.512C183.508 327.485 182.701 326.356 182.115 325.124C181.557 323.892 181.279 322.587 181.279 321.208V319.36ZM204.903 325.652H224.659V328.336H204.903V325.652ZM214.803 331.108C216.446 331.108 217.898 331.489 219.159 332.252C220.45 333.015 221.462 334.071 222.195 335.42C222.928 336.769 223.295 338.324 223.295 340.084C223.295 341.844 222.928 343.399 222.195 344.748C221.462 346.097 220.45 347.153 219.159 347.916C217.898 348.679 216.446 349.06 214.803 349.06C213.16 349.06 211.694 348.679 210.403 347.916C209.142 347.153 208.144 346.097 207.411 344.748C206.678 343.399 206.311 341.844 206.311 340.084C206.311 338.324 206.678 336.769 207.411 335.42C208.144 334.071 209.156 333.015 210.447 332.252C211.738 331.489 213.19 331.108 214.803 331.108ZM214.803 333.88C213.747 333.88 212.794 334.159 211.943 334.716C211.092 335.244 210.432 335.977 209.963 336.916C209.494 337.825 209.259 338.881 209.259 340.084C209.259 341.287 209.494 342.357 209.963 343.296C210.432 344.235 211.092 344.968 211.943 345.496C212.794 346.024 213.747 346.288 214.803 346.288C215.888 346.288 216.842 346.024 217.663 345.496C218.514 344.968 219.174 344.235 219.643 343.296C220.112 342.357 220.347 341.287 220.347 340.084C220.347 338.881 220.112 337.825 219.643 336.916C219.174 335.977 218.514 335.244 217.663 334.716C216.842 334.159 215.888 333.88 214.803 333.88ZM235.307 318.7H238.387V358.344H235.307V318.7ZM228.663 335.508H236.319V338.192H228.663V335.508ZM226.771 319.624H229.851V356.364H226.771V319.624ZM213.219 319.888H216.431V327.236H213.219V319.888ZM248.856 345.496L248.372 326.444L248.284 322.132H251.892L251.804 326.444L251.32 345.496H248.856ZM250.088 355.572C249.354 355.572 248.724 355.308 248.196 354.78C247.668 354.252 247.404 353.577 247.404 352.756C247.404 351.876 247.668 351.172 248.196 350.644C248.724 350.116 249.354 349.852 250.088 349.852C250.821 349.852 251.452 350.116 251.98 350.644C252.508 351.172 252.772 351.876 252.772 352.756C252.772 353.577 252.508 354.252 251.98 354.78C251.452 355.308 250.821 355.572 250.088 355.572ZM262.692 345.496L262.208 326.444L262.12 322.132H265.728L265.64 326.444L265.156 345.496H262.692ZM263.924 355.572C263.19 355.572 262.56 355.308 262.032 354.78C261.504 354.252 261.24 353.577 261.24 352.756C261.24 351.876 261.504 351.172 262.032 350.644C262.56 350.116 263.19 349.852 263.924 349.852C264.657 349.852 265.288 350.116 265.816 350.644C266.344 351.172 266.608 351.876 266.608 352.756C266.608 353.577 266.344 354.252 265.816 354.78C265.288 355.308 264.657 355.572 263.924 355.572Z" fill="#484848"/>
<path d="M311.078 87.5694C330.494 81.8655 350.858 92.9816 356.562 112.397L361.213 128.23C362.674 133.203 359.827 138.418 354.855 139.879L312.869 152.213C307.897 153.674 302.682 150.827 301.221 145.855L293.538 119.703C289.508 105.986 297.361 91.5992 311.078 87.5694Z" fill="white" stroke="black" stroke-width="2"/>
<path d="M313.044 91.6302C329.708 86.7344 347.187 96.275 352.082 112.94L356.656 128.506C357.582 131.661 355.776 134.969 352.622 135.896L313.038 147.525C309.638 148.524 306.071 146.577 305.072 143.177L298.016 119.16C294.564 107.408 301.292 95.0828 313.044 91.6302Z" fill="#FF39A5" stroke="black" stroke-width="2"/>
<path d="M309.825 114.221C310.67 113.973 311.557 114.457 311.805 115.302C312.054 116.148 311.57 117.035 310.724 117.283C309.879 117.532 308.992 117.048 308.743 116.202C308.495 115.356 308.979 114.47 309.825 114.221Z" fill="black" stroke="black" stroke-width="2"/>
<path d="M318.364 111.712C319.21 111.464 320.096 111.948 320.345 112.794C320.593 113.639 320.109 114.526 319.264 114.774C318.418 115.023 317.531 114.539 317.283 113.693C317.035 112.848 317.519 111.961 318.364 111.712Z" fill="black" stroke="black" stroke-width="2"/>
<path d="M320.789 122.596C323.101 121.916 325.314 121.879 327.004 122.319C328.716 122.765 329.715 123.638 330.01 124.642C330.305 125.646 329.937 126.92 328.738 128.222C327.554 129.506 325.673 130.671 323.361 131.351C321.048 132.03 318.835 132.068 317.145 131.628C315.432 131.182 314.434 130.309 314.139 129.305C313.844 128.3 314.212 127.026 315.411 125.725C316.594 124.44 318.476 123.275 320.789 122.596ZM320.852 122.811C318.714 123.439 316.96 124.487 315.8 125.645L315.577 125.877C314.397 127.158 314.093 128.352 314.354 129.241C314.599 130.075 315.407 130.865 316.895 131.322L317.202 131.409C318.846 131.837 321.017 131.805 323.297 131.135C325.435 130.507 327.189 129.46 328.348 128.303L328.572 128.069C329.752 126.788 330.056 125.595 329.794 124.705C329.549 123.872 328.742 123.081 327.254 122.624L326.947 122.537C325.303 122.109 323.132 122.141 320.852 122.811Z" fill="black" stroke="black" stroke-width="2"/>
<rect x="165" y="31" width="137" height="60" rx="30" fill="#FF592F"/>
<rect x="150" y="221" width="227" height="84" rx="42" fill="#FF592F"/>
<path d="M288.12 103.007C289.034 104.822 286.973 106.686 285.259 105.594L254.789 86.1869C253.101 85.1122 253.862 82.5 255.863 82.5L276.553 82.5C277.308 82.5 277.999 82.9254 278.339 83.5999L288.12 103.007Z" fill="#FF592F"/>
<path d="M179.272 319.507C178.358 321.322 180.419 323.186 182.133 322.094L212.604 302.687C214.291 301.612 213.53 299 211.529 299L190.839 299C190.084 299 189.393 299.425 189.053 300.1L179.272 319.507Z" fill="#FF592F"/>
<path d="M117.667 277.426C136.147 285.332 144.718 306.722 136.812 325.202L111.524 384.309C108.7 390.91 101.06 393.971 94.4589 391.147L61.2648 376.946C54.6638 374.122 51.6021 366.481 54.4261 359.88L83.9166 290.95C89.5019 277.896 104.612 271.841 117.667 277.426Z" fill="white" stroke="black" stroke-width="2"/>
<path d="M116.606 281.78C132.467 288.566 139.823 306.925 133.038 322.785L107.626 382.183C105.67 386.753 100.381 388.873 95.811 386.918L63.3907 373.047C58.821 371.092 56.7014 365.802 58.6563 361.233L87.6912 293.367C92.4761 282.183 105.422 276.995 116.606 281.78Z" fill="#3179FF" stroke="black" stroke-width="2"/>
<path d="M114.47 310.652C113.861 307.742 110.888 302.759 103.863 306.106" stroke="black" stroke-width="3" stroke-linecap="round"/>
<path d="M129.823 317.22C129.214 314.31 126.241 309.328 119.217 312.675" stroke="black" stroke-width="3" stroke-linecap="round"/>
<path d="M119.757 327.449C120.721 327.901 121.352 328.506 121.6 329.408L121.645 329.593C121.736 330.029 121.801 330.472 121.841 330.912L121.873 331.351C121.957 332.866 121.753 334.177 121.459 334.863C120.962 336.024 119.478 336.908 116.992 337.085C114.563 337.257 111.467 336.712 108.309 335.361C105.151 334.01 102.619 332.146 101.067 330.271C99.4771 328.351 99.0911 326.667 99.5877 325.506C99.8444 324.906 100.494 324.024 101.426 323.153L101.842 322.781C102.128 322.537 102.431 322.301 102.745 322.081L103.062 321.866C103.975 321.269 104.96 321.277 106.103 321.707C106.99 322.04 107.894 322.599 108.808 323.241L109.724 323.904C111.229 325.016 113.145 325.984 115.439 326.406L115.903 326.482C117.328 326.693 118.69 326.949 119.757 327.449Z" fill="white" stroke="black" stroke-width="2"/>
<circle cx="146.363" cy="319.47" r="0.368419" transform="rotate(23.1628 146.363 319.47)" fill="#D9D9D9"/>
<path d="M109.842 324.283L103.752 332.897" stroke="black" stroke-width="2"/>
<path d="M115.263 326.601L113.382 336.616" stroke="black" stroke-width="2"/>
<rect x="84.5474" y="130.629" width="53.7973" height="63.5787" transform="rotate(-34.7047 84.5474 130.629)" fill="#3179FF"/>
<rect x="91.3521" y="131.865" width="43.0379" height="30.3221" transform="rotate(-34.7047 91.3521 131.865)" fill="#FF592F"/>
<path d="M126.307 144.541L108.616 156.793L91.3521 131.865L126.733 107.362L135.365 119.826" stroke="black"/>
<path d="M146.873 126.134L128.774 100L106.661 115.315L84.5474 130.629L93.597 143.696M102.647 156.763L120.746 182.897L142.859 167.583" stroke="black"/>
<rect x="110.844" y="160.01" width="43.0379" height="1.95627" transform="rotate(-34.7047 110.844 160.01)" fill="white"/>
<rect x="113.071" y="163.226" width="43.0379" height="1.95627" transform="rotate(-34.7047 113.071 163.226)" fill="white"/>
<rect x="135.402" y="152.52" width="18.5845" height="0.978133" transform="rotate(-34.7047 135.402 152.52)" fill="white"/>
<path d="M105.692 165.317C106.364 165.076 107.079 164.981 107.791 165.04L115.302 165.656C116.158 165.726 116.533 166.771 115.918 167.37L110.514 172.624C110.002 173.121 109.39 173.504 108.718 173.745L78.8498 184.47C77.2904 185.03 75.5723 184.22 75.0124 182.661L74.0138 179.88C73.4539 178.321 74.264 176.603 75.8234 176.043L105.692 165.317Z" fill="#FF592F"/>
<rect x="79.7427" y="174.635" width="8.95474" height="1.79095" transform="rotate(70.2473 79.7427 174.635)" fill="#3179FF"/>
<path d="M92.882 179.432L78.8498 184.47C77.2904 185.03 75.5723 184.22 75.0124 182.661L74.0138 179.88C73.4539 178.321 74.264 176.603 75.8234 176.043L89.8556 171.004L94.0695 169.491L98.2835 167.977L102.497 166.464L105.692 165.317C106.364 165.076 107.079 164.981 107.791 165.04L115.302 165.656C116.158 165.726 116.533 166.771 115.918 167.37L113.616 169.607" stroke="black"/>
<path d="M348.11 30.0703C347.584 30.5525 346.961 30.9165 346.282 31.1377L339.116 33.4741C338.3 33.7403 337.55 32.9218 337.886 32.1318L340.838 25.1967C341.117 24.5399 341.534 23.9506 342.06 23.4684L365.458 2.02694C366.679 0.907535 368.577 0.990309 369.696 2.21182L371.692 4.3902C372.812 5.61172 372.729 7.50941 371.508 8.62881L348.11 30.0703Z" fill="#FF592F"/>
<rect x="368.438" y="11.4421" width="8.95474" height="1.79095" transform="rotate(-132.502 368.438 11.4421)" fill="#3179FF"/>
<path d="M354.466 12.1001L365.458 2.02694C366.679 0.907535 368.577 0.990309 369.696 2.21182L371.692 4.3902C372.812 5.61172 372.729 7.50941 371.508 8.62881L360.516 18.702L357.215 21.727L353.914 24.752L350.613 27.777L348.11 30.0703C347.584 30.5525 346.961 30.9165 346.282 31.1377L339.116 33.4741C338.3 33.7403 337.55 32.9218 337.886 32.1318L339.143 29.1781" stroke="black"/>
<path d="M259.709 397.616C259.244 397.075 258.901 396.44 258.701 395.755L256.597 388.517C256.358 387.693 257.2 386.97 257.979 387.331L264.815 390.505C265.462 390.805 266.038 391.241 266.503 391.782L287.179 415.859C288.258 417.116 288.114 419.01 286.857 420.089L284.616 422.014C283.359 423.094 281.465 422.95 280.385 421.693L259.709 397.616Z" fill="#FF592F"/>
<rect x="277.672" y="418.534" width="8.95474" height="1.79095" transform="rotate(-40.6543 277.672 418.534)" fill="#3179FF"/>
<path d="M277.465 404.548L287.179 415.859C288.258 417.116 288.114 419.01 286.857 420.089L284.616 422.014C283.359 423.094 281.465 422.95 280.385 421.693L270.672 410.382L267.755 406.985L264.838 403.588L261.921 400.191L259.709 397.616C259.244 397.075 258.901 396.44 258.701 395.755L256.597 388.517C256.358 387.693 257.2 386.97 257.979 387.331L260.89 388.683" stroke="black"/>
<path d="M193.935 55.362H205.527V56.566H193.935V55.362ZM198.947 52.366H200.403V55.712H198.947V52.366ZM198.891 46.15H200.179V47.116C200.179 47.6573 200.09 48.18 199.913 48.684C199.745 49.1787 199.498 49.6407 199.171 50.07C198.854 50.4993 198.476 50.8867 198.037 51.232C197.598 51.5773 197.113 51.8713 196.581 52.114C196.058 52.3567 195.508 52.534 194.929 52.646L194.313 51.414C194.817 51.33 195.298 51.19 195.755 50.994C196.212 50.798 196.632 50.56 197.015 50.28C197.398 50 197.729 49.692 198.009 49.356C198.289 49.0107 198.504 48.6513 198.653 48.278C198.812 47.8953 198.891 47.508 198.891 47.116V46.15ZM199.171 46.15H200.445V47.116C200.445 47.508 200.524 47.8953 200.683 48.278C200.842 48.6607 201.061 49.02 201.341 49.356C201.621 49.692 201.952 50.0047 202.335 50.294C202.718 50.574 203.138 50.812 203.595 51.008C204.052 51.1947 204.538 51.33 205.051 51.414L204.421 52.646C203.842 52.534 203.287 52.3567 202.755 52.114C202.232 51.8713 201.752 51.582 201.313 51.246C200.874 50.9007 200.492 50.5133 200.165 50.084C199.848 49.6453 199.6 49.1787 199.423 48.684C199.255 48.18 199.171 47.6573 199.171 47.116V46.15ZM213.366 47.48H216.586V48.67H213.366V47.48ZM215.942 45.366H217.412V51.918H215.942V45.366ZM209.082 52.52H217.412V55.754H210.552V57.546H209.11V54.676H215.97V53.668H209.082V52.52ZM209.11 56.846H217.846V57.994H209.11V56.846ZM209.88 45.772H211.084V46.836C211.084 47.6293 210.944 48.3713 210.664 49.062C210.384 49.7433 209.978 50.336 209.446 50.84C208.923 51.344 208.284 51.722 207.528 51.974L206.772 50.826C207.435 50.602 207.999 50.2893 208.466 49.888C208.933 49.4867 209.283 49.0247 209.516 48.502C209.759 47.9793 209.88 47.424 209.88 46.836V45.772ZM210.16 45.772H211.35V46.836C211.35 47.2373 211.415 47.6293 211.546 48.012C211.677 48.3853 211.873 48.74 212.134 49.076C212.395 49.4027 212.713 49.6967 213.086 49.958C213.459 50.21 213.884 50.4107 214.36 50.56L213.604 51.708C212.876 51.456 212.255 51.092 211.742 50.616C211.229 50.1307 210.837 49.566 210.566 48.922C210.295 48.2687 210.16 47.5733 210.16 46.836V45.772ZM231.363 45.366H232.819V54.942H231.363V45.366ZM232.385 49.44H234.625V50.658H232.385V49.44ZM222.851 46.822H230.397V47.984H222.851V46.822ZM226.631 48.586C227.238 48.586 227.775 48.6887 228.241 48.894C228.708 49.09 229.072 49.37 229.333 49.734C229.595 50.098 229.725 50.5227 229.725 51.008C229.725 51.484 229.595 51.904 229.333 52.268C229.072 52.632 228.708 52.9167 228.241 53.122C227.775 53.3273 227.238 53.43 226.631 53.43C226.015 53.43 225.474 53.3273 225.007 53.122C224.541 52.9167 224.177 52.632 223.915 52.268C223.654 51.904 223.523 51.484 223.523 51.008C223.523 50.5227 223.654 50.098 223.915 49.734C224.177 49.37 224.541 49.09 225.007 48.894C225.474 48.6887 226.015 48.586 226.631 48.586ZM226.631 49.706C226.127 49.706 225.717 49.8227 225.399 50.056C225.082 50.2893 224.923 50.6067 224.923 51.008C224.923 51.4093 225.082 51.7267 225.399 51.96C225.717 52.184 226.127 52.296 226.631 52.296C227.135 52.296 227.541 52.184 227.849 51.96C228.157 51.7267 228.311 51.4093 228.311 51.008C228.311 50.6067 228.157 50.2893 227.849 50.056C227.541 49.8227 227.135 49.706 226.631 49.706ZM225.889 45.366H227.359V47.41H225.889V45.366ZM224.727 56.706H233.351V57.896H224.727V56.706ZM224.727 54.2H226.197V57.224H224.727V54.2ZM235.716 51.834H247.28V53.024H235.716V51.834ZM240.756 50.056H242.212V52.142H240.756V50.056ZM236.99 54.102H245.866V58.162H244.396V55.278H236.99V54.102ZM237.214 45.674H238.67V46.976H244.326V45.674H245.782V50.518H237.214V45.674ZM238.67 48.096V49.356H244.326V48.096H238.67ZM248.917 46.486H255.763V47.676H248.917V46.486ZM248.749 52.982L248.581 51.764C249.319 51.764 250.126 51.7593 251.003 51.75C251.881 51.7313 252.772 51.6987 253.677 51.652C254.592 51.596 255.46 51.5167 256.281 51.414L256.379 52.492C255.539 52.632 254.667 52.7393 253.761 52.814C252.856 52.8793 251.974 52.926 251.115 52.954C250.257 52.9727 249.468 52.982 248.749 52.982ZM250.079 47.396H251.493V52.002H250.079V47.396ZM253.187 47.396H254.601V52.002H253.187V47.396ZM257.121 45.366H258.577V54.788H257.121V45.366ZM258.143 49.132H260.383V50.35H258.143V49.132ZM250.485 56.706H259.109V57.896H250.485V56.706ZM250.485 53.906H251.955V57.028H250.485V53.906ZM266.626 50.21H268.908V51.414H266.626V50.21ZM270.994 45.352H272.394V58.148H270.994V45.352ZM268.432 45.604H269.804V57.546H268.432V45.604ZM264.344 46.346C264.904 46.346 265.389 46.5327 265.8 46.906C266.22 47.27 266.542 47.7927 266.766 48.474C266.99 49.146 267.102 49.9533 267.102 50.896C267.102 51.8293 266.99 52.6367 266.766 53.318C266.542 53.9993 266.22 54.522 265.8 54.886C265.389 55.25 264.904 55.432 264.344 55.432C263.793 55.432 263.313 55.25 262.902 54.886C262.491 54.522 262.174 53.9993 261.95 53.318C261.726 52.6367 261.614 51.8293 261.614 50.896C261.614 49.9533 261.726 49.146 261.95 48.474C262.174 47.7927 262.491 47.27 262.902 46.906C263.322 46.5327 263.803 46.346 264.344 46.346ZM264.344 47.732C264.064 47.732 263.817 47.8533 263.602 48.096C263.387 48.3387 263.224 48.698 263.112 49.174C263 49.6407 262.944 50.2147 262.944 50.896C262.944 51.5587 263 52.128 263.112 52.604C263.224 53.08 263.387 53.444 263.602 53.696C263.817 53.9387 264.064 54.06 264.344 54.06C264.643 54.06 264.895 53.9387 265.1 53.696C265.315 53.444 265.478 53.08 265.59 52.604C265.702 52.128 265.758 51.5587 265.758 50.896C265.758 50.2147 265.702 49.6407 265.59 49.174C265.478 48.698 265.315 48.3387 265.1 48.096C264.895 47.8533 264.643 47.732 264.344 47.732ZM206.253 68.336H206.855C207.144 68.336 207.438 68.3313 207.737 68.322C208.035 68.3127 208.343 68.2893 208.661 68.252C208.978 68.2147 209.309 68.1633 209.655 68.098L209.795 69.246C209.421 69.3207 209.067 69.3767 208.731 69.414C208.404 69.442 208.087 69.4607 207.779 69.47C207.471 69.4793 207.163 69.484 206.855 69.484H206.253V68.336ZM206.253 64.052H209.515V65.2H207.695V69.092H206.253V64.052ZM210.187 68.336H210.859C211.353 68.336 211.783 68.3313 212.147 68.322C212.511 68.3127 212.851 68.2893 213.169 68.252C213.486 68.2053 213.808 68.1493 214.135 68.084L214.261 69.218C213.915 69.302 213.579 69.3627 213.253 69.4C212.926 69.428 212.571 69.4513 212.189 69.47C211.815 69.4793 211.372 69.484 210.859 69.484H210.187V68.336ZM210.187 64.052H213.743V65.2H211.629V69.092H210.187V64.052ZM207.989 70.492H216.725V73.726H209.487V75.406H208.017V72.648H215.255V71.64H207.989V70.492ZM208.017 74.846H217.131V75.994H208.017V74.846ZM215.255 63.366H216.725V69.918H215.255V63.366ZM213.155 66.068H216.375V67.188H213.155V66.068ZM222.31 64.29C222.944 64.29 223.504 64.4767 223.99 64.85C224.475 65.2233 224.858 65.746 225.138 66.418C225.418 67.09 225.558 67.8833 225.558 68.798C225.558 69.722 225.418 70.5247 225.138 71.206C224.858 71.878 224.475 72.4007 223.99 72.774C223.504 73.138 222.944 73.32 222.31 73.32C221.684 73.32 221.124 73.138 220.63 72.774C220.144 72.4007 219.762 71.878 219.482 71.206C219.211 70.5247 219.076 69.722 219.076 68.798C219.076 67.8833 219.211 67.09 219.482 66.418C219.762 65.746 220.144 65.2233 220.63 64.85C221.124 64.4767 221.684 64.29 222.31 64.29ZM222.31 65.62C221.946 65.62 221.624 65.746 221.344 65.998C221.073 66.25 220.858 66.614 220.7 67.09C220.55 67.566 220.476 68.1353 220.476 68.798C220.476 69.47 220.55 70.044 220.7 70.52C220.858 70.996 221.073 71.3647 221.344 71.626C221.624 71.878 221.946 72.004 222.31 72.004C222.683 72.004 223.005 71.878 223.276 71.626C223.556 71.3647 223.77 70.996 223.92 70.52C224.078 70.044 224.158 69.47 224.158 68.798C224.158 68.1353 224.078 67.566 223.92 67.09C223.77 66.614 223.556 66.25 223.276 65.998C223.005 65.746 222.683 65.62 222.31 65.62ZM228.022 63.352H229.492V76.176H228.022V63.352ZM225.096 68.112H228.652V69.302H225.096V68.112ZM240.901 63.366H242.357V76.162H240.901V63.366ZM234.853 65.27H236.015V66.838C236.015 67.5753 235.931 68.294 235.763 68.994C235.604 69.694 235.371 70.352 235.063 70.968C234.764 71.584 234.405 72.13 233.985 72.606C233.565 73.0727 233.098 73.4507 232.585 73.74L231.619 72.62C232.113 72.3773 232.557 72.0507 232.949 71.64C233.35 71.2293 233.691 70.7627 233.971 70.24C234.26 69.7173 234.479 69.1667 234.629 68.588C234.778 68 234.853 67.4167 234.853 66.838V65.27ZM235.189 65.27H236.337V66.838C236.337 67.342 236.411 67.8647 236.561 68.406C236.719 68.938 236.939 69.456 237.219 69.96C237.508 70.4547 237.849 70.9073 238.241 71.318C238.633 71.7193 239.071 72.046 239.557 72.298L238.703 73.432C238.18 73.1613 237.699 72.7927 237.261 72.326C236.831 71.8593 236.463 71.3273 236.155 70.73C235.847 70.1327 235.609 69.5027 235.441 68.84C235.273 68.168 235.189 67.5007 235.189 66.838V65.27ZM232.109 64.626H239.067V65.83H232.109V64.626ZM238.563 66.908H241.867V68.126H238.563V66.908ZM238.563 69.624H241.867V70.842H238.563V69.624ZM246.037 69.218H254.913V70.394H246.037V69.218ZM244.623 73.418H256.215V74.622H244.623V73.418ZM249.663 69.736H251.133V73.838H249.663V69.736ZM246.037 64.318H254.801V65.508H247.507V69.736H246.037V64.318ZM258.72 71.71L258.496 66.124L258.44 64.444H260.078L260.036 66.124L259.798 71.71H258.72ZM259.252 75.196C258.954 75.196 258.702 75.0887 258.496 74.874C258.291 74.65 258.188 74.3747 258.188 74.048C258.188 73.712 258.291 73.4413 258.496 73.236C258.702 73.0213 258.954 72.914 259.252 72.914C259.57 72.914 259.831 73.0213 260.036 73.236C260.242 73.4413 260.344 73.712 260.344 74.048C260.344 74.3747 260.242 74.65 260.036 74.874C259.831 75.0887 259.57 75.196 259.252 75.196Z" fill="white"/>
<path d="M336.798 412.501C339.633 408.864 343.596 406.271 348.065 405.129C355.041 403.347 362.444 405.298 367.637 410.286L385.276 427.227C390.194 431.95 390.352 439.766 385.628 444.684L354.584 477.007C351.744 479.964 347.045 480.059 344.088 477.219L323.802 457.735C318.867 452.996 318.708 445.153 323.447 440.218C325.041 438.559 326.214 436.541 326.867 434.336L329.569 425.211C330.653 421.55 332.414 418.125 334.761 415.114L336.798 412.501Z" fill="white" stroke="black" stroke-width="2"/>
<path d="M338.916 415.933C341.357 412.811 344.755 410.575 348.589 409.57C354.689 407.969 361.183 409.658 365.731 414.026L383.328 430.926C386.184 433.67 386.275 438.209 383.532 441.065L352.094 473.799C350.566 475.39 348.037 475.441 346.446 473.913L327.345 455.568L326.953 455.172C323.037 451.01 323.033 444.462 327.037 440.293C328.437 438.836 329.471 437.067 330.056 435.132L332.474 427.144C333.442 423.941 334.997 420.946 337.057 418.311L338.916 415.933Z" fill="#16F14F" stroke="black" stroke-width="2"/>
<path d="M345.772 435.806C347.102 435.119 348.753 435.57 349.539 436.869C350.359 438.225 349.923 439.99 348.567 440.809C347.268 441.595 345.597 441.227 344.738 440.002L345.772 435.806Z" fill="black" stroke="black"/>
<path d="M336.135 445.84C335.503 447.197 336.019 448.829 337.349 449.562C338.738 450.326 340.483 449.82 341.247 448.432C341.979 447.102 341.544 445.447 340.286 444.638L336.135 445.84Z" fill="black" stroke="black"/>
<path d="M356.073 442.293C353.939 443.193 350.573 446.21 354.182 451.081" stroke="black" stroke-width="3" stroke-linecap="round"/>
<path d="M198.993 245.024H200.883V261.476H198.993V245.024ZM194.151 246.77H196.023C196.023 247.994 195.891 249.164 195.627 250.28C195.363 251.396 194.931 252.458 194.331 253.466C193.743 254.462 192.963 255.386 191.991 256.238C191.031 257.09 189.843 257.858 188.427 258.542L187.419 257.048C189.015 256.28 190.305 255.404 191.289 254.42C192.273 253.436 192.993 252.338 193.449 251.126C193.917 249.902 194.151 248.558 194.151 247.094V246.77ZM188.229 246.77H194.997V248.282H188.229V246.77ZM203.851 253.988H218.755V255.5H203.851V253.988ZM205.705 245.402H216.883V249.596H207.595V251.63H205.741V248.246H215.011V246.86H205.705V245.402ZM205.741 251.036H217.207V252.494H205.741V251.036ZM210.349 251.774H212.239V254.762H210.349V251.774ZM205.489 256.598H216.973V261.386H215.083V258.128H205.489V256.598ZM220.986 246.446H228.672V254.222H220.986V246.446ZM226.836 247.958H222.84V252.71H226.836V247.958ZM231.372 245.024H233.244V257.066H231.372V245.024ZM232.686 249.92H235.566V251.486H232.686V249.92ZM222.84 259.622H233.928V261.152H222.84V259.622ZM222.84 255.896H224.73V260.342H222.84V255.896ZM253.234 245.024H255.034V261.476H253.234V245.024ZM247.492 250.82H250.462V252.35H247.492V250.82ZM249.94 245.366H251.704V260.684H249.94V245.366ZM244.18 247.634H245.602V249.56C245.602 250.46 245.524 251.354 245.368 252.242C245.224 253.118 244.996 253.94 244.684 254.708C244.384 255.476 244 256.172 243.532 256.796C243.064 257.408 242.518 257.906 241.894 258.29L240.742 256.904C241.534 256.412 242.182 255.782 242.686 255.014C243.19 254.234 243.562 253.376 243.802 252.44C244.054 251.492 244.18 250.532 244.18 249.56V247.634ZM244.576 247.634H245.998V249.56C245.998 250.496 246.118 251.414 246.358 252.314C246.598 253.214 246.964 254.03 247.456 254.762C247.96 255.482 248.596 256.07 249.364 256.526L248.248 257.894C247.42 257.39 246.736 256.712 246.196 255.86C245.656 254.996 245.248 254.024 244.972 252.944C244.708 251.864 244.576 250.736 244.576 249.56V247.634ZM241.264 246.824H248.698V248.372H241.264V246.824ZM269.792 245.024H271.592V261.476H269.792V245.024ZM267.272 251.504H270.26V253.052H267.272V251.504ZM266.084 245.366H267.848V260.666H266.084V245.366ZM258.11 256.022H259.208C259.964 256.022 260.66 256.01 261.296 255.986C261.932 255.962 262.55 255.92 263.15 255.86C263.762 255.788 264.386 255.692 265.022 255.572L265.202 257.12C264.542 257.252 263.9 257.354 263.276 257.426C262.652 257.486 262.01 257.528 261.35 257.552C260.702 257.576 259.988 257.588 259.208 257.588H258.11V256.022ZM258.11 246.986H264.194V248.516H259.964V256.742H258.11V246.986ZM274.129 258.002H289.033V259.55H274.129V258.002ZM280.609 254.654H282.499V258.632H280.609V254.654ZM275.893 246.176H287.269V251.396H277.783V254.438H275.929V249.902H285.397V247.706H275.893V246.176ZM275.929 253.682H287.647V255.194H275.929V253.682ZM290.669 247.688H298.697V249.218H290.669V247.688ZM294.683 250.154C295.379 250.154 295.991 250.316 296.519 250.64C297.059 250.964 297.485 251.414 297.797 251.99C298.109 252.554 298.265 253.214 298.265 253.97C298.265 254.726 298.109 255.392 297.797 255.968C297.485 256.544 297.059 256.994 296.519 257.318C295.991 257.642 295.379 257.804 294.683 257.804C294.011 257.804 293.405 257.642 292.865 257.318C292.325 256.994 291.899 256.544 291.587 255.968C291.287 255.392 291.137 254.726 291.137 253.97C291.137 253.214 291.287 252.554 291.587 251.99C291.899 251.414 292.325 250.964 292.865 250.64C293.405 250.316 294.011 250.154 294.683 250.154ZM294.701 251.738C294.341 251.738 294.017 251.834 293.729 252.026C293.441 252.206 293.213 252.464 293.045 252.8C292.889 253.124 292.811 253.514 292.811 253.97C292.811 254.426 292.889 254.822 293.045 255.158C293.213 255.494 293.441 255.758 293.729 255.95C294.017 256.13 294.341 256.22 294.701 256.22C295.061 256.22 295.379 256.13 295.655 255.95C295.943 255.758 296.171 255.494 296.339 255.158C296.507 254.822 296.591 254.426 296.591 253.97C296.591 253.514 296.507 253.124 296.339 252.8C296.171 252.464 295.943 252.206 295.655 252.026C295.379 251.834 295.061 251.738 294.701 251.738ZM302.891 245.024H304.691V261.476H302.891V245.024ZM300.569 251.846H303.485V253.394H300.569V251.846ZM299.399 245.366H301.163V260.72H299.399V245.366ZM293.765 245.492H295.637V248.642H293.765V245.492ZM309.226 251.018H320.35V252.53H309.226V251.018ZM307.246 254.438H322.15V255.986H307.246V254.438ZM313.708 255.302H315.58V261.44H313.708V255.302ZM309.226 245.96H320.134V247.472H311.134V251.756H309.226V245.96ZM331.725 247.796H336.117V249.308H331.725V247.796ZM331.725 251.324H336.153V252.836H331.725V251.324ZM324.525 246.41H332.139V254.276H324.525V246.41ZM330.303 247.904H326.379V252.764H330.303V247.904ZM335.541 245.042H337.431V257.03H335.541V245.042ZM326.721 259.622H337.809V261.152H326.721V259.622ZM326.721 255.932H328.611V260.378H326.721V255.932ZM238.818 268.032H240.366V269.94C240.366 271.02 240.186 272.028 239.826 272.964C239.478 273.888 238.962 274.692 238.278 275.376C237.594 276.06 236.766 276.582 235.794 276.942L234.768 275.466C235.656 275.166 236.4 274.74 237 274.188C237.6 273.624 238.05 272.976 238.35 272.244C238.662 271.512 238.818 270.744 238.818 269.94V268.032ZM239.178 268.032H240.708V269.994C240.708 270.534 240.792 271.062 240.96 271.578C241.14 272.094 241.392 272.58 241.716 273.036C242.052 273.492 242.46 273.894 242.94 274.242C243.432 274.59 243.996 274.872 244.632 275.088L243.678 276.582C242.718 276.234 241.902 275.736 241.23 275.088C240.558 274.44 240.048 273.678 239.7 272.802C239.352 271.914 239.178 270.978 239.178 269.994V268.032ZM245.892 267.024H247.764V279.12H245.892V267.024ZM247.206 271.956H250.086V273.522H247.206V271.956ZM237.396 281.622H248.43V283.152H237.396V281.622ZM237.396 277.968H239.286V282.414H237.396V277.968ZM262.342 267.024H264.232V283.512H262.342V267.024ZM263.818 273.342H266.788V274.908H263.818V273.342ZM252.154 277.896H253.486C254.47 277.896 255.376 277.884 256.204 277.86C257.032 277.824 257.836 277.77 258.616 277.698C259.396 277.614 260.188 277.5 260.992 277.356L261.19 278.922C260.362 279.078 259.546 279.198 258.742 279.282C257.95 279.354 257.122 279.408 256.258 279.444C255.406 279.468 254.482 279.48 253.486 279.48H252.154V277.896ZM252.154 268.59H259.804V270.12H254.026V278.634H252.154V268.59ZM269.613 277.77L269.325 270.588L269.253 268.428H271.359L271.305 270.588L270.999 277.77H269.613ZM270.297 282.252C269.913 282.252 269.589 282.114 269.325 281.838C269.061 281.55 268.929 281.196 268.929 280.776C268.929 280.344 269.061 279.996 269.325 279.732C269.589 279.456 269.913 279.318 270.297 279.318C270.705 279.318 271.041 279.456 271.305 279.732C271.569 279.996 271.701 280.344 271.701 280.776C271.701 281.196 271.569 281.55 271.305 281.838C271.041 282.114 270.705 282.252 270.297 282.252ZM275.783 277.77L275.495 270.588L275.423 268.428H277.529L277.475 270.588L277.169 277.77H275.783ZM276.467 282.252C276.083 282.252 275.759 282.114 275.495 281.838C275.231 281.55 275.099 281.196 275.099 280.776C275.099 280.344 275.231 279.996 275.495 279.732C275.759 279.456 276.083 279.318 276.467 279.318C276.875 279.318 277.211 279.456 277.475 279.732C277.739 279.996 277.871 280.344 277.871 280.776C277.871 281.196 277.739 281.55 277.475 281.838C277.211 282.114 276.875 282.252 276.467 282.252ZM281.953 277.77L281.665 270.588L281.593 268.428H283.699L283.645 270.588L283.339 277.77H281.953ZM282.637 282.252C282.253 282.252 281.929 282.114 281.665 281.838C281.401 281.55 281.269 281.196 281.269 280.776C281.269 280.344 281.401 279.996 281.665 279.732C281.929 279.456 282.253 279.318 282.637 279.318C283.045 279.318 283.381 279.456 283.645 279.732C283.909 279.996 284.041 280.344 284.041 280.776C284.041 281.196 283.909 281.55 283.645 281.838C283.381 282.114 283.045 282.252 282.637 282.252ZM288.123 277.77L287.835 270.588L287.763 268.428H289.869L289.815 270.588L289.509 277.77H288.123ZM288.807 282.252C288.423 282.252 288.099 282.114 287.835 281.838C287.571 281.55 287.439 281.196 287.439 280.776C287.439 280.344 287.571 279.996 287.835 279.732C288.099 279.456 288.423 279.318 288.807 279.318C289.215 279.318 289.551 279.456 289.815 279.732C290.079 279.996 290.211 280.344 290.211 280.776C290.211 281.196 290.079 281.55 289.815 281.838C289.551 282.114 289.215 282.252 288.807 282.252Z" fill="white"/>
</svg>
