<svg width="199" height="202" viewBox="0 0 199 202" fill="none" xmlns="http://www.w3.org/2000/svg">
<g filter="url(#filter0_d_79_932)">
<rect x="11" y="11" width="177" height="180" rx="11" fill="#242424"/>
</g>
<path d="M30.727 31.176H33.671V33.016C33.671 34.3193 33.5637 35.592 33.349 36.834C33.1343 38.076 32.7893 39.2413 32.314 40.33C31.8387 41.4187 31.2177 42.377 30.451 43.205C29.6843 44.033 28.749 44.6923 27.645 45.183L25.552 42.262C26.518 41.8327 27.3307 41.2807 27.99 40.606C28.6647 39.9313 29.2013 39.18 29.6 38.352C29.9987 37.524 30.2823 36.6577 30.451 35.753C30.635 34.833 30.727 33.9207 30.727 33.016V31.176ZM31.578 31.176H34.499V33.016C34.499 33.8593 34.5833 34.718 34.752 35.592C34.936 36.4507 35.2197 37.271 35.603 38.053C36.0017 38.835 36.523 39.5403 37.167 40.169C37.8263 40.7977 38.639 41.3113 39.605 41.71L37.604 44.631C36.5 44.171 35.5647 43.5423 34.798 42.745C34.0313 41.9477 33.4103 41.0353 32.935 40.008C32.4597 38.9653 32.1147 37.8537 31.9 36.673C31.6853 35.477 31.578 34.258 31.578 33.016V31.176ZM26.495 29.589H38.639V32.625H26.495V29.589ZM40.134 27.611H43.86V49.185H40.134V27.611ZM49.3322 28.462H62.8792V31.383H49.3322V28.462ZM46.9862 36.121H66.5132V39.042H46.9862V36.121ZM60.6942 28.462H64.3512V30.256C64.3512 31.1913 64.3282 32.1727 64.2822 33.2C64.2362 34.2273 64.0599 35.4157 63.7532 36.765H60.0502C60.3722 35.4003 60.5562 34.212 60.6022 33.2C60.6635 32.1727 60.6942 31.1913 60.6942 30.256V28.462ZM49.2172 40.928H64.1672V48.978H49.2172V40.928ZM60.5332 43.803H52.8512V46.08H60.5332V43.803ZM86.7403 27.611H90.4663V49.185H86.7403V27.611ZM89.6613 35.385H93.3643V38.421H89.6613V35.385ZM73.9293 29.221H77.6093V34.235H80.9673V29.221H84.6473V44.286H73.9293V29.221ZM77.6093 37.087V41.342H80.9673V37.087H77.6093ZM94.5585 43.964H114.085V46.954H94.5585V43.964ZM102.447 40.169H106.15V45.16H102.447V40.169ZM96.6745 28.876H112.015V36.42H100.377V39.663H96.6975V33.545H108.335V31.797H96.6745V28.876ZM96.6975 38.237H112.498V41.181H96.6975V38.237ZM40.226 55.588H43.952V77.162H40.226V55.588ZM33.832 57.773H37.512C37.512 59.475 37.3663 61.085 37.075 62.603C36.7837 64.121 36.2777 65.547 35.557 66.881C34.8517 68.215 33.855 69.457 32.567 70.607C31.2943 71.7417 29.669 72.7843 27.691 73.735L25.759 70.814C27.829 69.8173 29.4467 68.7363 30.612 67.571C31.7927 66.4057 32.6207 65.0793 33.096 63.592C33.5867 62.1047 33.832 60.395 33.832 58.463V57.773ZM27.001 57.773H35.626V60.694H27.001V57.773ZM46.9862 66.996H66.5132V69.917H46.9862V66.996ZM49.3322 55.933H64.2132V62.12H53.0122V64.144H49.3552V59.544H60.5562V58.716H49.3322V55.933ZM49.3552 63.063H64.6042V65.846H49.3552V63.063ZM54.8982 64.397H58.6012V68.629H54.8982V64.397ZM49.1252 70.883H64.3512V77.185H60.6482V73.804H49.1252V70.883ZM81.5304 55.611H85.2334V77.185H81.5304V55.611ZM84.4054 63.776H88.1084V66.835H84.4054V63.776ZM68.0294 58.647H80.5184V61.568H68.0294V58.647ZM74.3084 62.488C75.3664 62.488 76.3094 62.718 77.1374 63.178C77.9807 63.6227 78.6477 64.236 79.1384 65.018C79.6291 65.8 79.8744 66.7047 79.8744 67.732C79.8744 68.744 79.6291 69.6487 79.1384 70.446C78.6477 71.228 77.9807 71.849 77.1374 72.309C76.3094 72.7537 75.3587 72.976 74.2854 72.976C73.2274 72.976 72.2767 72.7537 71.4334 72.309C70.5901 71.849 69.9231 71.228 69.4324 70.446C68.9417 69.6487 68.6964 68.744 68.6964 67.732C68.6964 66.7047 68.9417 65.8 69.4324 65.018C69.9231 64.236 70.5901 63.6227 71.4334 63.178C72.2767 62.718 73.2351 62.488 74.3084 62.488ZM74.2854 65.478C73.8867 65.478 73.5341 65.5623 73.2274 65.731C72.9207 65.8997 72.6754 66.1527 72.4914 66.49C72.3227 66.812 72.2384 67.2183 72.2384 67.709C72.2384 68.215 72.3227 68.6367 72.4914 68.974C72.6754 69.3113 72.9207 69.5643 73.2274 69.733C73.5341 69.9017 73.8867 69.986 74.2854 69.986C74.6841 69.986 75.0367 69.9017 75.3434 69.733C75.6501 69.5643 75.8877 69.3113 76.0564 68.974C76.2404 68.6367 76.3324 68.215 76.3324 67.709C76.3324 67.2183 76.2404 66.812 76.0564 66.49C75.8877 66.1527 75.6501 65.8997 75.3434 65.731C75.0367 65.5623 74.6841 65.478 74.2854 65.478ZM72.4224 56.002H76.1484V59.705H72.4224V56.002ZM103.701 55.588H107.427V77.162H103.701V55.588ZM97.3066 57.773H100.987C100.987 59.475 100.841 61.085 100.55 62.603C100.258 64.121 99.7523 65.547 99.0316 66.881C98.3263 68.215 97.3296 69.457 96.0416 70.607C94.7689 71.7417 93.1436 72.7843 91.1656 73.735L89.2336 70.814C91.3036 69.8173 92.9213 68.7363 94.0866 67.571C95.2673 66.4057 96.0953 65.0793 96.5706 63.592C97.0613 62.1047 97.3066 60.395 97.3066 58.463V57.773ZM90.4756 57.773H99.1006V60.694H90.4756V57.773Z" fill="white"/>
<path d="M146 131C148.401 131 150.348 132.946 150.348 135.348V146.652H161.652C164.054 146.652 166 148.599 166 151C166 153.401 164.054 155.348 161.652 155.348H150.348V166.652C150.348 169.054 148.401 171 146 171C143.599 171 141.652 169.054 141.652 166.652V155.348H130.348C127.946 155.348 126 153.401 126 151C126 148.599 127.946 146.652 130.348 146.652H141.652V135.348C141.652 132.946 143.599 131 146 131Z" fill="#FF592F"/>
<path d="M124.52 55.0371C121.471 44.6601 127.412 33.7764 137.789 30.7279V30.7279C152.317 26.4598 167.554 34.7771 171.822 49.3049L175.21 60.8377C176.388 64.8453 174.093 69.0487 170.086 70.2261L139.504 79.2102C135.497 80.3876 131.293 78.0932 130.116 74.0855L124.52 55.0371Z" fill="white"/>
<path d="M127.782 54.6418C125.154 45.696 130.276 36.3136 139.221 33.6855V33.6855C151.745 30.0062 164.881 37.1762 168.56 49.7002L171.891 61.0386C172.679 63.7223 171.143 66.537 168.459 67.3255L139.627 75.7957C136.765 76.6367 133.762 74.9979 132.921 72.1352L127.782 54.6418Z" fill="#FF39A5"/>
<path d="M139.223 51.4213C139.518 52.4232 138.944 53.4741 137.942 53.7684C136.94 54.0628 135.889 53.4892 135.595 52.4872C135.301 51.4853 135.874 50.4345 136.876 50.1401C137.878 49.8458 138.929 50.4194 139.223 51.4213Z" fill="black"/>
<path d="M145.443 49.594C145.738 50.596 145.164 51.6468 144.162 51.9411C143.16 52.2355 142.109 51.6619 141.815 50.66C141.521 49.658 142.094 48.6072 143.096 48.3129C144.098 48.0185 145.149 48.5921 145.443 49.594Z" fill="black"/>
<path fill-rule="evenodd" clip-rule="evenodd" d="M150.201 60.432C150.962 59.6067 151.02 58.9935 150.928 58.6808C150.836 58.3681 150.456 57.8838 149.37 57.6011C148.32 57.3278 146.875 57.3379 145.319 57.795C143.763 58.252 142.542 59.0253 141.807 59.8229C141.046 60.6481 140.988 61.2613 141.08 61.574C141.172 61.8867 141.552 62.371 142.639 62.6538C143.688 62.9271 145.134 62.917 146.689 62.4599C148.245 62.0028 149.466 61.2296 150.201 60.432ZM147.146 64.0149C150.724 62.9636 153.114 60.371 152.483 58.224C151.852 56.077 148.44 55.1888 144.862 56.24C141.284 57.2912 138.894 59.8839 139.525 62.0309C140.156 64.1778 143.568 65.0661 147.146 64.0149Z" fill="black"/>
<path d="M44.1059 105.915C48.1027 96.5733 58.916 92.2401 68.2581 96.2369V96.2369C81.337 101.832 87.4034 116.971 81.8078 130.05L65.8201 167.419C62.9351 174.163 55.1296 177.29 48.3861 174.405L32.871 167.768C25.7623 164.726 22.465 156.498 25.5064 149.389L44.1059 105.915Z" fill="white"/>
<path d="M46.706 107.58C50.1515 99.5262 59.4734 95.7907 67.5269 99.2363V99.2363C78.8017 104.06 84.0314 117.111 79.2077 128.385L62.6127 167.174C60.6143 171.845 55.2077 174.012 50.5366 172.013L33.1911 164.592C28.1134 162.42 25.7582 156.542 27.9306 151.465L46.706 107.58Z" fill="#3179FF"/>
<path d="M65.7845 119.757C65.3653 117.752 63.3172 114.32 58.4787 116.626" stroke="black" stroke-width="3" stroke-linecap="round"/>
<path d="M76.3599 124.281C75.9407 122.277 73.8927 118.844 69.0542 121.15" stroke="black" stroke-width="3" stroke-linecap="round"/>
<path d="M59.8399 128.028C60.6756 128.294 61.5325 128.764 62.4506 129.287L63.3902 129.822C63.8187 130.063 64.2815 130.282 64.7774 130.467L65.2834 130.64C66.7102 131.084 68.0189 131.414 69.0489 131.971C69.9532 132.459 70.456 133.023 70.5581 133.86L70.5727 134.032C70.6293 135.05 70.4889 135.899 70.3127 136.311C70.04 136.948 69.1716 137.535 67.4993 137.653C65.8855 137.768 63.8025 137.406 61.663 136.49C59.5235 135.575 57.8234 134.318 56.7916 133.072C55.7226 131.781 55.547 130.748 55.8197 130.11C55.9739 129.75 56.3891 129.178 57.0099 128.597L57.2883 128.349C57.9918 127.748 58.7882 127.692 59.8399 128.028Z" fill="white" stroke="black" stroke-width="2"/>
<circle cx="87.7531" cy="125.831" r="0.253771" transform="rotate(23.1628 87.7531 125.831)" fill="#D9D9D9"/>
<path d="M62.5973 129.146L58.4025 135.08" stroke="black" stroke-width="2"/>
<path d="M66.3303 130.743L65.0351 137.641" stroke="black" stroke-width="2"/>
<path d="M97.0911 132.785C93.6338 129.465 93.5228 123.97 96.8434 120.513V120.513C97.8046 119.512 98.5119 118.295 98.9059 116.965L100.658 111.049C101.383 108.598 102.562 106.305 104.134 104.289L105.454 102.595C107.381 100.124 110.073 98.3625 113.109 97.587V97.587C117.849 96.3762 122.878 97.701 126.407 101.09L137.841 112.072C141.288 115.382 141.399 120.86 138.088 124.306L117.964 145.26C115.874 147.435 112.418 147.505 110.242 145.416L97.0911 132.785Z" fill="white"/>
<path d="M99.3884 131.38C96.3406 128.453 96.2429 123.609 99.17 120.561V120.561C100.007 119.69 100.625 118.633 100.975 117.477L102.542 112.298C103.193 110.145 104.238 108.132 105.623 106.36L106.828 104.819C108.498 102.683 110.822 101.154 113.445 100.466V100.466C117.618 99.3718 122.06 100.526 125.171 103.515L136.579 114.471C138.688 116.497 138.756 119.85 136.73 121.96L116.349 143.181C115.111 144.47 113.061 144.512 111.772 143.273L99.3884 131.38Z" fill="#16F14F"/>
<path d="M111.936 118.221C112.703 117.87 113.628 118.142 114.075 118.881C114.556 119.677 114.301 120.713 113.505 121.194C112.765 121.642 111.819 121.453 111.303 120.785L111.936 118.221Z" fill="black" stroke="black"/>
<path d="M105.661 124.754C105.342 125.535 105.65 126.448 106.407 126.865C107.222 127.314 108.247 127.017 108.695 126.202C109.112 125.445 108.886 124.507 108.198 124.018L105.661 124.754Z" fill="black" stroke="black"/>
<path d="M118.461 122.307C117.078 122.89 114.896 124.846 117.235 128.004" stroke="black" stroke-width="3" stroke-linecap="round"/>
<path d="M145.648 105.049C147.984 108.778 154.873 112.049 160.22 104.659C163.772 99.7503 160.546 96.8155 156.315 95.2414C152.201 93.7103 144.584 92.2643 144.263 96.6431C144.18 97.7674 145.738 99.2055 150.394 100.959C163.963 106.068 169.293 103.267 167.311 97.1779C165.33 91.0891 160.018 81.0748 154.981 84.5206C149.943 87.9664 163.198 109.52 170.119 98.2351C177.04 86.9501 167.219 78.9779 165.11 80.321C163.002 81.6641 167.123 106.19 175.971 98.3017C179.393 94.8887 178.267 87.9467 177.276 84.9022" stroke="white" stroke-width="3" stroke-linecap="round"/>
<path d="M23.6043 87.9389C21.0002 88.9985 18.1831 92.9744 22.2455 97.1533C24.159 99.1217 25.8231 98.8357 27.1485 97.6151C30.3782 94.6409 29.9124 85.822 27.1232 89.2126C26.6922 89.7365 26.2053 90.4456 25.656 91.376C20.9463 99.3542 22.123 103.017 26.1734 102.44C30.2237 101.863 37.1113 99.6223 35.497 96.0725C33.8828 92.5226 18.8581 98.4925 25.1989 104.091C31.5398 109.689 37.6384 104.385 37.0252 102.91C36.412 101.435 20.5221 101.33 24.5129 107.766C26.2843 110.296 30.7775 110.352 32.8026 110.063" stroke="#16F14F" stroke-width="3" stroke-linecap="round"/>
<circle cx="84" cy="162" r="3" fill="white"/>
<circle cx="120" cy="82" r="3" fill="#FF592F"/>
<circle cx="170" cy="127" r="3" fill="#3179FF"/>
<defs>
<filter id="filter0_d_79_932" x="0" y="0" width="199" height="202" filterUnits="userSpaceOnUse" color-interpolation-filters="sRGB">
<feFlood flood-opacity="0" result="BackgroundImageFix"/>
<feColorMatrix in="SourceAlpha" type="matrix" values="0 0 0 0 0 0 0 0 0 0 0 0 0 0 0 0 0 0 127 0" result="hardAlpha"/>
<feOffset/>
<feGaussianBlur stdDeviation="5.5"/>
<feComposite in2="hardAlpha" operator="out"/>
<feColorMatrix type="matrix" values="0 0 0 0 0.56613 0 0 0 0 0.56613 0 0 0 0 0.56613 0 0 0 0.25 0"/>
<feBlend mode="normal" in2="BackgroundImageFix" result="effect1_dropShadow_79_932"/>
<feBlend mode="normal" in="SourceGraphic" in2="effect1_dropShadow_79_932" result="shape"/>
</filter>
</defs>
</svg>
