<svg xmlns="http://www.w3.org/2000/svg" width="256" height="256" viewBox="0 0 256 256" version="1.1"><path d="M 64.300 43.847 C 57.120 46.349, 51.566 50.430, 47.986 55.835 C 42.395 64.276, 42 67.287, 42.004 101.432 C 42.007 130.431, 42.137 132.712, 43.950 135.686 C 45.019 137.439, 46.805 139.360, 47.920 139.957 C 49.035 140.554, 55.696 141.480, 62.723 142.015 C 69.751 142.550, 84.050 143.652, 94.500 144.463 C 104.950 145.275, 123.400 146.682, 135.500 147.589 C 147.600 148.496, 158.063 149.690, 158.750 150.241 C 159.589 150.915, 160 154.308, 160 160.551 C 160 171.974, 159.054 173.420, 152.105 172.612 C 149.572 172.318, 138.950 171.590, 128.500 170.995 C 98.015 169.257, 98 169.253, 98 161.448 C 98 157.679, 97.673 156.971, 95.750 156.575 C 91.974 155.798, 62.093 153.796, 52 153.643 L 42.500 153.500 42.500 172 C 42.500 188.788, 42.698 190.928, 44.637 195.122 C 47.705 201.757, 53.321 207.519, 59.839 210.720 L 65.500 213.500 128 213.500 L 190.500 213.500 196.161 210.720 C 202.679 207.519, 208.295 201.757, 211.363 195.122 C 213.416 190.682, 213.500 189.135, 213.500 155.770 L 213.500 121.039 210.343 117.882 C 207.862 115.401, 206.148 114.640, 202.343 114.333 C 184.011 112.854, 129.724 108.780, 116.500 107.892 C 95.717 106.495, 96 106.672, 96 95.048 C 96 83.631, 96.793 82.648, 105.386 83.416 C 108.749 83.717, 118.700 84.430, 127.500 85 C 151.658 86.566, 155.912 87.051, 156.722 88.328 C 157.130 88.973, 157.697 91.746, 157.982 94.491 L 158.500 99.482 163.091 100.135 C 165.616 100.495, 174.841 101.301, 183.591 101.927 C 192.341 102.553, 202.219 103.321, 205.542 103.635 C 214.321 104.463, 214.265 104.602, 213.848 83.280 C 213.514 66.209, 213.389 65.274, 210.720 59.839 C 207.519 53.321, 201.757 47.705, 195.122 44.637 C 190.581 42.538, 189.438 42.496, 130 42.267 C 73.813 42.051, 69.129 42.164, 64.300 43.847" stroke="none" fill="#040604" fill-rule="evenodd"/><path d="M 31.762 1.942 C 17.412 6.529, 5.816 18.437, 1.585 32.932 C 0.190 37.711, -0 49.126, 0 128 C 0 206.874, 0.190 218.289, 1.585 223.068 C 5.866 237.734, 17.491 249.562, 32.091 254.105 C 37.875 255.906, 42.653 256, 128 256 C 213.347 256, 218.125 255.906, 223.909 254.105 C 238.140 249.676, 250.306 237.537, 254.082 224 C 254.772 221.525, 255.711 219.072, 256.169 218.550 C 257.251 217.314, 257.258 35.722, 256.176 36.391 C 255.723 36.671, 254.784 34.682, 254.089 31.970 C 251.643 22.427, 242.745 11.408, 232.875 5.701 C 222.724 -0.169, 225.789 -0.005, 127.568 0.054 C 43.050 0.104, 37.146 0.221, 31.762 1.942 M 0.479 128 C 0.479 178.325, 0.601 198.913, 0.750 173.750 C 0.898 148.588, 0.898 107.413, 0.750 82.250 C 0.601 57.088, 0.479 77.675, 0.479 128 M 64.300 43.847 C 57.120 46.349, 51.566 50.430, 47.986 55.835 C 42.395 64.276, 42 67.287, 42.004 101.432 C 42.007 130.431, 42.137 132.712, 43.950 135.686 C 45.019 137.439, 46.805 139.360, 47.920 139.957 C 49.035 140.554, 55.696 141.480, 62.723 142.015 C 69.751 142.550, 84.050 143.652, 94.500 144.463 C 104.950 145.275, 123.400 146.682, 135.500 147.589 C 147.600 148.496, 158.063 149.690, 158.750 150.241 C 159.589 150.915, 160 154.308, 160 160.551 C 160 171.974, 159.054 173.420, 152.105 172.612 C 149.572 172.318, 138.950 171.590, 128.500 170.995 C 98.015 169.257, 98 169.253, 98 161.448 C 98 157.679, 97.673 156.971, 95.750 156.575 C 91.974 155.798, 62.093 153.796, 52 153.643 L 42.500 153.500 42.500 172 C 42.500 188.788, 42.698 190.928, 44.637 195.122 C 47.705 201.757, 53.321 207.519, 59.839 210.720 L 65.500 213.500 128 213.500 L 190.500 213.500 196.161 210.720 C 202.679 207.519, 208.295 201.757, 211.363 195.122 C 213.416 190.682, 213.500 189.135, 213.500 155.770 L 213.500 121.039 210.343 117.882 C 207.862 115.401, 206.148 114.640, 202.343 114.333 C 184.011 112.854, 129.724 108.780, 116.500 107.892 C 95.717 106.495, 96 106.672, 96 95.048 C 96 83.631, 96.793 82.648, 105.386 83.416 C 108.749 83.717, 118.700 84.430, 127.500 85 C 151.658 86.566, 155.912 87.051, 156.722 88.328 C 157.130 88.973, 157.697 91.746, 157.982 94.491 L 158.500 99.482 163.091 100.135 C 165.616 100.495, 174.841 101.301, 183.591 101.927 C 192.341 102.553, 202.219 103.321, 205.542 103.635 C 214.321 104.463, 214.265 104.602, 213.848 83.280 C 213.514 66.209, 213.389 65.274, 210.720 59.839 C 207.519 53.321, 201.757 47.705, 195.122 44.637 C 190.581 42.538, 189.438 42.496, 130 42.267 C 73.813 42.051, 69.129 42.164, 64.300 43.847" stroke="none" fill="#04e364" fill-rule="evenodd"/></svg>