<svg xmlns="http://www.w3.org/2000/svg" width="322" height="437" fill="none"><path fill="#FF39A5" d="M155.917 59.03c5.398-17.56 24.009-27.42 41.569-22.022 24.585 7.556 38.388 33.612 30.832 58.196l-6.841 22.257c-1.619 5.268-7.203 8.226-12.471 6.607l-54.052-16.614c-7.025-2.159-10.969-9.603-8.81-16.627l9.773-31.796Z"/><path fill="#000" fill-rule="evenodd" d="M190.52 67.166a1.654 1.654 0 0 1 .543-2.275c3.401-2.089 6.339-2.105 8.615-.845 2.129 1.18 3.334 3.292 3.83 4.828a1.654 1.654 0 1 1-3.149 1.016c-.332-1.03-1.122-2.305-2.284-2.95-1.015-.561-2.665-.835-5.28.77a1.654 1.654 0 0 1-2.275-.544ZM166.886 62.947a1.655 1.655 0 0 1 .544-2.276c3.401-2.088 6.339-2.105 8.615-.844 2.129 1.179 3.334 3.291 3.83 4.828a1.655 1.655 0 1 1-3.149 1.016c-.332-1.03-1.122-2.306-2.284-2.95-1.015-.562-2.666-.836-5.28.77a1.655 1.655 0 0 1-2.276-.544Z" clip-rule="evenodd"/><circle cx="190.5" cy="186.5" r=".5" fill="#D9D9D9"/><path fill="#3179FF" d="M64.431 163.929c-5.209-13.969 1.894-29.516 15.863-34.725 19.558-7.292 41.324 2.651 48.616 22.208l25.527 68.463c2.778 7.45-1.01 15.742-8.46 18.52l-33.726 12.575c-7.45 2.778-15.742-1.01-18.52-8.46l-29.3-78.581Z"/><path fill="#000" fill-rule="evenodd" d="M88.753 162.97a2.16 2.16 0 0 1-1.247-2.788c1.86-4.867 4.887-7.22 8.246-7.725 3.141-.473 6.069.755 7.804 1.951a2.16 2.16 0 0 1-2.451 3.556c-1.164-.802-2.996-1.494-4.71-1.236-1.499.225-3.425 1.254-4.854 4.995a2.16 2.16 0 0 1-2.788 1.247ZM107.282 156.061a2.16 2.16 0 0 1-1.247-2.788c1.859-4.867 4.888-7.22 8.246-7.725 3.141-.473 6.069.755 7.804 1.951a2.16 2.16 0 1 1-2.451 3.556c-1.164-.802-2.995-1.494-4.71-1.236-1.499.225-3.425 1.254-4.854 4.995a2.16 2.16 0 0 1-2.788 1.247Z" clip-rule="evenodd"/><path fill="#fff" d="M116.928 183.154c7.823-2.917 12.972-8.482 11.5-12.428-.384-1.033-1.398-2.426-2.755-3.68a15.216 15.216 0 0 0-.819-.706c-3.176-2.542-7.082-.113-10.583 1.958a15.213 15.213 0 0 1-4.689 1.8c-4.195.862-9.05 1.684-9.717 5.914-.037.232-.067.462-.093.691-.204 1.837-.058 3.553.327 4.586 1.472 3.947 9.006 4.781 16.829 1.865Z"/><path fill="#000" fill-rule="evenodd" d="M124.05 175.37c1.841-1.989 1.835-3.225 1.68-3.638-.167-.45-.832-1.481-2.012-2.572l1.927-2.084-1.927 2.084a11.858 11.858 0 0 0-.664-.572l1.8-2.248c.284.228.558.464.819.706 1.357 1.254 2.371 2.647 2.755 3.68 1.472 3.946-3.677 9.511-11.5 12.428-7.823 2.916-15.357 2.082-16.829-1.865-.385-1.033-.531-2.749-.327-4.586.025-.229.056-.459.093-.691.641-4.063 5.144-4.981 9.216-5.812l.501-.102a15.213 15.213 0 0 0 4.689-1.8l.266-.157c3.432-2.034 7.221-4.279 10.317-1.801l-1.8 2.248c-.601-.481-1.282-.623-2.535-.243-1.378.417-2.864 1.297-4.676 2.369l-.106.062a18.067 18.067 0 0 1-5.576 2.142l-.405.084c-2.061.422-3.789.776-5.147 1.404-1.306.603-1.768 1.221-1.9 2.055a13.65 13.65 0 0 0-.075.56c-.177 1.597-.005 2.812.163 3.262.154.413.958 1.352 3.652 1.65 2.511.278 5.893-.143 9.473-1.477 3.58-1.335 6.413-3.232 8.128-5.086Z" clip-rule="evenodd"/><path fill="#000" fill-rule="evenodd" d="m110.303 183.897-2.675-11.295 2.802-.664 2.675 11.295-2.802.664ZM121.309 180.356l-6.722-9.786 2.374-1.63 6.722 9.786-2.374 1.63Z" clip-rule="evenodd"/><path fill="#16F14F" d="M179.096 289.428c5.872-7.902 17.038-9.549 24.94-3.677"/><path fill="#000" fill-rule="evenodd" d="M198.804 312.082a2.138 2.138 0 0 1 .99-2.856c4.639-2.25 8.418-1.896 11.182.015 2.587 1.788 3.866 4.658 4.308 6.696a2.136 2.136 0 1 1-4.178.904c-.296-1.367-1.148-3.108-2.56-4.084-1.234-.852-3.32-1.415-6.886.315a2.138 2.138 0 0 1-2.856-.99ZM181.416 292.886a2.139 2.139 0 0 1 2.421-1.81c5.103.737 8.034 3.149 9.252 6.282 1.139 2.93.59 6.024-.187 7.959a2.138 2.138 0 0 1-3.967-1.593c.522-1.298.792-3.217.17-4.817-.543-1.397-1.956-3.033-5.879-3.6a2.137 2.137 0 0 1-1.81-2.421ZM186.922 328.087a4.274 4.274 0 0 1-5.126-2.708l-2.848-8.064c-1.295-3.669 2.587-7.021 6.028-5.203l11.113 5.871c3.44 1.818 2.86 6.914-.901 7.912l-8.266 2.192Zm-2.439-3.657c.247.7.991 1.093 1.709.902l8.265-2.192c1.254-.333 1.447-2.031.3-2.637l-11.112-5.871c-1.147-.606-2.441.511-2.01 1.734l2.848 8.064Z" clip-rule="evenodd"/><circle cx="119" cy="19" r="6" fill="#3179FF"/><circle cx="167" cy="386" r="6" fill="#3179FF"/><circle cx="309" cy="265" r="6" fill="#3179FF"/><circle cx="266" cy="169" r="6" fill="#FF592F"/><circle cx="31" cy="67" r="6" fill="#16F14F"/><circle cx="66" cy="283" r="6" fill="#FF39A5"/><circle cx="203" cy="219" r="6" fill="#FF39A5"/><circle cx="31" cy="207" r="6" fill="#fff"/><circle cx="270" cy="27" r="6" fill="#fff"/><ellipse cx="275.284" cy="70.493" fill="#FFDA70" rx="23" ry="10.5" transform="rotate(-33.548 275.284 70.493)"/><path fill="#FFDA70" d="M297.897 99.894c.143 2.305-2.263 3.9-4.331 2.871L259.45 85.792c-2.068-1.029-2.246-3.91-.321-5.186l31.757-21.059c1.925-1.276 4.509.01 4.652 2.315l2.359 38.032Z"/><ellipse cx="274.455" cy="69.243" fill="#EBBC33" rx="20" ry="7" transform="rotate(-33.548 274.455 69.243)"/><path stroke="#FF592F" stroke-linecap="round" stroke-width="3" d="M275.662 70.042c-5.281-7.145-20.807-20.266-40.662-15.584"/><path stroke="#3179FF" stroke-linecap="round" stroke-width="3" d="M279.331 70c-10.333-15.5-24.8-50.8 0-68"/><path stroke="#16F14F" stroke-dasharray="4 4" stroke-linecap="round" stroke-width="3" d="m228 35.705 25.691 11.978c.286.133.556.3.802.496l22.812 18.17"/><path fill="#16F14F" d="M250.095 14.988a1 1 0 0 1 1.53.881l-.246 7.502a1 1 0 0 1-1.498.834l-6.119-3.523a1 1 0 0 1-.031-1.714l6.364-3.98Z"/><path fill="#FF39A5" d="M244.061 70.381a1 1 0 0 1 1.073-1.4l7.405 1.225a1 1 0 0 1 .631 1.595l-4.294 5.605a1 1 0 0 1-1.704-.194l-3.111-6.83Z"/><g opacity=".97"><ellipse cx="56.269" cy="383.532" fill="#FFDA70" rx="23" ry="10.5" transform="rotate(48.287 56.269 383.532)"/><path fill="#FFDA70" d="M30.378 410.091c-2.262.469-4.182-1.686-3.458-3.878l11.956-36.181c.725-2.193 3.552-2.779 5.088-1.055l25.356 28.445c1.536 1.724.63 4.465-1.63 4.933l-37.312 7.736Z"/><ellipse cx="57.389" cy="382.534" fill="#EBBC33" rx="20" ry="7" transform="rotate(48.287 57.389 382.534)"/><path stroke="#FF592F" stroke-linecap="round" stroke-width="3" d="M56.77 383.842c6.322-6.242 17.104-23.473 9.65-42.463"/><path stroke="#3179FF" stroke-linecap="round" stroke-width="3" d="M57.332 387.468c13.875-12.43 46.762-31.763 67.31-9.657"/><path stroke="#16F14F" stroke-dasharray="4 4" stroke-linecap="round" stroke-width="3" d="m83.989 331.787-8.208 27.132a3.996 3.996 0 0 1-.377.864l-14.746 25.161"/><path fill="#16F14F" d="M107.633 350.716a1 1 0 0 1-.654 1.639l-7.46.822a1 1 0 0 1-1.039-1.365l2.618-6.556a1 1 0 0 1 1.693-.275l4.842 5.735Z"/><path fill="#FF39A5" d="M51.945 352.61a1 1 0 0 1 1.54.864l-.163 7.504a1 1 0 0 1-1.489.85l-6.157-3.454a1 1 0 0 1-.05-1.714l6.319-4.05Z"/></g><path stroke="#000" stroke-linecap="round" stroke-linejoin="round" stroke-width="3" d="M177.071 81.328c1.65 5.838 8.032 14.856 20.363 4.223"/></svg>